<svg width="400" height="600" viewBox="0 0 400 600" fill="none" xmlns="http://www.w3.org/2000/svg">
<path fill-rule="evenodd" clip-rule="evenodd" d="M139.072 284.465L135.027 278.517L135.302 278.078C135.302 278.078 133.878 276.833 133.874 276.827C133.665 276.542 132.673 278.202 132.435 278.593C132.109 279.126 131.783 279.661 131.458 280.195C130.551 281.683 129.643 283.171 128.736 284.66C127.548 286.608 126.359 288.557 125.171 290.507C123.772 292.801 122.374 295.095 120.975 297.389L116.361 304.954C114.756 307.588 113.151 310.221 111.546 312.854C109.943 315.481 108.341 318.11 106.739 320.737C105.211 323.243 103.683 325.747 102.156 328.253C100.774 330.52 99.3927 332.786 98.0112 335.052C96.846 336.963 95.6809 338.874 94.5157 340.784C93.6386 342.223 92.7614 343.661 91.8843 345.1C91.3667 345.948 90.8492 346.797 90.3317 347.647C90.2206 347.828 90.1109 348.009 89.9998 348.191C90.1431 348.315 90.2864 348.441 90.4297 348.565L140.006 285.176L139.072 284.465Z" fill="#242628"/>
<path fill-rule="evenodd" clip-rule="evenodd" d="M90.4402 348.578L140.431 285.072L135.412 281.014L90.1639 348.338C90.256 348.419 90.3481 348.498 90.4402 348.578Z" fill="#414344"/>
<path fill-rule="evenodd" clip-rule="evenodd" d="M140.073 286.639L128.579 300.127L135.412 281.014L140.073 286.639Z" fill="#111014"/>
<path fill-rule="evenodd" clip-rule="evenodd" d="M177.688 319.127C177.372 318.851 177.075 318.589 176.859 318.376C175.476 317.015 174.018 315.696 172.61 314.421C170.852 312.829 169.034 311.185 167.378 309.47L135.482 276.281L134.703 276.226C134.491 276.318 134.28 276.411 134.072 276.508C133.729 276.667 133.447 276.933 133.251 277.256L132.615 278.299L132.938 278.41L159.732 313.224C161.162 315.079 162.584 316.939 164.008 318.798C165.159 320.303 166.311 321.807 167.464 323.31C167.665 323.57 167.944 324.01 168.267 324.52C169.822 326.971 172.425 331.071 175.996 330.908C177.424 330.842 178.8 330.092 180.084 328.681C181.151 327.509 181.654 326.248 181.579 324.936C181.439 322.423 179.182 320.44 177.688 319.127Z" fill="#242628"/>
<path fill-rule="evenodd" clip-rule="evenodd" d="M177.205 313.662C177.048 312.422 170.734 309.09 170.734 309.09C170.175 308.51 169.617 307.93 169.058 307.349C167.618 305.849 166.177 304.349 164.737 302.851L158.81 296.683C156.648 294.435 154.487 292.185 152.325 289.936C150.325 287.854 148.325 285.774 146.327 283.692C144.837 282.143 143.347 280.593 141.858 279.043C141.16 278.317 140.551 277.451 139.684 276.913C139.187 276.603 138.647 276.617 138.077 276.561C137.387 276.492 136.696 276.425 136.004 276.358C135.764 276.334 135.153 276.155 134.927 276.253C134.915 276.258 134.769 276.371 134.756 276.375C135.396 277.236 169.922 323.727 172.625 325.851C175.355 327.994 178.567 327.745 181.575 324.939C183.724 322.936 177.363 314.902 177.205 313.662Z" fill="#414344"/>
<path fill-rule="evenodd" clip-rule="evenodd" d="M179.786 324.812C179.786 324.812 179.529 328.945 174.963 327.266C170.396 325.588 159.022 305.934 155.795 300.791C152.567 295.649 148.388 286.213 152.325 289.936C158.186 295.478 175.168 317.224 176.854 318.379C178.541 319.534 179.786 324.812 179.786 324.812Z" fill="#111014"/>
<path fill-rule="evenodd" clip-rule="evenodd" d="M134.137 276.478C134.147 276.504 134.299 276.241 134.868 276.278C135.014 276.3 135.173 276.436 135.263 276.513C135.369 276.602 135.483 276.707 135.606 276.829C135.853 277.071 136.109 277.352 136.381 277.685C137.457 279.02 138.898 280.973 140.622 283.318C144.059 288.02 148.641 294.29 153.224 300.559C157.799 306.836 162.422 313.077 165.937 317.722C167.689 320.049 169.179 321.964 170.259 323.275C170.802 323.929 171.235 324.436 171.549 324.765C171.859 325.098 172.04 325.261 172.04 325.261C172.04 325.261 171.853 325.104 171.534 324.78C171.208 324.461 170.759 323.965 170.197 323.328C169.075 322.049 167.526 320.179 165.701 317.906C162.057 313.356 157.349 307.172 152.649 300.987C150.303 297.891 147.958 294.794 145.759 291.891C144.663 290.436 143.585 289.052 142.593 287.703C141.609 286.35 140.679 285.073 139.821 283.893C138.145 281.505 136.819 279.468 135.849 278.088C135.613 277.743 135.403 277.433 135.219 277.164C135.043 276.912 134.865 276.621 134.767 276.558C134.619 276.459 134.428 276.46 134.317 276.465C134.2 276.466 134.137 276.478 134.137 276.478Z" fill="#595C5E"/>
<path fill-rule="evenodd" clip-rule="evenodd" d="M135.193 281.342C135.193 281.342 135.156 281.674 134.922 282.186C134.708 282.711 134.218 283.363 133.656 284.234C132.512 285.961 130.876 288.428 128.912 291.39C126.924 294.333 124.604 297.767 122.117 301.447C119.62 305.119 116.955 309.036 114.292 312.952C108.957 320.782 103.623 328.611 99.6214 334.483C95.5996 340.34 92.917 344.244 92.917 344.244C92.917 344.244 95.5192 340.287 99.424 334.349C103.349 328.426 108.583 320.531 113.818 312.635C116.438 308.688 119.059 304.742 121.515 301.043C123.984 297.35 126.287 293.905 128.262 290.952C130.262 288.016 131.928 285.569 133.095 283.857C133.691 283.009 134.11 282.309 134.513 281.911C134.899 281.502 135.193 281.342 135.193 281.342Z" fill="#595C5E"/>
<path fill-rule="evenodd" clip-rule="evenodd" d="M253.149 257.799L252.867 257.619C251.492 256.772 250.757 257.09 248.301 257.271C246.333 257.416 245.263 257.223 244.425 258.519C244.301 258.709 244.218 258.943 244.118 259.146C243.554 260.306 242.99 261.465 242.427 262.624C241.496 264.537 240.564 266.449 239.633 268.362C238.472 270.747 237.312 273.131 236.151 275.517C234.897 278.094 233.642 280.67 232.388 283.248C231.177 285.736 229.965 288.224 228.755 290.712C227.724 292.831 226.692 294.949 225.662 297.067C224.947 298.536 224.232 300.004 223.517 301.473C223.255 302.01 222.995 302.548 222.733 303.086C221.263 305.505 219.788 307.922 218.313 310.34C217.108 312.312 215.903 314.286 214.703 316.261C214.484 316.619 214.111 317.141 213.68 317.745C211.57 320.696 208.382 325.157 209.482 328.697C209.959 330.227 211.151 331.346 213.028 332.025C213.757 332.289 214.476 332.406 215.165 332.374C218.943 332.2 220.7 327.874 221.862 325.012C222.055 324.535 222.238 324.086 222.397 323.74C223.38 321.613 224.299 319.424 225.189 317.308C226.305 314.654 227.458 311.91 228.732 309.296L253.526 258.208C253.4 258.072 253.274 257.935 253.149 257.799Z" fill="#242628"/>
<path fill-rule="evenodd" clip-rule="evenodd" d="M296.823 339.838L251.996 261.368L247.613 269.1L296.563 339.97C296.649 339.926 296.735 339.882 296.823 339.838Z" fill="#242628"/>
<path fill-rule="evenodd" clip-rule="evenodd" d="M251.369 261.406L247.153 268.895L265.519 295.034L251.369 261.406Z" fill="#111014"/>
<path fill-rule="evenodd" clip-rule="evenodd" d="M297 339.75C296.216 338.276 295.434 336.803 294.65 335.329C292.629 331.525 290.607 327.721 288.585 323.919C285.813 318.704 283.041 313.49 280.27 308.275C277.237 302.569 274.204 296.863 271.172 291.157C268.367 285.88 265.561 280.602 262.756 275.325C260.667 271.395 258.579 267.465 256.49 263.537C255.342 261.378 253.75 257.45 252.307 257.277C251.103 256.934 250.164 259.938 249.743 260.751L247.287 265.489L243.559 272.679C243.53 272.736 238.321 282.223 238.33 282.286L238.634 288.899L251.135 263.123C251.28 262.825 251.699 262.811 251.866 263.097L296.642 339.931C296.761 339.871 296.88 339.81 297 339.75Z" fill="#414344"/>
<path fill-rule="evenodd" clip-rule="evenodd" d="M237.961 282.094C237.961 282.094 241.42 275.815 244.879 269.537C245.743 267.967 246.608 266.397 247.418 264.926C248.224 263.456 248.931 262.057 249.538 260.858C250.148 259.661 250.652 258.656 251.089 258.001C251.307 257.675 251.516 257.438 251.702 257.332C251.887 257.221 252.013 257.263 252.01 257.257C252.013 257.263 251.887 257.225 251.706 257.34C251.528 257.45 251.327 257.691 251.121 258.022C250.706 258.685 250.234 259.703 249.662 260.918C249.092 262.136 248.427 263.557 247.664 265.056C246.895 266.551 246.075 268.144 245.255 269.736L238.695 282.483L237.961 282.094Z" fill="#595C5E"/>
<mask id="mask0_11_1211" style="mask-type:luminance" maskUnits="userSpaceOnUse" x="157" y="247" width="82" height="83">
<path d="M228.851 259.752C235.615 266.731 237.989 274.952 238.47 285.402C238.852 293.685 236.193 301.528 232.649 307.963C225.939 320.147 215.979 329.015 201.096 329.701C178.353 330.749 158.999 313.098 157.951 290.355C156.904 267.611 174.554 248.256 197.298 247.209C197.94 247.18 198.582 247.165 199.219 247.165C210.764 247.165 221.31 251.97 228.851 259.752Z" fill="white" fill-opacity="0.94"/>
</mask>
<g mask="url(#mask0_11_1211)">
<path fill-rule="evenodd" clip-rule="evenodd" d="M228.851 259.752C235.615 266.731 237.989 274.952 238.47 285.402C238.852 293.685 236.193 301.528 232.649 307.963C225.939 320.147 215.979 329.015 201.096 329.701C178.353 330.749 158.999 313.098 157.951 290.355C156.904 267.611 174.554 248.256 197.298 247.209C197.94 247.18 198.582 247.165 199.219 247.165C210.764 247.165 221.31 251.97 228.851 259.752Z" fill="#040404"/>
</g>
<path fill-rule="evenodd" clip-rule="evenodd" d="M217.634 276.468C218.327 276.45 218.993 276.551 219.617 276.769C222.524 277.781 223.8 281.019 224.301 282.86C225.344 286.684 225.037 291.472 223.462 295.998C221.307 302.185 216.028 308.838 210.488 308.98C209.796 308.997 209.128 308.896 208.505 308.679C202.965 306.75 202.032 296.996 204.661 289.45C206.815 283.263 212.094 276.61 217.634 276.468Z" fill="#111014"/>
<path fill-rule="evenodd" clip-rule="evenodd" d="M219.386 273.062C220.226 273.04 221.038 273.162 221.795 273.427C225.327 274.656 226.877 278.591 227.486 280.827C228.752 285.472 228.381 291.29 226.466 296.789C223.849 304.304 217.436 312.387 210.705 312.56C209.864 312.582 209.053 312.459 208.296 312.194C201.565 309.851 200.432 298.002 203.625 288.834C206.242 281.317 212.655 273.234 219.386 273.062ZM208.132 324.621C219.56 324.327 230.564 314.579 235.514 300.363C238.288 292.397 238.742 284.07 236.793 276.917C234.641 269.027 229.635 263.188 223.058 260.897C220.855 260.131 218.535 259.773 216.164 259.833C204.736 260.126 193.732 269.875 188.782 284.09C182.665 301.658 188.136 318.994 201.239 323.556C203.442 324.322 205.761 324.68 208.132 324.621Z" fill="#111014"/>
<path fill-rule="evenodd" clip-rule="evenodd" d="M219.263 274.216L219.42 274.21C220.154 274.191 220.858 274.298 221.512 274.526C224.655 275.619 226.07 279.249 226.634 281.316C227.854 285.791 227.487 291.415 225.632 296.745C223.146 303.881 217.122 311.622 210.852 311.91L210.694 311.916C209.961 311.936 209.258 311.829 208.602 311.6C205.811 310.629 203.869 307.64 203.134 303.181C202.44 298.962 202.943 293.803 204.483 289.382C206.967 282.245 212.993 274.505 219.263 274.216ZM210.933 313.702C216.334 313.452 223.697 307.751 227.324 297.335C229.297 291.671 229.675 285.66 228.362 280.844C227.706 278.438 226.019 274.197 222.101 272.831C221.244 272.533 220.326 272.394 219.375 272.418L219.182 272.425C213.781 272.673 206.418 278.375 202.789 288.791C201.131 293.553 200.612 298.903 201.365 303.472C202.212 308.609 204.573 312.096 208.012 313.294C208.874 313.594 209.792 313.733 210.74 313.708L210.933 313.702ZM215.796 260.996L216.198 260.981C218.461 260.923 220.673 261.265 222.773 261.997C229.069 264.188 233.867 269.804 235.94 277.404C237.842 284.385 237.394 292.523 234.679 300.321C229.93 313.96 219.42 323.461 208.526 323.962L208.121 323.977C205.856 324.035 203.644 323.693 201.545 322.962C195.482 320.85 190.909 315.78 188.67 308.682C186.401 301.492 186.744 292.952 189.64 284.638C194.39 270.998 204.902 261.497 215.796 260.996ZM208.607 325.753C220.227 325.218 231.384 315.234 236.372 300.91C239.205 292.773 239.666 284.258 237.669 276.932C235.438 268.754 230.225 262.693 223.364 260.303C221.059 259.5 218.632 259.126 216.152 259.189L215.712 259.205C204.093 259.74 192.936 269.723 187.946 284.047C184.926 292.727 184.575 301.666 186.959 309.221C189.374 316.872 194.345 322.352 200.956 324.655C203.258 325.458 205.685 325.832 208.166 325.769C208.314 325.765 208.461 325.76 208.607 325.753Z" fill="#595C5E"/>
<path fill-rule="evenodd" clip-rule="evenodd" d="M217.794 275.691C218.555 275.672 219.287 275.783 219.971 276.021C223.163 277.132 224.563 280.686 225.113 282.706C226.257 286.904 225.921 292.159 224.192 297.127C221.826 303.919 216.031 311.221 209.951 311.376C209.191 311.397 208.459 311.286 207.774 311.047C201.693 308.929 200.669 298.225 203.554 289.94C205.919 283.149 211.714 275.847 217.794 275.691ZM207.627 322.273C217.952 322.007 227.893 313.201 232.365 300.358C234.873 293.159 235.282 285.636 233.522 279.173C231.577 272.045 227.054 266.77 221.112 264.7C219.122 264.007 217.025 263.684 214.884 263.74C204.56 264.004 194.617 272.811 190.145 285.655C184.617 301.527 189.56 317.189 201.399 321.311C203.389 322.004 205.485 322.327 207.627 322.273Z" fill="#17191A"/>
<path fill-rule="evenodd" clip-rule="evenodd" d="M208.62 315.504C216.613 315.299 224.308 308.481 227.77 298.539C229.711 292.967 230.029 287.144 228.665 282.141C227.16 276.622 223.659 272.539 219.058 270.937C217.518 270.402 215.896 270.15 214.237 270.193C206.246 270.399 198.549 277.216 195.087 287.158C190.81 299.444 194.636 311.568 203.799 314.76C205.34 315.296 206.962 315.546 208.62 315.504Z" fill="#DC3E38"/>
<path fill-rule="evenodd" clip-rule="evenodd" d="M189.087 325.496C188.905 324.9 187.267 320.699 187.267 320.699C186.558 317.973 184.59 313.823 183.818 311.171C182.847 307.839 181.843 304.393 181.015 300.974L165.548 236.595C165.393 236.357 165.25 236.111 165.117 235.861L164.005 235.253L162.861 235.542L156.043 238.703L172.326 299.585C172.874 302.962 173.416 306.339 173.957 309.716C174.399 312.464 174.84 315.214 175.283 317.963C175.368 318.477 175.444 319.254 175.533 320.151C176.067 325.525 176.959 334.518 182.701 334.253C183.346 334.224 185.028 335.164 185.727 334.879C190.837 332.795 190.307 329.531 189.087 325.496Z" fill="#414344"/>
<path fill-rule="evenodd" clip-rule="evenodd" d="M165.563 245.183C165.563 245.183 179.088 300.816 181.721 309.794C184.353 318.772 193.742 336.983 182.734 334.917C178.368 334.098 176.716 332.93 174.105 320.637C172.896 314.944 162.077 263.013 162.077 263.013L165.563 245.183Z" fill="#242628"/>
<path fill-rule="evenodd" clip-rule="evenodd" d="M163.262 268.783L172.347 312.25L166.793 251.917L165.753 245.958L163.262 268.783Z" fill="#111014"/>
<path fill-rule="evenodd" clip-rule="evenodd" d="M221.098 322.497C221.098 322.497 218.273 325.048 215.319 326.055C211.67 327.299 209.489 328.448 209.489 328.448C209.489 328.448 209.487 330.179 211.47 331.263C213.453 332.346 216.556 330.792 217.168 330.151C219.266 327.96 221.098 322.497 221.098 322.497Z" fill="#111014"/>
<path fill-rule="evenodd" clip-rule="evenodd" d="M163.608 235C163.278 235.029 162.946 235.057 162.617 235.099C162.17 235.194 161.72 235.268 161.266 235.308L155.636 236.805C155.153 236.934 154.809 237.364 154.793 237.865L150.504 365.535C150.726 365.524 150.951 365.522 151.179 365.528L166.386 249.305L164.067 235.108C163.92 235.06 163.76 235.038 163.608 235Z" fill="#242628"/>
<path fill-rule="evenodd" clip-rule="evenodd" d="M164.973 235.588L164.787 235.402C164.508 235.268 164.223 235.152 163.929 235.064L150.937 365.527C151.017 365.527 151.099 365.53 151.181 365.533L166.668 245.924L165.489 236.503C165.299 236.208 165.122 235.905 164.973 235.588Z" fill="#414344"/>
<path fill-rule="evenodd" clip-rule="evenodd" d="M202.949 298.452L208.296 306.515C208.576 306.937 209.124 307.086 209.578 306.863L218.27 302.613C218.53 302.486 218.723 302.252 218.799 301.971L222.367 288.833C222.443 288.552 222.395 288.254 222.234 288.011L216.887 279.949C216.607 279.528 216.059 279.379 215.605 279.601L206.913 283.851C206.653 283.979 206.46 284.213 206.384 284.492L202.816 297.631C202.74 297.911 202.788 298.211 202.949 298.452Z" fill="#111014"/>
<path fill-rule="evenodd" clip-rule="evenodd" d="M206.109 286.804C209.705 287.604 213.831 279.984 208.851 277.999C207.37 277.408 205.97 277.812 204.885 278.945C203.447 280.446 202.879 283.082 203.939 284.946C204.571 286.059 205.328 286.63 206.109 286.804Z" fill="#FFFFFE"/>
<path fill-rule="evenodd" clip-rule="evenodd" d="M212.615 285.4C214.169 285.745 215.951 282.453 213.8 281.595C213.16 281.341 212.555 281.515 212.086 282.004C211.464 282.653 211.22 283.792 211.678 284.598C211.951 285.079 212.277 285.326 212.615 285.4Z" fill="#FFFFFE"/>
<path fill-rule="evenodd" clip-rule="evenodd" d="M251.431 262.906L251.931 262.952L251.954 262.954L252.001 263.014C252.973 264.254 253.876 265.538 254.751 266.84L255.398 267.821L256.014 268.845L257.226 270.861L262.068 278.926C263.657 281.629 265.256 284.326 266.807 287.05C268.379 289.765 269.92 292.494 271.46 295.225C274.539 300.69 277.652 306.132 280.682 311.625L285.243 319.851L289.748 328.112L284.83 320.091L279.97 312.036C276.72 306.672 273.552 301.26 270.349 295.868C268.75 293.171 267.151 290.474 265.582 287.76C263.993 285.056 262.452 282.326 260.901 279.601L256.322 271.382L255.178 269.328L254.613 268.318L254.004 267.312C253.201 265.965 252.428 264.599 251.723 263.19L251.795 263.251L251.431 262.906Z" fill="#595C5E"/>
<path fill-rule="evenodd" clip-rule="evenodd" d="M151.753 357.301C151.753 357.301 152.404 349.651 153.382 338.175C153.905 332.44 154.518 325.75 155.173 318.582C155.861 311.418 156.594 303.775 157.328 296.132C157.697 292.312 158.069 288.49 158.433 284.729C158.819 280.97 159.197 277.27 159.564 273.69C159.936 270.111 160.295 266.651 160.636 263.369C161 260.09 161.345 256.99 161.664 254.128C162.292 248.404 162.867 243.639 163.273 240.304C163.69 236.971 163.927 235.064 163.927 235.064C163.927 235.064 163.785 236.98 163.535 240.33C163.276 243.68 162.899 248.464 162.386 254.201C162.134 257.068 161.861 260.176 161.572 263.462C161.259 266.746 160.928 270.209 160.586 273.792C160.24 277.374 159.882 281.075 159.519 284.837C159.135 288.597 158.743 292.416 158.352 296.234C157.564 303.871 156.776 311.508 156.037 318.669C155.266 325.825 154.547 332.504 153.93 338.229C152.623 349.673 151.753 357.301 151.753 357.301Z" fill="#595C5E"/>
<path fill-rule="evenodd" clip-rule="evenodd" d="M166.346 248.407C166.346 248.407 166.889 249.619 167.471 251.826C168.027 254.04 168.821 257.202 169.772 260.995C170.731 264.789 171.848 269.214 173.046 273.957C173.642 276.328 174.26 278.778 174.888 281.268C175.504 283.76 176.13 286.292 176.757 288.823C178.02 293.884 179.279 298.948 180.531 303.667C181.786 308.367 183.254 312.695 184.412 316.433C185.558 320.175 186.511 323.298 187.077 325.514C187.369 326.619 187.58 327.492 187.707 328.092C187.824 328.692 187.887 329.013 187.887 329.013C187.887 329.013 187.798 328.7 187.631 328.111C187.447 327.527 187.191 326.669 186.826 325.589C186.092 323.428 185.035 320.346 183.725 316.659C183.093 314.807 182.409 312.8 181.685 310.677C180.978 308.549 180.215 306.299 179.598 303.919C178.329 299.186 177.058 294.128 175.781 289.067C175.146 286.537 174.513 284.006 173.889 281.515C173.259 279.025 172.687 276.563 172.111 274.186C170.974 269.429 169.913 264.989 169.002 261.184C168.549 259.28 168.133 257.535 167.767 255.99C167.405 254.443 167.06 253.095 166.837 251.975C166.389 249.736 166.346 248.407 166.346 248.407Z" fill="#595C5E"/>
</svg>
