<svg width="400" height="600" viewBox="0 0 400 600" fill="none" xmlns="http://www.w3.org/2000/svg">
<g clip-path="url(#clip0_11_1209)">
<path fill-rule="evenodd" clip-rule="evenodd" d="M212.238 311.218V302.163H208.838V300.055H217.722V302.163H214.432V311.218H212.238Z" fill="#CCCCCC"/>
<path fill-rule="evenodd" clip-rule="evenodd" d="M226.583 304.395C226.583 303.651 226.363 303.155 225.925 302.535C225.486 302.039 224.828 301.666 224.06 301.666C222.415 301.666 221.428 302.907 221.318 304.271H226.583V304.395ZM220.44 301.418C221.428 300.302 222.634 299.682 224.06 299.682C225.047 299.682 225.925 299.93 226.692 300.55C228.118 301.79 228.776 303.527 228.776 305.635V306.256H221.208C221.428 308.116 222.963 309.232 224.937 309.232C226.034 309.232 227.131 308.86 228.118 308.24V310.349C227.241 311.093 226.034 311.465 224.499 311.465C222.963 311.465 221.647 310.969 220.66 309.853C219.563 308.736 219.124 307.372 219.124 305.635C219.015 303.899 219.453 302.535 220.44 301.418Z" fill="#CCCCCC"/>
<path fill-rule="evenodd" clip-rule="evenodd" d="M234.809 302.163V303.776C234.809 305.388 234.699 306.504 234.37 307.869C233.931 309.853 232.944 311.094 230.97 311.218C230.751 311.218 230.531 311.218 230.312 311.094V308.985C230.422 308.985 230.641 309.109 230.751 309.109C232.177 309.109 232.725 307.621 232.725 303.652L232.835 300.055H240.842V311.218H238.648V302.163H234.809Z" fill="#CCCCCC"/>
<path fill-rule="evenodd" clip-rule="evenodd" d="M250.934 304.395C250.934 303.651 250.715 303.155 250.276 302.535C249.837 302.039 249.179 301.666 248.411 301.666C246.766 301.666 245.779 302.907 245.669 304.271H250.934V304.395ZM244.792 301.418C245.779 300.302 246.986 299.682 248.411 299.682C249.399 299.682 250.276 299.93 251.044 300.55C252.47 301.79 253.128 303.527 253.128 305.635V306.256H245.56C245.779 308.116 247.315 309.232 249.289 309.232C250.386 309.232 251.483 308.86 252.47 308.24V310.349C251.592 311.093 250.386 311.465 248.85 311.465C247.315 311.465 245.998 310.969 245.011 309.853C243.914 308.736 243.476 307.372 243.476 305.635C243.366 303.899 243.805 302.535 244.792 301.418Z" fill="#CCCCCC"/>
<path fill-rule="evenodd" clip-rule="evenodd" d="M255.761 311.218V300.055H257.955V304.272L261.904 300.055H264.646L259.929 305.016L265.304 311.218H262.342L257.955 306.132V311.218H255.761Z" fill="#CCCCCC"/>
<path fill-rule="evenodd" clip-rule="evenodd" d="M273.859 308.241C274.517 307.497 274.736 306.629 274.736 305.637C274.736 304.644 274.407 303.652 273.859 303.032C273.201 302.288 272.433 301.916 271.556 301.916C270.678 301.916 269.801 302.288 269.252 303.032C268.594 303.776 268.375 304.644 268.375 305.637C268.375 306.753 268.704 307.621 269.252 308.241C269.91 308.986 270.678 309.358 271.556 309.358C272.433 309.358 273.201 308.986 273.859 308.241ZM267.607 309.73C266.62 308.613 266.071 307.249 266.071 305.513C266.071 303.9 266.62 302.536 267.607 301.296C268.594 300.179 269.91 299.559 271.556 299.559C273.091 299.559 274.407 300.179 275.395 301.296C276.382 302.412 276.93 303.776 276.93 305.513C276.93 307.125 276.382 308.489 275.395 309.73C274.407 310.846 273.091 311.466 271.556 311.466C269.91 311.466 268.594 310.846 267.607 309.73Z" fill="#CCCCCC"/>
<path fill-rule="evenodd" clip-rule="evenodd" d="M279.562 311.218V300.055H281.646L285.047 304.644L288.447 300.055H290.531V311.218H288.447V303.28L285.485 307.497H284.608L281.646 303.28V311.218H279.562Z" fill="#CCCCCC"/>
<path fill-rule="evenodd" clip-rule="evenodd" d="M294.262 306.008H300.295V303.776H294.262V306.008Z" fill="#CCCCCC"/>
<path fill-rule="evenodd" clip-rule="evenodd" d="M311.044 308.241C311.702 307.497 311.921 306.629 311.921 305.637C311.921 304.644 311.592 303.652 311.044 303.032C310.386 302.288 309.618 301.916 308.74 301.916C307.863 301.916 306.985 302.288 306.437 303.032C305.779 303.776 305.56 304.644 305.56 305.637C305.56 306.753 305.889 307.621 306.437 308.241C307.095 308.986 307.863 309.358 308.74 309.358C309.618 309.358 310.386 308.986 311.044 308.241ZM304.792 309.73C303.805 308.613 303.256 307.249 303.256 305.513C303.256 303.9 303.805 302.536 304.792 301.296C305.779 300.179 307.095 299.559 308.74 299.559C310.276 299.559 311.592 300.179 312.579 301.296C313.566 302.412 314.115 303.776 314.115 305.513C314.115 307.125 313.566 308.489 312.579 309.73C311.592 310.846 310.276 311.466 308.74 311.466C307.095 311.466 305.779 310.846 304.792 309.73Z" fill="#CCCCCC"/>
<path fill-rule="evenodd" clip-rule="evenodd" d="M316.747 311.218V300.055H325.961V311.218H323.767V302.163H318.941V311.218H316.747Z" fill="#CCCCCC"/>
<path fill-rule="evenodd" clip-rule="evenodd" d="M336.162 304.395C336.162 303.651 335.942 303.155 335.503 302.535C335.065 302.039 334.407 301.666 333.639 301.666C331.994 301.666 331.006 302.907 330.897 304.271H336.162V304.395ZM329.91 301.418C330.897 300.302 332.103 299.682 333.529 299.682C334.516 299.682 335.394 299.93 336.162 300.55C337.587 301.79 338.246 303.527 338.246 305.635V306.256H330.677C330.897 308.116 332.432 309.232 334.407 309.232C335.503 309.232 336.6 308.86 337.587 308.24V310.349C336.71 311.093 335.503 311.465 333.968 311.465C332.432 311.465 331.116 310.969 330.129 309.853C329.032 308.736 328.593 307.372 328.593 305.635C328.484 303.899 329.032 302.535 329.91 301.418Z" fill="#CCCCCC"/>
<path fill-rule="evenodd" clip-rule="evenodd" d="M343.182 303.899V307.372C343.73 308.488 344.827 309.357 346.143 309.357C347.021 309.357 347.789 308.985 348.447 308.24C349.105 307.496 349.324 306.628 349.324 305.636C349.324 304.643 348.995 303.651 348.447 303.031C347.789 302.287 347.13 301.915 346.143 301.915C344.827 301.915 343.73 302.659 343.182 303.899ZM350.092 301.418C350.969 302.535 351.408 303.899 351.408 305.636C351.408 307.248 350.969 308.613 350.092 309.853C349.214 310.969 348.008 311.589 346.692 311.589C345.156 311.589 343.949 310.969 343.182 309.729V315.807H340.988V300.054H343.182V301.542C344.059 300.302 345.156 299.682 346.692 299.682C348.008 299.682 349.214 300.302 350.092 301.418Z" fill="#CCCCCC"/>
<path fill-rule="evenodd" clip-rule="evenodd" d="M361.718 307.249V303.776C361.17 302.66 360.073 301.792 358.756 301.792C357.879 301.792 357.111 302.164 356.453 302.908C355.795 303.652 355.576 304.52 355.576 305.513C355.576 306.505 355.905 307.497 356.453 308.117C357.111 308.861 357.769 309.234 358.756 309.234C359.963 309.358 361.17 308.489 361.718 307.249ZM354.698 309.73C353.821 308.613 353.382 307.249 353.382 305.513C353.382 303.9 353.821 302.536 354.698 301.296C355.576 300.179 356.782 299.559 358.098 299.559C359.634 299.559 360.84 300.179 361.608 301.42V299.931H363.802V311.094H361.608V309.606C360.731 310.846 359.634 311.466 358.098 311.466C356.782 311.466 355.576 310.846 354.698 309.73Z" fill="#CCCCCC"/>
<path fill-rule="evenodd" clip-rule="evenodd" d="M369.396 311.218V302.163H365.996V300.055H374.881V302.163H371.48V311.218H369.396Z" fill="#CCCCCC"/>
<path fill-rule="evenodd" clip-rule="evenodd" d="M383.876 308.241C384.534 307.497 384.754 306.629 384.754 305.637C384.754 304.644 384.425 303.652 383.876 303.032C383.218 302.288 382.45 301.916 381.573 301.916C380.695 301.916 379.818 302.288 379.269 303.032C378.611 303.776 378.392 304.644 378.392 305.637C378.392 306.753 378.721 307.621 379.269 308.241C379.928 308.986 380.695 309.358 381.573 309.358C382.45 309.358 383.218 308.986 383.876 308.241ZM377.624 309.73C376.637 308.613 376.089 307.249 376.089 305.513C376.089 303.9 376.637 302.536 377.624 301.296C378.611 300.179 379.928 299.559 381.573 299.559C383.108 299.559 384.425 300.179 385.412 301.296C386.399 302.412 386.947 303.776 386.947 305.513C386.947 307.125 386.399 308.489 385.412 309.73C384.425 310.846 383.108 311.466 381.573 311.466C379.928 311.466 378.721 310.846 377.624 309.73Z" fill="#CCCCCC"/>
<path fill-rule="evenodd" clip-rule="evenodd" d="M391.774 303.899V307.372C392.322 308.488 393.419 309.357 394.735 309.357C395.613 309.357 396.381 308.985 397.039 308.24C397.697 307.496 397.916 306.628 397.916 305.636C397.916 304.643 397.587 303.651 397.039 303.031C396.381 302.287 395.722 301.915 394.735 301.915C393.419 301.915 392.322 302.659 391.774 303.899ZM398.684 301.418C399.562 302.535 400 303.899 400 305.636C400 307.248 399.562 308.613 398.684 309.853C397.807 310.969 396.6 311.589 395.284 311.589C393.748 311.589 392.542 310.969 391.774 309.729V315.807H389.58V300.054H391.774V301.542C392.651 300.302 393.748 299.682 395.284 299.682C396.71 299.682 397.807 300.302 398.684 301.418Z" fill="#CCCCCC"/>
<path fill-rule="evenodd" clip-rule="evenodd" d="M195.677 335.902H199.735V275H195.677V335.902Z" fill="#DC3E38"/>
<path d="M26.2081 297.822C27.9631 300.055 28.7309 302.659 28.7309 306.008C28.7309 309.233 27.8534 311.962 26.2081 314.195C24.5628 316.427 22.369 317.42 19.7366 317.42C16.9944 317.42 14.9103 316.303 13.3747 314.195V325.606H8V295.093H13.3747V297.698C14.8006 295.589 16.8847 294.473 19.7366 294.473C22.369 294.473 24.4531 295.589 26.2081 297.822ZM13.3747 303.155V308.861C14.2522 310.722 16.0072 312.086 18.0912 312.086C19.6269 312.086 20.8334 311.466 21.8206 310.35C22.8078 309.233 23.2465 307.745 23.2465 306.008C23.2465 304.272 22.6981 302.783 21.8206 301.667C20.8334 300.551 19.6269 299.931 18.0912 299.931C16.1169 299.931 14.2522 301.295 13.3747 303.155Z" fill="#CCCCCC"/>
<path d="M33.9957 314.071C32.3504 311.838 31.4729 309.109 31.4729 305.884C31.4729 302.659 32.3504 299.931 33.9957 297.822C35.7507 295.589 37.8348 294.473 40.4673 294.473C43.2095 294.473 45.2935 295.589 46.8291 297.698V295.093H52.2038V316.799H46.8291V314.195C45.4032 316.303 43.3191 317.42 40.4673 317.42C37.9445 317.296 35.7507 316.303 33.9957 314.071ZM46.8291 308.737V303.031C45.9516 301.171 44.1966 299.806 42.1126 299.806C40.577 299.806 39.3704 300.427 38.3832 301.543C37.396 302.659 36.9573 304.148 36.9573 305.884C36.9573 307.621 37.5057 309.109 38.3832 310.226C39.3704 311.342 40.577 311.962 42.1126 311.962C44.1966 311.962 45.9516 310.598 46.8291 308.737Z" fill="#CCCCCC"/>
<path d="M63.7215 316.924L55.3853 295.094H61.1987L66.354 309.234L71.3996 295.094H77.1034L68.7671 316.924H63.7215Z" fill="#CCCCCC"/>
<path d="M105.841 300.179H102.112V295.094H105.841V289.14H111.216V295.094H116.7V300.179H111.216V308.738C111.216 310.847 111.984 311.839 113.849 311.839C114.836 311.839 115.713 311.591 116.7 311.095V316.18C115.604 316.924 114.068 317.296 112.094 317.296C107.925 317.296 105.841 314.816 105.841 309.978V300.179Z" fill="#CCCCCC"/>
<path d="M119.663 324.862V319.529C120.54 320.149 121.527 320.397 122.624 320.397C124.599 320.397 125.805 319.033 126.902 316.056L118.676 295.094H124.489L129.535 309.358L134.361 295.094H140.065L131.18 319.033C129.535 323.498 126.902 325.731 123.502 325.731C121.856 325.731 120.65 325.483 119.663 324.862Z" fill="#CCCCCC"/>
<path d="M148.729 316.799H143.354V295.093H148.729V297.698C150.484 295.589 152.568 294.473 155.2 294.473C159.697 294.473 162.22 297.822 162.22 303.404V316.675H156.846V304.644C156.846 301.295 155.2 300.055 153.226 300.055C151.581 300.055 149.826 301.295 148.838 302.907V316.799H148.729Z" fill="#CCCCCC"/>
<path d="M168.253 314.071C166.608 311.838 165.73 309.109 165.73 305.884C165.73 302.659 166.608 299.931 168.253 297.822C170.008 295.589 172.092 294.473 174.725 294.473C177.467 294.473 179.551 295.589 181.086 297.698V295.093H186.461V316.799H181.086V314.195C179.661 316.303 177.576 317.42 174.725 317.42C172.202 317.296 170.008 316.303 168.253 314.071ZM181.086 308.737V303.031C180.209 301.171 178.454 299.806 176.37 299.806C174.834 299.806 173.628 300.427 172.641 301.543C171.653 302.659 171.215 304.148 171.215 305.884C171.215 307.621 171.763 309.109 172.641 310.226C173.628 311.342 174.834 311.962 176.37 311.962C178.454 311.962 180.209 310.598 181.086 308.737Z" fill="#CCCCCC"/>
<path fill-rule="evenodd" clip-rule="evenodd" d="M80.3948 307.745V295.094H85.0016V307.745C85.0016 310.722 86.5373 312.583 89.0601 312.583C91.5829 312.583 93.1185 310.722 93.1185 307.745V295.094H97.7254V307.745C97.7254 313.823 94.4347 317.296 89.0601 317.296C83.6854 317.296 80.3948 313.823 80.3948 307.745Z" fill="#CCCCCC"/>
</g>
<defs>
<clipPath id="clip0_11_1209">
<rect width="400" height="600" fill="white"/>
</clipPath>
</defs>
</svg>
