<svg width="347" height="160" viewBox="0 0 347 160" fill="none" xmlns="http://www.w3.org/2000/svg">
<path d="M112.758 2.00272L111.721 4.28565C138.348 9.95361 161.748 19.7938 183.303 34.5147C188.836 38.2934 196.444 46.1655 206.011 56.0057C227.221 77.8903 256.268 107.805 291.541 123.391C314.018 133.232 331.309 145.67 341.452 159.21L344.564 158.108C334.19 144.174 316.439 131.421 293.5 121.345C258.804 106.073 229.987 76.3946 209.008 54.7462C199.326 44.7485 191.602 36.8764 185.839 32.8616C163.823 17.8258 139.962 7.74939 112.758 2.00272Z" fill="#2A292A"/>
<path d="M315.502 3.4905L308.7 5.72887C309.433 7.25096 310.061 8.77304 310.689 10.1161C317.49 25.6951 320.211 32.1416 342.396 47.3625L347 42.4381C326.385 28.2916 323.978 22.7405 317.595 7.8777C316.863 6.53467 316.13 5.10212 315.502 3.4905Z" fill="#D7141D"/>
<path d="M214.835 0.627536L212.951 4.83568C263.704 21.3101 284.737 48.5288 303.259 72.5241C314.666 87.2974 325.339 101.175 341.559 111.024L344.594 107.353C329.211 97.9521 318.747 84.4323 307.655 70.0171C288.714 45.4846 267.262 17.6392 214.835 0.627536Z" fill="#2A292A"/>
<path d="M2.6162 -0.000305318L8.93261e-05 3.84969C12.0342 9.84853 30.347 18.3543 42.1718 22.9206C68.4375 33.038 88.1106 28.4718 103.912 24.8904C115.946 22.1148 125.469 19.966 134.573 24.7113C152.362 34.0229 159.792 49.7811 166.385 63.7485C171.303 74.1345 175.907 83.8938 184.174 89.445C195.371 96.8764 199.138 96.6973 206.568 95.6229C208.452 95.3543 210.544 94.9961 213.161 94.8171C220.381 94.2799 225.404 90.788 230.322 87.2961C234.613 84.252 239.008 81.2078 245.182 79.6857C273.854 72.5229 286.83 56.9438 295.411 46.5578C298.341 42.9764 300.852 39.9322 303.155 38.4101C319.27 27.3078 333.815 28.2927 343.338 29.9939L344.385 25.6067C327.641 22.652 313.514 25.6067 299.911 34.8287C297.085 36.7985 294.469 39.9322 291.121 43.8718C282.958 53.7206 270.61 68.5834 243.612 75.2985C236.392 77.0892 231.369 80.6706 226.974 83.8043C222.369 87.1171 218.288 89.8926 212.742 90.3403C209.812 90.5194 207.614 90.8775 205.626 91.1461C199.452 92.0415 197.15 92.3996 187.313 85.8636C180.198 81.1182 176.012 72.2543 171.094 62.0473C164.187 47.5427 156.443 30.9787 137.084 20.9508C126.096 15.2206 115.109 17.7276 102.342 20.6822C86.541 24.2636 68.7514 28.3822 44.16 18.9811C32.5445 14.3253 14.441 5.90899 2.6162 -0.000305318Z" fill="#D7141D"/>
<path d="M81.6205 1.16534L78.3765 4.74673C106.631 23.4595 132.373 39.0386 160.209 41.0084C169.522 41.6351 171.719 41.277 174.649 40.8293C176.847 40.4712 179.672 39.934 187.835 39.934C207.613 39.934 224.67 54.8863 241.308 69.391C252.714 79.3294 263.388 88.7305 274.69 93.1177C308.909 106.369 326.698 104.041 337.267 102.608C340.197 102.25 342.499 101.892 344.278 102.071L344.906 97.5945C342.499 97.3259 339.779 97.684 336.43 98.1317C326.384 99.4747 309.641 101.713 276.992 89.0887C266.527 85.0596 256.168 75.927 245.18 66.3468C227.809 51.2154 209.915 35.5468 188.044 35.5468C179.359 35.5468 176.219 36.084 173.812 36.4421C171.196 36.8898 169.417 37.1584 160.836 36.6212C134.257 34.6514 109.247 19.4305 81.6205 1.16534Z" fill="#273285"/>
</svg>
