<svg width="209" height="113" viewBox="0 0 209 113" fill="none" xmlns="http://www.w3.org/2000/svg">
<mask id="mask0_1_37" style="mask-type:luminance" maskUnits="userSpaceOnUse" x="54" y="0" width="100" height="113">
<path d="M154 0H54V113H154V0Z" fill="white"/>
</mask>
<g mask="url(#mask0_1_37)">
<path d="M85.895 54.1573C85.8933 45.5572 79.0552 38.5854 70.6216 38.5854C62.1881 38.5854 55.3527 45.5572 55.3544 54.1573L55.3617 90.7368C55.3634 99.3373 62.2015 106.309 70.635 106.309C79.0686 106.309 85.9039 99.3373 85.9022 90.7368L85.895 54.1573Z" fill="#FBBB51"/>
<path d="M119.149 54.1573C119.149 45.5572 112.312 38.5854 103.879 38.5854C95.4454 38.5854 88.6086 45.5572 88.6086 54.1573V97.4284C88.6086 106.029 95.4454 113 103.879 113C112.312 113 119.149 106.029 119.149 97.4284V54.1573Z" fill="#FBBB51"/>
<path d="M152.402 54.1573C152.404 45.5572 145.568 38.5854 137.135 38.5854C128.701 38.5854 121.863 45.5572 121.862 54.1573L121.854 90.7368C121.853 99.3373 128.688 106.309 137.121 106.309C145.555 106.309 152.393 99.3373 152.395 90.7368L152.402 54.1573Z" fill="#FBBB51"/>
<path d="M104 100.401C130.868 100.401 152.649 78.1896 152.649 50.791C152.649 23.3923 130.868 1.18123 104 1.18123C77.1321 1.18123 55.3513 23.3923 55.3513 50.791C55.3513 78.1896 77.1321 100.401 104 100.401Z" fill="#F6D31D"/>
<path d="M104 100.401C130.868 100.401 152.649 78.1896 152.649 50.791C152.649 23.3923 130.868 1.18123 104 1.18123C77.1321 1.18123 55.3513 23.3923 55.3513 50.791C55.3513 78.1896 77.1321 100.401 104 100.401Z" fill="url(#paint0_radial_1_37)" fill-opacity="0.5"/>
<path d="M104 52.3659C112.956 52.3659 120.216 44.9621 120.216 35.8293C120.216 26.6964 112.956 19.2926 104 19.2926C95.044 19.2926 87.7838 26.6964 87.7838 35.8293C87.7838 44.9621 95.044 52.3659 104 52.3659Z" fill="white"/>
<path d="M104 44.0975C108.478 44.0975 112.108 40.3957 112.108 35.8293C112.108 31.2628 108.478 27.561 104 27.561C99.522 27.561 95.8919 31.2628 95.8919 35.8293C95.8919 40.3957 99.522 44.0975 104 44.0975Z" fill="#1B1B1B"/>
<path d="M104.601 55.122C93.7897 55.122 87.083 49.3802 85.0811 46.5091C87.5835 44.7866 94.9911 41.3415 104.601 41.3415C114.21 41.3415 122.619 44.7866 125.622 46.5091C123.119 49.3802 115.411 55.122 104.601 55.122Z" fill="url(#paint1_radial_1_37)"/>
<path d="M90.6211 60.1667C90.6211 60.1667 93.6643 67.7843 105.099 67.7843C116.535 67.7843 119.32 60.1667 119.32 60.1667" stroke="#444444" stroke-width="1.4032" stroke-linecap="round" stroke-linejoin="round"/>
</g>
<defs>
<radialGradient id="paint0_radial_1_37" cx="0" cy="0" r="1" gradientUnits="userSpaceOnUse" gradientTransform="translate(105.279 31.4388) rotate(91.063) scale(68.9736 67.6383)">
<stop stop-color="#FFFBEE" stop-opacity="0.97"/>
<stop offset="1" stop-color="#FFA082"/>
</radialGradient>
<radialGradient id="paint1_radial_1_37" cx="0" cy="0" r="1" gradientUnits="userSpaceOnUse" gradientTransform="translate(106.703 42.7195) rotate(96.2183) scale(12.4759 36.7196)">
<stop stop-color="#FAD46E"/>
<stop offset="1" stop-color="#FAD670"/>
</radialGradient>
</defs>
</svg>
