<svg width="209" height="113" viewBox="0 0 209 113" fill="none" xmlns="http://www.w3.org/2000/svg">
<mask id="mask0_1_14" style="mask-type:luminance" maskUnits="userSpaceOnUse" x="55" y="0" width="100" height="113">
<path d="M155 0H55V113H155V0Z" fill="white"/>
</mask>
<g mask="url(#mask0_1_14)">
<path d="M86.895 54.1573C86.8933 45.5572 80.0552 38.5854 71.6216 38.5854C63.1881 38.5854 56.3527 45.5572 56.3544 54.1573L56.3617 90.7368C56.3634 99.3373 63.2015 106.309 71.635 106.309C80.0686 106.309 86.9039 99.3373 86.9022 90.7368L86.895 54.1573Z" fill="#FBBB51"/>
<path d="M120.149 54.1573C120.149 45.5572 113.312 38.5854 104.879 38.5854C96.4454 38.5854 89.6086 45.5572 89.6086 54.1573V97.4284C89.6086 106.029 96.4454 113 104.879 113C113.312 113 120.149 106.029 120.149 97.4284V54.1573Z" fill="#FBBB51"/>
<path d="M153.402 54.1573C153.404 45.5572 146.568 38.5854 138.135 38.5854C129.701 38.5854 122.863 45.5572 122.862 54.1573L122.854 90.7368C122.853 99.3373 129.688 106.309 138.121 106.309C146.555 106.309 153.393 99.3373 153.395 90.7368L153.402 54.1573Z" fill="#FBBB51"/>
<path d="M105 99.2196C131.868 99.2196 153.649 77.0084 153.649 49.6097C153.649 22.211 131.868 0 105 0C78.1321 0 56.3513 22.211 56.3513 49.6097C56.3513 77.0084 78.1321 99.2196 105 99.2196Z" fill="#F6D31D"/>
<path d="M105 99.2196C131.868 99.2196 153.649 77.0084 153.649 49.6097C153.649 22.211 131.868 0 105 0C78.1321 0 56.3513 22.211 56.3513 49.6097C56.3513 77.0084 78.1321 99.2196 105 99.2196Z" fill="url(#paint0_radial_1_14)" fill-opacity="0.5"/>
<path d="M105 57.878C113.956 57.878 121.216 50.4744 121.216 41.3415C121.216 32.2085 113.956 24.8049 105 24.8049C96.044 24.8049 88.7838 32.2085 88.7838 41.3415C88.7838 50.4744 96.044 57.878 105 57.878Z" fill="white"/>
<path d="M105 49.6098C109.478 49.6098 113.108 45.9079 113.108 41.3415C113.108 36.7751 109.478 33.0731 105 33.0731C100.522 33.0731 96.8919 36.7751 96.8919 41.3415C96.8919 45.9079 100.522 49.6098 105 49.6098Z" fill="#1B1B1B"/>
<path d="M120.772 78.4322C120.772 78.4322 117.72 70.8146 106.294 70.8146C94.8678 70.8146 92.0646 78.4322 92.0646 78.4322" stroke="#444444" stroke-width="1.4032" stroke-linecap="round" stroke-linejoin="round"/>
<path d="M128.704 52.5371L132.734 63.9162C133.108 65.0632 133.028 66.3142 132.511 67.4021C131.994 68.4899 131.08 69.3286 129.965 69.7395C128.85 70.1504 127.622 70.1008 126.542 69.6014C125.462 69.1023 124.617 68.1925 124.185 67.0663C123.83 66.0474 123.83 64.935 124.185 63.9162L128.215 52.5371C128.242 52.4736 128.29 52.4224 128.352 52.3929C128.413 52.3634 128.482 52.3578 128.547 52.3772C128.583 52.3917 128.615 52.4135 128.642 52.4411C128.668 52.4684 128.69 52.5012 128.704 52.5371Z" fill="#91B5E6"/>
</g>
<defs>
<radialGradient id="paint0_radial_1_14" cx="0" cy="0" r="1" gradientUnits="userSpaceOnUse" gradientTransform="translate(106.279 30.2576) rotate(91.063) scale(68.9736 67.6383)">
<stop stop-color="#FFFBEE" stop-opacity="0.97"/>
<stop offset="1" stop-color="#FFA082"/>
</radialGradient>
</defs>
</svg>
