<svg width="209" height="113" viewBox="0 0 209 113" fill="none" xmlns="http://www.w3.org/2000/svg">
<mask id="mask0_1_2" style="mask-type:luminance" maskUnits="userSpaceOnUse" x="55" y="0" width="100" height="113">
<path d="M155 0H55V113H155V0Z" fill="white"/>
</mask>
<g mask="url(#mask0_1_2)">
<path fill-rule="evenodd" clip-rule="evenodd" d="M105 0.840439C132.614 0.840439 155 23.0514 155 50.4501C155 51.6129 154.96 52.7663 154.88 53.909C154.882 53.9917 154.882 54.0743 154.882 54.1574L154.875 90.7369C154.873 99.3373 147.845 106.309 139.177 106.309C132.432 106.309 126.681 102.087 124.463 96.1611C123.234 96.6766 121.981 97.1455 120.704 97.5638C120.631 106.101 113.633 113 105.011 113C96.3906 113 89.3939 106.105 89.3167 97.5704C88.0392 97.152 86.7847 96.6841 85.555 96.1686C83.3347 102.09 77.5862 106.309 70.8439 106.309C62.1761 106.309 55.148 99.3373 55.1463 90.7369L55.1388 54.175C55.0468 52.9452 55 51.7033 55 50.4501C55 23.0514 77.3858 0.840439 105 0.840439Z" fill="url(#paint0_linear_1_2)"/>
<path fill-rule="evenodd" clip-rule="evenodd" d="M105 0.840439C132.614 0.840439 155 23.0514 155 50.4501C155 51.6129 154.96 52.7663 154.88 53.909C154.882 53.9917 154.882 54.0743 154.882 54.1574L154.875 90.7369C154.873 99.3373 147.845 106.309 139.177 106.309C132.432 106.309 126.681 102.087 124.463 96.1611C123.234 96.6766 121.981 97.1455 120.704 97.5638C120.631 106.101 113.633 113 105.011 113C96.3906 113 89.3939 106.105 89.3167 97.5704C88.0392 97.152 86.7847 96.6841 85.555 96.1686C83.3347 102.09 77.5862 106.309 70.8439 106.309C62.1761 106.309 55.148 99.3373 55.1463 90.7369L55.1388 54.175C55.0468 52.9452 55 51.7033 55 50.4501C55 23.0514 77.3858 0.840439 105 0.840439Z" fill="url(#paint1_radial_1_2)" fill-opacity="0.9"/>
<path d="M105 66.1464C114.205 66.1464 121.667 58.7426 121.667 49.6098C121.667 40.4769 114.205 33.0732 105 33.0732C95.7952 33.0732 88.3333 40.4769 88.3333 49.6098C88.3333 58.7426 95.7952 66.1464 105 66.1464Z" fill="white"/>
<path d="M105 57.878C109.602 57.878 113.333 54.1762 113.333 49.6098C113.333 45.0433 109.602 41.3415 105 41.3415C100.398 41.3415 96.6667 45.0433 96.6667 49.6098C96.6667 54.1762 100.398 57.878 105 57.878Z" fill="#1B1B1B"/>
<path d="M104.074 46.8536C90.7408 46.8536 82.4691 37.6667 80 33.0731C83.0864 30.3171 92.2222 24.8049 104.074 24.8049C115.926 24.8049 126.296 30.3171 130 33.0731C126.914 37.6667 117.408 46.8536 104.074 46.8536Z" fill="url(#paint2_linear_1_2)"/>
<path d="M85.5555 38.5854C85.5555 38.5854 90.1189 46.8536 104.231 46.8536C118.343 46.8536 121.667 38.5854 121.667 38.5854" stroke="#0C0C0C" stroke-width="1.4032" stroke-linecap="round" stroke-linejoin="round"/>
<path d="M125.002 79.8519C125.002 79.8519 119.676 70.4478 105.164 70.4478C90.6536 70.4478 85.6492 79.8519 85.6492 79.8519" stroke="#0C0C0C" stroke-width="1.4032" stroke-linecap="round" stroke-linejoin="round"/>
</g>
<defs>
<linearGradient id="paint0_linear_1_2" x1="111.466" y1="99.2271" x2="110.111" y2="7.67235" gradientUnits="userSpaceOnUse">
<stop stop-color="#FFD057"/>
<stop offset="1" stop-color="#FE3B3B"/>
</linearGradient>
<radialGradient id="paint1_radial_1_2" cx="0" cy="0" r="1" gradientUnits="userSpaceOnUse" gradientTransform="translate(104.58 60.9652) rotate(-11.7802) scale(51.5047 51.1364)">
<stop offset="0.604167" stop-color="#FA8D5F" stop-opacity="0"/>
<stop offset="1" stop-color="#FF4D00"/>
</radialGradient>
<linearGradient id="paint2_linear_1_2" x1="105" y1="24.8049" x2="105" y2="46.8536" gradientUnits="userSpaceOnUse">
<stop stop-color="#FE613D"/>
<stop offset="1" stop-color="#FF7446"/>
</linearGradient>
</defs>
</svg>
