<svg width="209" height="113" viewBox="0 0 209 113" fill="none" xmlns="http://www.w3.org/2000/svg">
<path d="M85.3298 55.3914C85.3281 47.0277 78.5852 40.2477 70.2691 40.2477C61.9529 40.2477 55.2127 47.0277 55.2144 55.3914L55.2216 90.9645C55.2232 99.328 61.9662 106.109 70.2823 106.109C78.5985 106.109 85.3387 99.328 85.337 90.9645L85.3298 55.3914Z" fill="#FBBB51"/>
<path d="M118.122 55.3914C118.122 47.0277 111.38 40.2477 103.063 40.2477C94.7474 40.2477 88.0057 47.0277 88.0057 55.3914V97.4715C88.0057 105.835 94.7474 112.615 103.063 112.615C111.38 112.615 118.122 105.835 118.122 97.4715V55.3914Z" fill="#FBBB51"/>
<path d="M150.912 55.3914C150.914 47.0277 144.173 40.2477 135.857 40.2477C127.541 40.2477 120.798 47.0277 120.796 55.3914L120.789 90.9645C120.788 99.328 127.527 106.109 135.844 106.109C144.16 106.109 150.903 99.328 150.905 90.9645L150.912 55.3914Z" fill="#FBBB51"/>
<path d="M103.183 100.363C129.677 100.363 151.154 78.7627 151.154 52.1176C151.154 25.4726 129.677 3.87239 103.183 3.87239C76.689 3.87239 55.2114 25.4726 55.2114 52.1176C55.2114 78.7627 76.689 100.363 103.183 100.363Z" fill="#F6D31D"/>
<path d="M103.183 100.363C129.677 100.363 151.154 78.7627 151.154 52.1176C151.154 25.4726 129.677 3.87239 103.183 3.87239C76.689 3.87239 55.2114 25.4726 55.2114 52.1176C55.2114 78.7627 76.689 100.363 103.183 100.363Z" fill="url(#paint0_radial_1_51)" fill-opacity="0.5"/>
<path d="M102.364 58.8162C114.592 58.8162 124.505 48.8469 124.505 36.5491C124.505 24.2514 114.592 14.2822 102.364 14.2822C90.1355 14.2822 80.2228 24.2514 80.2228 36.5491C80.2228 48.8469 90.1355 58.8162 102.364 58.8162Z" fill="white"/>
<path d="M102.364 47.6827C108.477 47.6827 113.433 42.698 113.433 36.5492C113.433 30.4003 108.477 25.4156 102.364 25.4156C96.2492 25.4156 91.2928 30.4003 91.2928 36.5492C91.2928 42.698 96.2492 47.6827 102.364 47.6827Z" fill="#1B1B1B"/>
<path d="M103.479 57.5519C88.5546 57.5519 79.2958 53.1464 76.5322 49.7959C79.9869 47.7858 90.2128 43.7653 103.479 43.7653C116.745 43.7653 128.354 47.7858 132.499 49.7959C129.045 53.1464 118.404 57.5519 103.479 57.5519Z" fill="url(#paint1_radial_1_51)"/>
<path d="M104.305 77.6539C109.804 77.6554 115.117 75.5619 119.273 71.7575C123.429 67.9533 126.146 62.6936 126.926 56.9435C126.986 56.5184 126.96 56.0842 126.846 55.6712C126.732 55.2582 126.535 54.8759 126.268 54.5513C126.001 54.2267 125.67 53.9676 125.299 53.7915C124.927 53.6151 124.524 53.5266 124.116 53.5315H84.4921C84.0849 53.5266 83.6817 53.6151 83.3102 53.7915C82.9386 53.9676 82.6079 54.2267 82.3406 54.5513C82.0735 54.8759 81.8764 55.2582 81.7628 55.6712C81.6493 56.0842 81.6221 56.5184 81.6831 56.9435C82.463 62.6936 85.18 67.9533 89.3353 71.7575C93.4907 75.5619 98.8057 77.6554 104.305 77.6539Z" fill="#444444"/>
<path d="M104.305 58.8917C95.0657 58.8917 89.3878 54.4245 86.9817 53.5312H121.628C120.184 54.4245 113.543 58.8917 104.305 58.8917Z" fill="white"/>
<path d="M104.305 77.6539C96.4873 77.6539 92.3119 74.9735 89.6468 72.2933C89.6468 72.2933 94.9769 68.2728 104.305 68.2728C113.633 68.2728 118.963 72.2933 118.963 72.2933C117.741 73.1866 112.123 77.6539 104.305 77.6539Z" fill="#ED6B86"/>
<path fill-rule="evenodd" clip-rule="evenodd" d="M162.992 22.5961C163.151 17.7983 160.466 13.1547 155.842 11.0653C149.788 8.32888 142.684 11.0005 139.889 17.0323C142.516 10.9259 139.785 3.81019 133.73 1.07421C127.624 -1.68553 120.45 1.05557 117.705 7.19682C117.606 7.41811 117.515 7.64066 117.43 7.86447C117.312 8.093 117.196 8.33265 117.084 8.5836C112.068 19.8094 125.973 36.8062 129.908 41.6178C130.066 41.8105 130.208 41.9839 130.331 42.1364C130.575 42.1073 130.871 42.0748 131.214 42.0373C137.056 41.3964 156.535 39.2594 161.932 27.1815C162.733 25.386 163.057 23.87 162.992 22.5961ZM139.534 17.8767C139.525 17.8788 139.517 17.8806 139.507 17.8826C139.503 17.8753 139.499 17.8683 139.494 17.8611C139.583 17.6925 139.667 17.5209 139.748 17.3465C139.672 17.5226 139.6 17.6992 139.534 17.8767Z" fill="#FF0A0A"/>
<path fill-rule="evenodd" clip-rule="evenodd" d="M73.3407 44.9682C70.9031 43.1662 67.5267 42.9159 64.7851 44.5999C61.1984 46.8028 60.0441 51.4899 62.1735 55.1171C59.9369 51.5566 55.2646 50.45 51.6783 52.6526C48.0583 54.8762 46.916 59.6299 49.1269 63.2709C49.2061 63.4011 49.2885 63.5282 49.3739 63.652C49.4506 63.797 49.5344 63.9441 49.6251 64.0937C53.6666 70.7489 67.4792 69.5194 71.3892 69.1715C71.5459 69.1576 71.6868 69.1449 71.8104 69.1345C71.8824 68.9959 71.9715 68.8287 72.0747 68.6346C73.8322 65.3333 79.6916 54.3256 75.3432 47.1655C74.6975 46.1019 74.0254 45.3901 73.3407 44.9682ZM62.4906 55.6138C62.4885 55.6189 62.4864 55.6242 62.4842 55.6296L62.4688 55.6288C62.4139 55.525 62.3564 55.4219 62.2964 55.3195C62.3592 55.4194 62.424 55.5176 62.4906 55.6138Z" fill="#FF0A0A"/>
<defs>
<radialGradient id="paint0_radial_1_51" cx="0" cy="0" r="1" gradientUnits="userSpaceOnUse" gradientTransform="translate(104.445 33.2977) rotate(91.0778) scale(67.0769 66.6965)">
<stop stop-color="#FFFBEE" stop-opacity="0.97"/>
<stop offset="1" stop-color="#FFA082"/>
</radialGradient>
<radialGradient id="paint1_radial_1_51" cx="0" cy="0" r="1" gradientUnits="userSpaceOnUse" gradientTransform="translate(106.381 45.3736) rotate(97.3447) scale(14.5933 50.5736)">
<stop stop-color="#FAD46E"/>
<stop offset="1" stop-color="#FAD670"/>
</radialGradient>
</defs>
</svg>
