<svg width="209" height="113" viewBox="0 0 209 113" fill="none" xmlns="http://www.w3.org/2000/svg">
<path d="M72.787 38.0377C64.4133 38.0377 57.6265 44.9778 57.6282 53.5388L57.635 87.9894C57.6367 96.5506 64.4263 103.49 72.8 103.49C81.1736 103.49 87.9604 96.5506 87.9587 87.9894L87.9519 53.5388C87.9502 44.9778 81.1607 38.0377 72.787 38.0377Z" fill="#FBBA50"/>
<path d="M104.999 38.0377C96.6258 38.0377 89.8376 44.9778 89.8376 53.5388V95.6895C89.8376 104.25 96.6258 111.191 104.999 111.191C113.373 111.191 120.161 104.25 120.161 95.6895V53.5388C120.161 44.9778 113.373 38.0377 104.999 38.0377Z" fill="#FBBA50"/>
<path d="M137.213 38.0377C128.839 38.0377 122.05 44.9778 122.048 53.5388L122.041 87.9894C122.039 96.5506 128.826 103.49 137.2 103.49C145.574 103.49 152.363 96.5506 152.365 87.9894L152.372 53.5388C152.374 44.9778 145.587 38.0377 137.213 38.0377Z" fill="#FBBA50"/>
<path d="M104.959 96.996C131.098 96.996 152.288 75.283 152.288 48.4983C152.288 21.7134 131.098 0 104.959 0C78.821 0 57.6316 21.7134 57.6316 48.4983C57.6316 75.283 78.821 96.996 104.959 96.996Z" fill="#F6D31D"/>
<path d="M104.959 96.996C131.098 96.996 152.288 75.283 152.288 48.4983C152.288 21.7134 131.098 0 104.959 0C78.821 0 57.6316 21.7134 57.6316 48.4983C57.6316 75.283 78.821 96.996 104.959 96.996Z" fill="url(#paint0_radial_1_28)" fill-opacity="0.5"/>
<path d="M91.7587 68.4245H117.617" stroke="#444444" stroke-width="1.21463" stroke-linecap="round" stroke-linejoin="round"/>
<path d="M104.032 57.0569C113.257 57.0569 120.736 49.3933 120.736 39.9399C120.736 30.4864 113.257 22.8228 104.032 22.8228C94.8067 22.8228 87.3281 30.4864 87.3281 39.9399C87.3281 49.3933 94.8067 57.0569 104.032 57.0569Z" fill="white"/>
<path d="M104.032 48.4984C108.645 48.4984 112.384 44.6666 112.384 39.9399C112.384 35.2131 108.645 31.3814 104.032 31.3814C99.4197 31.3814 95.6804 35.2131 95.6804 39.9399C95.6804 44.6666 99.4197 48.4984 104.032 48.4984Z" fill="#1B1B1B"/>
<defs>
<radialGradient id="paint0_radial_1_28" cx="0" cy="0" r="1" gradientUnits="userSpaceOnUse" gradientTransform="translate(106.204 29.5797) rotate(91.0578) scale(67.4282 65.8024)">
<stop stop-color="#FFFBEE" stop-opacity="0.97"/>
<stop offset="1" stop-color="#FFA082"/>
</radialGradient>
</defs>
</svg>
