<svg width="209" height="113" viewBox="0 0 209 113" fill="none" xmlns="http://www.w3.org/2000/svg">
<g clip-path="url(#clip0_1_447)">
<mask id="mask0_1_447" style="mask-type:luminance" maskUnits="userSpaceOnUse" x="27" y="-21" width="155" height="155">
<path d="M182 -21H27V134H182V-21Z" fill="white"/>
</mask>
<g mask="url(#mask0_1_447)">
<path d="M32.3604 59.5941C35.1877 51.0849 44.713 46.5626 53.6011 49.5147C62.4892 52.467 67.4061 61.79 64.5788 70.2992C61.7516 78.8083 52.2262 83.3292 43.3381 80.3784C34.45 77.4277 29.5331 68.1033 32.3604 59.5941ZM37.1797 61.1957C35.235 67.0485 38.7168 73.4911 44.9398 75.5591C51.1628 77.6273 57.8077 74.5545 59.7523 68.6975C61.697 62.8405 58.2153 56.4023 51.9923 54.3342C45.7693 52.2661 39.1244 55.3517 37.1797 61.1957Z" fill="#1A1A1A"/>
<path d="M58.161 67.6098C56.6881 68.0872 55.0984 68.062 53.6415 67.538C51.2418 66.6569 50.8917 69.1067 50.8917 69.1067C50.8917 69.1067 54.3649 71.8178 56.0942 71.8035C57.8237 71.7891 58.161 67.6098 58.161 67.6098Z" fill="#1A1A1A"/>
<path d="M37.3492 61.1571C38.0804 58.9563 39.4479 57.0217 41.2787 55.5981C43.1094 54.1745 45.3213 53.3258 47.6344 53.1591C49.9476 52.9926 52.2583 53.5158 54.274 54.6625C56.2899 55.8091 57.9204 57.5278 58.9594 59.6012C59.9984 61.6747 60.3992 64.0095 60.1111 66.3108C59.8231 68.612 58.8591 70.776 57.3411 72.5294C55.8231 74.2827 53.8193 75.5464 51.5829 76.1609C49.3467 76.7752 46.9784 76.7127 44.7776 75.9812C41.8288 74.9977 39.3905 72.8845 37.9978 70.1054C36.6051 67.3263 36.3719 64.1082 37.3492 61.1571ZM39.4474 61.8546C38.8539 63.6403 38.8033 65.5618 39.3019 67.3762C39.8005 69.1906 40.8259 70.8165 42.2486 72.0481C43.6711 73.2798 45.4271 74.0618 47.2942 74.2955C49.1613 74.5292 51.0558 74.2039 52.7381 73.3609C54.4203 72.5179 55.8148 71.1949 56.7452 69.5593C57.6756 67.9237 58.1001 66.049 57.9649 64.1721C57.8298 62.2953 57.1411 60.5006 55.9861 59.0152C54.831 57.5298 53.2614 56.4203 51.4757 55.8269C49.0813 55.034 46.4701 55.2235 44.215 56.3534C41.9601 57.4835 40.2455 59.4619 39.4474 61.8546Z" fill="#B3B3B3"/>
<path d="M42.1973 61.2118C42.624 59.9308 43.421 58.805 44.4874 57.977C45.5538 57.1488 46.842 56.6557 48.1887 56.5596C49.5355 56.4635 50.8806 56.7689 52.0537 57.4372C53.227 58.1055 54.1757 59.1067 54.7799 60.3142C55.3842 61.5216 55.6168 62.8812 55.4484 64.2208C55.28 65.5605 54.7182 66.8202 53.8339 67.8405C52.9496 68.861 51.7827 69.5961 50.4807 69.9534C49.1785 70.3105 47.7997 70.2736 46.5186 69.8473C44.8005 69.2751 43.38 68.0438 42.5696 66.4244C41.7593 64.8049 41.6253 62.93 42.1973 61.2118Z" fill="#808080"/>
<path d="M45.6786 65.1701C45.5739 64.6542 45.606 64.1198 45.772 63.6201C45.8254 63.4658 45.8901 63.3157 45.9657 63.171C43.7981 62.5064 41.8249 61.3241 40.2164 59.7265L42.2644 56.6437C42.2644 56.6437 46.9746 59.5299 47.7582 61.6754C48.0831 61.5741 48.4229 61.5288 48.7629 61.5419C49.0502 59.2168 49.9188 57.0014 51.2889 55.1008L54.6543 56.6437C54.6543 56.6437 52.8144 61.1028 50.9444 62.5954C51.1109 62.7859 51.2526 62.9966 51.3664 63.2226C53.6195 62.4735 58.459 63.5096 58.459 63.5096L57.8232 67.1492C55.6166 67.1967 53.4298 66.7228 51.4409 65.7657C51.1637 66.4195 50.6653 66.955 50.033 67.2785C50.0531 67.2913 50.0704 67.2984 50.0904 67.3128C52.0824 68.6462 53.6655 74.4687 53.6655 74.4687L49.9226 75.6397C47.7626 71.7045 48.1443 67.9573 48.1443 67.9573C48.1453 67.8279 48.1598 67.699 48.1873 67.5726C48.0205 67.5475 47.8559 67.509 47.6952 67.4578C47.3426 67.3394 47.0147 67.1575 46.7278 66.9211C46.7102 66.9421 46.6915 66.9622 46.6718 66.9813C46.6718 66.9813 44.3655 69.9579 40.0886 71.3213L38.1841 67.8927C38.1841 67.8927 43.3034 64.7913 45.6786 65.1701Z" fill="#B3B3B3"/>
<path opacity="0.5" d="M46.6953 63.884C46.8221 63.502 47.0594 63.1663 47.3769 62.9192C47.6946 62.6721 48.0783 62.5246 48.4797 62.4956C48.8811 62.4665 49.282 62.557 49.632 62.7559C49.9818 62.9547 50.2651 63.2528 50.4456 63.6125C50.626 63.972 50.6959 64.3772 50.6463 64.7765C50.5966 65.1759 50.4297 65.5515 50.1666 65.856C49.9033 66.1605 49.5559 66.3802 49.1679 66.4871C48.78 66.5942 48.3691 66.5838 47.9869 66.4573C47.7332 66.3733 47.4984 66.24 47.296 66.0652C47.0937 65.8903 46.9278 65.6773 46.8079 65.4384C46.6879 65.1993 46.6163 64.9391 46.5969 64.6723C46.5776 64.4056 46.611 64.1378 46.6953 63.884Z" fill="#1A1A1A"/>
<path d="M137.901 111.803C129.02 108.852 124.096 99.5284 126.923 91.0192C129.751 82.5099 139.276 77.9878 148.164 80.9384C157.053 83.8892 161.969 93.2136 159.142 101.723C156.315 110.233 146.782 114.754 137.901 111.803ZM146.551 85.7593C140.328 83.6911 133.683 86.7638 131.738 92.6208C129.794 98.4779 133.275 104.916 139.498 106.983C145.721 109.049 152.366 105.978 154.311 100.121C156.256 94.2642 152.778 87.8273 146.551 85.7593Z" fill="#1A1A1A"/>
<path d="M133.667 92.7012C134.562 93.965 135.851 94.8963 137.331 95.349C139.781 96.0796 138.597 98.2524 138.597 98.2524C138.597 98.2524 134.191 98.3443 132.813 97.298C131.435 96.2518 133.667 92.7012 133.667 92.7012Z" fill="#1A1A1A"/>
<path d="M139.375 107.418C137.174 106.686 135.24 105.318 133.817 103.487C132.394 101.656 131.546 99.4447 131.38 97.1319C131.214 94.819 131.737 92.5088 132.883 90.4933C134.03 88.4777 135.748 86.8474 137.822 85.8086C139.895 84.7695 142.229 84.3687 144.53 84.6564C146.831 84.9441 148.995 85.9077 150.748 87.4252C152.502 88.9426 153.766 90.9458 154.381 93.1817C154.996 95.4175 154.934 97.7854 154.203 99.9862C153.22 102.937 151.107 105.376 148.326 106.77C145.546 108.164 142.327 108.396 139.375 107.418ZM146.077 87.2632C144.291 86.6698 142.37 86.6192 140.556 87.1177C138.741 87.6163 137.115 88.6417 135.884 90.0644C134.652 91.4871 133.87 93.2429 133.636 95.11C133.403 96.9771 133.728 98.8716 134.571 100.554C135.414 102.236 136.737 103.631 138.372 104.561C140.008 105.491 141.883 105.916 143.76 105.781C145.636 105.646 147.431 104.957 148.917 103.802C150.402 102.647 151.511 101.077 152.105 99.2915C152.897 96.8971 152.708 94.286 151.578 92.0312C150.448 89.7763 148.47 88.0616 146.077 87.2632Z" fill="#B3B3B3"/>
<path d="M150.282 97.13C150.708 95.8486 150.745 94.4697 150.387 93.1676C150.029 91.8656 149.293 90.6989 148.272 89.815C147.251 88.9313 145.991 88.37 144.651 88.2024C143.311 88.0347 141.952 88.2681 140.745 88.8731C139.538 89.4781 138.537 90.4276 137.869 91.6012C137.202 92.775 136.897 94.1204 136.994 95.4673C137.091 96.8141 137.585 98.1019 138.414 99.1678C139.243 100.234 140.37 101.03 141.651 101.456C142.502 101.738 143.4 101.851 144.294 101.787C145.189 101.722 146.061 101.482 146.863 101.081C147.664 100.679 148.379 100.123 148.966 99.4455C149.552 98.7676 150 97.9808 150.282 97.13Z" fill="#808080"/>
<path d="M145.128 98.2181C145.52 97.869 145.814 97.4239 145.981 96.9264C146.031 96.7714 146.069 96.6126 146.093 96.4513C148.228 97.2161 150.518 97.4496 152.764 97.1317L152.963 93.4418C152.963 93.4418 147.462 92.9351 145.552 94.1853C145.351 93.9063 145.104 93.6636 144.821 93.4676C145.983 91.4336 146.613 89.139 146.653 86.7969L143.042 86.0175C143.042 86.0175 141.846 90.692 142.45 93.0055C142.202 93.0581 141.96 93.142 141.733 93.2553C140.375 91.3076 135.879 89.2367 135.879 89.2367L134.21 92.5376C135.95 93.8978 137.987 94.8272 140.156 95.2501C139.988 95.9384 140.067 96.6636 140.379 97.2996H140.313C137.919 97.1761 133.168 100.888 133.168 100.888L135.464 104.068C139.55 102.202 141.492 98.9759 141.492 98.9759C141.568 98.8719 141.633 98.7603 141.687 98.6428C141.834 98.7209 141.987 98.7862 142.145 98.8381C142.498 98.9531 142.87 99.0018 143.241 98.9815C143.241 99.0318 143.241 99.0634 143.241 99.0634C143.241 99.0634 143.306 102.829 145.918 106.482L149.494 104.874C149.494 104.874 147.257 99.3361 145.128 98.2181Z" fill="#B3B3B3"/>
<path opacity="0.5" d="M145.084 96.5791C145.211 96.1968 145.222 95.7856 145.115 95.3972C145.008 95.0089 144.788 94.661 144.483 94.3976C144.179 94.1341 143.803 93.9669 143.403 93.9171C143.004 93.8673 142.598 93.9371 142.238 94.1177C141.878 94.2982 141.58 94.5816 141.381 94.9317C141.182 95.2819 141.091 95.6832 141.12 96.0849C141.149 96.4867 141.297 96.8707 141.544 97.1885C141.791 97.5064 142.127 97.7438 142.509 97.8708C142.763 97.9552 143.031 97.9889 143.298 97.9697C143.565 97.9504 143.826 97.8788 144.065 97.7588C144.304 97.6388 144.517 97.4729 144.692 97.2705C144.867 97.068 145 96.833 145.084 96.5791Z" fill="#1A1A1A"/>
<path d="M92.5075 6.2858L85.9056 16.5431C85.9056 16.5431 86.6892 17.476 90.7292 17.9783C90.7292 17.9783 91.3364 18.4318 89.4189 19.8971C89.4189 19.8971 88.4889 24.7208 94.2713 25.5488L101.185 19.9373C101.185 19.9373 98.3473 9.99145 97.8923 9.33558C97.4373 8.67971 92.5075 6.2858 92.5075 6.2858Z" fill="#E74139"/>
<path d="M91.2705 6.7162C91.2705 6.7162 88.5953 7.67772 87.0567 9.77457C85.5182 11.8713 85.8497 15.1795 85.8497 15.1795L91.2705 6.7162Z" fill="#FFCF00"/>
<path d="M92.6341 6.2856L91.3453 5.98277L85.332 15.3444L85.9146 16.5041L92.6341 6.2856Z" fill="#999999"/>
<path d="M115.625 77.9976L142.489 89.07L126.098 98.1375C126.098 98.1375 108.784 91.7524 106.888 89.8609C104.992 87.9692 115.625 77.9976 115.625 77.9976Z" fill="#4D4D4D"/>
<path d="M120.983 96.0594C120.983 96.0594 128.372 100.029 130.115 100.481C131.859 100.933 149.885 100.236 151.059 99.7436C152.233 99.2513 154.841 93.6799 154.841 93.6799L149.647 88.8003L128.021 89.3127L120.983 96.0594Z" fill="#666666"/>
<path d="M121.078 91.8429C124.517 91.8429 127.305 89.0549 127.305 85.6156C127.305 82.1763 124.517 79.3884 121.078 79.3884C117.638 79.3884 114.85 82.1763 114.85 85.6156C114.85 89.0549 117.638 91.8429 121.078 91.8429Z" fill="#808080"/>
<path opacity="0.53" d="M121.097 89.5709C123.313 89.5709 125.109 87.7743 125.109 85.5582C125.109 83.3419 123.313 81.5453 121.097 81.5453C118.88 81.5453 117.084 83.3419 117.084 85.5582C117.084 87.7743 118.88 89.5709 121.097 89.5709Z" fill="black"/>
<path opacity="0.43" d="M120.007 85.386C120.089 85.1385 120.242 84.921 120.448 84.7608C120.654 84.6007 120.902 84.5053 121.162 84.4863C121.422 84.4675 121.682 84.5261 121.908 84.6549C122.135 84.7836 122.318 84.9767 122.435 85.2096C122.552 85.4424 122.597 85.7049 122.565 85.9634C122.533 86.2221 122.424 86.4653 122.254 86.6625C122.083 86.8595 121.858 87.0015 121.607 87.0707C121.356 87.1399 121.09 87.1328 120.842 87.0507C120.511 86.9403 120.237 86.7031 120.08 86.3909C119.924 86.0788 119.898 85.7175 120.007 85.386Z" fill="white"/>
<path d="M64.968 42.8212C51.6323 38.3894 41.5917 46.8326 41.5917 46.8326C41.5917 46.8326 54.5213 49.4461 58.4135 53.4345C62.3057 57.4228 61.6541 63.4304 69.2319 65.9493L64.968 42.8212Z" fill="#E74139"/>
<path d="M156.292 65.3867L163.414 68.6373L167.096 75.7916C167.096 75.7916 167.552 78.5932 163.688 77.3101C159.825 76.0271 156.292 65.3867 156.292 65.3867Z" fill="#F24738"/>
<path d="M155.331 64.6044L158.818 66.2678L165.141 78.1295L162.867 77.8785L155.331 64.6044Z" fill="#CCCCCC"/>
<path d="M103.617 6.02312L97.1806 13.908C97.0812 14.0301 97.0328 14.1859 97.0453 14.3428C97.0579 14.4997 97.1305 14.6457 97.248 14.7504C97.3092 14.8047 97.3808 14.8459 97.4583 14.8721C97.5358 14.8981 97.6178 14.9082 97.6993 14.9019C97.7809 14.8956 97.8603 14.873 97.9329 14.8354C98.0056 14.7978 98.0699 14.7459 98.122 14.683L104.731 6.7292L103.617 6.02312Z" fill="#ADADAD"/>
<path d="M108.157 55.154C108.157 55.154 110.433 60.2015 107.913 64.497C105.134 69.2331 102.567 72.7335 88.776 68.1496C76.577 64.0966 77.7036 53.6169 80.1219 46.3419C82.5401 39.067 95.3535 26.3311 95.3535 26.3311L88.6813 19.0648C88.6813 19.0648 68.9489 29.0695 60.9708 39.3411C60.8355 39.5124 60.738 39.7105 60.685 39.9222C60.632 40.1339 60.6244 40.3547 60.663 40.5695C60.7015 40.7843 60.7852 40.9886 60.9085 41.1687C61.0318 41.3488 61.192 41.5008 61.3783 41.6144C62.7188 42.4238 64.5701 43.7328 65.0711 45.0431C65.882 47.1715 67.3128 74.2965 76.109 76.6458C96.516 82.0809 99.9045 88.0871 103.541 89.2956C107.178 90.504 117.976 80.2941 117.976 80.2941C117.976 80.2941 160.703 85.6574 165.651 83.1789C165.651 83.1789 164.933 76.7205 152.955 60.6178C152.955 60.6178 124.714 49.3817 108.157 55.154Z" fill="#606369"/>
<mask id="mask1_1_447" style="mask-type:luminance" maskUnits="userSpaceOnUse" x="60" y="19" width="106" height="71">
<path d="M108.19 55.158C108.19 55.158 110.468 60.2055 107.946 64.5011C105.167 69.2371 102.601 72.7362 88.8106 68.1535C76.6116 64.1006 77.7382 53.6209 80.1551 46.3388C82.5719 39.0566 95.3867 26.3352 95.3867 26.3352L88.7131 19.0688C88.7131 19.0688 68.9822 29.0734 61.0054 39.3451C60.8703 39.5165 60.773 39.7145 60.72 39.9261C60.667 40.1377 60.6593 40.3582 60.6977 40.573C60.7361 40.7878 60.8195 40.992 60.9426 41.1723C61.0656 41.3524 61.2255 41.5046 61.4116 41.6184C62.7535 42.4279 64.6049 43.7368 65.1057 45.0471C65.9152 47.1683 67.3475 74.3063 76.1438 76.6498C96.5492 82.085 99.9391 88.0911 103.576 89.2996C107.213 90.508 118.01 80.2981 118.01 80.2981C118.01 80.2981 160.737 85.6614 165.684 83.1828C165.684 83.1828 164.965 76.7245 152.988 60.6217C152.988 60.6217 124.749 49.3856 108.19 55.158Z" fill="white"/>
</mask>
<g mask="url(#mask1_1_447)">
<path d="M108.738 51.6847C104.384 66.3709 98.5338 75.5332 85.8855 84.4069C77.8484 90.0472 85.0057 97.2934 54.0243 104.029" stroke="#E74238" stroke-width="0.75" stroke-linejoin="bevel"/>
<path d="M90.9505 104.471C92.6368 103.858 93.9816 101.872 95.0321 100.527C97.2466 97.6968 98.8195 94.4476 100.832 91.4854C102.662 88.7886 105.185 87.2415 105.882 83.8085C106.468 80.9296 105.938 77.9243 105.011 75.1387C104.084 72.3529 102.765 69.7093 101.71 66.9667C99.9451 62.3624 98.9314 57.5046 98.7077 52.579C98.4766 47.527 99.1727 42.8024 96.9538 38.0305C95.0034 33.8383 93.2941 29.7064 90.6877 25.8156" stroke="#36393F" stroke-width="0.75" stroke-linejoin="bevel"/>
<path d="M107.549 32.9427C107.549 32.9427 106.212 37.3574 105.72 38.8356C105.228 40.3138 104.924 41.0644 105.275 41.706C105.627 42.3475 108.397 47.9289 108.822 48.9995C109.246 50.0702 109.846 51.7421 109.841 53.5262" stroke="#E74238" stroke-width="0.75" stroke-linejoin="bevel"/>
<path d="M99.1685 90.2454C102.273 88.193 112.319 64.2499 106.9 60.3749C105.809 59.5927 104.872 58.4359 104.675 57.1083C104.507 55.9703 104.456 53.7802 105.076 52.8028C107.957 48.2892 112.498 45.0127 116.362 41.3142" stroke="#37509D" stroke-width="0.75" stroke-miterlimit="10"/>
<path d="M115.894 43.7352C115.894 43.7352 117.922 46.0746 117.882 46.8739C117.842 47.6734 119.538 50.1289 117.536 52.2945" stroke="#E74238" stroke-width="0.75" stroke-linejoin="bevel"/>
<path d="M-26.6876 96.3305C-26.6876 96.3305 -5.05654 119.868 20.2315 102.288C35.4444 91.712 54.6386 103.247 63.0373 93.5736C71.436 83.9004 80.6312 87.4152 94.1809 82.1207C110.076 75.9078 119.655 53.6481 119.655 53.6481" stroke="#36393F" stroke-width="0.75" stroke-linejoin="bevel"/>
<path d="M69.1343 118.281C80.5053 110.56 104.124 92.9982 98.283 73.1279C91.9753 51.6734 84.4563 55.6948 88.0443 32.2453" stroke="#37509D" stroke-width="0.75" stroke-miterlimit="10"/>
<path d="M120.032 36.5509C114.939 37.6774 112.491 39.4642 111.027 44.4443C110.539 46.1019 110.802 47.9089 109.117 48.2921C107.957 48.5547 106.585 49.1962 105.443 49.5292C103.818 50.0042 102.3 50.5525 101.268 51.6648C99.969 53.0655 100.042 54.8796 99.0261 55.9833C97.027 58.1547 96.2992 59.1335 95.8687 61.9966C95.1353 66.7658 97.324 77.4177 94.1666 85.5696C90.6504 94.6543 74.2175 103.679 57.3398 105.133" stroke="#36393F" stroke-width="0.75" stroke-linejoin="bevel"/>
<path d="M110.305 24.3876C110.305 24.3876 130.521 14.2568 133.379 11.3118C136.236 8.36678 141.009 2.57861 142.133 1.28545C143.257 -0.00758149 147.986 -0.532914 150.397 -0.36203C152.808 -0.191274 155.09 1.74482 155.09 1.74482L157.386 3.82579" stroke="#E74238" stroke-width="0.75" stroke-linejoin="bevel"/>
<path d="M134.805 77.4534C134.805 77.4534 150.898 77.2653 160.734 78.3633C170.571 79.4612 188.103 81.0184 191.959 81.3198" stroke="#E74238" stroke-width="0.75" stroke-linejoin="bevel"/>
<path d="M116.532 7.39637C116.532 7.39637 104.593 8.86887 100.018 10.6974C95.4425 12.5257 88.2148 17.7025 84.858 19.0214C81.501 20.3403 77.7093 20.6202 75.149 23.3829C72.5885 26.1456 74.6768 32.2567 74.2878 34.4899C73.8989 36.723 72.158 37.818 70.1516 38.6605C66.2652 40.2938 62.3888 32.6699 59.7781 33.544C57.1674 34.4181 54.2441 39.7153 50.3432 40.4415C46.4423 41.1678 43.5978 44.7011 38.556 42.3403C33.5142 39.9794 21.1157 34.4094 18.0601 32.7474C15.0046 31.0856 12.4127 23.4877 10.3775 20.9403C8.34256 18.3928 2.90309 12.4253 0.964178 10.7432C-0.974732 9.06128 -6.97528 6.66019 -6.97528 6.66019" stroke="#E74238" stroke-width="0.75" stroke-linejoin="bevel"/>
<path d="M40.8967 158.339C40.8967 158.339 40.2982 156.246 39.3424 152.897C38.3866 149.549 35.5449 141.906 35.5449 141.906C35.5449 141.906 48.9093 135.674 53.1317 127.984C57.354 120.295 39.0554 116.383 44.212 111.442C54.6774 101.41 56.9966 99.0229 59.1982 95.3101C61.5089 91.4106 60.0808 89.9152 63.2669 87.6073C68.3347 83.9347 73.9017 86.1406 79.2148 83.2129C84.8334 80.1201 83.0266 77.0315 88.354 75.5102C93.6814 73.9889 97.3239 69.4753 103.462 65.0076C109.601 60.5399 118.199 53.7801 118.199 53.7801" stroke="#E74238" stroke-width="0.75" stroke-linejoin="bevel"/>
<path d="M144.052 97.358C144.052 97.358 145.831 93.3023 147.055 91.4136C148.279 89.5249 148.292 88.2174 148.292 88.2174" stroke="#E74238" stroke-width="0.75" stroke-linejoin="bevel"/>
<path d="M154.944 87.4712C154.944 87.4712 144.542 89.2867 141.199 90.3128C137.857 91.339 132.793 96.3564 130.409 100.704C128.026 105.051 125.124 109.027 123.048 110.428C120.973 111.829 109.139 118.545 107.033 119.654C104.928 120.764 102.614 121.459 100.522 121.254C98.4292 121.049 93.2367 124.448 93.2367 124.448" stroke="#E74238" stroke-width="0.75" stroke-linejoin="bevel"/>
<path d="M8.11462 204.091C13.2339 198.558 22.3631 191.851 32.5773 184.876C42.7916 177.901 60.9352 164.89 73.1615 155.957C85.3879 147.026 95.183 140.824 98.062 133.645C100.941 126.466 104.433 117.754 108.573 110.578C112.714 103.403 114.925 104.679 117.304 95.9873C119.682 87.2959 120.448 84.1457 127.815 77.34C135.182 70.5344 135.602 68.5853 146.429 61.4023C157.257 54.2191 164.203 50.8149 168.853 46.7949" stroke="#E74238" stroke-width="0.75" stroke-linejoin="bevel"/>
<path d="M-104.261 -80.4756C-103.998 -75.2472 -103.323 -72.0338 -101.423 -67.8303C-99.5232 -63.6266 -96.8309 -60.8595 -92.9199 -58.6652C-89.009 -56.4707 -76.1282 -53.4597 -76.1282 -53.4597C-76.1282 -53.4597 -74.7619 -52.8728 -72.9378 -49.3508C-71.1137 -45.8289 -66.3001 -34.7549 -64.7357 -31.4253C-63.1714 -28.0957 -54.965 -16.5855 -53.4695 -13.873C-52.4317 -12.0307 -51.3012 -10.2421 -50.0825 -8.51401C-50.0825 -8.51401 -40.385 -5.79581 -32.1642 -2.03559C-23.9434 1.72464 -3.87529 11.7522 -0.986272 13.3295C1.90275 14.9068 4.0757 18.7545 6.01742 21.8976C7.95928 25.0406 7.58177 29.6992 14.1334 32.7677C20.685 35.836 24.8471 39.6192 29.2962 40.3884C37.659 41.8352 55.009 33.9832 69.2086 33.8354C85.8023 33.6632 89.7662 48.4629 111.618 42.148C116.364 40.7745 118.826 42.5154 121.6 45.2739C124.374 48.0322 137.674 60.2788 142.649 66.2979C147.623 72.317 151.308 76.8666 150.34 88.2175C149.371 99.5683 145.787 101.718 148.935 109.984C152.082 118.249 155.837 130.535 162.066 137.874C168.297 145.211 174.505 149.487 178.617 152.097" stroke="#36393F" stroke-width="0.75" stroke-linejoin="bevel"/>
<path d="M129.745 109.431C132.472 105.665 135.431 102.672 136.312 100.31C137.193 97.9479 143.114 77.8437 145.988 67.6683C148.863 57.4929 152.854 47.0605 153.583 44.5876" stroke="#E74238" stroke-width="0.75" stroke-linejoin="bevel"/>
<path d="M82.803 16.4824C84.0845 22.8661 87.3625 25.3389 87.3625 25.3389C87.3625 25.3389 91.2073 30.332 96.8936 31.2993C102.58 32.2665 113.849 29.4163 118.793 28.8595C123.737 28.3026 128.314 30.8687 134.935 32.5277C141.555 34.1869 151.016 36.9352 151.016 36.9352" stroke="#E74238" stroke-width="0.75" stroke-linejoin="bevel"/>
<path d="M126.447 84.387C126.447 84.387 145.512 49.2077 148.781 42.5786" stroke="#E74238" stroke-width="0.75" stroke-linejoin="bevel"/>
<path d="M133.247 82.5798C125.685 81.6942 114.294 79.8055 109.76 81.9843C105.226 84.1628 102.297 85.8505 97.1922 84.5073C87.4803 81.9498 81.7511 88.8531 69.8404 86.5352C65.0484 85.6023 52.2609 84.3551 47.4744 85.2435C44.2066 85.842 23.5557 89.9652 19.8242 91.1693" stroke="#37509D" stroke-width="0.75" stroke-miterlimit="10"/>
<path d="M121.495 104.702C118.166 103.496 118.972 100.604 120.709 97.6105C122.445 94.6167 124.569 92.2199 121.57 90.393C118.57 88.5659 118.796 87.3647 121.877 82.7721C127.797 73.95 135.391 58.4931 135.391 58.4931" stroke="#36393F" stroke-width="0.75" stroke-linejoin="bevel"/>
<path d="M-3.13898 110.906C-2.23626 109.372 12.074 108.244 16.2432 105.537C16.2618 105.526 16.2432 105.508 16.2719 105.498C21.0898 103.239 21.2735 103.32 24.2544 102.239C30.8045 99.8639 33.4108 100.28 37.6202 99.3242C53.6843 95.6759 53.8809 98.1545 61.7873 95.7477C66.8406 94.2106 71.8336 92.642 78.8488 87.8155C82.6205 85.2206 86.1295 82.0461 93.8464 80.0827C99.9474 78.537 114.238 79.2216 116.144 78.3476C118.049 77.4736 118.048 72.878 124.887 71.6352C148.104 67.4143 140.849 54.9569 145.203 54.2336" stroke="#36393F" stroke-width="0.75" stroke-linejoin="bevel"/>
<path d="M28.0276 107.696C28.0276 107.696 37.197 101.981 41.4308 100.683C45.6646 99.3861 53.6543 98.9081 56.77 98.0112C61.3756 96.685 64.6019 91.7222 70.0556 92.8201C74.1631 93.6481 72.5356 98.3684 74.0842 99.7348C75.6326 101.101 76.5656 101.761 78.5246 101.921C80.4836 102.08 83.6783 99.0057 85.9704 98.0743C89.7191 96.5515 91.5675 97.5002 94.6976 95.8067C97.8279 94.1131 100.912 95.5699 103.065 91.039C105.218 86.5081 102.275 78.685 110.528 68.5353C112.507 66.0955 120.324 57.5245 121.63 54.7575C124.537 48.6134 129.758 41.5208 130.145 39.2288" stroke="#E74238" stroke-width="0.75" stroke-linejoin="bevel"/>
<path d="M103.782 -41.4417C103.782 -41.4417 72.0401 -45.2665 64.26 -15.4649C59.5785 2.45773 37.4939 6.17633 37.402 18.9868C37.3101 31.7972 28.036 35.1038 21.1844 47.9345C13.1474 62.988 20.3391 86.1304 20.3391 86.1304" stroke="#36393F" stroke-width="0.75" stroke-linejoin="bevel"/>
<path d="M170.293 70.3394C168.193 66.2261 167.66 59.9227 166.748 54.327C165.835 48.7312 160.252 29.4666 158.424 23.1447C156.595 16.8227 137.031 27.8435 134.278 18.5694C132.572 12.8286 136.114 4.7686 141.664 -3.51391C146.884 -11.3041 154.167 -17.6734 155.166 -30.2585C155.838 -38.7262 145.657 -53.355 145.325 -58.2833C144.993 -63.2118 144.728 -65.6588 148.273 -68.6986C151.818 -71.7382 155.044 -73.2137 155.044 -73.2137L158.796 -71.6349L192.442 1.29826" stroke="#36393F" stroke-width="0.75" stroke-linejoin="bevel"/>
<path d="M60.6454 119.028C60.6454 119.028 68.0466 109.545 69.9942 105.021C71.9417 100.497 73.3869 91.7206 74.8251 88.4125C76.2631 85.1044 78.7503 82.2284 78.6039 78.4624C78.4574 74.6964 72.6637 71.8605 71.3591 69.9948C70.0544 68.129 70.5122 66.1355 71.3346 64.1205C72.9291 60.2168 81.0609 62.8677 82.288 60.4035C83.5151 57.9392 81.8359 52.1267 84.0819 48.8546C86.328 45.5823 85.8415 41.0715 91.0742 39.177C96.3069 37.2826 109.014 32.4503 112.351 31.4687C115.688 30.4871 122.891 34.0218 126.129 34.385C129.366 34.748 137.435 35.1198 139.995 34.9389C142.556 34.7581 148.496 32.212 148.496 32.212" stroke="#E74238" stroke-width="0.75" stroke-linejoin="bevel"/>
<path d="M162.858 -11.4547C162.858 -11.4547 155.39 -8.96468 139.674 16.0276C136.158 21.6176 135.955 30.0924 134.249 35.0151C132.542 39.9379 128.172 51.438 126.704 53.506C125.236 55.5742 122.818 57.8978 122.65 58.5737C122.482 59.2497 126.264 62.8793 128.419 66.2303C130.575 69.5816 131.496 72.1434 131.825 73.8197C132.154 75.496 134.956 77.3387 134.956 77.3387C134.956 77.3387 141.211 77.884 143.56 77.7362C145.91 77.5884 159.93 77.2512 162.703 77.0373C165.475 76.8235 171.143 72.8437 171.143 72.8437" stroke="#E74238" stroke-width="0.75" stroke-linejoin="bevel"/>
<path d="M278.904 25.0389C275.029 21.527 272.273 19.7287 267.956 18.104C263.639 16.4795 259.775 16.4249 255.462 17.6362C251.151 18.8475 239.907 25.8325 239.907 25.8325C239.907 25.8325 238.525 26.3822 234.74 25.1824C230.956 23.9826 219.725 19.555 216.265 18.3064C212.805 17.0579 198.863 14.7185 195.886 13.8574C193.853 13.2893 191.793 12.8247 189.714 12.4652C189.714 12.4652 180.934 17.3994 172.462 20.5553C163.989 23.7113 142.707 30.8098 139.553 31.7297C136.398 32.6497 132.139 31.4729 128.544 30.6232C124.948 29.7736 121.92 26.2172 115.12 28.6771C108.32 31.137 102.692 31.4141 99.0003 34.0174C92.0612 38.9085 85.3459 56.7293 75.4088 66.8746C63.8024 78.7263 50.5313 71.061 39.5506 90.9857C37.1653 95.3113 34.1945 95.8237 30.2822 95.8323C26.3699 95.8409 8.30093 96.5916 0.532222 95.8495C-7.23648 95.1075 -13.0676 94.4961 -20.4085 85.7846C-27.7495 77.073 -26.7363 73.0186 -34.8064 69.4005C-42.8764 65.7824 -54.2187 59.7488 -63.8129 58.9638C-73.4072 58.1787 -80.8199 59.548 -85.5731 60.61" stroke="#36393F" stroke-width="0.75" stroke-linejoin="bevel"/>
</g>
<path d="M70.7513 39.506C73.2687 36.6831 75.9668 34.2318 79.2089 32.2526C82.0692 30.506 83.9177 28.9044 87.2861 25.7942C88.8835 24.6361 89.8766 23.2971 91.372 21.9939L95.3532 26.3296C95.3532 26.3296 82.5414 39.0683 80.1216 46.3419C77.7019 53.6153 76.5767 64.0965 88.7759 68.1495C102.567 72.7335 105.137 69.2287 107.913 64.497C110.433 60.2014 108.156 55.1538 108.156 55.1538C109.814 54.5907 111.521 54.1837 113.254 53.9383C113.649 56.9062 113.857 60.157 112.577 62.8508C107.739 73.0405 110.153 79.0569 112.003 81.2211C112.697 82.0349 113.597 82.6879 114.517 83.3223C113.883 83.8504 113.196 84.4073 112.477 84.9641C101.17 80.4174 89.7848 76.0028 78.9103 70.4659C77.2125 69.2086 76.3098 67.8208 75.374 66.0167C74.2259 63.7908 73.6044 60.8027 72.7979 58.4319C72.2066 56.6952 70.183 43.6853 70.0366 41.7377C70.0366 41.6602 70.0209 41.5841 70.0093 41.5082C70.1942 40.8193 70.4426 40.149 70.7513 39.506Z" fill="#E7E7E8"/>
<path d="M148.349 49.6628C143.65 48.1012 130.975 47.7597 124.305 45.5437C117.636 43.3279 111.389 39.071 103.956 46.5226C101.938 48.5447 102.549 55.8154 108.155 55.1537C113.761 54.4921 135.372 53.2607 152.953 60.6176C152.953 60.6176 160.769 57.8174 158.754 53.7946C157.592 51.4768 148.349 49.6628 148.349 49.6628Z" fill="#E7E7E8"/>
<path opacity="0.29" d="M164.69 82.5227C164.69 82.5227 159.224 69.6003 136.648 62.0972C126.191 58.6212 117.961 70.1715 121.715 77.6645C123.684 81.6013 164.69 82.5227 164.69 82.5227Z" fill="white"/>
<path opacity="0.29" d="M147.791 55.6131C147.791 55.6131 140.196 50.2585 118.657 45.3329C108.685 43.051 103.9 46.6088 108.82 49.7676C111.412 51.4281 147.791 55.6131 147.791 55.6131Z" fill="white"/>
<path d="M103.111 5.01261C102.577 6.85404 104.958 8.82446 104.958 8.82446C104.958 8.82446 108.461 1.57391 107.903 -0.798355C107.903 -0.798355 104.269 1.02283 103.111 5.01261Z" fill="#E7E7E8"/>
<path d="M161.404 77.7278C161.404 77.7278 156.597 72.4306 153.164 70.1113C149.731 67.7921 155.332 67.129 156.698 68.593C158.062 70.0567 163.019 77.9288 161.404 77.7278Z" fill="#CCCCCC"/>
<path d="M82.0795 29.5054C85.567 26.8289 90.1913 23.2811 91.2647 21.8273C91.4528 22.0311 91.6408 22.2334 91.8274 22.4372C91.8532 22.4673 91.8805 22.4946 91.9077 22.5248C90.7883 23.9599 87.8763 26.2735 82.6666 30.2748C77.5373 34.2114 70.5091 39.6035 70.512 41.2769C70.512 45.1002 73.6579 65.9161 78.3151 69.5213C82.6666 72.8897 108.145 82.2586 113.434 84.1846C113.335 84.3075 113.243 84.4355 113.157 84.5678C112.955 84.7113 112.758 84.8621 112.571 85.0257C106.265 82.7294 82.104 73.7379 77.7094 70.3351C72.4926 66.2979 69.5605 44.8261 69.5562 41.2683C69.549 39.2776 74.5046 35.3137 82.0795 29.5054Z" fill="#CCCCCC"/>
<path d="M145.529 90.4852L133.288 90.6287C132.938 90.6329 132.592 90.7121 132.275 90.8612L127.426 93.1374C127.357 93.1698 127.298 93.2191 127.254 93.2806C127.21 93.3422 127.182 93.414 127.173 93.4891C127.165 93.5643 127.175 93.6406 127.204 93.7106C127.233 93.7806 127.279 93.8422 127.338 93.8895L131.685 97.3339C133.477 98.7525 135.732 99.4556 138.013 99.3073L149.833 98.5365C149.96 98.5284 150.082 98.4894 150.19 98.4226C150.297 98.356 150.387 98.2638 150.45 98.1543C150.514 98.0447 150.55 97.9213 150.554 97.7947C150.559 97.6681 150.532 97.5423 150.476 97.4286L147.749 91.8615C147.548 91.4453 147.232 91.0949 146.839 90.8512C146.446 90.6076 145.991 90.4806 145.529 90.4852Z" fill="#E6E6E6"/>
<path opacity="0.44" d="M133.548 92.6866C133.594 92.7027 133.643 92.7114 133.692 92.7125L141.633 92.8559C141.76 92.8583 141.883 92.81 141.974 92.7217C142.066 92.6333 142.118 92.5124 142.121 92.3852C142.123 92.2581 142.075 92.1353 141.986 92.0437C141.898 91.9522 141.777 91.8996 141.65 91.8972L133.709 91.7538C133.594 91.7504 133.482 91.7889 133.393 91.8619C133.303 91.9348 133.244 92.0375 133.224 92.151C133.205 92.2645 133.227 92.3812 133.287 92.4796C133.347 92.578 133.44 92.6515 133.55 92.6866H133.548Z" fill="#050505"/>
<path opacity="0.44" d="M135.519 94.3515C135.565 94.3675 135.613 94.3762 135.662 94.3773L143.603 94.5209C143.666 94.522 143.729 94.5109 143.787 94.4879C143.846 94.465 143.899 94.4307 143.945 94.387C143.99 94.3435 144.026 94.2912 144.052 94.2335C144.077 94.1759 144.091 94.1138 144.092 94.0509C144.093 93.9879 144.082 93.9253 144.059 93.8667C144.036 93.808 144.002 93.7546 143.958 93.7091C143.914 93.6638 143.862 93.6274 143.804 93.6021C143.747 93.577 143.685 93.5633 143.622 93.5622L135.681 93.4186C135.567 93.4173 135.456 93.4566 135.369 93.5295C135.281 93.6025 135.222 93.7042 135.203 93.8166C135.184 93.9289 135.205 94.0445 135.263 94.1425C135.321 94.2405 135.412 94.3146 135.52 94.3515H135.519Z" fill="#050505"/>
<path opacity="0.44" d="M137.036 95.8656C137.082 95.8806 137.13 95.8888 137.179 95.8901L145.12 96.0336C145.247 96.0359 145.37 95.9876 145.461 95.8993C145.553 95.8111 145.606 95.69 145.608 95.5628C145.61 95.4357 145.562 95.3129 145.474 95.2214C145.385 95.1298 145.264 95.0772 145.137 95.0749L137.196 94.9314C137.082 94.9294 136.97 94.9684 136.882 95.0416C136.794 95.1147 136.735 95.2171 136.715 95.3301C136.696 95.443 136.718 95.5592 136.777 95.6575C136.836 95.7557 136.928 95.8296 137.037 95.8656H137.036Z" fill="#050505"/>
<path d="M69.394 37.745C69.522 37.7557 69.6509 37.7405 69.7727 37.7C69.8945 37.6595 70.007 37.5947 70.1031 37.5095L77.5186 30.9307C78.0138 30.0036 76.9761 30.0839 76.8785 30.1456L67.7177 36.8909C67.6507 36.9358 67.5992 37.0002 67.57 37.0753C67.5408 37.1505 67.5353 37.2327 67.5545 37.311C67.5736 37.3892 67.6163 37.4598 67.6769 37.5131C67.7373 37.5663 67.8128 37.5996 67.8928 37.6085L69.394 37.745Z" fill="#CCCCCC"/>
<path d="M98.907 21.8103C100.428 21.8103 101.661 20.5772 101.661 19.0561C101.661 17.5351 100.428 16.302 98.907 16.302C97.3859 16.302 96.1528 17.5351 96.1528 19.0561C96.1528 20.5772 97.3859 21.8103 98.907 21.8103Z" fill="#ADADAD"/>
<path d="M97.4675 18.4519C97.5722 18.1373 97.7678 17.8609 98.0295 17.6573C98.2912 17.4539 98.6075 17.3326 98.9381 17.3089C99.2687 17.2852 99.5991 17.36 99.8872 17.524C100.175 17.688 100.408 17.9337 100.557 18.2301C100.705 18.5265 100.763 18.8602 100.722 19.1892C100.68 19.5181 100.543 19.8275 100.326 20.0782C100.109 20.3287 99.8221 20.5095 99.5024 20.5972C99.1828 20.6851 98.8442 20.6763 98.5296 20.5717C98.3207 20.5023 98.1275 20.3924 97.961 20.2483C97.7946 20.1042 97.6581 19.9287 97.5595 19.7318C97.4609 19.5349 97.402 19.3206 97.3862 19.101C97.3704 18.8813 97.3981 18.6609 97.4675 18.4519Z" fill="#4D4D4D"/>
<path opacity="0.31" d="M97.3845 10.0932L96.2492 11.7351L89.5426 9.00248L91.0438 6.64008L97.3845 10.0932Z" fill="white"/>
<path opacity="0.31" d="M45.3776 46.0721C45.3776 46.0721 53.4075 40.6614 62.142 43.727C62.142 43.727 64.213 45.0889 63.5571 46.0492C62.9013 47.0093 54.5671 44.245 45.3776 46.0721Z" fill="white"/>
<path opacity="0.19" d="M110.384 52.6248C118.312 53.6381 126.414 52.1584 134.378 53.0554C138.995 53.5966 143.529 54.6949 147.883 56.3261C150.153 57.1786 152.23 58.5838 154.594 59.1737C154.928 59.2571 155.267 59.316 155.61 59.3502C154.759 59.8439 153.869 60.2672 152.949 60.6159C135.374 53.2606 113.761 54.4906 108.157 55.1537C104.298 55.6087 102.805 52.3049 102.908 49.5421C104.76 51.5801 107.735 52.2905 110.384 52.6248Z" fill="#050505"/>
<path d="M140.147 41.6102L141.121 40.6945L141.09 40.6041L141.4 40.4347C141.449 40.3902 141.562 40.7318 141.589 40.8121L141.701 41.1436L142.014 42.0636L142.424 43.2692L142.907 44.6887L143.436 46.2486C143.622 46.7911 143.807 47.3342 143.99 47.8776C144.174 48.4211 144.358 48.9631 144.541 49.5036C144.718 50.0183 144.895 50.5346 145.07 51.0522C145.227 51.5201 145.386 51.9875 145.546 52.4544C145.679 52.8491 145.813 53.2423 145.948 53.637L146.249 54.5268L146.429 55.052C146.442 55.0894 146.454 55.1267 146.466 55.164L146.374 55.2142L139.949 41.7005L140.147 41.6102Z" fill="#282930"/>
<path d="M146.373 55.2155L139.876 41.663L140.951 41.1306L146.433 55.1825L146.373 55.2155Z" fill="#474B4F"/>
<path d="M139.877 41.963L141.416 44.8764L140.951 41.1306L139.877 41.963Z" fill="#110E19"/>
<path d="M131.734 46.3345C131.802 46.2971 131.866 46.2628 131.915 46.2325C132.221 46.0417 132.539 45.8609 132.846 45.6872C133.23 45.4691 133.626 45.2438 133.995 44.9997L141.129 40.2708L141.272 40.2923L141.376 40.3684C141.431 40.4121 141.472 40.4709 141.495 40.5378L141.568 40.7531L141.505 40.7603L135.23 45.9915L134.226 46.8296C133.956 47.0564 133.686 47.2827 133.415 47.5084C133.369 47.5472 133.3 47.6161 133.221 47.6951C132.839 48.0768 132.201 48.7155 131.559 48.5418C131.418 48.4947 131.287 48.4196 131.175 48.321C131.063 48.2223 130.972 48.1022 130.907 47.9678C130.838 47.8592 130.791 47.7373 130.771 47.6099C130.75 47.4824 130.756 47.3521 130.788 47.2271C130.919 46.7808 131.41 46.5124 131.734 46.3345Z" fill="#282930"/>
<path d="M132.043 45.3615C132.121 45.1433 133.402 44.7945 133.402 44.7945L133.776 44.5462L134.744 43.9047L136.068 43.0265L137.519 42.0648L138.861 41.1751L139.866 40.512C140.013 40.3935 140.175 40.2932 140.347 40.2134C140.448 40.1891 140.553 40.1891 140.654 40.2134L141.037 40.2608C141.105 40.2585 141.172 40.2668 141.238 40.2851C141.238 40.2851 141.261 40.314 141.264 40.3154C141.12 40.4459 132.961 47.4827 132.384 47.7582C131.807 48.0337 131.236 47.8616 130.805 47.23C130.477 46.7808 131.964 45.581 132.043 45.3615Z" fill="#474B4F"/>
<path d="M131.121 47.2802C131.121 47.2802 131.001 48.0408 131.898 47.9217C132.795 47.8026 135.655 44.6969 136.45 43.8947C137.245 43.0924 138.385 41.5481 137.519 42.0648C136.228 42.8326 132.268 46.0904 131.915 46.2268C131.562 46.3631 131.121 47.2802 131.121 47.2802Z" fill="#110E19"/>
<path d="M141.367 40.3613C141.352 40.3422 141.333 40.3264 141.312 40.3152C141.29 40.3038 141.266 40.297 141.242 40.2953C141.213 40.2969 141.185 40.3057 141.16 40.3211L141.086 40.3656C141.025 40.4031 140.966 40.4443 140.911 40.489C140.661 40.687 140.319 40.9841 139.906 41.3387L136.921 43.9564C135.836 44.9109 134.744 45.8566 133.917 46.5569C133.505 46.9072 133.156 47.1942 132.912 47.3893C132.787 47.4855 132.688 47.5602 132.618 47.6075C132.548 47.6549 132.508 47.6764 132.508 47.6764C132.546 47.6565 132.584 47.6345 132.62 47.6104C132.691 47.566 132.793 47.4941 132.921 47.4009C133.176 47.2143 133.534 46.9373 133.957 46.5986C134.802 45.9212 135.908 44.9898 137.011 44.0584L138.63 42.6863C138.888 42.4667 139.141 42.2557 139.375 42.0548L140.032 41.4807C140.434 41.1148 140.75 40.799 140.988 40.588L141.14 40.4446C141.173 40.41 141.209 40.3792 141.248 40.3527C141.275 40.3441 141.305 40.3441 141.333 40.3527C141.344 40.3541 141.356 40.3569 141.367 40.3613Z" fill="#606369"/>
<path d="M140.978 41.201C140.975 41.2559 140.98 41.311 140.993 41.3646C141.031 41.5087 141.079 41.6501 141.136 41.7879C141.279 42.1467 141.472 42.662 141.71 43.2777C141.948 43.8934 142.234 44.611 142.535 45.3788L143.49 47.7841C144.14 49.4218 144.791 51.0578 145.279 52.2863L146.1 54.33C146.1 54.33 145.787 53.5062 145.32 52.2706C144.852 51.0349 144.217 49.3915 143.589 47.7454L142.662 45.33C142.363 44.5594 142.088 43.8418 141.846 43.2246L141.257 41.7421C141.207 41.601 141.148 41.4638 141.079 41.3315C141.052 41.2832 141.018 41.2392 140.978 41.201Z" fill="#606369"/>
<path d="M120.525 32.1449L120.584 32.1233C120.871 32.0257 120.987 32.1133 121.426 32.2453C121.778 32.3515 121.979 32.3602 122.08 32.63C122.092 32.6715 122.102 32.7136 122.11 32.7563C122.164 32.9888 122.22 33.2227 122.276 33.4552L122.55 34.6105C122.663 35.089 122.777 35.5673 122.892 36.0457C123.015 36.5643 123.138 37.0828 123.261 37.6015L123.618 39.1027C123.719 39.5332 123.82 39.9552 123.921 40.3814L124.132 41.2683L124.209 41.5927C124.377 42.0921 124.546 42.5906 124.717 43.0881C124.861 43.4957 124.994 43.9019 125.132 44.3095C125.157 44.3827 125.204 44.4932 125.257 44.6195C125.521 45.241 125.919 46.1795 125.574 46.7723C125.491 46.906 125.377 47.0178 125.242 47.098C125.106 47.1782 124.954 47.2244 124.796 47.233C124.662 47.2512 124.526 47.2429 124.395 47.2086C123.716 47.0249 123.572 46.168 123.477 45.6012C123.462 45.5079 123.447 45.4189 123.433 45.3486C123.341 44.918 123.262 44.4875 123.186 44.0683C123.091 43.5417 122.994 42.9963 122.869 42.4711L120.44 32.1937L120.525 32.1449Z" fill="#282930"/>
<path d="M109.273 45.2625L120.59 32.8394L121.072 34.4181L109.315 45.294L109.273 45.2625Z" fill="#282930"/>
<path d="M120.703 32.8711L121.164 34.401L116.771 38.3995L120.703 32.8711Z" fill="#110E19"/>
<path d="M109.245 45.2397L109.85 44.5321L111.413 42.708L113.557 40.205C114.339 39.2941 115.121 38.3819 115.902 37.4682L118.071 34.9364L119.687 33.0507C119.983 32.7062 120.43 32.0575 120.692 32.0847C120.924 32.0703 120.979 32.6588 121.016 32.8196L121.27 33.7783L121.656 35.235C121.656 35.2464 122.219 37.1782 122.214 37.1897L121.891 38.3781L120.674 33.1927C120.671 33.1794 120.664 33.1673 120.654 33.1575C120.645 33.1478 120.632 33.1409 120.619 33.1373C120.606 33.1338 120.592 33.1339 120.579 33.1375C120.565 33.1413 120.553 33.1484 120.544 33.1583L109.302 45.287L109.245 45.2397Z" fill="#474B4F"/>
<path d="M122.296 37.1696L121.55 34.6106L121.276 33.6705C121.19 33.3706 121.118 33.0878 121.056 32.8453C121.011 32.6489 120.956 32.4549 120.891 32.264C120.874 32.2104 120.845 32.1614 120.806 32.1205C120.842 32.1627 120.868 32.2115 120.884 32.264C120.942 32.4566 120.99 32.6521 121.027 32.8497C121.082 33.0936 121.145 33.3778 121.223 33.6806C121.3 33.9833 121.385 34.3063 121.469 34.6278C121.807 35.9194 122.143 37.2112 122.143 37.2112L122.296 37.1696Z" fill="#606369"/>
<path d="M131.09 32.4879C130.039 32.2016 128.94 32.1423 127.865 32.314C126.79 32.4857 125.764 32.8846 124.855 33.484C123.345 34.4772 122.58 35.8722 122.069 37.7493C121.665 39.2376 121.83 40.7633 122.213 42.0793C122.931 44.5622 124.384 46.5758 127.058 47.3034C128.031 47.5681 129.046 47.6387 130.046 47.5111C131.047 47.3835 132.012 47.0601 132.887 46.5595C133.762 46.0589 134.53 45.3908 135.147 44.5934C135.764 43.796 136.218 42.8848 136.482 41.912C136.747 40.9393 136.818 39.9238 136.69 38.9238C136.562 37.9237 136.239 36.9586 135.738 36.0834C135.238 35.2084 134.57 34.4404 133.772 33.8235C132.975 33.2066 132.064 32.7527 131.091 32.4879H131.09Z" fill="url(#paint0_radial_1_447)"/>
<path d="M126.213 36.973C126.092 36.9417 125.965 36.9329 125.841 36.9471C125.267 37.0132 124.91 37.5499 124.745 37.8627C124.4 38.5144 124.261 39.3956 124.364 40.281C124.508 41.4909 125.192 42.9132 126.191 43.1628C126.313 43.1942 126.439 43.2029 126.564 43.1887C127.648 43.0638 128.212 41.3315 128.041 39.8548C127.901 38.6449 127.213 37.224 126.213 36.973Z" fill="#110E19"/>
<path d="M125.987 46.095C123.924 45.5797 122.323 43.3681 122.001 40.5839C121.82 39.0253 122.076 37.4954 122.719 36.2783C123.429 34.9336 124.573 34.0768 125.86 33.9275C126.292 33.8784 126.73 33.9075 127.152 34.0137C129.213 34.5303 130.814 36.7405 131.137 39.5262C131.535 42.962 129.846 45.8869 127.277 46.184C126.845 46.232 126.408 46.2019 125.987 46.095ZM126.035 36.2827C125.888 36.2445 125.735 36.2338 125.583 36.2511C124.891 36.3315 124.451 36.983 124.25 37.3633C123.832 38.1555 123.663 39.2291 123.788 40.3012C123.959 41.7723 124.792 43.4988 126.008 43.803C126.156 43.8404 126.309 43.8512 126.46 43.8345C127.778 43.6811 128.469 41.577 128.256 39.7845C128.085 38.3134 127.249 36.5869 126.035 36.2827Z" fill="#110E19"/>
<path d="M125.854 46.2831C123.768 45.7091 122.147 43.45 121.823 40.6485C121.638 39.0569 121.9 37.4911 122.559 36.2439C123.295 34.8504 124.488 33.962 125.83 33.8042C126.283 33.7518 126.741 33.7824 127.183 33.8946L127.262 33.9147C129.349 34.4887 130.969 36.7478 131.295 39.5492C131.49 41.247 131.192 42.8831 130.453 44.1575C129.714 45.432 128.58 46.2414 127.287 46.3907C126.834 46.4431 126.375 46.4125 125.933 46.3002L125.854 46.2831ZM127.175 34.2391L127.103 34.2204C126.7 34.1183 126.282 34.0906 125.869 34.1385C124.637 34.2821 123.538 35.1044 122.855 36.4004C122.226 37.5901 121.978 39.0856 122.154 40.6098C122.463 43.2777 123.984 45.4278 125.942 45.9616L126.014 45.9803C126.417 46.0823 126.836 46.1101 127.249 46.0621C128.435 45.9257 129.47 45.1909 130.164 43.994C130.859 42.797 131.152 41.2169 130.964 39.5908C130.654 36.9227 129.132 34.7715 127.176 34.2391H127.175ZM125.92 43.9983C124.95 43.7342 123.845 42.4009 123.61 40.3644C123.482 39.2565 123.656 38.1499 124.089 37.3289C124.306 36.9185 124.785 36.2181 125.552 36.1292C125.723 36.11 125.896 36.1216 126.062 36.1636L126.097 36.1736C127.067 36.4378 128.172 37.771 128.409 39.8075C128.518 40.7304 128.403 41.666 128.072 42.5344C127.71 43.4329 127.14 43.9696 126.467 44.0471C126.296 44.0663 126.122 44.0545 125.955 44.0127L125.92 43.9983ZM126.009 36.4952L125.982 36.488C125.854 36.4548 125.72 36.4456 125.589 36.4607C124.975 36.531 124.57 37.1323 124.385 37.4854C123.981 38.2475 123.821 39.2822 123.941 40.3256C124.102 41.7206 124.881 43.3697 126.008 43.6768L126.037 43.684C126.164 43.7171 126.297 43.7263 126.428 43.7112C126.975 43.6481 127.449 43.1845 127.762 42.4053C128.07 41.5898 128.178 40.7122 128.077 39.8462C127.915 38.4542 127.136 36.8052 126.009 36.498V36.4952Z" fill="#606369"/>
<path d="M126.171 45.6917C124.306 45.2252 122.862 43.2231 122.57 40.7115C122.407 39.3036 122.638 37.9215 123.219 36.8208C123.861 35.6051 124.895 34.8315 126.058 34.6966C126.449 34.6519 126.846 34.6787 127.228 34.7756C129.093 35.2421 130.537 37.2427 130.829 39.7557C131.189 42.86 129.656 45.4964 127.341 45.7692C126.95 45.8151 126.553 45.7889 126.171 45.6917ZM126.214 36.8265C126.081 36.7921 125.943 36.7824 125.807 36.7977C125.183 36.8696 124.784 37.4579 124.603 37.8024C124.224 38.52 124.072 39.4859 124.185 40.4561C124.339 41.785 125.094 43.3451 126.194 43.6207C126.327 43.6546 126.465 43.6638 126.602 43.648C127.792 43.5115 128.412 41.61 128.224 39.9897C128.069 38.6607 127.32 37.1005 126.216 36.8265H126.214Z" fill="#1B1D23"/>
<path d="M126.267 44.423C124.832 44.0614 123.704 42.5114 123.479 40.5667C123.342 39.5343 123.518 38.4846 123.983 37.5528C124.479 36.6113 125.274 36.0128 126.18 35.908C126.482 35.8736 126.789 35.8941 127.084 35.9684C128.519 36.33 129.647 37.88 129.873 39.8247C130.151 42.2272 128.964 44.2738 127.172 44.4804C126.869 44.5158 126.563 44.4964 126.267 44.423Z" fill="#E74139"/>
<path d="M129.406 47.0277C129.463 46.9273 129.931 46.2312 129.931 46.2312C130.17 45.7648 130.695 45.0916 130.936 44.6409C131.247 44.0755 131.569 43.4928 131.857 42.9044L137.275 31.8534C137.312 31.8176 137.348 31.7789 137.383 31.7387L137.61 31.6727L137.805 31.7717L138.914 32.6227L133.498 43.0092L132.792 44.7816L132.218 46.224C132.182 46.3144 132.136 46.4521 132.084 46.6115C131.77 47.5644 131.243 49.1604 130.211 48.8805C130.095 48.8489 129.752 48.9508 129.637 48.8704C128.792 48.2806 129.021 47.7108 129.406 47.0277Z" fill="#474B4F"/>
<path d="M136.936 33.4065C136.936 33.4065 132.225 42.9548 131.383 44.4775C130.54 46.0002 128.099 48.9266 130.18 48.9954C131.007 49.0227 131.353 48.8792 132.333 46.7537C132.784 45.7691 136.852 36.7835 136.852 36.7835L136.936 33.4065Z" fill="#282930"/>
<path d="M136.393 37.7824L132.981 45.3028L136.436 34.5791L136.866 33.54L136.393 37.7824Z" fill="#110E19"/>
<path d="M123.719 45.185C123.967 45.5282 124.273 45.8259 124.623 46.0648C124.959 46.2657 125.28 46.4901 125.584 46.7365C125.55 46.8433 125.488 46.9392 125.405 47.0147C125.322 47.0903 125.22 47.1428 125.111 47.167C124.708 47.2819 124.207 46.8799 124.122 46.7365C123.831 46.2513 123.719 45.185 123.719 45.185Z" fill="#110E19"/>
<path d="M137.699 31.6382L137.875 31.6956C137.952 31.7316 138.031 31.7627 138.112 31.789L139.072 32.2883C139.113 32.3092 139.145 32.3425 139.165 32.3834C139.185 32.4242 139.191 32.4705 139.183 32.5152L134.783 55.8584C134.742 55.8469 134.701 55.8383 134.659 55.8297L136.612 34.1212L137.608 31.6382C137.64 31.6354 137.67 31.6382 137.699 31.6382Z" fill="#282930"/>
<path d="M137.429 31.6886L137.469 31.6628C137.525 31.6488 137.581 31.6397 137.638 31.6355L134.708 55.8384L134.662 55.8298L136.701 33.4955L137.298 31.8335C137.345 31.7879 137.388 31.7396 137.429 31.6886Z" fill="#474B4F"/>
<path d="M127.987 41.5567L126.695 42.8039C126.662 42.8352 126.619 42.8538 126.574 42.8559C126.528 42.858 126.484 42.8436 126.448 42.8154L125.043 41.6916C125.022 41.6743 125.004 41.6524 124.992 41.6275C124.981 41.6028 124.974 41.5756 124.974 41.5481L124.859 39.0179C124.858 38.9912 124.863 38.9646 124.872 38.9399C124.882 38.9152 124.897 38.8927 124.917 38.8743L126.208 37.6287C126.241 37.5969 126.284 37.5783 126.33 37.5761C126.375 37.5741 126.42 37.5886 126.455 37.6171L127.859 38.7409C127.881 38.758 127.898 38.7798 127.91 38.8046C127.923 38.8295 127.929 38.8567 127.929 38.8844L128.044 41.4132C128.045 41.4399 128.041 41.4665 128.031 41.4912C128.021 41.516 128.006 41.5384 127.987 41.5567Z" fill="#110E19"/>
<path opacity="0.79" d="M128.063 39.8689C127.378 39.8689 126.939 38.3175 127.919 38.1596C128.053 38.1359 128.192 38.1553 128.314 38.2152C128.437 38.275 128.537 38.3721 128.601 38.4926C128.705 38.6654 128.754 38.8658 128.741 39.0671C128.728 39.2684 128.654 39.4611 128.529 39.6193C128.474 39.6916 128.403 39.7513 128.323 39.7944C128.242 39.8374 128.154 39.8629 128.063 39.8689Z" fill="white"/>
<path opacity="0.79" d="M126.939 39.3494C126.643 39.3494 126.454 38.6792 126.879 38.6118C126.937 38.6013 126.996 38.6097 127.049 38.6354C127.102 38.6613 127.146 38.7032 127.173 38.7553C127.218 38.83 127.239 38.9163 127.233 39.0032C127.228 39.09 127.196 39.1733 127.143 39.2418C127.118 39.2728 127.087 39.2985 127.052 39.317C127.017 39.3355 126.979 39.3466 126.939 39.3494Z" fill="white"/>
<path d="M120.63 33.1411L120.537 33.1281L120.527 33.1367C120.3 33.3234 120.083 33.5185 119.872 33.7194L119.714 33.8715L119.562 34.0323L119.261 34.3494L118.054 35.6167C117.656 36.0473 117.257 36.4678 116.864 36.8984C116.471 37.3289 116.079 37.7594 115.689 38.19C114.909 39.0512 114.123 39.9194 113.351 40.7935L112.19 42.1008L111.042 43.4169L112.259 42.1612L113.467 40.8967C114.275 40.0543 115.069 39.2004 115.868 38.3522C116.269 37.9274 116.667 37.5016 117.062 37.0749C117.461 36.6443 117.852 36.2138 118.243 35.7833L119.407 34.4772L119.694 34.1514L119.838 33.9906L119.981 33.8328C120.182 33.6204 120.377 33.4023 120.563 33.1769L120.547 33.1855L120.63 33.1411Z" fill="#606369"/>
<path d="M134.891 54.3126L135.372 50.7749C135.516 49.7129 135.669 48.4786 135.841 47.1468C136.014 45.8149 136.183 44.4028 136.361 42.9847L136.622 40.8707C136.704 40.1732 136.786 39.4872 136.865 38.8228C136.944 38.1582 137.017 37.5153 137.089 36.9053C137.161 36.2954 137.218 35.7184 137.277 35.1831C137.394 34.1182 137.483 33.2298 137.545 32.6084C137.607 31.9869 137.638 31.631 137.638 31.631L137.495 32.6027C137.406 33.2212 137.281 34.1053 137.142 35.1659C137.07 35.6969 136.998 36.2724 136.914 36.8795C136.829 37.4866 136.757 38.1309 136.674 38.7955C136.591 39.4599 136.506 40.1445 136.42 40.842C136.334 41.5395 136.253 42.2485 136.169 42.9574L135.679 47.1195C135.536 48.4485 135.392 49.6899 135.269 50.7548C135.044 52.8918 134.891 54.3126 134.891 54.3126Z" fill="#606369"/>
<path d="M136.659 33.9592C136.531 34.1418 136.417 34.3337 136.316 34.5332C136.126 34.9135 135.853 35.4546 135.527 36.1047C135.201 36.7548 134.809 37.5126 134.408 38.3235L133.776 39.5764L133.13 40.8681C132.7 41.7292 132.269 42.6033 131.839 43.4098C131.408 44.2165 130.978 44.9369 130.616 45.5626C130.254 46.1883 129.957 46.7236 129.765 47.1025C129.667 47.292 129.593 47.4412 129.545 47.5446L129.476 47.7054L129.558 47.5518C129.616 47.4527 129.702 47.3077 129.806 47.1212C130.027 46.7581 130.345 46.2429 130.732 45.6258L131.345 44.6211C131.559 44.2637 131.788 43.8863 131.998 43.4801C132.42 42.6721 132.859 41.8067 133.29 40.9398C133.508 40.5093 133.72 40.0787 133.938 39.6482C134.156 39.2176 134.357 38.7986 134.558 38.391L135.65 36.1565L136.081 35.2651C136.209 34.9982 136.326 34.7671 136.412 34.5734C136.51 34.375 136.592 34.1696 136.659 33.9592Z" fill="#606369"/>
<path d="M130.21 38.7598L122.567 39.0138C122.567 39.0138 123.664 35.0225 126.422 35.258C129.181 35.4933 130.21 38.7598 130.21 38.7598Z" fill="#1B1D23"/>
<path d="M123.014 41.6343L130.656 41.3789C130.656 41.3789 129.56 45.3701 126.801 45.1348C124.043 44.8995 123.014 41.6343 123.014 41.6343Z" fill="#1B1D23"/>
</g>
</g>
<defs>
<radialGradient id="paint0_radial_1_447" cx="0" cy="0" r="1" gradientUnits="userSpaceOnUse" gradientTransform="translate(125.51 30.7992) rotate(-164.846) scale(12.9809)">
<stop stop-color="#555761"/>
<stop offset="1" stop-color="#16181E"/>
</radialGradient>
<clipPath id="clip0_1_447">
<rect width="209" height="113" fill="white"/>
</clipPath>
</defs>
</svg>
