<svg width="209" height="113" viewBox="0 0 209 113" fill="none" xmlns="http://www.w3.org/2000/svg">
<g clip-path="url(#clip0_1_65)">
<mask id="mask0_1_65" style="mask-type:luminance" maskUnits="userSpaceOnUse" x="39" y="-2" width="130" height="130">
<path d="M169 -2H39V128H169V-2Z" fill="white"/>
</mask>
<g mask="url(#mask0_1_65)">
<path d="M112.605 74.3906C112.42 74.5448 112.244 74.7096 112.059 74.8721C110.236 69.7889 107.41 65.5579 103.953 62.7039C100.51 65.5459 97.6938 69.7552 95.8714 74.8095C95.7138 74.6663 95.5572 74.5206 95.3899 74.3859C91.5489 77.5649 88.9538 83.475 88.9538 90.2614C88.9538 97.048 91.5489 102.963 95.3948 106.132C95.9885 105.636 96.5399 105.091 97.0438 104.504C98.8132 108.297 101.178 111.478 103.953 113.772C106.746 111.467 109.121 108.259 110.894 104.435C111.415 105.05 111.987 105.619 112.605 106.136C116.451 102.963 119.046 97.048 119.046 90.2614C119.046 83.475 116.451 77.5648 112.605 74.3906Z" fill="#E13017"/>
<path d="M110.609 77.6046C110.465 77.7249 110.327 77.8453 110.188 77.9777C108.79 74.0742 106.619 70.8242 103.964 68.6346C101.316 70.8169 99.1577 74.0513 97.7578 77.9296C97.6374 77.8201 97.517 77.7081 97.3967 77.6046C94.444 80.0421 92.453 84.5861 92.453 89.7921C92.453 94.9981 94.444 99.5421 97.3967 101.978C97.8529 101.598 98.2768 101.18 98.6642 100.729C100.022 103.641 101.838 106.084 103.969 107.842C106.113 106.073 107.941 103.609 109.299 100.674C109.699 101.146 110.139 101.582 110.613 101.978C113.566 99.5421 115.557 94.9969 115.557 89.7921C115.557 84.5873 113.561 80.0421 110.609 77.6046Z" fill="#F2B00A"/>
<path d="M108.894 75.2779C108.788 75.3645 108.686 75.4584 108.584 75.5535C107.547 72.6646 105.936 70.2572 103.974 68.6334C102.015 70.25 100.413 72.643 99.3766 75.5186C99.2875 75.4367 99.1984 75.3537 99.1057 75.2779C96.9186 77.0834 95.4441 80.4442 95.4441 84.3056C95.4441 88.1671 96.9186 91.5279 99.1057 93.3334C99.4436 93.0507 99.7576 92.7408 100.045 92.4065C101.051 94.5636 102.395 96.3788 103.974 97.6764C105.561 96.3655 106.913 94.5467 107.92 92.3656C108.217 92.714 108.543 93.0362 108.894 93.3286C111.081 91.5231 112.556 88.1623 112.556 84.3009C112.556 80.4394 111.081 77.0834 108.894 75.2779Z" fill="#FEDC7A"/>
<path d="M84.0571 78.1425H72.6099V88.238H84.0571V78.1425Z" fill="#C4423F"/>
<path d="M75.6311 78.1425H72.6099V88.238H75.6311V78.1425Z" fill="#B53633"/>
<path d="M84.1617 78.1425H81.1392V88.238H84.1617V78.1425Z" fill="#B53633"/>
<path d="M84.1605 84.3392H72.6099V85.9077H84.1605V84.3392Z" fill="#EFEFEF"/>
<path d="M85.7098 91.9659H71.062L72.6099 88.238H84.1619L85.7098 91.9659Z" fill="#E7E7E8"/>
<path d="M72.6099 88.238L71.062 91.9659H74.1205L75.6698 88.238H72.6099Z" fill="#606369"/>
<path opacity="0.79" d="M84.199 88.238L85.7482 91.9659H82.6872L81.1392 88.238H84.199Z" fill="white"/>
<path d="M82.6499 75.5077H74.1204L72.6099 78.1426H84.1618L82.6499 75.5077Z" fill="#EAC257"/>
<path d="M82.6499 75.5077L84.1617 78.1426H81.1019L79.59 75.5077H82.6499Z" fill="#F7DC9F"/>
<path d="M74.1204 75.5077L72.6099 78.1426H75.6696L77.1803 75.5077H74.1204Z" fill="#C99D3A"/>
<path d="M82.9015 73.3519H72.6099V49.2284C72.6099 48.5524 72.7431 47.883 73.0019 47.2584C73.2607 46.6338 73.6401 46.0664 74.1183 45.5886C74.5965 45.1107 75.1642 44.7317 75.789 44.4733C76.4137 44.215 77.0832 44.0822 77.7593 44.0826C79.124 44.0826 80.4329 44.6247 81.398 45.5898C82.363 46.5549 82.9051 47.8637 82.9051 49.2284L82.9015 73.3519Z" fill="#E7E7E8"/>
<path d="M79.164 44.2824C78.3986 44.0623 77.5926 44.0232 76.8095 44.1682C76.0265 44.3133 75.2879 44.6385 74.6522 45.1182C74.0164 45.5978 73.501 46.2187 73.1465 46.9318C72.7921 47.645 72.6084 48.4308 72.6099 49.2272V73.3518H75.4265V49.2272C75.4271 48.1087 75.7923 47.0208 76.4667 46.1285C77.1412 45.2363 78.0881 44.5881 79.164 44.2824Z" fill="#606369"/>
<path d="M88.5373 79.2981H68.5173C67.6633 79.298 66.8199 79.1082 66.0483 78.7422C65.2766 78.3764 64.5959 77.8435 64.0553 77.1824C63.5147 76.5212 63.1278 75.7482 62.9225 74.9192C62.7173 74.0902 62.6987 73.2259 62.8684 72.3889C63.0212 71.6337 63.3243 70.9169 63.7596 70.2811C64.1949 69.6453 64.7535 69.1033 65.4022 68.6876C72.1308 64.3722 93.2077 49.669 93.2077 34.8045L94.2983 73.3736C94.3196 74.1436 94.1864 74.9101 93.9065 75.6279C93.6267 76.3456 93.2058 76.9999 92.6688 77.5523C92.1317 78.1046 91.4894 78.5437 90.7798 78.8436C90.0702 79.1434 89.3077 79.298 88.5373 79.2981Z" fill="#E74139"/>
<path d="M65.4023 73.9947C72.131 69.6795 93.2079 54.9762 93.2079 40.1117L94.1841 74.6676C94.2731 74.2414 94.3134 73.8065 94.3044 73.3712L93.2139 34.8022C93.2139 49.6667 72.1359 64.37 65.4083 68.6852C64.1985 69.4616 63.3226 70.6622 62.9529 72.0514C62.5832 73.4405 62.7463 74.9177 63.4102 76.1927C63.8701 75.2981 64.5571 74.5402 65.4023 73.9947Z" fill="#BC3C39"/>
<path d="M123.671 88.2392H135.118V78.1438H123.671V88.2392Z" fill="#C4423F"/>
<path d="M132.098 88.2392H135.12V78.1438H132.098V88.2392Z" fill="#B53633"/>
<path d="M123.569 88.2392H126.59V78.1438H123.569V88.2392Z" fill="#B53633"/>
<path d="M123.569 85.9065H135.12V84.3381H123.569V85.9065Z" fill="#EFEFEF"/>
<path d="M122.02 91.9659H136.667L135.118 88.238H123.567L122.02 91.9659Z" fill="#E7E7E8"/>
<path d="M135.118 88.238L136.667 91.9659H133.608L132.06 88.238H135.118Z" fill="#606369"/>
<path opacity="0.79" d="M123.53 88.238L121.981 91.9659H125.041L126.59 88.238H123.53Z" fill="white"/>
<path d="M125.079 75.5077H133.608L135.118 78.1426H123.568L125.079 75.5077Z" fill="#EAC257"/>
<path d="M125.079 75.5077L123.568 78.1426H126.627L128.138 75.5077H125.079Z" fill="#F7DC9F"/>
<path d="M133.608 75.5077L135.118 78.1426H132.06L130.548 75.5077H133.608Z" fill="#C99D3A"/>
<path d="M124.824 73.3519H135.116V49.2284C135.116 47.8637 134.574 46.5549 133.609 45.5898C132.644 44.6247 131.335 44.0826 129.97 44.0826C128.605 44.0826 127.296 44.6247 126.331 45.5898C125.366 46.5549 124.824 47.8637 124.824 49.2284V73.3519Z" fill="#E7E7E8"/>
<path d="M128.565 44.2824C129.331 44.0623 130.137 44.0232 130.92 44.1682C131.703 44.3133 132.441 44.6385 133.077 45.1182C133.713 45.5978 134.228 46.2187 134.583 46.9318C134.937 47.645 135.121 48.4308 135.119 49.2272V73.3518H132.303V49.2272C132.302 48.1087 131.937 47.0208 131.262 46.1285C130.588 45.2363 129.641 44.5881 128.565 44.2824Z" fill="#606369"/>
<path d="M119.192 79.2981H139.212C140.066 79.298 140.909 79.1082 141.681 78.7422C142.453 78.3764 143.133 77.8435 143.674 77.1824C144.215 76.5212 144.602 75.7482 144.807 74.9192C145.012 74.0902 145.031 73.2259 144.861 72.3889C144.708 71.6338 144.405 70.9171 143.969 70.2813C143.534 69.6455 142.976 69.1034 142.327 68.6876C135.597 64.3722 114.522 49.669 114.522 34.8045L113.431 73.3736C113.41 74.1436 113.543 74.9101 113.823 75.6279C114.103 76.3456 114.524 76.9999 115.061 77.5523C115.598 78.1046 116.24 78.5437 116.949 78.8436C117.659 79.1434 118.422 79.298 119.192 79.2981Z" fill="#E74139"/>
<mask id="mask1_1_65" style="mask-type:luminance" maskUnits="userSpaceOnUse" x="62" y="34" width="33" height="46">
<path d="M88.5373 79.2981H68.5173C67.6633 79.298 66.8199 79.1082 66.0483 78.7422C65.2766 78.3764 64.5959 77.8435 64.0553 77.1824C63.5147 76.5212 63.1278 75.7482 62.9225 74.9192C62.7173 74.0902 62.6987 73.2259 62.8684 72.3889C63.0212 71.6337 63.3243 70.9169 63.7596 70.2811C64.1949 69.6453 64.7535 69.1033 65.4022 68.6876C72.1308 64.3722 93.2077 49.669 93.2077 34.8045L94.2983 73.3736C94.3196 74.1436 94.1864 74.9101 93.9065 75.6279C93.6267 76.3456 93.2058 76.9999 92.6688 77.5523C92.1317 78.1046 91.4894 78.5437 90.7798 78.8436C90.0702 79.1434 89.3077 79.298 88.5373 79.2981Z" fill="white"/>
</mask>
<g mask="url(#mask1_1_65)">
<path d="M98.2983 61.2197C88.499 64.2398 81.2237 64.377 71.5882 60.6179C65.4649 58.2309 64.0794 64.9055 48.8381 50.136" stroke="#E74238" stroke-width="0.5" stroke-linejoin="bevel"/>
<path d="M62.2834 70.882C63.2464 71.5945 64.8568 71.6042 65.9956 71.6944C68.3946 71.8786 70.7887 71.5512 73.1865 71.5741C75.3676 71.5945 77.1659 72.4263 79.3375 71.5429C81.1586 70.8013 82.6368 69.3918 83.8465 67.8414C85.0563 66.2911 86.0397 64.577 87.1772 62.9724C89.0884 60.2813 91.4196 57.9148 94.0816 55.9633C96.8116 53.9615 99.7029 52.5929 101.539 49.5909C103.158 46.9475 104.822 44.4631 106.024 41.5742" stroke="#36393F" stroke-width="0.5" stroke-linejoin="bevel"/>
<path d="M83.9778 69.7408C84.4316 70.2223 84.8313 70.2741 85.3019 70.8024C85.5114 71.0486 85.7344 71.2829 85.9699 71.5042" stroke="#E74238" stroke-width="0.5" stroke-linejoin="bevel"/>
<path d="M88.015 67.5127C90.0612 66.7905 92.305 65.7071 92.7768 63.4201C92.9573 62.5402 93.1054 61.5713 93.7722 60.9694C94.344 60.453 95.5453 59.6128 96.3157 59.5984C99.9003 59.5309 103.41 60.8466 106.908 61.6278" stroke="#37509D" stroke-width="0.5" stroke-miterlimit="10"/>
<path d="M26.2409 -0.329193C26.2409 -0.329193 19.5483 19.9978 38.0817 29.034C49.2316 34.4723 48.7501 49.4548 57.1495 51.2038C65.549 52.9528 66.4928 59.4744 74.0099 65.6627C82.8294 72.9233 98.9662 71.2539 98.9662 71.2539" stroke="#36393F" stroke-width="0.5" stroke-linejoin="bevel"/>
<path d="M46.4981 63.8427C55.0168 67.3166 73.5634 73.9671 82.4708 63.3432C92.0884 51.8718 87.0593 49.1732 101.462 42.4745" stroke="#37509D" stroke-width="0.5" stroke-miterlimit="10"/>
<path d="M93.8338 69.4495C93.8338 69.4495 92.6674 69.4688 91.6876 69.8311C90.7077 70.1933 89.7424 70.4847 89.7424 70.4847" stroke="#E74238" stroke-width="0.5" stroke-linejoin="bevel"/>
<path d="M110.919 61.9035C108.403 59.4828 106.499 58.781 103.178 59.8138C102.074 60.1569 101.164 60.973 100.326 60.1749C99.7485 59.626 98.8818 59.0988 98.2728 58.586C97.4062 57.8566 96.5383 57.2138 95.5356 57.0514C94.2729 56.8467 93.2895 57.5605 92.2964 57.4028C90.3464 57.0947 89.5279 57.0526 87.7729 57.871C84.8491 59.2312 79.7225 64.3976 74.0097 65.6627C67.6422 67.0721 56.5212 61.2619 49.4542 52.393" stroke="#36393F" stroke-width="0.5" stroke-linejoin="bevel"/>
<path d="M125.872 49.1417C125.872 49.1417 120.623 43.0329 117.91 41.1587C115.197 39.2846 109.629 37.1782 107.647 35.7963C105.666 34.4144 104.107 32.4054 101.616 32.0046C99.1239 31.6037 96.495 35.0319 95.106 35.6434C93.7169 36.2548 92.4578 35.6904 91.2469 34.8851C88.8961 33.3203 91.7079 28.3369 90.2527 27.2066C88.7974 26.0764 84.7601 26.4109 82.91 24.5067C81.06 22.6025 78.0339 22.3256 77.4801 18.6411C76.9265 14.9566 75.4315 5.97934 75.2317 3.6574C75.0318 1.33545 78.2927 -2.91843 78.9631 -4.99722C79.6336 -7.07602 80.936 -12.3206 81.155 -14.0251C81.3741 -15.7295 80.4858 -19.9628 80.4858 -19.9628" stroke="#E74238" stroke-width="0.5" stroke-linejoin="bevel"/>
<path d="M4.90173 72.035C4.90173 72.035 3.43681 74.369 6.13436 78.192C8.83181 82.0149 13.4505 86.1617 17.2626 90.7105C21.0747 95.2594 22.3182 98.0928 26.111 98.088C29.9039 98.0833 32.8794 97.3911 35.3615 99.595C37.8435 101.799 40.2557 100.746 41.1224 102.232C41.9891 103.719 40.7456 105.863 42.1299 107.056C43.5142 108.248 48.6949 110.954 51.3034 111.948C53.9117 112.94 55.1673 116.102 56.8078 116.699C58.4485 117.294 62.4882 118.333 63.4415 119.467C64.3948 120.601 65.4722 121.889 65.4722 121.889" stroke="#E74238" stroke-width="0.5" stroke-linejoin="bevel"/>
<path d="M14.6445 55.7671L17.5478 53.3332C19.3352 51.8358 23.2317 48.0152 23.2317 48.0152C23.2317 48.0152 30.685 54.4863 36.541 54.969C42.397 55.4516 39.791 43.204 44.2194 45.0071C53.2063 48.6688 55.2935 49.4355 58.1679 49.769C61.1772 50.1193 61.7068 48.8385 63.9867 50.1565C67.6134 52.2534 67.7831 56.2593 71.0187 58.7089C74.4432 61.2993 75.8335 59.3529 78.2205 62.1996C80.6074 65.0464 84.3594 66.0419 88.7613 68.5721C93.1632 71.1022 99.6428 74.5195 99.6428 74.5195" stroke="#E74238" stroke-width="0.5" stroke-linejoin="bevel"/>
<path d="M-10.85 65.1919C-10.85 65.1919 5.39999 60.8334 10.848 59.1674C16.2959 57.5015 19.0692 56.4229 21.3539 58.2406C23.6385 60.0581 43.5646 74.6012 47.4044 76.9124C51.2442 79.2235 57.2399 82.5421 63.7339 83.1812" stroke="#E74238" stroke-width="0.5" stroke-linejoin="bevel"/>
<path d="M-23.9535 61.6604C-18.9714 62.4608 -11.8479 65.0608 -4.17308 68.1604C3.50175 71.2598 17.4816 76.5526 26.992 80.0566C36.5025 83.5605 43.5911 86.7166 48.6587 85.6586C53.7263 84.6005 59.876 83.3174 65.4106 82.9635C70.9453 82.6096 71.0548 84.3152 76.7808 82.4181C82.5068 80.5211 84.5459 79.7785 91.0699 81.3601C97.594 82.9418 98.8338 82.4555 106.855 85.8247C114.877 89.1938 119.349 91.8035 123.315 92.9037" stroke="#E74238" stroke-width="0.5" stroke-linejoin="bevel"/>
<path d="M92.9658 -106.494C90.1492 -104.41 88.6084 -102.842 86.9702 -100.223C85.3319 -97.6054 84.7903 -95.0764 85.0154 -92.0852C85.2405 -89.094 88.3436 -80.7957 88.3436 -80.7957C88.3436 -80.7957 88.5229 -79.8158 87.2374 -77.4927C85.9518 -75.1696 81.5644 -68.3819 80.2873 -66.2778C79.0101 -64.1737 75.6409 -55.3241 74.6828 -53.4908C74.0422 -52.231 73.4653 -50.9398 72.9543 -49.6221C72.9543 -49.6221 75.0355 -43.2088 75.99 -37.2325C76.9445 -31.256 78.7923 -16.3481 78.9824 -14.1575C79.1726 -11.9667 77.8365 -9.32577 76.8049 -7.07725C75.7734 -4.82873 73.0373 -3.31328 73.7559 1.47626C74.4745 6.2658 73.9148 9.99491 75.1366 12.7597C77.4321 17.9574 88.2413 24.715 93.5894 32.5727C99.8378 41.7546 93.0562 49.4523 104.684 59.2865C107.212 61.4219 107.151 63.4393 106.644 66.008C106.136 68.5767 104.241 80.5355 102.733 85.5369C101.224 90.5383 100.051 94.283 93.3655 97.9531C86.6801 101.623 84.1535 100.422 80.7145 105.242C77.2756 110.061 71.8204 116.709 70.0413 122.902C68.2623 129.096 68.1816 134.139 68.2502 137.4" stroke="#36393F" stroke-width="0.5" stroke-linejoin="bevel"/>
<path d="M99.9269 74.9878C96.045 71.686 90.4008 66.4053 87.0678 65.9347C83.7347 65.464 81.4741 65.3183 79.1293 62.6739C74.6695 57.6435 68.9159 59.3612 63.1418 53.6461C60.8198 51.3482 54.1597 45.905 51.1661 44.6183C49.1198 43.7395 36.0849 38.3674 33.5607 37.6536" stroke="#37509D" stroke-width="0.5" stroke-miterlimit="10"/>
<path d="M73.4828 87.9913C72.9195 85.6874 74.831 85.065 77.1433 84.9218C79.4556 84.7786 81.5789 85.0759 81.485 82.7275C81.3912 80.379 82.1447 80.0589 85.8473 80.0794C92.9588 80.107 104.384 78.606 104.384 78.606" stroke="#36393F" stroke-width="0.5" stroke-linejoin="bevel"/>
<path d="M23.807 20.8331C24.9962 20.7668 30.9293 28.3201 33.9867 29.6442C33.9999 29.6442 34.0047 29.6369 34.018 29.6442C37.0646 31.4918 37.0874 31.6243 38.7955 32.8845C42.5474 35.6531 43.2817 37.2601 45.3761 39.2509C53.3663 46.8512 52.0579 47.8791 56.3299 51.3938C59.0599 53.6399 61.785 55.8392 67.0778 57.9601C69.9221 59.0999 72.9927 59.8727 76.9481 63.4514C80.0777 66.2777 84.9924 74.4929 86.1841 75.2333C87.3758 75.9735 89.9384 74.2703 93.1655 77.6177C104.128 88.9904 108.38 80.3285 110.398 82.4867" stroke="#36393F" stroke-width="0.5" stroke-linejoin="bevel"/>
<path d="M37.1523 37.0109C37.1523 37.0109 43.739 40.0021 46.032 41.8799C48.3251 43.7577 51.5534 48.0332 53.2097 49.438C55.6568 51.5119 59.6194 51.4722 61.0338 54.916C62.0955 57.5112 58.8598 58.355 58.6745 59.7248C58.4892 61.0945 58.4638 61.859 59.1018 63.0097C59.7398 64.1604 62.6323 64.8057 64.0009 65.7324C66.2398 67.2575 66.3938 68.6358 68.5016 69.7552C70.6093 70.8747 70.9378 73.1257 74.2637 72.6562C77.5895 72.1868 80.8564 67.6343 89.5748 68.4721C91.6656 68.6731 99.344 69.8491 101.371 69.5554C105.873 68.8958 111.761 69.1762 113.183 68.5431" stroke="#E74238" stroke-width="0.5" stroke-linejoin="bevel"/>
</g>
<path d="M142.327 73.9947C135.597 69.6795 114.522 54.9762 114.522 40.1117L113.546 74.6676C113.459 74.2412 113.42 73.8063 113.431 73.3712L114.522 34.8022C114.522 49.6667 135.599 64.37 142.327 68.6852C143.537 69.4616 144.413 70.6623 144.783 72.0515C145.152 73.4406 144.989 74.9179 144.324 76.1927C143.863 75.2974 143.175 74.5393 142.327 73.9947Z" fill="#BC3C39"/>
<mask id="mask2_1_65" style="mask-type:luminance" maskUnits="userSpaceOnUse" x="113" y="34" width="32" height="46">
<path d="M119.192 79.2981H139.212C140.066 79.298 140.909 79.1082 141.681 78.7422C142.453 78.3764 143.133 77.8435 143.674 77.1824C144.215 76.5212 144.602 75.7482 144.807 74.9192C145.012 74.0902 145.031 73.2259 144.861 72.3889C144.708 71.6338 144.405 70.9171 143.969 70.2813C143.534 69.6455 142.976 69.1034 142.327 68.6876C135.597 64.3722 114.522 49.669 114.522 34.8045L113.431 73.3736C113.41 74.1436 113.543 74.9101 113.823 75.6279C114.103 76.3456 114.524 76.9999 115.061 77.5523C115.598 78.1046 116.24 78.5437 116.949 78.8436C117.659 79.1434 118.422 79.298 119.192 79.2981Z" fill="white"/>
</mask>
<g mask="url(#mask2_1_65)">
<path d="M129.907 54.4803C125.114 63.5442 120.066 68.7863 110.595 72.9426C104.576 75.5848 108.319 81.2832 87.0963 81.6177" stroke="#E74238" stroke-width="0.5" stroke-linejoin="bevel"/>
<path d="M111.274 86.7779C112.461 86.5985 113.606 85.4718 114.472 84.7316C116.298 83.1668 117.76 81.2408 119.471 79.5557C121.028 78.0282 122.887 77.3445 123.805 75.1838C124.568 73.3723 124.616 71.3319 124.375 69.3784C124.134 67.4247 123.618 65.5193 123.292 63.5802C122.741 60.3259 122.716 57.0042 123.22 53.7423C123.734 50.3972 124.813 47.3867 123.986 43.9634C123.264 40.9542 122.683 38.0158 121.485 35.1197" stroke="#36393F" stroke-width="0.5" stroke-linejoin="bevel"/>
<path d="M131.599 42.0231C131.599 42.0231 130.14 44.7435 129.621 45.6498C129.102 46.5563 128.805 47.0076 128.95 47.4747C129.096 47.9417 130.179 51.9705 130.317 52.7288C130.454 53.4871 130.627 54.6631 130.388 55.8344" stroke="#E74238" stroke-width="0.5" stroke-linejoin="bevel"/>
<path d="M125.801 70.6266C126.467 70.6495 126.783 70.4003 127.487 70.4424C127.807 70.4684 128.128 70.4768 128.45 70.4677" stroke="#E74238" stroke-width="0.5" stroke-linejoin="bevel"/>
<path d="M127.085 66.2007C128.017 64.241 128.846 61.8938 127.556 59.9415C127.062 59.1915 126.481 58.4019 126.527 57.5051C126.567 56.7359 126.822 55.2915 127.355 54.7366C129.843 52.1498 133.25 50.6019 136.278 48.6759" stroke="#37509D" stroke-width="0.5" stroke-miterlimit="10"/>
<path d="M135.658 50.2058C135.658 50.2058 136.679 52.0113 136.548 52.529C136.417 53.0465 137.205 54.8834 135.607 56.0413" stroke="#E74238" stroke-width="0.5" stroke-linejoin="bevel"/>
<path d="M35.4348 61.9082C35.4348 61.9082 45.074 81.0158 64.5644 74.3064C76.2873 70.2692 86.5501 81.1999 93.7241 76.5007C100.898 71.8015 106.18 75.7424 115.872 74.8035C127.242 73.6997 137.473 61.1102 137.473 61.1102" stroke="#36393F" stroke-width="0.5" stroke-linejoin="bevel"/>
<path d="M95.1348 92.9638C103.615 89.3972 121.432 80.9858 120.219 67.1744C118.908 52.2618 113.443 53.9097 118.895 38.9898" stroke="#37509D" stroke-width="0.5" stroke-miterlimit="10"/>
<path d="M132.569 63.4562C132.569 63.4562 131.759 64.2987 131.322 65.2436C130.885 66.1885 130.408 67.0817 130.408 67.0817" stroke="#E74238" stroke-width="0.5" stroke-linejoin="bevel"/>
<path d="M139.316 46.0398C135.825 46.106 133.982 46.957 132.363 50.0349C131.825 51.058 131.761 52.2786 130.603 52.3075C129.807 52.328 128.822 52.5675 128.028 52.6361C126.899 52.7336 125.83 52.8925 125.007 53.4871C123.97 54.2347 123.778 55.4347 122.961 56.0258C121.363 57.1873 120.757 57.7326 120.092 59.555C118.987 62.5847 119.009 69.8636 115.87 74.7975C112.365 80.296 100.393 84.0516 89.121 82.7792" stroke="#36393F" stroke-width="0.5" stroke-linejoin="bevel"/>
<path d="M134.536 36.7713C134.536 36.7713 149.139 32.787 151.403 31.2331C153.668 29.6791 157.565 26.5073 158.475 25.8055C159.385 25.1037 162.553 25.383 164.112 25.8127C165.671 26.2424 166.914 27.8145 166.914 27.8145L168.15 29.4841" stroke="#E74238" stroke-width="0.5" stroke-linejoin="bevel"/>
<path d="M143.619 74.8264C143.619 74.8264 154.205 76.8257 160.516 78.843C166.827 80.8605 178.128 84.1936 180.617 84.9001" stroke="#E74238" stroke-width="0.5" stroke-linejoin="bevel"/>
<path d="M140.864 26.4423C140.864 26.4423 132.834 25.8404 129.59 26.4266C126.346 27.0128 120.923 29.4684 118.542 29.8933C116.161 30.3182 113.641 29.998 111.596 31.4762C109.55 32.9543 110.116 37.2407 109.566 38.6526C109.016 40.0646 107.732 40.5557 106.302 40.8446C103.533 41.4043 101.996 35.889 100.163 36.1188C98.3296 36.3487 95.7175 39.4399 93.061 39.4013C90.4044 39.3628 88.0704 41.3068 85.0732 39.0932C82.076 36.8796 74.6767 31.5833 72.8941 30.0943C71.1114 28.6053 70.4084 23.2777 69.4094 21.3337C68.4103 19.3897 65.6262 14.7591 64.5753 13.399C63.5245 12.0387 59.9037 9.67592 59.9037 9.67592" stroke="#E74238" stroke-width="0.5" stroke-linejoin="bevel"/>
<path d="M66.8996 109.776C66.8996 109.776 67.0272 108.324 67.2318 106.002C67.4364 103.68 67.4894 98.2228 67.4894 98.2228C67.4894 98.2228 77.3368 97.5283 81.8135 93.7294C86.2901 89.9305 75.795 83.1092 80.1993 81.2554C89.1428 77.4903 91.1638 76.5525 93.4292 74.7554C95.8077 72.8716 95.2733 71.5957 97.818 70.9156C101.865 69.8323 104.816 72.5454 108.839 71.9881C113.092 71.3995 112.702 69.0366 116.396 69.3616C120.09 69.6866 123.453 67.7378 128.356 66.4137C133.259 65.0897 140.256 62.923 140.256 62.923" stroke="#E74238" stroke-width="0.5" stroke-linejoin="bevel"/>
<path d="M43.7738 141.241C47.8664 138.284 54.7383 135.084 62.3614 131.852C69.9844 128.619 83.608 122.472 92.8054 118.224C102.003 113.977 109.253 111.197 112.09 106.864C114.927 102.532 118.366 97.2754 122.029 93.1117C125.692 88.9482 126.976 90.0773 129.683 84.6859C132.39 79.2945 133.309 77.3289 139.04 73.8345C144.771 70.3401 145.299 69.1184 153.363 65.8274C161.429 62.5365 166.425 61.2221 170.008 59.1963" stroke="#E74238" stroke-width="0.5" stroke-linejoin="bevel"/>
<path d="M7.54463 -60.3411C7.02711 -56.8757 7.04634 -54.6777 7.73963 -51.6672C8.43304 -48.6568 9.8365 -46.4913 12.1115 -44.5317C14.3865 -42.572 22.449 -38.9008 22.449 -38.9008C22.449 -38.9008 23.2674 -38.335 24.0005 -35.7831C24.7335 -33.2313 26.432 -25.329 27.0194 -22.9372C27.6068 -20.5455 31.4731 -11.9101 32.099 -9.93723C32.5368 -8.59093 33.0422 -7.26759 33.6133 -5.97223C33.6133 -5.97223 39.6198 -2.90881 44.5188 0.648135C49.4179 4.20509 61.2684 13.4242 62.9535 14.8398C64.6387 16.2553 65.5607 19.0672 66.4202 21.3855C67.2796 23.7039 66.4202 26.712 70.3142 29.59C74.2082 32.4681 76.4531 35.5014 79.2685 36.5931C84.5649 38.6394 96.9883 35.7794 106.327 37.5561C117.237 39.6301 117.882 49.8688 133.061 48.6001C136.357 48.3257 137.742 49.7918 139.2 51.9704C140.657 54.1492 147.77 63.9341 150.237 68.537C152.703 73.14 154.527 76.6199 152.389 83.9444C150.251 91.269 147.621 92.2042 148.597 98.0434C149.573 103.883 150.416 112.441 153.532 118.079C156.649 123.718 160.164 127.348 162.519 129.597" stroke="#36393F" stroke-width="0.5" stroke-linejoin="bevel"/>
<path d="M136.08 95.1486C138.367 93.036 140.703 91.4628 141.593 90.028C142.483 88.5931 149.02 76.1854 152.248 69.8816C155.477 63.5778 159.47 57.2619 160.275 55.732" stroke="#E74238" stroke-width="0.5" stroke-linejoin="bevel"/>
<path d="M117.528 27.9566C117.528 32.3165 119.353 34.3711 119.353 34.3711C119.353 34.3711 121.213 38.1556 124.824 39.5399C128.435 40.9241 136.2 40.5389 139.518 40.8315C142.835 41.1239 145.501 43.4026 149.629 45.367C153.757 47.3315 159.601 50.3792 159.601 50.3792" stroke="#E74238" stroke-width="0.5" stroke-linejoin="bevel"/>
<path d="M137.222 78.2774C137.222 78.2774 154.369 57.7036 157.388 53.7881" stroke="#E74238" stroke-width="0.5" stroke-linejoin="bevel"/>
<path d="M140.795 63.0637C135.714 63.4742 127.99 63.7306 125.3 65.7552C122.609 67.7798 120.908 69.2736 117.382 69.0618C110.671 68.6585 107.816 73.9416 99.6931 73.9849C96.4264 74.0018 87.8691 74.8624 84.843 76.0709C82.7764 76.8955 69.7595 82.3146 67.47 83.5953" stroke="#37509D" stroke-width="0.5" stroke-miterlimit="10"/>
<path d="M131.291 90.9572C129.263 89.7269 130.175 87.9358 131.708 86.1989C133.242 84.4619 134.958 83.1704 133.227 81.5767C131.496 79.983 131.806 79.2235 134.431 76.615C139.479 71.6064 146.5 62.463 146.5 62.463" stroke="#36393F" stroke-width="0.5" stroke-linejoin="bevel"/>
<path d="M48.6767 78.5951C49.4712 77.708 59.007 78.8528 62.1053 77.6322C62.1173 77.6322 62.1125 77.6141 62.1281 77.6106C65.5887 76.7679 65.6983 76.8401 67.7975 76.5272C72.4077 75.8327 74.0641 76.4489 76.9517 76.3767C87.9764 76.0999 87.7779 77.7526 93.2847 77.2194C96.8032 76.8763 100.286 76.5044 105.528 74.2618C108.346 73.0581 111.065 71.4319 116.39 71.1659C120.603 70.954 129.887 73.2845 131.252 72.9715C132.617 72.6585 133.224 69.6324 137.872 69.7215C153.665 70.0116 150.548 60.879 153.5 60.9789" stroke="#36393F" stroke-width="0.5" stroke-linejoin="bevel"/>
<path d="M69.5525 80.5982C69.5525 80.5982 76.3245 78.056 79.2736 77.7622C82.2226 77.4685 87.5297 78.21 89.694 78.0319C92.891 77.7683 95.6643 74.9371 99.0949 76.3768C101.682 77.4601 99.9905 80.349 100.827 81.4456C101.664 82.5421 102.195 83.1019 103.452 83.463C104.71 83.8241 107.22 82.2292 108.847 81.9199C111.508 81.4154 112.592 82.281 114.873 81.5828C117.154 80.8847 118.983 82.2461 120.999 79.5593C123.015 76.8728 122.11 71.3465 128.867 65.7733C130.488 64.4372 136.748 59.8391 137.97 58.1984C140.687 54.5489 145.049 50.5839 145.606 49.1298" stroke="#E74238" stroke-width="0.5" stroke-linejoin="bevel"/>
</g>
<path d="M104 0.925079C104 0.925079 87.9907 9.69886 87.9907 31.2451V79.2983H120.009V31.2451C120.009 9.69886 104 0.925079 104 0.925079Z" fill="#E7E7E8"/>
<path d="M104 0.925079C104 0.925079 87.9907 9.69886 87.9907 31.2451V79.2983H93.2028V31.2451C93.1992 9.69886 104 0.925079 104 0.925079Z" fill="#36393F"/>
<path d="M104 0.925079C104 0.925079 120.009 9.69886 120.009 31.2451V79.2983H114.797V31.2451C114.801 9.69886 104 0.925079 104 0.925079Z" fill="#606369"/>
<path d="M87.9907 50.2335H120.009V46.2408H87.9907V50.2335Z" fill="#E74139"/>
<path d="M87.9907 62.7088H120.009V58.7161H87.9907V62.7088Z" fill="#E74139"/>
<g style="mix-blend-mode:multiply">
<path d="M105.978 79.2982H98.1972V58.6559C98.1972 57.6242 98.6071 56.6345 99.3367 55.9049C100.066 55.1754 101.056 54.7655 102.088 54.7655C102.598 54.7655 103.104 54.8661 103.576 55.0616C104.048 55.2572 104.477 55.5437 104.838 55.9049C105.2 56.2662 105.486 56.6951 105.682 57.1671C105.877 57.6391 105.978 58.145 105.978 58.6559V79.2982Z" fill="#82A2D1"/>
</g>
<path d="M107.895 79.2982H100.116V58.6559C100.116 57.625 100.524 56.6363 101.253 55.9068C101.981 55.1772 102.969 54.7668 104 54.7655C105.032 54.7655 106.022 55.1754 106.751 55.9049C107.481 56.6345 107.891 57.6242 107.891 58.6559L107.895 79.2982Z" fill="#E7E7E8"/>
<path d="M104.059 54.7679V79.2981H107.895V58.6559C107.895 57.6337 107.492 56.6527 106.775 55.9251C106.057 55.1975 105.081 54.7817 104.059 54.7679Z" fill="#606369"/>
<path d="M104 16.8873C104 16.8873 90.9713 20.2469 90.9713 31.7614C90.9713 31.7614 98.0575 27.3992 104 27.3992C109.943 27.3992 117.029 31.7614 117.029 31.7614C117.029 20.2469 104 16.8873 104 16.8873Z" fill="#36393F"/>
<path d="M106.841 17.937C105.922 17.5158 104.972 17.1649 104 16.8873C104 16.8873 90.9713 20.2469 90.9713 31.7614C92.8762 30.6391 94.8741 29.6827 96.9428 28.9027C98.2224 22.7313 103.492 19.4392 106.841 17.937Z" fill="#606369"/>
<mask id="mask3_1_65" style="mask-type:luminance" maskUnits="userSpaceOnUse" x="90" y="16" width="28" height="16">
<path d="M104 16.8873C104 16.8873 90.9713 20.2469 90.9713 31.7614C90.9713 31.7614 98.0575 27.3992 104 27.3992C109.943 27.3992 117.029 31.7614 117.029 31.7614C117.029 20.2469 104 16.8873 104 16.8873Z" fill="white"/>
</mask>
<g mask="url(#mask3_1_65)">
<path d="M111.906 30.3265L108.618 21.6238L109.34 20.5163L111.959 30.3049L111.906 30.3265Z" fill="#474B4F"/>
<path d="M109.493 20.5718C109.493 20.5718 109.481 20.5489 109.484 20.5513C109.503 20.5839 109.517 20.6192 109.526 20.656C109.543 20.7199 109.556 20.786 109.573 20.851C109.59 20.916 109.611 20.9979 109.629 21.0726L109.7 21.3493L109.783 21.678L109.877 22.0523L109.981 22.4664C110.02 22.6157 110.057 22.7649 110.096 22.9142C110.134 23.0634 110.175 23.2308 110.216 23.3957L110.342 23.894L110.472 24.4092L110.606 24.9352C110.651 25.1121 110.695 25.2903 110.741 25.4672C110.787 25.6442 110.83 25.8211 110.876 25.9993C110.921 26.1774 110.964 26.3496 111.008 26.5241L111.138 27.0393L111.264 27.5352C111.304 27.6941 111.344 27.8518 111.385 28.0094L111.497 28.4549L111.601 28.8665L111.695 29.2372C111.723 29.3456 111.751 29.4539 111.777 29.5622C111.804 29.6706 111.824 29.7452 111.847 29.8355C111.87 29.9258 111.883 29.9811 111.902 30.0533L111.941 30.2074L111.963 30.2929V30.3086L111.946 30.3158L109.296 21.0641C109.349 20.9341 109.401 20.8029 109.454 20.6729C109.461 20.6537 109.466 20.6332 109.473 20.6127C109.481 20.5922 109.479 20.5718 109.493 20.5718Z" fill="#282930"/>
<path d="M104.241 28.4656C104.281 28.3982 104.318 28.3332 104.346 28.2815C104.513 27.966 104.691 27.6531 104.863 27.3498C105.08 26.9682 104.622 26.8442 104.821 26.447L108.144 20.4454C108.163 20.3996 108.202 20.3839 108.265 20.3876H109.194C109.22 20.3832 109.248 20.3888 109.27 20.4032L109.47 20.55L109.446 20.6271L106.977 26.3916C106.81 26.7937 106.288 27.0633 106.122 27.4654L105.72 28.4344C105.685 28.4945 103.968 28.9266 104.241 28.4656Z" fill="#474B4F"/>
<path d="M109.214 20.4549C109.236 20.3863 109.255 20.4032 109.265 20.4043L109.47 20.5332L109.495 20.5669C109.437 20.8137 108.195 23.5099 108.195 23.5099L108.054 22.7961C108.054 22.7961 109.091 20.8605 109.214 20.4549Z" fill="#282930"/>
<path d="M108.816 22.1473L109.29 21.064L109.875 24.4873L110.176 24.0985L110.371 24.0022L110.53 24.633L110.289 24.5343L109.967 25.023L110.021 25.336L108.816 22.1473Z" fill="#110E19"/>
<path d="M109.259 20.4033C109.259 20.4033 109.204 20.2939 109.034 20.7139C108.939 20.8752 108.831 21.0991 108.719 21.3218C108.662 21.4337 108.61 21.5469 108.56 21.6516C108.509 21.7563 108.462 21.855 108.425 21.9405C108.348 22.1114 108.305 22.2257 108.305 22.2257L108.396 22.2703C108.396 22.2703 108.371 22.3281 108.456 22.162C108.501 22.0789 108.55 21.8659 108.602 21.7623C108.654 21.6589 108.722 21.5216 108.78 21.4121C108.885 21.1858 109.116 20.8102 109.185 20.6405L109.259 20.4033Z" fill="#606369"/>
<path d="M109.296 21.064C109.313 21.2021 109.337 21.3392 109.369 21.4745C109.428 21.7309 109.517 21.9018 109.637 22.3351C109.698 22.553 109.797 22.8817 109.868 23.1308C109.939 23.38 110.028 23.6628 110.109 23.9337C110.269 24.4741 110.418 25.1217 110.59 25.6971C110.936 26.849 111.281 28.001 111.539 28.8652C111.796 29.7295 111.977 30.3024 111.977 30.3024L111.58 28.858C111.339 27.9901 111.013 26.8322 110.688 25.6742C110.524 25.0964 110.36 24.5175 110.206 23.9758C110.128 23.705 110.053 23.4426 109.981 23.1946C109.909 22.9467 109.84 22.7131 109.777 22.4964C109.647 22.0643 109.515 21.5744 109.429 21.3264C109.335 20.9364 109.296 21.064 109.296 21.064Z" fill="#606369"/>
<path d="M94.9639 22.6506C94.9868 22.6217 95.0326 22.6421 95.0326 22.6421L95.0759 22.7228L95.437 23.2692L95.5477 23.3499L90.7678 31.5832L90.7222 31.5603L90.8749 31.2353C91.0109 30.9464 91.1483 30.6588 91.2843 30.3699L91.8728 29.1252L92.5649 27.6603L93.2872 26.1389L93.948 24.7221C94.1286 24.3385 94.3099 23.955 94.4922 23.5713C94.5727 23.3992 94.6437 23.2235 94.7244 23.0526C94.7902 22.9107 94.8704 22.7759 94.9639 22.6506Z" fill="#474B4F"/>
<path d="M90.7594 31.5833L90.7329 31.5699L95.1396 22.9744L95.7066 23.5316L90.7846 31.5833H90.7594Z" fill="#282930"/>
<path d="M94.9893 22.6494C94.9893 22.6494 95.0783 22.6494 95.0326 22.6422L99.6499 26.0727L100.448 26.6746L101.092 27.156C101.131 27.1849 101.193 27.2259 101.267 27.2765C101.628 27.5064 102.255 27.7483 102.081 28.1636C101.92 28.5536 101.886 28.9496 101.508 28.9315C101.057 28.9098 100.39 28.1599 100.122 27.9156C99.1336 27.0213 98.8904 26.8215 98.2488 26.1787C97.4989 25.4252 97.1089 25.0737 96.4337 24.4537C95.8535 23.9217 95.4033 23.4908 94.8232 22.9527C94.7737 22.9166 94.9507 22.6759 94.9893 22.6494Z" fill="#474B4F"/>
<path d="M95.0242 22.618C95.1445 22.6011 96.0136 22.618 96.0751 22.6553C96.1599 22.7174 96.2404 22.7853 96.3157 22.8588L96.6492 23.1489L97.6001 23.9818C97.9934 24.3277 98.3869 24.6735 98.781 25.0193C99.191 25.3829 99.6006 25.7464 100.01 26.11C100.377 26.4373 100.742 26.7667 101.105 27.0982C101.368 27.3389 101.63 27.5796 101.885 27.8276C101.955 27.8962 102.026 27.9661 102.092 28.0394C102.113 28.0635 102.163 28.1044 102.167 28.1405C102.192 28.3621 101.926 28.7905 101.401 28.4872C101.17 28.3428 100.953 28.1785 100.75 27.9961C100.406 27.7061 100.07 27.4051 99.7367 27.1018C99.3274 26.731 98.9217 26.3563 98.5197 25.9775C98.1008 25.5835 97.6836 25.1879 97.2679 24.7907C96.8923 24.4336 96.5183 24.0749 96.1461 23.7145C95.8704 23.4498 95.6032 23.1753 95.3215 22.9189C95.0398 22.6625 95.0217 22.6204 94.9604 22.6504C94.9495 22.6578 94.9881 22.6228 95.0242 22.618Z" fill="#282930"/>
<path d="M102.035 28.3959C102.035 28.3959 102.009 28.8015 101.284 28.4163C100.558 28.0312 100.065 27.4161 99.5695 26.9539C99.0735 26.4916 98.9218 25.1483 98.9218 25.1483L102.129 27.9517L102.035 28.3959Z" fill="#110E19"/>
<path d="M95.6116 23.6918L95.0458 23.1622L93.8795 26.5242L95.6116 23.6918Z" fill="#110E19"/>
<path d="M104.21 28.3815C104.211 28.4973 104.248 28.61 104.315 28.7043C104.382 28.7986 104.477 28.87 104.586 28.9087C105.068 29.1037 105.607 28.9954 105.91 28.2719C106.272 27.4293 106.177 27.735 106.177 27.735L104.21 28.3815Z" fill="#231F20"/>
<path d="M108.825 23.6653C108.824 25.0103 108.29 26.3002 107.339 27.2513C106.387 28.2022 105.097 28.7365 103.752 28.7365C100.952 28.7365 98.8075 26.3845 98.8075 23.5835C98.8075 20.7824 100.952 18.594 103.752 18.594C105.097 18.594 106.387 19.1283 107.339 20.0794C108.29 21.0303 108.824 22.3202 108.825 23.6653Z" fill="url(#paint0_radial_1_65)"/>
<path d="M103.284 27.6038C101.11 27.6038 99.3431 25.7862 99.3431 23.5522C99.3431 21.318 101.11 19.4993 103.284 19.4993C105.458 19.4993 107.224 21.3168 107.224 23.5522C107.224 25.9378 105.604 27.6038 103.284 27.6038ZM103.284 21.0833C101.96 21.0833 100.884 22.1907 100.884 23.5522C100.884 24.9135 101.96 26.0197 103.284 26.0197C104.028 26.0197 104.645 25.7789 105.067 25.3144C105.464 24.8798 105.683 24.2538 105.683 23.5522C105.685 22.1944 104.602 21.0833 103.284 21.0833Z" fill="#110E19"/>
<path d="M103.284 27.7194C101.049 27.7194 99.2312 25.8501 99.2312 23.5522C99.2312 21.2543 101.049 19.3837 103.284 19.3837C105.519 19.3837 107.336 21.2531 107.336 23.5522C107.336 26.0053 105.67 27.7194 103.284 27.7194ZM103.284 19.6136C101.173 19.6136 99.4551 21.3806 99.4551 23.5522C99.4551 25.7236 101.173 27.4906 103.284 27.4906C105.539 27.4906 107.113 25.8717 107.113 23.5534C107.113 21.3806 105.395 19.6136 103.284 19.6136ZM103.284 26.1341C101.899 26.1341 100.772 24.9762 100.772 23.5522C100.772 22.1282 101.899 20.9689 103.284 20.9689C104.669 20.9689 105.795 22.1269 105.795 23.5522C105.795 24.2828 105.565 24.9364 105.149 25.3926C104.704 25.8777 104.06 26.1341 103.284 26.1341ZM103.284 21.1989C102.023 21.1989 100.997 22.2545 100.997 23.5522C100.997 24.8497 102.024 25.9042 103.284 25.9042C103.997 25.9042 104.585 25.6731 104.985 25.2349C105.363 24.8221 105.571 24.2238 105.571 23.5497C105.571 22.2545 104.545 21.1989 103.284 21.1989Z" fill="#606369"/>
<path d="M103.303 27.2174C101.391 27.2174 99.8342 25.6164 99.8342 23.6497C99.8342 21.6828 101.391 20.0831 103.303 20.0831C105.216 20.0831 106.769 21.684 106.769 23.6497C106.769 25.7501 105.345 27.2174 103.303 27.2174ZM103.303 21.4781C102.736 21.4915 102.197 21.7262 101.8 22.1321C101.404 22.538 101.182 23.0828 101.182 23.6502C101.182 24.2176 101.404 24.7625 101.8 25.1683C102.197 25.5742 102.736 25.809 103.303 25.8223C103.958 25.8223 104.501 25.6081 104.868 25.2012C105.236 24.7697 105.43 24.2164 105.411 23.6497C105.418 23.0826 105.2 22.5358 104.805 22.1289C104.41 21.7219 103.87 21.4879 103.303 21.4781Z" fill="#1B1D23"/>
<path d="M103.242 21.1254C101.862 21.1254 100.739 22.2797 100.739 23.6989C100.739 25.1181 101.862 26.2712 103.242 26.2712C104.018 26.2712 104.661 26.0172 105.102 25.5358C105.516 25.0832 105.744 24.4295 105.744 23.6989C105.744 22.2797 104.622 21.1254 103.242 21.1254Z" fill="#231F20"/>
<path d="M103.237 26.5662C101.626 26.5662 100.314 25.2181 100.314 23.557C100.314 21.8959 101.626 20.5477 103.237 20.5477C104.848 20.5477 106.16 21.8959 106.16 23.557C106.16 25.3312 104.963 26.5662 103.237 26.5662Z" fill="#E74139"/>
<path d="M104.802 24.5643L103.302 25.4539C103.283 25.4663 103.26 25.4729 103.237 25.4729C103.214 25.4729 103.191 25.4663 103.172 25.4539L101.672 24.5643C101.653 24.553 101.638 24.5368 101.627 24.5177C101.616 24.4985 101.611 24.4768 101.611 24.4549V22.6673C101.61 22.6454 101.616 22.6237 101.626 22.6046C101.637 22.5856 101.653 22.5698 101.672 22.559L103.172 21.6682C103.191 21.6558 103.214 21.6492 103.237 21.6492C103.26 21.6492 103.283 21.6558 103.302 21.6682L104.802 22.559C104.821 22.5698 104.837 22.5856 104.848 22.6046C104.858 22.6237 104.864 22.6454 104.863 22.6673V24.4549C104.863 24.4768 104.858 24.4985 104.847 24.5177C104.836 24.5368 104.821 24.553 104.802 24.5643Z" fill="#110E19"/>
<path opacity="0.79" d="M100.854 23.8578C100.853 23.7662 100.877 23.6761 100.922 23.5967C100.967 23.5074 101.036 23.4325 101.121 23.3804C101.206 23.3283 101.304 23.301 101.404 23.3017C101.546 23.3017 101.682 23.358 101.782 23.4583C101.882 23.5584 101.938 23.6944 101.938 23.8361V23.8794C101.938 24.0213 101.882 24.1572 101.782 24.2574C101.682 24.3576 101.546 24.4139 101.404 24.4139C101.304 24.4146 101.206 24.3874 101.121 24.3352C101.036 24.2831 100.967 24.2082 100.922 24.119C100.877 24.0394 100.854 23.9494 100.854 23.8578Z" fill="white"/>
<path opacity="0.79" d="M100.739 23.3848C100.739 23.3371 100.752 23.2903 100.775 23.2488C100.799 23.2025 100.834 23.1635 100.878 23.1363C100.922 23.1092 100.973 23.0948 101.025 23.0948C101.061 23.0948 101.098 23.102 101.131 23.116C101.165 23.1301 101.196 23.1506 101.222 23.1766C101.248 23.2025 101.269 23.2332 101.283 23.2672C101.297 23.301 101.304 23.3374 101.304 23.374V23.3982C101.304 23.4347 101.297 23.471 101.283 23.5048C101.269 23.5386 101.248 23.5693 101.222 23.5952C101.196 23.621 101.165 23.6414 101.131 23.6554C101.098 23.6692 101.061 23.6763 101.025 23.6762C100.949 23.6737 100.877 23.6422 100.824 23.5882C100.771 23.5342 100.741 23.4618 100.739 23.3861V23.3848Z" fill="white"/>
<path d="M107.62 26.1294L111.231 22.1896L111.437 22.263L111.487 22.3184L112.26 22.2594C112.3 22.2803 112.34 22.2995 112.38 22.3172C111.899 22.8721 107.806 27.6544 107.223 28.2996C106.861 28.6993 106.313 29.0049 106.062 28.822C105.989 28.7656 105.931 28.6922 105.893 28.6083C105.855 28.5245 105.838 28.4325 105.843 28.3405C105.855 28.0083 107.413 26.364 107.62 26.1294Z" fill="#282930"/>
<path d="M111.289 22.1559L112.241 22.2449C112.361 22.2606 112.389 22.2245 112.497 22.3654L118.516 31.6459L118.458 31.6772L111.255 22.1679L111.289 22.1559Z" fill="#282930"/>
<path d="M111.201 22.1812L111.249 22.168L118.453 31.6772L118.419 31.6965L110.861 22.5712L111.201 22.1812Z" fill="#474B4F"/>
<path d="M106.02 27.8916C106.319 27.4919 110.942 22.4653 111.196 22.1896L111.1 22.8697C111.1 22.8697 107.371 27.0297 106.975 27.4546C106.155 28.3237 105.852 28.6583 106.071 28.822C106.071 28.822 105.551 28.5175 106.02 27.8916Z" fill="#474B4F"/>
<path d="M111.11 22.866L111.212 23.6882L111.506 23.3451L111.11 22.866Z" fill="#110E19"/>
<path d="M101.928 28.5522C101.892 28.565 101.856 28.5759 101.819 28.5848C101.745 28.5879 101.671 28.5744 101.603 28.545C101.48 28.4905 101.364 28.4222 101.257 28.3416C101.016 28.1442 100.868 28.0467 100.684 27.8758C100.526 27.7289 100.34 27.5508 100.159 27.3822C99.9787 27.2138 99.7981 27.0127 99.5947 26.8286C99.2011 26.459 98.8725 26.1304 98.45 25.7356L97.215 24.5752L96.1317 23.5701C95.8139 23.2777 95.5395 23.0429 95.3637 22.8611C95.2434 22.7408 95.0122 22.5349 94.9351 22.6878C95.1434 22.7468 95.3432 22.9466 95.4973 23.0971C95.6237 23.2174 95.992 23.5641 96.1473 23.7146C96.4567 24.0167 96.7263 24.2707 97.1175 24.6438C97.5087 25.017 97.7976 25.3154 98.2189 25.7103C98.6401 26.1051 98.8845 26.3422 99.2794 26.7106C99.4791 26.8936 99.833 27.292 100.016 27.4581C100.335 27.741 100.618 28.0093 100.948 28.273C101.141 28.4237 101.353 28.5491 101.578 28.6461C101.642 28.6688 101.71 28.6734 101.776 28.6593C101.808 28.6547 101.838 28.6426 101.865 28.624C101.891 28.6054 101.912 28.5808 101.928 28.5522Z" fill="#606369"/>
<path d="M95.0457 23.1574C95.0457 23.1574 95.0277 23.1442 94.9807 23.197C94.9449 23.24 94.9134 23.2864 94.8868 23.3355L94.8086 23.4884L94.3272 24.4417L93.6398 25.7898L92.8549 27.3366C92.3242 28.3923 91.7897 29.4443 91.3973 30.2399L90.7413 31.564L91.4262 30.2592C91.8415 29.4792 92.3892 28.4308 92.9321 27.3847C93.2028 26.8599 93.4737 26.3364 93.7288 25.8453C93.9841 25.3542 94.1586 24.934 94.3621 24.5404C94.5655 24.1468 94.9326 23.457 95.0915 23.2019L95.0457 23.1574Z" fill="#606369"/>
<path d="M111.109 22.8661C111.109 22.8661 111.089 22.8058 110.947 22.9647C110.805 23.1236 110.491 23.4583 110.247 23.7315C110.004 24.0047 109.719 24.3225 109.417 24.6656L108.469 25.7405C108.146 26.1016 107.822 26.47 107.515 26.8082C107.361 26.9767 107.211 27.1372 107.065 27.2897C106.92 27.4402 106.783 27.5846 106.658 27.7182C106.533 27.8518 106.424 27.9806 106.329 28.0962C106.246 28.1947 106.17 28.2997 106.103 28.4103C106.058 28.4806 106.026 28.558 106.007 28.6391C106.004 28.661 106.004 28.6832 106.007 28.7053C106.007 28.6836 106.011 28.6621 106.018 28.6414C106.042 28.5631 106.08 28.4895 106.128 28.4236C106.202 28.3194 106.282 28.2201 106.369 28.1263C106.468 28.0155 106.586 27.8964 106.712 27.7652C106.838 27.634 106.981 27.4955 107.13 27.3486C107.279 27.2018 107.434 27.0417 107.592 26.8768C107.907 26.5446 108.138 26.2581 108.468 25.8994C108.798 25.5407 109.125 25.1772 109.431 24.8329C109.737 24.4886 110.033 24.142 110.274 23.87C110.515 23.5979 110.868 23.214 111.009 23.0538C111.025 23.0357 111.107 22.9335 111.118 22.9178L111.109 22.8661Z" fill="#606369"/>
<path d="M111.222 22.1642C111.206 22.1714 111.193 22.1848 111.186 22.2015C111.233 22.2761 111.296 22.2557 111.393 22.3869C111.591 22.6469 112.052 23.309 112.391 23.7543C113.072 24.6402 113.614 25.4022 114.7 26.8069C115.61 27.9878 116.626 29.3142 117.312 30.2001L118.455 31.6734L117.347 30.1737L114.894 26.8888L113.584 25.1325L112.975 24.3284C112.781 24.0733 112.597 23.8325 112.427 23.6062L111.603 22.535C111.502 22.4073 111.368 22.2208 111.308 22.157C111.279 22.1498 111.249 22.1523 111.222 22.1642Z" fill="#606369"/>
<path d="M100.844 25.8597C101.153 26.2058 101.532 26.4827 101.956 26.6723C102.38 26.862 102.838 26.96 103.303 26.96C103.767 26.96 104.226 26.862 104.649 26.6723C105.073 26.4827 105.452 26.2058 105.761 25.8597H100.844Z" fill="#1B1D23"/>
</g>
</g>
</g>
<defs>
<radialGradient id="paint0_radial_1_65" cx="0" cy="0" r="1" gradientUnits="userSpaceOnUse" gradientTransform="translate(103.016 20.2685) rotate(180) scale(7.90834 7.90833)">
<stop stop-color="#555761"/>
<stop offset="1" stop-color="#16181E"/>
</radialGradient>
<clipPath id="clip0_1_65">
<rect width="209" height="113" fill="white"/>
</clipPath>
</defs>
</svg>
