<svg width="209" height="113" viewBox="0 0 209 113" fill="none" xmlns="http://www.w3.org/2000/svg">
<g clip-path="url(#clip0_1_339)">
<mask id="mask0_1_339" style="mask-type:luminance" maskUnits="userSpaceOnUse" x="39" y="-6" width="132" height="132">
<path d="M171 -6H39V126H171V-6Z" fill="white"/>
</mask>
<g mask="url(#mask0_1_339)">
<path d="M116.321 110.666L111.013 111.625C98.2777 113.928 86.8328 109.569 84.3065 95.5997L81.1409 78.0888C80.355 73.7426 82.929 69.6396 86.8853 68.9221L123.96 62.2195C127.921 61.5045 131.769 64.4465 132.555 68.7915L135.727 86.3034C138.252 100.272 129.054 108.364 116.321 110.666Z" fill="#E7E7E8"/>
<path d="M85.904 41.789L85.6851 41.8293C73.8004 43.978 71.4695 16.3215 71.4695 16.3215C69.8378 7.29792 82.9584 4.79475 83.2982 6.68799L85.904 41.789Z" fill="#E7E7E8"/>
<path d="M115.153 36.5002L115.371 36.461C127.257 34.3124 119.757 7.59101 119.757 7.59101C118.125 -1.43269 104.961 0.816201 105.303 2.70942L115.153 36.5002Z" fill="#E7E7E8"/>
<path d="M116.924 28.1598L82.6078 33.6597C80.1951 34.046 78.5195 36.5259 78.7077 39.4165C80.178 61.8846 84.963 76.3777 87.889 87.5965C89.2334 92.7358 91.651 97.5294 95.0916 101.393C100.815 107.819 107.392 109.856 113.244 108.797C119.068 107.745 124.017 103.441 126.989 95.9038C128.815 91.2753 129.479 86.1665 129.128 81.0698C128.335 69.5503 128.236 54.2041 122.462 32.407C121.718 29.6032 119.337 27.7735 116.924 28.1598Z" fill="#E74139"/>
<path d="M113.279 31.8082L86.1276 36.7166L83.1222 5.68558C87.1836 1.40783 99.9277 -0.894842 105.233 1.68282L113.279 31.8082Z" fill="#F0B631"/>
<path d="M115.433 31.4183L83.9777 37.1053L81.8644 8.75954C81.7423 7.65947 82.2202 6.6255 83.1172 5.68558C87.1787 1.40783 99.9228 -0.894842 105.228 1.68282C106.397 2.24993 107.21 3.05416 107.483 4.12727L115.433 31.4183Z" fill="#E74139"/>
<path opacity="0.3" d="M113.277 31.8107L86.1276 36.7179L83.1222 5.68691C83.5356 5.25883 83.9919 4.87432 84.4837 4.53925C86.5762 3.07258 89.6928 1.92492 92.9635 1.26124C97.5432 0.323801 102.425 0.320136 105.233 1.68413L113.277 31.8107Z" fill="#007987"/>
<path d="M117.271 33.7686L126.022 82.1711C127.07 87.9669 92.8695 94.1488 91.8221 88.3542L83.0709 39.9542C82.8852 38.9275 83.2226 37.9375 83.9547 36.9977C85.8443 34.5899 90.364 32.5476 95.4937 31.241C98.8545 30.3834 102.295 29.8756 105.76 29.7255C109.775 29.5715 113.332 30.0384 115.405 31.307C116.422 31.9267 117.085 32.7444 117.271 33.7686Z" fill="#4F4F4F"/>
<path d="M126.022 82.1711C127.07 87.9669 92.8696 94.1488 91.8222 88.3542L126.022 82.1711Z" fill="#232323"/>
<path d="M89.6001 47.2546L83.9547 36.9977C82.9121 36.7594 82.1213 38.3678 83.0723 39.9494L88.3779 49.1918L89.6001 47.2546Z" fill="#E74139"/>
<path d="M85.3368 60.2958C84.6939 60.4179 85.1877 63.1399 85.8257 63.0237L91.2976 61.4055L90.8784 59.0833L85.3368 60.2958Z" fill="#E74139"/>
<path d="M122.459 53.5857C123.101 53.4696 123.595 56.1964 122.948 56.3125L117.256 56.7134L116.837 54.3912L122.459 53.5857Z" fill="#E74139"/>
<path d="M113.518 42.9303L115.212 31.3474C116.105 30.7583 117.412 31.9879 117.073 33.8028L115.334 44.3139L113.518 42.9303Z" fill="#E74139"/>
<path d="M95.9729 82.3947L94.0491 91.6164C93.1605 92.1053 91.8979 91.1972 92.2659 89.7611L94.1957 81.3461L95.9729 82.3947Z" fill="#E74139"/>
<path opacity="0.2" d="M117.79 87.6577C113.073 89.0884 108.223 90.0336 103.315 90.4786L97.2244 75.0407C100.577 74.1851 108.997 71.6747 112.301 71.55L117.79 87.6577Z" fill="url(#paint0_linear_1_339)"/>
<path d="M119.85 78.078L124.879 86.0432C125.885 86.1923 126.748 84.8968 125.901 83.6806L121.147 76.4695L119.85 78.078Z" fill="#E74139"/>
<path d="M76.4747 45.9676L81.938 43.3875L81.5922 42.5674C81.1215 41.4491 79.9201 40.9297 78.9106 41.4075L77.1066 42.2631C76.0958 42.7397 75.6583 44.0341 76.1288 45.1524L76.4747 45.9676Z" fill="white"/>
<path d="M76.4745 45.9677L81.9378 43.3876L82.1187 43.8191C82.1379 43.8616 82.1403 43.9098 82.1253 43.9541C82.1103 43.9983 82.0792 44.0352 82.0381 44.0573L76.8767 46.4945C76.8559 46.5035 76.8336 46.5081 76.811 46.5083C76.7884 46.5083 76.766 46.5037 76.7453 46.4947C76.7246 46.4858 76.7059 46.4727 76.6904 46.4562C76.6749 46.4399 76.6631 46.4203 76.6554 46.3992L76.4745 45.9677Z" fill="#4C4C4C"/>
<path d="M82.6907 43.5574C83.0451 43.4975 82.5207 40.426 82.1663 40.4859L81.5394 40.7304C81.4622 40.7656 81.393 40.8158 81.3354 40.878C81.2778 40.9402 81.233 41.013 81.2038 41.0926C81.1745 41.1721 81.1611 41.2566 81.1646 41.3413C81.1681 41.4259 81.1883 41.5091 81.224 41.586L81.9109 43.2188C81.9381 43.2936 81.9802 43.362 82.0347 43.42C82.0892 43.4779 82.155 43.5241 82.2279 43.5558C82.3009 43.5875 82.3796 43.6039 82.4591 43.6043C82.5387 43.6045 82.6175 43.5886 82.6907 43.5574Z" fill="white"/>
<path d="M82.1041 42.411C82.1825 42.8499 81.9233 43.2666 81.5225 43.3363C81.1216 43.4059 80.7341 43.1113 80.6546 42.6726C80.6275 42.5735 80.6212 42.47 80.6362 42.3684C80.6513 42.2669 80.6873 42.1696 80.742 42.0826C80.7967 41.9958 80.8689 41.9213 80.9541 41.8638C81.0392 41.8064 81.1353 41.7672 81.2363 41.749C81.3374 41.7308 81.4412 41.7339 81.541 41.7579C81.6408 41.782 81.7345 41.8266 81.8161 41.8889C81.8977 41.9511 81.9656 42.0297 82.0151 42.1196C82.0648 42.2095 82.0951 42.3088 82.1041 42.411Z" fill="#0BA6AD"/>
<path d="M125.502 37.1054L119.481 36.6005L119.518 35.7108C119.567 34.4996 120.51 33.5915 121.624 33.6856L123.611 33.8518C124.726 33.9447 125.587 35.0031 125.538 36.2156L125.502 37.1054Z" fill="white"/>
<path d="M125.502 37.1053L119.481 36.6005L119.461 37.0674C119.458 37.1143 119.473 37.1605 119.503 37.1969C119.532 37.2332 119.575 37.2569 119.622 37.263L125.309 37.7396C125.331 37.7408 125.354 37.7373 125.375 37.7294C125.396 37.7215 125.416 37.7094 125.432 37.6937C125.448 37.678 125.461 37.6591 125.47 37.6382C125.479 37.6173 125.484 37.5948 125.483 37.5721L125.502 37.1053Z" fill="#4C4C4C"/>
<path d="M118.834 37.0222C118.315 37.1237 117.734 34.0632 118.25 33.9667L118.925 33.9789C119.009 33.9851 119.091 34.0078 119.167 34.0459C119.242 34.0839 119.31 34.1364 119.365 34.2005C119.42 34.2644 119.462 34.3387 119.488 34.419C119.515 34.4993 119.525 34.5839 119.519 34.6683L119.447 36.438C119.447 36.5171 119.431 36.5956 119.4 36.6683C119.369 36.7411 119.323 36.8068 119.266 36.8614C119.208 36.9161 119.141 36.9585 119.066 36.9861C118.992 37.0138 118.913 37.026 118.834 37.0222Z" fill="white"/>
<path d="M120.213 35.8133C120.291 36.2534 120.032 36.6689 119.631 36.7398C119.23 36.8107 118.843 36.5149 118.764 36.0761C118.736 35.9772 118.73 35.8738 118.745 35.7723C118.76 35.6707 118.796 35.5735 118.851 35.4868C118.906 35.4 118.978 35.3255 119.063 35.2681C119.148 35.2107 119.244 35.1716 119.345 35.1533C119.446 35.135 119.549 35.1379 119.649 35.1618C119.749 35.1857 119.843 35.2301 119.924 35.2922C120.006 35.3543 120.074 35.4327 120.123 35.5224C120.173 35.6122 120.204 35.7112 120.213 35.8133Z" fill="#0BA6AD"/>
<path d="M115.433 31.4183L83.9546 36.999C88.5746 31.1017 109.01 27.407 115.404 31.3083C115.421 31.3767 115.433 31.4183 115.433 31.4183Z" fill="#232323"/>
<path opacity="0.2" d="M110.614 44.5291L96.7928 47.0273L95.4925 31.2374C98.8533 30.3799 102.294 29.872 105.759 29.7218L110.614 44.5291Z" fill="url(#paint1_linear_1_339)"/>
<path d="M76.7727 17.9837C77.5891 22.5059 78.3616 29.9016 77.6858 30.0238C77.0098 30.146 75.1435 22.9349 74.3271 18.4261C73.5106 13.9174 74.0545 13.7927 74.7304 13.6704C75.4063 13.5482 75.9562 13.4676 76.7727 17.9837Z" fill="url(#paint2_radial_1_339)"/>
<path d="M118.143 10.4999C118.959 15.0148 119.794 22.4068 119.195 22.5143C118.596 22.6219 116.791 15.4072 115.974 10.8922C115.158 6.3774 115.64 6.26983 116.238 6.16227C116.837 6.0547 117.326 5.9887 118.143 10.4999Z" fill="url(#paint3_radial_1_339)"/>
<path d="M83.7897 36.856C84.7137 35.6399 85.8845 34.8063 87.0824 34.0253C88.2923 33.2851 89.5626 32.6485 90.8798 32.1223C93.4991 31.0639 96.2478 30.432 98.9966 29.9406C99.6843 29.8241 100.377 29.7227 101.074 29.6364C101.766 29.5373 102.462 29.4652 103.158 29.3919C104.553 29.2434 105.955 29.1721 107.358 29.178C108.773 29.1712 110.187 29.2779 111.585 29.4969C112.297 29.622 112.996 29.8043 113.678 30.0421C114.355 30.3013 115.076 30.5701 115.605 31.2925L115.267 31.5443C114.862 31.0773 114.167 30.8232 113.531 30.6337C112.87 30.4529 112.194 30.3263 111.512 30.2548C110.145 30.1 108.768 30.0537 107.393 30.1167C104.638 30.2176 101.893 30.5154 99.1799 31.0076C96.4581 31.4416 93.774 32.0673 91.1891 33.0036C89.8909 33.4636 88.6333 34.031 87.4295 34.7C86.2293 35.3563 85.0425 36.1459 84.1197 37.1444L83.7897 36.856Z" fill="#0C0C0C"/>
<path d="M84.9172 54.9426L83.9309 55.121C83.8638 55.1331 83.8193 55.1974 83.8314 55.2644L84.7018 60.0776C84.714 60.1447 84.7782 60.1894 84.8453 60.1772L85.8315 59.9989C85.8986 59.9868 85.9431 59.9225 85.931 59.8554L85.0606 55.0421C85.0485 54.975 84.9843 54.9305 84.9172 54.9426Z" fill="#2D2D2D"/>
<path d="M121.88 48.2591L120.894 48.4375C120.827 48.4496 120.782 48.5139 120.794 48.5809L121.665 53.3943C121.677 53.4613 121.741 53.5059 121.808 53.4937L122.794 53.3154C122.861 53.3033 122.906 53.239 122.894 53.1719L122.023 48.3586C122.011 48.2915 121.947 48.247 121.88 48.2591Z" fill="#2D2D2D"/>
<path d="M89.7579 81.7151L88.7716 81.8934C88.7046 81.9055 88.66 81.9698 88.6721 82.0369L89.5425 86.8501C89.5546 86.9172 89.6189 86.9618 89.686 86.9496L90.6722 86.7713C90.7393 86.7591 90.7838 86.6949 90.7717 86.6278L89.9013 81.8145C89.8892 81.7474 89.825 81.7029 89.7579 81.7151Z" fill="#2D2D2D"/>
<path d="M126.721 75.0316L125.735 75.21C125.668 75.2221 125.623 75.2864 125.635 75.3534L126.506 80.1668C126.518 80.2338 126.582 80.2784 126.649 80.2662L127.635 80.0879C127.702 80.0758 127.747 80.0115 127.735 79.9444L126.864 75.1311C126.852 75.0641 126.788 75.0195 126.721 75.0316Z" fill="#2D2D2D"/>
<path d="M120.451 78.4215C112.465 80.8659 104.214 82.5159 95.8554 82.8679C95.061 83.0108 94.0502 82.2018 93.6261 81.0517C89.8555 69.4834 87.8816 58.5713 87.3401 46.442C87.3328 45.2198 87.9965 44.1039 88.7921 43.9597C96.7086 41.1485 105.067 39.8163 113.444 39.5034C114.241 39.3592 115.252 40.1683 115.674 41.3197C119.419 52.8697 121.386 63.7829 121.907 75.9391C121.91 77.1662 121.246 78.2772 120.451 78.4215Z" fill="#E74139"/>
<path d="M117.673 76.8288C111.16 78.6303 104.718 80.328 97.9002 80.4038C97.2609 80.5187 96.4665 79.7719 96.1426 78.7294C93.273 68.5977 91.3902 58.2121 90.5204 47.7179C90.4568 46.6276 90.9396 45.6499 91.58 45.5338C97.9686 42.9903 104.614 42.4306 111.387 41.9527C112.028 41.8378 112.822 42.5845 113.145 43.6283C116.004 53.7627 117.876 64.1498 118.734 74.6447C118.795 75.7349 118.313 76.7126 117.673 76.8288Z" fill="url(#paint4_radial_1_339)"/>
<path d="M93.0943 1.63643L96.8831 22.5731C98.1432 29.5397 88.4107 30.8475 87.4244 29.4811C86.438 28.1147 84.6377 5.39475 84.6377 5.39475L84.4837 4.53921C86.5761 3.07255 89.6928 1.92488 92.9635 1.26122L93.0943 1.63643Z" fill="url(#paint5_radial_1_339)"/>
<path d="M94.6307 1.35901L98.4195 22.2956C99.6796 29.2624 109.252 27.0807 109.698 25.4551C110.144 23.8296 103.871 1.91757 103.871 1.91757L103.717 1.06201C101.242 0.41913 97.9209 0.437457 94.6246 0.960569L94.6307 1.35901Z" fill="url(#paint6_radial_1_339)"/>
<path d="M119.464 102.561C119.81 104.479 116.987 106.595 113.157 107.287C109.328 107.978 105.946 106.985 105.594 105.068C105.242 103.151 119.117 100.644 119.464 102.561Z" fill="#004169"/>
<path d="M118.908 102.955C119.225 104.715 116.651 106.655 113.163 107.287C109.675 107.918 106.578 107.003 106.259 105.242C105.94 103.48 118.589 101.189 118.908 102.955Z" fill="white"/>
<path d="M112.22 4.61381C110.121 4.55514 108.394 3.82547 108.363 2.98458C108.331 2.14369 110.011 1.51059 112.106 1.56924C114.201 1.62791 115.932 2.35758 115.964 3.19847C115.995 4.03936 114.318 4.67247 112.22 4.61381Z" fill="#E74139"/>
<path d="M112.182 3.59451C110.523 3.54806 109.166 3.13617 109.148 2.67417C109.131 2.21217 110.461 1.87484 112.12 1.92128C113.778 1.96772 115.135 2.38084 115.152 2.84284C115.169 3.30484 113.839 3.64095 112.182 3.59451Z" fill="#FBFBFB"/>
<path opacity="0.2" d="M112.274 4.42924C111.393 4.4048 110.667 4.08457 110.661 3.93179C110.655 3.77902 111.372 3.85113 112.25 3.87558C113.128 3.90001 113.839 3.86824 113.851 4.02102C113.863 4.1738 113.157 4.45368 112.274 4.42924Z" fill="#FBFBFB"/>
<path d="M77.8202 10.8326C79.7659 10.043 81.1275 8.75481 80.8635 7.9567C80.5995 7.15848 78.8065 7.15117 76.8607 7.94077C74.915 8.73026 73.5534 10.0185 73.8174 10.8166C74.0814 11.6147 75.8745 11.622 77.8202 10.8326Z" fill="#E74139"/>
<path d="M77.4999 9.86434C79.0374 9.241 80.1643 8.3794 80.0189 7.94063C79.8734 7.50187 78.5094 7.6522 76.9731 8.27543C75.4368 8.89878 74.3087 9.76049 74.4541 10.1993C74.5995 10.638 75.9623 10.4889 77.4999 9.86434Z" fill="#FBFBFB"/>
<path opacity="0.2" d="M77.7042 10.6784C78.5206 10.3472 79.089 9.79228 79.0413 9.64807C78.9936 9.50385 78.347 9.82163 77.5294 10.1528C76.7117 10.4841 76.0333 10.7041 76.081 10.8496C76.1287 10.995 76.8889 11.0108 77.7042 10.6784Z" fill="#FBFBFB"/>
<path d="M125.602 89.6769C125.505 89.7246 125.412 89.7661 125.314 89.8089C125.154 89.8883 124.994 89.9604 124.839 90.0313C124.632 90.1316 124.431 90.2171 124.228 90.3099L123.739 90.5276L123.128 90.7879C122.971 90.8527 122.81 90.926 122.648 90.9859C122.446 91.0726 122.237 91.1594 122.036 91.2401C121.875 91.3074 121.713 91.3734 121.547 91.4345L120.936 91.6788C120.773 91.7387 120.616 91.8011 120.447 91.8524C120.243 91.9331 120.033 92.0088 119.828 92.0773C119.665 92.1372 119.508 92.1995 119.339 92.2509C119.135 92.3254 118.923 92.3951 118.718 92.4635L118.229 92.6274C118.023 92.6885 117.811 92.7581 117.605 92.8205C117.441 92.8754 117.282 92.9219 117.116 92.9708C116.91 93.0392 116.704 93.093 116.49 93.1528C116.331 93.2066 116.166 93.2543 116.001 93.2971C115.795 93.3595 115.581 93.4194 115.374 93.473C115.207 93.5159 115.042 93.5636 114.874 93.5953C114.666 93.6515 114.454 93.709 114.245 93.7591C114.079 93.8018 113.918 93.8434 113.756 93.8814C113.547 93.9314 113.332 93.9827 113.123 94.0268C112.957 94.0695 112.789 94.1062 112.628 94.1417L111.992 94.2749C111.825 94.3115 111.656 94.3421 111.489 94.3787C111.278 94.4167 111.062 94.4618 110.852 94.501L110.352 94.5914C110.14 94.6293 109.923 94.6635 109.713 94.7014C109.549 94.7246 109.38 94.7552 109.21 94.7796L108.569 94.8762L108.06 94.9496C107.846 94.9764 107.635 95.0082 107.415 95.029C107.245 95.0534 107.08 95.0706 106.91 95.0901C106.691 95.1169 106.478 95.1427 106.264 95.1622C106.094 95.1817 105.923 95.2001 105.756 95.2111C105.544 95.2367 105.324 95.2587 105.109 95.2722C104.937 95.2905 104.766 95.3027 104.593 95.3088C104.379 95.3297 104.164 95.3431 103.943 95.359C103.776 95.37 103.605 95.3822 103.432 95.3883C103.217 95.403 102.994 95.4116 102.78 95.4262L102.261 95.4445C102.045 95.4531 101.828 95.4604 101.606 95.464C101.432 95.4702 101.265 95.4702 101.09 95.4702C100.874 95.4776 100.651 95.4812 100.432 95.4776C100.259 95.4776 100.084 95.4776 99.9178 95.4776L99.2566 95.4666C99.0818 95.4666 98.9071 95.4605 98.7323 95.4555C98.5135 95.4555 98.2935 95.4408 98.0686 95.4323C97.9011 95.4323 97.724 95.4201 97.5492 95.414C97.3304 95.4042 97.1104 95.3932 96.8843 95.3846L96.3624 95.3492C96.1412 95.332 95.915 95.3174 95.6951 95.3015C95.5178 95.2893 95.3419 95.2783 95.1646 95.2599C95.057 95.2489 94.9447 95.2441 94.8371 95.2331C94.7425 95.2248 94.6506 95.1979 94.5666 95.1539C94.4824 95.1099 94.4079 95.0497 94.3473 94.9767C94.2865 94.9038 94.2409 94.8195 94.213 94.7289C94.1851 94.6382 94.1754 94.5429 94.1844 94.4484L94.3458 92.8278C94.3575 92.7293 94.3892 92.6341 94.4387 92.5483C94.4882 92.4623 94.5548 92.3874 94.6342 92.3279C94.7731 92.2203 94.9485 92.1712 95.123 92.191C95.1291 92.191 95.1291 92.191 95.1366 92.191C95.3577 92.2068 95.585 92.2277 95.8051 92.2436L96.3282 92.2802C96.5482 92.2961 96.7681 92.3059 96.9943 92.3218C97.1641 92.3279 97.3402 92.3401 97.515 92.345C97.735 92.3559 97.9598 92.3646 98.1787 92.3682C98.3546 92.3804 98.5294 92.3853 98.7042 92.3853C98.923 92.3951 99.1478 92.3987 99.3654 92.4024C99.5401 92.4024 99.7089 92.4085 99.8823 92.4085C100.1 92.4085 100.319 92.4085 100.542 92.4085C100.71 92.4085 100.883 92.4085 101.057 92.4024C101.275 92.4024 101.491 92.3926 101.713 92.3902L102.233 92.3707L102.887 92.345C103.059 92.3327 103.226 92.3279 103.397 92.3157C103.614 92.3071 103.835 92.2924 104.05 92.2777L104.566 92.2411C104.78 92.2215 104.994 92.2007 105.215 92.1861L105.721 92.1311C105.935 92.1116 106.149 92.0919 106.369 92.0639C106.533 92.0468 106.704 92.0284 106.874 92.004C107.087 91.9844 107.306 91.9575 107.518 91.9245C107.689 91.9062 107.859 91.8817 108.028 91.8573L108.67 91.7607C108.84 91.7363 109.007 91.7058 109.171 91.6813C109.389 91.6422 109.6 91.6104 109.81 91.5726L110.31 91.4821C110.522 91.4442 110.731 91.4002 110.948 91.3598C111.116 91.3232 111.285 91.2926 111.452 91.256C111.661 91.212 111.877 91.1667 112.085 91.1167C112.252 91.08 112.415 91.0446 112.581 91.0018C112.79 90.9577 113.005 90.9064 113.213 90.8563C113.381 90.8196 113.542 90.7794 113.702 90.7341C113.917 90.6888 114.125 90.6326 114.333 90.5764C114.499 90.5337 114.664 90.4847 114.831 90.4433C115.038 90.387 115.245 90.321 115.458 90.2672C115.617 90.2195 115.782 90.1706 115.947 90.123C116.154 90.0607 116.365 90.0008 116.571 89.9287C116.737 89.881 116.896 89.8333 117.059 89.7783L117.687 89.5778L118.175 89.4141C118.386 89.3383 118.591 89.2699 118.795 89.1966C118.96 89.1416 119.116 89.0817 119.284 89.0218C119.488 88.9472 119.697 88.8666 119.895 88.7919C120.059 88.7308 120.22 88.6698 120.384 88.605C120.587 88.5243 120.796 88.4436 120.995 88.3605C121.159 88.3006 121.32 88.2383 121.484 88.1674C121.686 88.0807 121.895 87.9999 122.095 87.9071L122.575 87.7079C122.776 87.6162 122.978 87.5233 123.186 87.4365C123.347 87.3583 123.507 87.285 123.668 87.2128C123.868 87.12 124.076 87.0271 124.279 86.9281C124.438 86.8513 124.621 86.8387 124.789 86.8927C124.883 86.9197 124.971 86.9664 125.047 87.0295C125.123 87.0926 125.184 87.171 125.228 87.2593L125.94 88.7259C126.02 88.8971 126.03 89.093 125.966 89.2711C125.903 89.4491 125.772 89.595 125.602 89.6769Z" fill="#2D2D2D"/>
<path d="M95.1354 92.1995L95.6977 95.3064C95.5204 95.2942 95.3445 95.2832 95.1672 95.2648L94.6368 92.3315C94.7757 92.2239 94.9511 92.1748 95.1256 92.1946C95.1281 92.1946 95.1281 92.1946 95.1354 92.1995Z" fill="#484D51"/>
<path d="M96.3223 92.2886L96.8821 95.3894L96.3603 95.3539L95.7992 92.2519L96.3223 92.2886Z" fill="#484D51"/>
<path d="M97.5137 92.3534L98.0711 95.4371C97.9036 95.4371 97.7264 95.4249 97.5516 95.4188L96.993 92.3302C97.1629 92.3363 97.339 92.3485 97.5137 92.3534Z" fill="#484D51"/>
<path d="M98.7029 92.3889L99.2553 95.4713C99.0806 95.4713 98.9058 95.4652 98.7311 95.4603L98.1737 92.3766C98.3534 92.3889 98.5281 92.3889 98.7029 92.3889Z" fill="#484D51"/>
<path d="M99.8813 92.417L100.435 95.4725C100.261 95.4725 100.087 95.4725 99.9205 95.4725L99.3643 92.4011C99.5391 92.4109 99.7078 92.417 99.8813 92.417Z" fill="#484D51"/>
<path d="M101.056 92.4097L101.608 95.4653C101.435 95.4714 101.267 95.4714 101.092 95.4714L100.541 92.4158C100.709 92.417 100.882 92.4109 101.056 92.4097Z" fill="#484D51"/>
<path d="M102.232 92.3778L102.783 95.4249L102.263 95.4432L101.712 92.3974L102.232 92.3778Z" fill="#484D51"/>
<path d="M103.396 92.3229L103.945 95.3576C103.779 95.3686 103.608 95.3808 103.434 95.3869L102.886 92.3522C103.058 92.34 103.225 92.3351 103.396 92.3229Z" fill="#484D51"/>
<path d="M104.565 92.2483L105.111 95.2709C104.94 95.2892 104.769 95.3014 104.596 95.3075L104.049 92.2849L104.565 92.2483Z" fill="#484D51"/>
<path d="M105.72 92.1444L106.266 95.1669C106.096 95.1865 105.925 95.2048 105.759 95.2158L105.214 92.1993L105.72 92.1444Z" fill="#484D51"/>
<path d="M106.873 92.0112L107.418 95.0277C107.248 95.0521 107.083 95.0692 106.913 95.0887L106.368 92.0711C106.532 92.0539 106.703 92.0356 106.873 92.0112Z" fill="#484D51"/>
<path d="M108.028 91.8646L108.571 94.875L108.063 94.9483L107.517 91.9318C107.689 91.9135 107.858 91.889 108.028 91.8646Z" fill="#484D51"/>
<path d="M109.17 91.6886L109.715 94.7001C109.551 94.7233 109.383 94.7539 109.213 94.7783L108.667 91.768C108.839 91.7436 109.006 91.7131 109.17 91.6886Z" fill="#484D51"/>
<path d="M110.314 91.485L109.814 91.5754L110.358 94.5858L110.858 94.4953L110.314 91.485Z" fill="#484D51"/>
<path d="M111.451 91.2645L111.995 94.2747C111.827 94.3114 111.658 94.3421 111.491 94.3787L110.947 91.3683C111.111 91.3317 111.283 91.3012 111.451 91.2645Z" fill="#484D51"/>
<path d="M112.578 91.0102L113.123 94.0266C112.957 94.0694 112.789 94.1061 112.628 94.1415L112.089 91.125C112.251 91.0884 112.414 91.0529 112.578 91.0102Z" fill="#484D51"/>
<path d="M113.706 90.739L114.252 93.7615C114.086 93.8043 113.926 93.8458 113.763 93.8838L113.217 90.8673C113.38 90.8282 113.541 90.7879 113.706 90.739Z" fill="#484D51"/>
<path d="M114.835 90.4479L115.382 93.4705C115.214 93.5133 115.049 93.561 114.882 93.5928L114.337 90.5763C114.503 90.5385 114.668 90.4895 114.835 90.4479Z" fill="#484D51"/>
<path d="M115.953 90.1278L116.499 93.1504C116.34 93.2042 116.175 93.2519 116.01 93.2946L115.464 90.2721C115.621 90.2244 115.786 90.1755 115.953 90.1278Z" fill="#484D51"/>
<path d="M117.065 89.7831L117.614 92.8178C117.45 92.8728 117.291 92.9193 117.125 92.9682L116.576 89.9335C116.742 89.8858 116.901 89.8381 117.065 89.7831Z" fill="#484D51"/>
<path d="M118.179 89.414L118.73 92.4611L118.241 92.6248L117.686 89.5778L118.179 89.414Z" fill="#484D51"/>
<path d="M119.284 89.0216L119.835 92.0772C119.673 92.1371 119.515 92.1994 119.346 92.2508L118.794 89.1952C118.964 89.1414 119.12 89.0815 119.284 89.0216Z" fill="#484D51"/>
<path d="M120.384 88.6L120.939 91.6715C120.775 91.7314 120.619 91.7937 120.45 91.8451L119.896 88.7894C120.065 88.7308 120.226 88.6648 120.384 88.6Z" fill="#484D51"/>
<path d="M121.485 88.1637L122.041 91.2399C121.88 91.3071 121.717 91.3731 121.552 91.4343L120.998 88.3555C121.161 88.2969 121.323 88.2333 121.485 88.1637Z" fill="#484D51"/>
<path d="M122.578 87.704L123.135 90.7877C122.979 90.8525 122.817 90.9258 122.655 90.9857L122.098 87.9032L122.578 87.704Z" fill="#484D51"/>
<path d="M123.67 87.2091L124.231 90.3111L123.742 90.5287L123.182 87.434C123.348 87.3546 123.508 87.2813 123.67 87.2091Z" fill="#484D51"/>
<path d="M124.786 86.8889L125.314 89.8088C125.154 89.8883 124.994 89.9604 124.839 90.0312L124.277 86.9244C124.436 86.8476 124.618 86.8348 124.786 86.8889Z" fill="#484D51"/>
<path d="M89.1427 99.6249L91.613 99.1782C91.6858 99.1651 91.7608 99.1814 91.8215 99.2235C91.8823 99.2656 91.9237 99.3302 91.9369 99.4028L92.5446 102.763L89.5269 103.309L88.9193 99.9485C88.9062 99.8761 88.9223 99.8012 88.9642 99.7406C89.0061 99.6799 89.0702 99.6384 89.1427 99.6249Z" fill="url(#paint7_radial_1_339)"/>
<path d="M89.7032 103.186L92.3371 102.71L92.7741 105.125C92.7845 105.183 92.7716 105.243 92.7381 105.291C92.7047 105.339 92.6534 105.372 92.5957 105.383L90.3971 105.78C90.3394 105.791 90.28 105.778 90.2317 105.744C90.1835 105.711 90.1506 105.66 90.1401 105.602L89.7032 103.186Z" fill="#D11207"/>
<path d="M91.9308 104C92.02 104.488 91.8697 104.936 91.5947 104.985C91.3197 105.034 91.0239 104.675 90.9347 104.181C90.8455 103.687 90.9958 103.245 91.2708 103.196C91.5458 103.147 91.8416 103.511 91.9308 104Z" fill="#DD2824"/>
<path opacity="0.2" d="M91.4068 101.095C91.4959 101.584 91.3444 102.03 91.0693 102.08C90.7944 102.13 90.4986 101.769 90.4093 101.276C90.3202 100.782 90.4705 100.34 90.7455 100.291C91.0205 100.242 91.3175 100.601 91.4068 101.095Z" fill="#FBFBFB"/>
<path d="M129.384 92.3482L131.849 91.9024C131.922 91.8892 131.997 91.9054 132.058 91.9475C132.118 91.9897 132.16 92.0542 132.173 92.127L132.781 95.4873L129.763 96.033L129.155 92.6715C129.149 92.6351 129.15 92.598 129.158 92.5621C129.166 92.5263 129.181 92.4922 129.202 92.4622C129.223 92.4321 129.25 92.4066 129.282 92.3871C129.313 92.3674 129.347 92.3542 129.384 92.3482Z" fill="url(#paint8_radial_1_339)"/>
<path d="M129.938 95.91L132.572 95.4337L133.009 97.85C133.019 97.9077 133.007 97.9673 132.973 98.0155C132.94 98.0636 132.888 98.0965 132.831 98.107L130.632 98.5046C130.574 98.515 130.515 98.5021 130.467 98.4687C130.419 98.4353 130.386 98.384 130.375 98.3263L129.938 95.91Z" fill="#D11207"/>
<path d="M132.167 96.7265C132.257 97.2155 132.106 97.6616 131.831 97.7117C131.556 97.7618 131.26 97.4013 131.171 96.9062C131.082 96.4113 131.232 95.9713 131.507 95.9211C131.782 95.8711 132.078 96.2316 132.167 96.7265Z" fill="#DD2824"/>
<path opacity="0.2" d="M131.644 93.8212C131.734 94.3102 131.582 94.7562 131.307 94.8064C131.032 94.8565 130.736 94.496 130.647 94.0009C130.558 93.506 130.708 93.066 130.983 93.0158C131.258 92.9657 131.553 93.3263 131.644 93.8212Z" fill="#FBFBFB"/>
<path d="M105.639 65.2763C104.688 65.4486 103.706 65.3348 102.819 64.9492C101.933 64.5637 101.18 63.9238 100.657 63.1104C100.134 62.2971 99.8633 61.347 99.8802 60.38C99.8972 59.4131 100.2 58.473 100.752 57.6784C101.303 56.8839 102.078 56.2707 102.978 55.9165C103.877 55.5623 104.862 55.4829 105.807 55.6883C106.752 55.8938 107.615 56.3749 108.286 57.0708C108.958 57.7667 109.408 58.6462 109.58 59.5979C109.81 60.8734 109.524 62.188 108.785 63.2528C108.046 64.3176 106.915 65.0455 105.639 65.2763ZM103.994 56.1744C103.145 56.3279 102.361 56.7297 101.74 57.329C101.119 57.9283 100.69 58.6982 100.507 59.5413C100.324 60.3843 100.395 61.2628 100.711 62.0655C101.028 62.8683 101.575 63.5592 102.284 64.051C102.993 64.5428 103.831 64.8133 104.694 64.8284C105.557 64.8434 106.404 64.6024 107.13 64.1356C107.856 63.669 108.426 62.9975 108.77 62.2064C109.115 61.4151 109.216 60.5397 109.063 59.6907C108.856 58.5528 108.206 57.5434 107.256 56.8842C106.305 56.2248 105.132 55.9696 103.994 56.1744Z" fill="#E74238"/>
<path d="M105.341 65.2898C105.279 65.3012 105.215 65.2899 105.16 65.258C103.47 64.257 102.36 62.7158 102.035 60.9215C101.71 59.1273 102.211 57.2939 103.444 55.765C103.488 55.7107 103.551 55.676 103.621 55.6686C103.69 55.6611 103.76 55.6815 103.814 55.7252C103.868 55.7691 103.903 55.8326 103.91 55.9019C103.918 55.9712 103.897 56.0407 103.854 56.095C102.717 57.5041 102.255 59.1848 102.552 60.8274C102.849 62.4701 103.871 63.883 105.428 64.8057C105.488 64.8412 105.531 64.8989 105.549 64.9662C105.566 65.0336 105.556 65.1051 105.521 65.1651C105.502 65.1977 105.476 65.2257 105.445 65.2472C105.414 65.2687 105.378 65.2832 105.341 65.2898Z" fill="#E74238"/>
<path d="M105.924 65.1846C105.887 65.1917 105.849 65.1905 105.812 65.1812C105.776 65.172 105.742 65.1547 105.712 65.1308C105.659 65.0873 105.625 65.0244 105.617 64.9559C105.61 64.8872 105.629 64.8184 105.672 64.7642C106.807 63.3549 107.269 61.6732 106.973 60.0305C106.675 58.3879 105.655 56.975 104.098 56.0522C104.066 56.0359 104.037 56.0132 104.015 55.9855C103.992 55.9578 103.975 55.9257 103.965 55.8912C103.955 55.8567 103.952 55.8205 103.956 55.7848C103.961 55.7491 103.973 55.7148 103.991 55.6839C104.009 55.653 104.034 55.6262 104.063 55.6051C104.092 55.5841 104.125 55.5691 104.16 55.5614C104.195 55.5536 104.232 55.5532 104.267 55.5601C104.302 55.5668 104.336 55.5809 104.365 55.6012C106.056 56.6022 107.166 58.1423 107.49 59.9377C107.813 61.7331 107.315 63.564 106.081 65.093C106.041 65.1413 105.986 65.1738 105.924 65.1846Z" fill="#E74238"/>
<path d="M105.863 66.5108C105.794 66.5229 105.724 66.5075 105.667 66.4679C105.609 66.4283 105.57 66.3677 105.557 66.2993L103.447 54.6222C103.44 54.5881 103.44 54.5528 103.447 54.5187C103.454 54.4846 103.468 54.4521 103.487 54.4233C103.507 54.3945 103.532 54.37 103.561 54.351C103.59 54.332 103.623 54.3189 103.657 54.3127C103.692 54.3065 103.727 54.3071 103.761 54.3147C103.795 54.3221 103.827 54.3363 103.856 54.3563C103.884 54.3764 103.908 54.4018 103.927 54.4314C103.945 54.4609 103.958 54.4938 103.964 54.5282L106.074 66.2041C106.087 66.2727 106.072 66.3436 106.032 66.4011C105.992 66.4586 105.932 66.498 105.863 66.5108Z" fill="#E74238"/>
<path d="M108.819 58.4391L100.264 59.9853C100.229 59.9926 100.194 59.993 100.159 59.9862C100.125 59.9796 100.092 59.9661 100.062 59.9464C100.033 59.9268 100.008 59.9015 99.9889 59.8719C99.9697 59.8425 99.9565 59.8094 99.9502 59.7747C99.944 59.74 99.9449 59.7045 99.9526 59.6701C99.9604 59.6357 99.975 59.6033 99.9956 59.5747C100.016 59.5462 100.042 59.5221 100.072 59.5037C100.103 59.4854 100.136 59.4734 100.171 59.4683L108.726 57.9221C108.794 57.9108 108.864 57.9267 108.921 57.9664C108.977 58.0061 109.016 58.0665 109.028 58.1343C109.04 58.2022 109.026 58.2722 108.987 58.3293C108.948 58.3863 108.888 58.4258 108.821 58.4391H108.819Z" fill="#E74238"/>
<path d="M109.343 61.3299L100.787 62.876C100.753 62.8828 100.718 62.8827 100.683 62.8757C100.649 62.8687 100.617 62.8549 100.588 62.8354C100.559 62.8158 100.535 62.7907 100.516 62.7615C100.497 62.7322 100.484 62.6995 100.478 62.6652C100.471 62.631 100.472 62.5957 100.479 62.5617C100.487 62.5278 100.501 62.4955 100.521 62.467C100.541 62.4385 100.567 62.4143 100.596 62.3958C100.626 62.3772 100.659 62.3647 100.693 62.359L109.248 60.8129C109.317 60.8015 109.386 60.8175 109.443 60.8572C109.499 60.8968 109.538 60.9571 109.55 61.0251C109.563 61.0929 109.548 61.1629 109.509 61.22C109.47 61.2771 109.41 61.3164 109.343 61.3299Z" fill="#E74238"/>
<path d="M103.663 54.5906C103.385 54.6409 103.098 54.6076 102.838 54.4949C102.579 54.3821 102.359 54.1949 102.206 53.9571C102.053 53.7191 101.973 53.4412 101.978 53.1584C101.983 52.8755 102.072 52.6005 102.233 52.3682C102.395 52.1358 102.621 51.9565 102.884 51.8528C103.148 51.7492 103.436 51.7259 103.712 51.7861C103.988 51.8462 104.241 51.9868 104.437 52.1903C104.634 52.3939 104.765 52.6511 104.815 52.9295C104.882 53.3025 104.799 53.687 104.583 53.9983C104.367 54.3098 104.036 54.5227 103.663 54.5906ZM103.249 52.3001C103.073 52.3315 102.91 52.4144 102.781 52.5383C102.652 52.6623 102.563 52.8215 102.524 52.9962C102.486 53.1709 102.5 53.3529 102.565 53.5194C102.63 53.686 102.743 53.8295 102.89 53.9319C103.036 54.0342 103.21 54.0909 103.389 54.0946C103.568 54.0983 103.743 54.049 103.894 53.9529C104.045 53.8568 104.164 53.7182 104.236 53.5544C104.308 53.3908 104.33 53.2095 104.298 53.0334C104.256 52.7971 104.122 52.5872 103.925 52.4498C103.728 52.3123 103.485 52.2584 103.249 52.3001Z" fill="#E74238"/>
<path d="M106.248 68.8879C105.97 68.9383 105.683 68.9051 105.423 68.7923C105.164 68.6796 104.944 68.4924 104.791 68.2544C104.638 68.0166 104.559 67.7387 104.564 67.4558C104.568 67.173 104.657 66.898 104.819 66.6656C104.98 66.4332 105.206 66.2538 105.469 66.1503C105.733 66.0467 106.021 66.0234 106.297 66.0835C106.574 66.1435 106.826 66.2843 107.022 66.4878C107.219 66.6914 107.35 66.9486 107.401 67.227C107.468 67.6 107.384 67.9845 107.168 68.2958C106.952 68.6071 106.621 68.8202 106.248 68.8879ZM105.834 66.5915C105.658 66.6229 105.495 66.7058 105.366 66.8297C105.237 66.9536 105.148 67.1129 105.11 67.2876C105.071 67.4621 105.085 67.6442 105.15 67.8108C105.215 67.9774 105.328 68.1208 105.475 68.2233C105.622 68.3256 105.795 68.3822 105.974 68.386C106.153 68.3897 106.329 68.3404 106.479 68.2443C106.63 68.1482 106.749 68.0094 106.821 67.8458C106.893 67.6822 106.915 67.5009 106.884 67.3248C106.842 67.0883 106.707 66.8782 106.511 66.7407C106.314 66.6031 106.07 66.5495 105.834 66.5915Z" fill="#E74238"/>
<path d="M111.792 64.2106C111.514 64.261 111.227 64.2277 110.967 64.1149C110.708 64.0022 110.488 63.815 110.335 63.5771C110.182 63.3393 110.103 63.0613 110.107 62.7785C110.113 62.4957 110.201 62.2207 110.362 61.9883C110.524 61.7558 110.75 61.5765 111.013 61.473C111.277 61.3693 111.565 61.3461 111.841 61.4062C112.117 61.4662 112.37 61.6069 112.566 61.8105C112.763 62.014 112.894 62.2713 112.945 62.5497C113.012 62.9227 112.928 63.3071 112.712 63.6184C112.496 63.9298 112.165 64.1429 111.792 64.2106ZM111.376 61.9141C111.201 61.9458 111.038 62.0289 110.909 62.1529C110.781 62.2768 110.692 62.4362 110.653 62.6108C110.615 62.7854 110.629 62.9674 110.695 63.1339C110.76 63.3003 110.873 63.4437 111.019 63.5459C111.166 63.6482 111.34 63.7047 111.518 63.7084C111.697 63.7122 111.873 63.6627 112.023 63.5666C112.174 63.4705 112.293 63.3319 112.365 63.1683C112.437 63.0047 112.459 62.8234 112.428 62.6474C112.407 62.5302 112.363 62.4182 112.299 62.318C112.235 62.2176 112.152 62.131 112.054 62.0628C111.956 61.9947 111.846 61.9465 111.73 61.921C111.614 61.8955 111.494 61.8932 111.376 61.9141Z" fill="#E74238"/>
<path d="M110.5 57.0667C110.222 57.117 109.935 57.0838 109.675 56.9711C109.416 56.8583 109.196 56.6711 109.043 56.4333C108.89 56.1953 108.811 55.9174 108.815 55.6346C108.82 55.3517 108.909 55.0767 109.07 54.8443C109.232 54.612 109.458 54.4326 109.721 54.329C109.985 54.2254 110.273 54.2021 110.549 54.2622C110.825 54.3223 111.078 54.463 111.274 54.6665C111.471 54.8701 111.602 55.1273 111.653 55.4057C111.72 55.7788 111.636 56.1634 111.42 56.4748C111.204 56.7863 110.873 56.9991 110.5 57.0667ZM110.084 54.7702C109.909 54.8018 109.746 54.8849 109.617 55.009C109.489 55.1329 109.399 55.2923 109.361 55.4669C109.323 55.6415 109.337 55.8234 109.403 55.9899C109.468 56.1564 109.581 56.2997 109.727 56.4021C109.874 56.5043 110.047 56.5608 110.226 56.5645C110.405 56.5682 110.581 56.5189 110.731 56.4227C110.882 56.3266 111.001 56.1879 111.073 56.0244C111.145 55.8607 111.166 55.6795 111.135 55.5035C111.115 55.3861 111.072 55.2738 111.007 55.1733C110.944 55.0727 110.86 54.9857 110.763 54.9173C110.665 54.849 110.555 54.8006 110.438 54.7749C110.322 54.7492 110.202 54.7468 110.084 54.7677V54.7702Z" fill="#E74238"/>
<path d="M99.391 66.4521C99.1127 66.5025 98.8256 66.4692 98.5662 66.3564C98.3068 66.2437 98.0867 66.0565 97.9336 65.8186C97.7806 65.5808 97.7016 65.3028 97.7065 65.02C97.7114 64.7372 97.8002 64.4622 97.9614 64.2298C98.1227 63.9973 98.3492 63.818 98.6125 63.7144C98.8756 63.6108 99.1636 63.5876 99.44 63.6476C99.7165 63.7077 99.9688 63.8484 100.165 64.052C100.362 64.2556 100.493 64.5128 100.544 64.7911C100.611 65.1642 100.527 65.5487 100.311 65.8603C100.095 66.1717 99.764 66.3846 99.391 66.4521ZM98.9754 64.1555C98.7996 64.1873 98.637 64.2704 98.5083 64.3943C98.3796 64.5184 98.2904 64.6777 98.2523 64.8523C98.2141 65.0269 98.2285 65.2089 98.2936 65.3754C98.3587 65.5417 98.4718 65.6852 98.6183 65.7874C98.7649 65.8897 98.9384 65.9463 99.1171 65.95C99.2958 65.9537 99.4717 65.9042 99.6223 65.8081C99.773 65.712 99.8918 65.5734 99.9637 65.4097C100.036 65.2462 100.058 65.0649 100.027 64.8889C100.006 64.7717 99.962 64.6597 99.898 64.5595C99.8339 64.4591 99.7506 64.3725 99.653 64.3043C99.5554 64.2363 99.4453 64.188 99.329 64.1625C99.2128 64.137 99.0926 64.1346 98.9754 64.1555Z" fill="#E74238"/>
<path d="M98.0995 59.3058C97.8211 59.3554 97.5343 59.3215 97.2753 59.2081C97.0162 59.0949 96.7966 58.9074 96.6441 58.6692C96.4916 58.4312 96.4132 58.1532 96.4185 57.8705C96.424 57.5878 96.5131 57.3131 96.6746 57.0811C96.8362 56.849 97.0629 56.67 97.326 56.5668C97.5893 56.4635 97.8772 56.4406 98.1534 56.5009C98.4297 56.5613 98.6818 56.7022 98.878 56.9058C99.0742 57.1093 99.2057 57.3666 99.2557 57.6447C99.289 57.8298 99.2854 58.0195 99.2454 58.2032C99.2052 58.3868 99.1293 58.5607 99.022 58.715C98.9145 58.8693 98.7778 59.0008 98.6195 59.1022C98.4612 59.2035 98.2845 59.2728 98.0995 59.3058ZM97.684 57.0105C97.5084 57.0423 97.3462 57.1255 97.2179 57.2493C97.0896 57.3732 97.0008 57.5324 96.9628 57.7066C96.9248 57.8809 96.9392 58.0626 97.0043 58.2286C97.0693 58.3947 97.1821 58.5379 97.3284 58.6399C97.4747 58.742 97.648 58.7984 97.8263 58.8022C98.0047 58.8059 98.1801 58.7567 98.3305 58.6609C98.481 58.565 98.5997 58.4268 98.6717 58.2636C98.7437 58.1004 98.7657 57.9195 98.735 57.7438C98.7143 57.6265 98.6708 57.5145 98.6068 57.4141C98.5427 57.3137 98.4595 57.2269 98.3617 57.1588C98.2641 57.0907 98.1539 57.0424 98.0376 57.017C97.9213 56.9916 97.8011 56.9893 97.684 57.0105Z" fill="#E74238"/>
<path d="M111.467 61.8675C111.398 61.88 111.328 61.8648 111.27 61.8251C111.213 61.7855 111.174 61.7247 111.161 61.6561C111.161 61.6483 111.161 61.6406 111.161 61.6328L110.311 56.9444C110.304 56.9103 110.304 56.8751 110.311 56.8409C110.318 56.8068 110.332 56.7744 110.351 56.7456C110.371 56.7168 110.396 56.6921 110.425 56.6731C110.454 56.6542 110.487 56.6412 110.521 56.635C110.556 56.6287 110.591 56.6294 110.625 56.6368C110.659 56.6443 110.691 56.6585 110.72 56.6785C110.748 56.6986 110.772 56.7241 110.791 56.7535C110.809 56.7831 110.822 56.8159 110.828 56.8503L111.683 61.5571L111.467 61.8675Z" fill="#E74238"/>
<path d="M106.999 67.0681C106.942 67.0785 106.884 67.0697 106.832 67.0432C106.781 67.0167 106.739 66.974 106.715 66.9215C106.69 66.8691 106.683 66.81 106.696 66.7534C106.708 66.6967 106.739 66.6458 106.783 66.6085L110.512 63.4515C110.538 63.4287 110.569 63.4113 110.602 63.4004C110.635 63.3893 110.67 63.3851 110.704 63.3877C110.739 63.3903 110.773 63.3998 110.804 63.4156C110.835 63.4314 110.863 63.4533 110.885 63.4799C110.908 63.5064 110.925 63.5372 110.935 63.5703C110.946 63.6035 110.949 63.6384 110.946 63.6731C110.943 63.7078 110.933 63.7415 110.917 63.7722C110.901 63.803 110.879 63.8303 110.852 63.8524L107.123 67.0094C107.087 67.0391 107.045 67.0593 106.999 67.0681Z" fill="#E74238"/>
<path d="M104.878 67.3968C104.833 67.4045 104.787 67.4011 104.745 67.3871L100.233 65.8214C100.2 65.8109 100.169 65.7937 100.142 65.771C100.115 65.7482 100.093 65.7203 100.077 65.6888C100.061 65.6574 100.052 65.6231 100.049 65.5879C100.047 65.5528 100.052 65.5176 100.063 65.4843C100.075 65.451 100.093 65.4205 100.117 65.3944C100.14 65.3682 100.169 65.3472 100.201 65.3323C100.233 65.3174 100.267 65.3091 100.302 65.3079C100.338 65.3067 100.373 65.3126 100.406 65.3251L104.908 66.8896C104.963 66.9086 105.011 66.9453 105.042 66.9941C105.074 67.0428 105.089 67.1008 105.084 67.1588C105.08 67.2169 105.056 67.2717 105.017 67.3148C104.978 67.3579 104.925 67.3867 104.868 67.3968H104.878Z" fill="#E74238"/>
<path d="M98.9683 64.1165C98.9343 64.1229 98.8995 64.1223 98.8658 64.1151C98.8321 64.1079 98.8002 64.0941 98.7719 64.0744C98.7435 64.0547 98.7194 64.0296 98.7009 64.0006C98.6823 63.9715 98.6698 63.9391 98.6639 63.905L97.8022 59.1384C97.7954 59.1043 97.7955 59.069 97.8025 59.0349C97.8095 59.0007 97.8233 58.9683 97.8428 58.9395C97.8624 58.9107 97.8876 58.8862 97.9167 58.8671C97.946 58.8481 97.9787 58.8351 98.013 58.8289C98.0472 58.8227 98.0825 58.8234 98.1165 58.8308C98.1505 58.8383 98.1827 58.8525 98.2112 58.8724C98.2397 58.8925 98.2639 58.918 98.2824 58.9475C98.301 58.9771 98.3135 59.0099 98.3192 59.0443L99.1809 63.811C99.1872 63.845 99.1868 63.8799 99.1795 63.9139C99.1722 63.9477 99.1582 63.9798 99.1385 64.0082C99.1186 64.0366 99.0934 64.0608 99.0642 64.0795C99.035 64.098 99.0023 64.1107 98.9683 64.1165Z" fill="#E74238"/>
<path d="M98.7751 57.3917C98.7182 57.4021 98.6593 57.3934 98.6078 57.3669C98.5563 57.3403 98.5149 57.2976 98.4903 57.2451C98.4656 57.1927 98.459 57.1336 98.4713 57.077C98.4837 57.0204 98.5145 56.9694 98.5588 56.9321L102.27 53.7923C102.323 53.7483 102.391 53.727 102.46 53.7333C102.529 53.7394 102.593 53.7723 102.637 53.8251C102.682 53.8778 102.704 53.946 102.699 54.0148C102.694 54.0838 102.661 54.1478 102.609 54.1932L98.8986 57.333C98.8634 57.3631 98.8207 57.3834 98.7751 57.3917Z" fill="#E74238"/>
<path d="M109.094 55.4203C109.049 55.4284 109.002 55.4241 108.959 55.4081L104.477 53.7997C104.421 53.7698 104.378 53.7209 104.356 53.6619C104.333 53.603 104.333 53.5378 104.354 53.4786C104.376 53.4193 104.418 53.3696 104.473 53.3389C104.528 53.308 104.592 53.2981 104.654 53.3107L109.136 54.9204C109.19 54.9399 109.237 54.9768 109.268 55.0254C109.3 55.0741 109.314 55.1317 109.31 55.1894C109.305 55.247 109.281 55.3015 109.242 55.3444C109.203 55.3873 109.151 55.4161 109.094 55.4264V55.4203Z" fill="#E74238"/>
<path d="M100.414 59.1639C100.367 59.1717 100.319 59.167 100.274 59.1505L98.8266 58.5944C98.7662 58.5661 98.719 58.516 98.6942 58.4543C98.6695 58.3924 98.669 58.3236 98.6931 58.2615C98.7171 58.1994 98.7638 58.1488 98.8238 58.1199C98.8837 58.0909 98.9525 58.0858 99.0161 58.1055L100.462 58.6555C100.515 58.6765 100.56 58.7142 100.59 58.763C100.62 58.8118 100.633 58.8688 100.628 58.9258C100.622 58.9827 100.598 59.0363 100.56 59.0786C100.522 59.1209 100.47 59.1495 100.414 59.1603V59.1639Z" fill="#E74238"/>
<path d="M110.466 62.6741C110.42 62.6826 110.373 62.6788 110.329 62.6631L109.163 62.2379C109.126 62.2297 109.092 62.2139 109.062 62.1914C109.032 62.1688 109.007 62.1402 108.989 62.1073C108.971 62.0744 108.96 62.0381 108.958 62.0007C108.955 61.9633 108.96 61.9257 108.973 61.8906C108.986 61.8555 109.006 61.8234 109.033 61.7968C109.059 61.7701 109.091 61.7493 109.126 61.7359C109.161 61.7225 109.198 61.7167 109.235 61.7189C109.273 61.7212 109.309 61.7315 109.342 61.7489L110.51 62.1743C110.564 62.1943 110.609 62.2314 110.64 62.2801C110.671 62.3287 110.685 62.3861 110.68 62.4434C110.675 62.5008 110.651 62.5548 110.613 62.5974C110.574 62.64 110.522 62.6687 110.466 62.679V62.6741Z" fill="#E74238"/>
<path d="M100.17 64.4856C100.112 64.4953 100.053 64.4858 100.002 64.4586C99.9505 64.4312 99.9096 64.3877 99.8855 64.3348C99.8613 64.2817 99.8553 64.2223 99.8685 64.1655C99.8817 64.1088 99.9133 64.0581 99.9583 64.0212L100.945 63.2316C100.972 63.21 101.003 63.194 101.036 63.1844C101.069 63.1747 101.104 63.1717 101.138 63.1756C101.172 63.1794 101.206 63.1898 101.236 63.2065C101.266 63.2232 101.293 63.2456 101.314 63.2725C101.336 63.2996 101.352 63.3305 101.362 63.3636C101.371 63.3969 101.374 63.4316 101.371 63.466C101.367 63.5002 101.356 63.5335 101.34 63.5638C101.323 63.594 101.3 63.6207 101.273 63.6423L100.287 64.4318C100.253 64.4588 100.213 64.4772 100.17 64.4856Z" fill="#E74238"/>
<path d="M108.362 57.5385C108.305 57.5488 108.246 57.5397 108.194 57.5126C108.142 57.4856 108.101 57.442 108.077 57.3889C108.053 57.3359 108.047 57.2762 108.06 57.2194C108.074 57.1625 108.106 57.1118 108.151 57.0753L109.216 56.2197C109.27 56.176 109.339 56.1559 109.409 56.1636C109.478 56.1712 109.542 56.2062 109.585 56.2606C109.629 56.3151 109.649 56.3846 109.641 56.454C109.634 56.5233 109.599 56.5868 109.544 56.6303L108.48 57.4859C108.446 57.513 108.405 57.5311 108.362 57.5385Z" fill="#E74238"/>
</g>
</g>
<defs>
<linearGradient id="paint0_linear_1_339" x1="98.6225" y1="82.7484" x2="116.328" y2="79.5468" gradientUnits="userSpaceOnUse">
<stop stop-color="white"/>
<stop offset="0.19" stop-color="#C4C4C4"/>
<stop offset="0.4" stop-color="#858585"/>
<stop offset="0.56" stop-color="#5E5E5E"/>
<stop offset="0.65" stop-color="#4F4F4F"/>
<stop offset="0.73" stop-color="#525252"/>
<stop offset="0.79" stop-color="#5A5A5A"/>
<stop offset="0.84" stop-color="#696969"/>
<stop offset="0.88" stop-color="#7F7F7F"/>
<stop offset="0.93" stop-color="#9A9A9A"/>
<stop offset="0.96" stop-color="#BBBBBB"/>
<stop offset="1" stop-color="#E4E4E4"/>
</linearGradient>
<linearGradient id="paint1_linear_1_339" x1="95.3806" y1="39.2011" x2="109.202" y2="36.7017" gradientUnits="userSpaceOnUse">
<stop stop-color="white"/>
<stop offset="0.19" stop-color="#C4C4C4"/>
<stop offset="0.4" stop-color="#858585"/>
<stop offset="0.56" stop-color="#5E5E5E"/>
<stop offset="0.65" stop-color="#4F4F4F"/>
<stop offset="0.73" stop-color="#525252"/>
<stop offset="0.79" stop-color="#5A5A5A"/>
<stop offset="0.84" stop-color="#696969"/>
<stop offset="0.88" stop-color="#7F7F7F"/>
<stop offset="0.93" stop-color="#9A9A9A"/>
<stop offset="0.96" stop-color="#BBBBBB"/>
<stop offset="1" stop-color="#E4E4E4"/>
</linearGradient>
<radialGradient id="paint2_radial_1_339" cx="0" cy="0" r="1" gradientUnits="userSpaceOnUse" gradientTransform="translate(76.209 21.8412) rotate(-10.25) scale(5.94 5.94)">
<stop stop-color="#555761"/>
<stop offset="1" stop-color="#16181E"/>
</radialGradient>
<radialGradient id="paint3_radial_1_339" cx="0" cy="0" r="1" gradientUnits="userSpaceOnUse" gradientTransform="translate(117.717 14.3353) rotate(-10.25) scale(5.92657 5.92656)">
<stop stop-color="#555761"/>
<stop offset="1" stop-color="#16181E"/>
</radialGradient>
<radialGradient id="paint4_radial_1_339" cx="0" cy="0" r="1" gradientUnits="userSpaceOnUse" gradientTransform="translate(104.626 61.1071) rotate(-10.25) scale(15.664 15.664)">
<stop stop-color="#555761"/>
<stop offset="1" stop-color="#16181E"/>
</radialGradient>
<radialGradient id="paint5_radial_1_339" cx="0" cy="0" r="1" gradientUnits="userSpaceOnUse" gradientTransform="translate(90.7354 15.6125) scale(11.0709)">
<stop stop-color="#555761"/>
<stop offset="1" stop-color="#16181E"/>
</radialGradient>
<radialGradient id="paint6_radial_1_339" cx="0" cy="0" r="1" gradientUnits="userSpaceOnUse" gradientTransform="translate(102.171 13.8403) scale(10.7934)">
<stop stop-color="#555761"/>
<stop offset="1" stop-color="#16181E"/>
</radialGradient>
<radialGradient id="paint7_radial_1_339" cx="0" cy="0" r="1" gradientUnits="userSpaceOnUse" gradientTransform="translate(90.7233 101.245) scale(1.94456)">
<stop stop-color="#555761"/>
<stop offset="1" stop-color="#16181E"/>
</radialGradient>
<radialGradient id="paint8_radial_1_339" cx="0" cy="0" r="1" gradientUnits="userSpaceOnUse" gradientTransform="translate(130.96 93.9686) scale(1.94455 1.94456)">
<stop stop-color="#555761"/>
<stop offset="1" stop-color="#16181E"/>
</radialGradient>
<clipPath id="clip0_1_339">
<rect width="209" height="113" fill="white"/>
</clipPath>
</defs>
</svg>
