<svg width="209" height="113" viewBox="0 0 209 113" fill="none" xmlns="http://www.w3.org/2000/svg">
<path fill-rule="evenodd" clip-rule="evenodd" d="M162.733 43.6955L105.264 28.5019L100.571 48.4359C118.814 56.076 143.594 55.9807 153.001 54.3359C162.082 52.746 168.668 47.7551 162.733 43.6955Z" fill="#E74139"/>
<path fill-rule="evenodd" clip-rule="evenodd" d="M47.7952 13.3093L105.264 28.5019L100.571 48.4358C81.075 46.0993 59.2467 33.6809 51.6677 27.5461C44.3597 21.6217 40.7559 13.9375 47.7952 13.3093Z" fill="#E74139"/>
<mask id="mask0_1_198" style="mask-type:luminance" maskUnits="userSpaceOnUse" x="100" y="28" width="65" height="28">
<path d="M162.733 43.7358L105.264 28.5434L100.571 48.4761C118.814 56.12 143.594 56.0211 153.001 54.3762C162.082 52.7863 168.668 47.7955 162.733 43.7358Z" fill="white"/>
</mask>
<g mask="url(#mask0_1_198)">
<path d="M140.475 24.0511C136.976 36.5551 132.276 44.3566 122.114 51.9137C115.655 56.7151 121.406 62.8853 96.512 68.6203" stroke="#E74238" stroke-width="0.75" stroke-linejoin="bevel"/>
<path d="M126.182 68.9979C127.537 68.4761 128.618 66.7848 129.463 65.6397C131.241 63.2298 132.505 60.4631 134.122 57.9408C135.592 55.6446 137.621 54.3272 138.181 51.4041C138.651 48.9527 138.226 46.3938 137.48 44.0217C136.734 41.6498 135.677 39.3988 134.828 37.0622C133.41 33.1416 132.596 29.0054 132.417 24.8112C132.232 20.5096 132.791 16.4854 131.007 12.4233C129.44 8.85254 128.066 5.33552 125.972 2.02252" stroke="#36393F" stroke-width="0.75" stroke-linejoin="bevel"/>
<path d="M139.462 45.2157C140.249 45.0776 140.562 44.6877 141.401 44.5644C141.787 44.5158 142.169 44.4448 142.548 44.3517" stroke="#E74238" stroke-width="0.75" stroke-linejoin="bevel"/>
<path d="M139.925 39.378C140.559 36.7017 140.979 33.566 139.003 31.4482C138.244 30.6367 137.374 29.7972 137.216 28.668C137.08 27.699 137.039 25.8341 137.537 25.008C139.854 21.1646 143.501 18.3747 146.605 15.2316" stroke="#37509D" stroke-width="0.75" stroke-miterlimit="10"/>
<path d="M31.0514 56.984C31.0514 56.984 46.9129 78.3991 68.2672 65.14C81.1095 57.1661 95.7727 68.2268 103.102 60.5695C110.43 52.9122 117.581 56.5037 128.763 52.9036C141.884 48.679 150.947 30.418 150.947 30.418" stroke="#36393F" stroke-width="0.75" stroke-linejoin="bevel"/>
<path d="M108.652 80.7564C117.789 74.1817 136.768 59.2289 132.074 42.3097C127 24.0413 120.965 27.4642 123.848 7.49359" stroke="#37509D" stroke-width="0.75" stroke-miterlimit="10"/>
<path d="M145.729 34.5778C145.729 34.5778 144.974 35.8267 144.685 37.1197C144.395 38.4126 144.041 39.6407 144.041 39.6407" stroke="#E74238" stroke-width="0.75" stroke-linejoin="bevel"/>
<path d="M149.551 11.1671C145.459 12.1252 143.491 13.6479 142.315 17.8884C141.924 19.2999 142.134 20.8384 140.781 21.1635C139.848 21.3883 138.745 21.9346 137.827 22.2181C136.522 22.6226 135.302 23.0895 134.473 24.0364C133.435 25.2292 133.488 26.7739 132.671 27.7136C131.066 29.5626 130.48 30.3961 130.134 32.8328C129.55 36.8888 131.304 45.9588 128.769 52.9C125.935 60.6416 112.738 68.3234 99.1725 69.5625" stroke="#36393F" stroke-width="0.75" stroke-linejoin="bevel"/>
<path d="M161.423 45.9893C161.423 45.9893 174.353 45.8292 182.257 46.7641C190.161 47.699 204.249 49.0249 207.346 49.2815" stroke="#E74238" stroke-width="0.75" stroke-linejoin="bevel"/>
<path d="M79.3992 108.796C79.3992 108.796 79.2055 106.955 78.8964 104.007C78.5874 101.059 77.3615 94.2477 77.3615 94.2477C77.3615 94.2477 88.7853 90.914 93.1607 85.0518C97.5361 79.1897 83.5658 73.3203 88.3102 69.8985C97.9478 62.9634 100.103 61.2831 102.346 58.4797C104.7 55.5346 103.769 54.0804 106.603 52.5907C111.109 50.2272 115.224 52.8694 119.827 51.167C124.693 49.367 123.675 46.5233 128.1 45.9977C132.525 45.4723 136.02 42.2094 141.477 39.3254C146.935 36.4413 154.658 31.9931 154.658 31.9931" stroke="#E74238" stroke-width="0.75" stroke-linejoin="bevel"/>
<path d="M177.6 54.5227C177.6 54.5227 169.243 56.0687 166.556 56.9411C163.867 57.8137 159.801 62.0885 157.886 65.7949C155.97 69.5014 153.638 72.8828 151.972 74.0755C150.306 75.2682 140.795 80.9862 139.102 81.9308C137.409 82.8755 135.552 83.4681 133.87 83.2922C132.187 83.1162 128.017 86.0112 128.017 86.0112" stroke="#E74238" stroke-width="0.75" stroke-linejoin="bevel"/>
<path d="M59.6248 153.823C63.7372 149.112 71.0729 143.401 79.2804 137.461C87.488 131.521 102.064 120.444 111.888 112.841C121.712 105.239 129.583 99.9547 131.896 93.8421C134.21 87.7294 137.016 80.3165 140.343 74.2062C143.67 68.096 145.446 69.1824 147.359 61.7817C149.271 54.381 149.885 51.6987 155.803 45.9037C161.723 40.1088 162.062 38.4492 170.762 32.3316C179.461 26.2141 185.046 23.3106 188.786 19.8876" stroke="#E74238" stroke-width="0.75" stroke-linejoin="bevel"/>
<path d="M-30.6728 -88.4821C-30.4617 -84.0314 -29.9185 -81.2939 -28.3917 -77.7146C-26.8648 -74.1352 -24.7014 -71.7791 -21.5588 -69.9106C-18.4163 -68.0422 -8.06951 -65.4734 -8.06951 -65.4734C-8.06951 -65.4734 -6.97277 -64.9724 -5.50587 -61.9735C-4.03898 -58.9746 -0.172213 -49.5464 1.0848 -46.7102C2.34181 -43.8738 8.93598 -34.0755 10.1376 -31.7645C10.9701 -30.1983 11.877 -28.6778 12.8546 -27.2087C12.8546 -27.2087 20.6469 -24.8869 27.2538 -21.6924C33.8606 -18.498 49.9862 -9.95103 52.303 -8.608C54.6198 -7.26498 56.3693 -3.98867 57.9296 -1.31606C59.4899 1.35655 59.1866 5.32693 64.4523 7.93971C69.7179 10.5524 73.0692 13.775 76.6454 14.43C83.3663 15.6606 97.3065 8.97604 108.717 8.85017C122.047 8.70466 125.231 21.3101 142.79 15.927C146.604 14.7575 148.582 16.2398 150.811 18.5886C153.042 20.9373 163.728 31.3651 167.725 36.4903C171.722 41.6155 174.682 45.4882 173.909 55.1583C173.137 64.8283 170.253 66.654 172.782 73.6918C175.311 80.7295 178.326 91.1903 183.333 97.4398C188.338 103.689 193.322 107.323 196.629 109.551" stroke="#36393F" stroke-width="0.75" stroke-linejoin="bevel"/>
<path d="M157.355 73.2201C159.546 70.0134 161.924 67.4654 162.632 65.454C163.34 63.4425 168.099 46.3254 170.409 37.661C172.718 28.9968 175.925 20.1137 176.508 18.0033" stroke="#E74238" stroke-width="0.75" stroke-linejoin="bevel"/>
<path d="M154.705 51.8954C154.705 51.8954 170.025 21.9419 172.651 16.3022" stroke="#E74238" stroke-width="0.75" stroke-linejoin="bevel"/>
<path d="M155.318 32.0274C149.436 33.8127 140.405 36.0686 137.719 39.2667C135.033 42.4648 133.383 44.7549 129.185 45.377C121.192 46.555 119.082 53.8592 109.533 55.9465C105.692 56.7872 95.8246 60.0048 92.5484 62.2693C90.3087 63.8189 76.2705 73.8396 73.8787 76.0038" stroke="#37509D" stroke-width="0.75" stroke-miterlimit="10"/>
<path d="M150.73 69.1959C148.054 68.1694 148.701 65.7071 150.097 63.1579C151.492 60.6087 153.2 58.5679 150.789 57.0121C148.377 55.4565 148.559 54.4324 151.037 50.5232C155.793 43.01 161.894 29.8461 161.894 29.8461" stroke="#36393F" stroke-width="0.75" stroke-linejoin="bevel"/>
<path d="M50.5802 74.4775C51.3055 73.1712 62.8043 72.2106 66.1545 69.9059C66.1684 69.8961 66.1545 69.8814 66.1764 69.8728C70.0478 67.9493 70.1965 68.0178 72.5918 67.0976C77.8529 65.0751 79.947 65.4294 83.3295 64.6156C96.2376 61.508 96.3956 63.6197 102.749 61.5703C106.809 60.2615 110.821 58.9257 116.459 54.816C119.49 52.6066 122.303 49.8998 128.509 48.2317C133.412 46.9143 144.895 47.4984 146.426 46.7542C147.958 46.0099 147.962 42.097 153.451 41.0387C172.107 37.4447 166.279 26.8373 169.777 26.2214" stroke="#36393F" stroke-width="0.75" stroke-linejoin="bevel"/>
<path d="M75.6223 71.7439C75.6223 71.7439 82.9903 66.874 86.3924 65.7742C89.7944 64.6744 96.2133 64.2614 98.7192 63.4963C102.419 62.3672 105.015 58.1426 109.392 59.0775C112.692 59.7825 111.384 63.8018 112.629 64.9652C113.875 66.1286 114.622 66.6908 116.196 66.8264C117.77 66.9621 120.338 64.3432 122.179 63.5513C125.191 62.2547 126.677 63.0625 129.192 61.6204C131.707 60.1785 134.184 61.4177 135.923 57.5609C137.662 53.7041 135.288 47.0415 141.92 38.3992C143.51 36.3217 149.791 29.0237 150.84 26.6676C153.176 21.4348 157.371 15.3966 157.684 13.4451" stroke="#E74238" stroke-width="0.75" stroke-linejoin="bevel"/>
<path d="M136.495 -55.245C136.495 -55.245 110.99 -58.5078 104.737 -33.126C100.977 -17.865 83.2279 -14.6987 83.1506 -3.79073C83.0734 7.11728 75.6247 9.93284 70.1191 20.8567C63.6611 33.676 69.4399 53.3813 69.4399 53.3813" stroke="#36393F" stroke-width="0.75" stroke-linejoin="bevel"/>
<path d="M189.94 39.934C188.252 36.4329 187.825 31.0657 187.091 26.301C186.358 21.5361 181.871 5.13266 180.402 -0.250425C178.933 -5.63353 163.213 3.75055 161 -4.1463C159.63 -9.03448 162.476 -15.8975 166.935 -22.9499C171.13 -29.5832 176.982 -35.0066 177.785 -45.7227C178.324 -52.9328 170.143 -65.3902 169.876 -69.5856C169.611 -73.7808 169.392 -75.8657 172.242 -78.4551C175.093 -81.0447 177.684 -82.2997 177.684 -82.2997L180.699 -80.9555L207.734 -18.8536" stroke="#36393F" stroke-width="0.75" stroke-linejoin="bevel"/>
<path d="M101.833 81.3931C101.833 81.3931 107.781 73.3179 109.345 69.466C110.909 65.6141 112.071 58.1413 113.227 55.3244C114.382 52.5077 116.382 50.0587 116.264 46.852C116.147 43.6454 111.49 41.2245 110.442 39.6419C109.394 38.0594 109.761 36.3559 110.422 34.6389C111.703 31.3161 118.238 33.5733 119.225 31.4751C120.212 29.3768 118.862 24.4263 120.665 21.6413C122.469 18.8562 122.08 15.0141 126.285 13.3998C130.49 11.7855 140.7 7.67324 143.38 6.8362C146.061 5.99905 151.85 9.01138 154.451 9.3206C157.053 9.62983 163.537 9.94626 165.594 9.79235C167.653 9.63834 172.425 7.47047 172.425 7.47047" stroke="#E74238" stroke-width="0.75" stroke-linejoin="bevel"/>
<path d="M183.963 -29.7115C183.963 -29.7115 177.962 -27.5901 165.333 -6.31056C162.508 -1.55069 162.345 5.66549 160.975 9.85714C159.605 14.0487 156.091 23.841 154.911 25.6019C153.731 27.3629 151.789 29.3413 151.653 29.9169C151.517 30.4925 154.557 33.5831 156.289 36.4353C158.022 39.2876 158.763 41.4677 159.026 42.8987C159.289 44.3298 161.542 45.8952 161.542 45.8952C161.542 45.8952 166.568 46.3583 168.462 46.2325C170.355 46.1066 181.616 45.8206 183.844 45.6386C186.074 45.4565 190.619 42.0666 190.619 42.0666" stroke="#E74238" stroke-width="0.75" stroke-linejoin="bevel"/>
<path d="M277.211 1.36272C274.098 -1.62762 271.882 -3.15885 268.413 -4.5422C264.944 -5.92556 261.839 -5.97199 258.38 -4.94181C254.92 -3.91163 245.87 2.03729 245.87 2.03729C245.87 2.03729 244.761 2.50655 241.719 1.48492C238.679 0.463295 229.663 -3.30671 226.88 -4.37112C224.099 -5.43551 212.898 -7.42622 210.505 -8.15945C208.872 -8.64336 207.217 -9.0394 205.546 -9.34605C205.546 -9.34605 198.49 -5.13856 191.682 -2.4525C184.875 0.23355 167.771 6.27414 165.236 7.05991C162.701 7.84569 159.278 6.84111 156.39 6.11772C153.501 5.39423 151.067 2.36236 145.602 4.45938C140.135 6.55642 135.614 6.79104 132.648 9.00778C127.076 13.1726 121.679 28.3455 113.695 36.9841C104.37 47.0769 93.705 40.55 84.8805 57.5132C82.9639 61.1977 80.5767 61.6315 77.433 61.6425C74.2893 61.6535 59.7702 62.289 53.5277 61.6559C47.2853 61.0229 42.5998 60.5048 36.701 53.087C30.8023 45.6692 31.6165 42.2169 25.1318 39.1337C18.6473 36.0504 9.53331 30.9154 1.82397 30.247C-5.88527 29.5785 -11.8417 30.7432 -15.6612 31.6486" stroke="#36393F" stroke-width="0.75" stroke-linejoin="bevel"/>
</g>
<mask id="mask1_1_198" style="mask-type:luminance" maskUnits="userSpaceOnUse" x="44" y="13" width="62" height="36">
<path d="M47.7952 13.3485L105.264 28.5434L100.571 48.4763C81.075 46.1396 59.2467 33.7212 51.6677 27.5865C44.3597 21.6584 40.7559 13.9779 47.7952 13.3485Z" fill="white"/>
</mask>
<g mask="url(#mask1_1_198)">
<path d="M56.7741 -50.3614C55.6301 -46.622 52.3504 -42.5062 49.6899 -38.587C47.0294 -34.6679 39.2555 -19.7088 36.6988 -14.8048C34.1421 -9.90077 51.5235 -4.7535 47.8182 2.48833C45.521 6.97572 38.9384 9.69103 31.0734 11.3372C23.6812 12.8843 15.9246 12.3344 8.20723 19.3098C3.01768 24.0024 0.48636 38.9419 -2.12576 42.1094C-4.73778 45.277 -5.97287 46.9133 -9.71622 46.6078C-13.4597 46.3023 -16.1293 45.244 -16.1293 45.244L-17.361 42.0324L4.96197 -22.1335" stroke="#36393F" stroke-width="0.75" stroke-linejoin="bevel"/>
<path d="M81.0969 50.0343C75.2258 38.5703 73.3483 29.5321 75.4876 16.5736C76.8496 8.33938 68.6675 8.2844 82.4439 -14.4249" stroke="#E74238" stroke-width="0.75" stroke-linejoin="bevel"/>
<path d="M61.2106 7.54257C60.6006 8.92597 60.9649 10.9325 61.1322 12.3746C61.4782 15.4114 62.4342 18.3161 62.9774 21.3113C63.4698 24.0366 62.9151 26.4879 64.4696 28.9748C65.7727 31.0609 67.7794 32.5493 69.8898 33.6699C72.0001 34.7905 74.2501 35.5873 76.4078 36.6028C80.0267 38.312 83.3629 40.6262 86.2886 43.4573C89.287 46.3609 91.5785 49.6249 95.5514 51.1561C99.0422 52.5065 102.361 53.9669 106.051 54.7379" stroke="#36393F" stroke-width="0.75" stroke-linejoin="bevel"/>
<path d="M67.6894 34.3092C67.2282 34.9971 67.265 35.5067 66.753 36.2229C66.5132 36.546 66.2899 36.8826 66.0842 37.2311" stroke="#E74238" stroke-width="0.75" stroke-linejoin="bevel"/>
<path d="M83.1508 36.6896C81.8327 39.0701 80.5987 41.9541 81.9377 44.5754C82.4508 45.5812 83.0644 46.6455 82.9155 47.7772C82.7887 48.7474 82.3389 50.55 81.6378 51.1989C78.3949 54.1978 74.1545 55.7889 70.3361 57.8871" stroke="#37509D" stroke-width="0.75" stroke-miterlimit="10"/>
<path d="M65.7601 -13.9031C63.6844 -2.40853 60.2443 22.3916 74.8533 30.8336C90.6272 39.9537 92.613 33.0063 103.902 49.2864" stroke="#37509D" stroke-width="0.75" stroke-miterlimit="10"/>
<path d="M70.3568 46.5283C70.3568 46.5283 70.057 45.0789 69.3996 43.9472C68.7423 42.8157 68.1703 41.6852 68.1703 41.6852" stroke="#E74238" stroke-width="0.75" stroke-linejoin="bevel"/>
<path d="M83.2766 65.9441C85.53 62.201 85.9059 59.6493 83.9062 55.7669C83.2408 54.4765 82.0611 53.5465 82.8049 52.3012C83.3146 51.4458 83.7274 50.2322 84.1888 49.3438C84.8426 48.0803 85.3939 46.835 85.3477 45.5445C85.2901 43.9192 84.2187 42.8707 84.168 41.5936C84.07 39.0836 83.9269 38.0571 82.5535 36.07C80.2562 32.7644 72.9633 27.6648 70.1193 20.8568C66.9595 13.2703 71.1677 -2.04921 79.9345 -13.0941" stroke="#36393F" stroke-width="0.75" stroke-linejoin="bevel"/>
<path d="M46.2867 -63.7283C46.2867 -63.7283 43.1926 -64.9711 39.3282 -60.6499C35.4637 -56.3287 31.6788 -49.5293 27.2297 -43.6353C22.7805 -37.7415 19.7337 -35.4893 20.6401 -30.7538C21.5466 -26.0184 23.0619 -22.4867 21.053 -18.8389C19.0441 -15.1911 20.8558 -12.4464 19.3116 -10.9946C17.7674 -9.54277 14.949 -10.5522 13.8718 -8.52603C12.7947 -6.49989 10.8354 0.639294 10.283 4.13924C9.73063 7.63922 6.30781 9.99284 5.99994 12.1877C5.69196 14.3825 5.42331 19.6812 4.30701 21.155L1.93709 24.2932" stroke="#E74238" stroke-width="0.75" stroke-linejoin="bevel"/>
<path d="M67.7345 -55.6542L71.2853 -52.6419C73.4706 -50.7917 78.8838 -46.8897 78.8838 -46.8897C78.8838 -46.8897 73.0313 -35.9719 73.8478 -28.5481C74.6642 -21.1241 88.4626 -27.4397 87.3866 -21.4688C85.2024 -9.34362 84.7941 -6.54269 85.0802 -2.88023C85.3812 0.965554 87.013 1.29917 86.0028 4.47282C84.3883 9.52109 79.72 10.7357 77.6015 15.3881C75.3619 20.3069 77.9821 21.5595 75.2016 25.2427C72.4212 28.926 72.1318 33.8593 70.1955 39.9891C68.2592 46.1189 65.7694 55.0508 65.7694 55.0508" stroke="#E74238" stroke-width="0.75" stroke-linejoin="bevel"/>
<path d="M34.5089 56.3071C34.5089 56.3071 39.387 48.9529 40.7052 46.3218C42.0233 43.6907 42.0464 37.6209 40.9278 33.5648C39.8091 29.5089 39.1979 25.3698 39.5842 23.2789C39.9706 21.188 42.8767 10.0173 43.4429 8.08032C44.0092 6.14348 44.9271 4.33358 46.2338 3.19219C47.5404 2.05081 48.554 -3.11111 48.554 -3.11111" stroke="#E74238" stroke-width="0.75" stroke-linejoin="bevel"/>
<path d="M51.6734 -102.313C51.9041 -95.8998 50.5329 -86.3642 48.6923 -76.0147C46.8518 -65.6652 43.941 -46.9068 42.0624 -34.1695C40.1838 -21.4321 38.1484 -11.7999 40.5967 -5.74345C43.045 0.313005 46.0007 7.65995 47.7259 14.4729C49.4512 21.2857 47.4688 21.8503 51.0553 28.5153C54.6419 35.1803 55.9969 37.545 55.6786 46.0713C55.3603 54.5975 56.2252 56.0284 54.1575 66.8753C52.0897 77.7222 50.0751 83.9534 49.7176 89.1739" stroke="#E74238" stroke-width="0.75" stroke-linejoin="bevel"/>
<path d="M36.3505 27.9142C36.9398 31.8246 36.9594 35.4066 37.8001 37.3605C38.6409 39.3146 46.7008 54.9825 50.8489 62.8414C54.9971 70.7004 58.6574 79.383 59.6526 81.3126" stroke="#E74238" stroke-width="0.75" stroke-linejoin="bevel"/>
<path d="M52.453 41.007C52.453 41.007 61.6096 73.6674 63.5148 79.6236" stroke="#E74238" stroke-width="0.75" stroke-linejoin="bevel"/>
<path d="M65.2758 55.5153C68.2431 49.8462 73.1178 41.4838 72.8871 37.209C72.6565 32.9344 72.2909 30.0796 74.8476 26.4941C79.7131 19.6715 76.3318 12.9294 81.6897 4.29449C83.852 0.822665 88.6863 -8.84615 89.4866 -12.9021C90.0368 -15.6725 93.2773 -33.276 93.5229 -36.6024" stroke="#37509D" stroke-width="0.75" stroke-miterlimit="10"/>
<path d="M43.7231 25.7951C46.3005 24.5157 47.4849 26.7422 48.1999 29.5908C48.9149 32.4394 49.0683 35.1609 51.8095 34.4558C54.5507 33.7507 55.1065 34.6098 55.9611 39.2303C57.6091 48.106 62.0732 61.9848 62.0732 61.9848" stroke="#36393F" stroke-width="0.75" stroke-linejoin="bevel"/>
<path d="M111.013 -52.9815C111.373 -51.5151 103.886 -42.2275 103.056 -38.0726C103.056 -38.0555 103.068 -38.0518 103.061 -38.0335C101.608 -33.771 101.457 -33.7086 100.378 -31.2634C98.0067 -25.8863 96.2884 -24.5726 94.441 -21.4626C87.3821 -9.60017 85.8621 -10.9701 82.7368 -4.76454C80.7394 -0.796565 78.794 3.15307 77.5473 10.2849C76.8784 14.1185 76.6951 18.1402 73.4187 23.9718C70.832 28.5777 62.3259 36.7715 61.7366 38.4421C61.1473 40.1126 63.7616 42.8818 60.5834 47.748C49.7915 64.2651 60.9916 67.3984 58.933 70.4548" stroke="#36393F" stroke-width="0.75" stroke-linejoin="bevel"/>
<path d="M95.1294 -32.285C95.1294 -32.285 93.1688 -23.3225 91.499 -19.9925C89.8291 -16.6624 85.5622 -11.5603 84.3017 -9.14679C82.4392 -5.57597 83.423 -0.643805 79.7038 1.97381C76.8992 3.94864 75.1428 0.12609 73.4868 0.237292C71.8307 0.348494 70.9266 0.517135 69.7215 1.59376C68.5164 2.67039 68.453 6.45388 67.6768 8.39444C66.4082 11.5718 64.8249 12.1058 64.0061 15.0142C63.1872 17.9227 60.6109 18.8979 61.9557 22.9269C63.3003 26.9561 69.4228 29.8927 70.4999 40.973C70.7571 43.6296 71.1918 53.5001 72.0164 55.9503C73.8616 61.3993 74.9202 68.8123 76.0019 70.4266" stroke="#E74238" stroke-width="0.75" stroke-linejoin="bevel"/>
</g>
<path fill-rule="evenodd" clip-rule="evenodd" d="M120.285 87.8359L92.9959 80.6258L90.7621 90.0856C99.4239 93.7151 111.19 93.6674 115.658 92.8854C119.973 92.1337 123.101 89.7618 120.285 87.8359Z" fill="#E74139"/>
<path fill-rule="evenodd" clip-rule="evenodd" d="M65.7048 73.4072L92.9935 80.6173L90.7621 90.0857C81.5063 88.9772 71.1387 83.0784 67.5418 80.1651C64.0729 77.3544 62.3626 73.7029 65.7048 73.4072Z" fill="#E74139"/>
<mask id="mask2_1_198" style="mask-type:luminance" maskUnits="userSpaceOnUse" x="90" y="80" width="32" height="14">
<path d="M120.271 87.8347L92.9844 80.6246L90.7621 90.0856C99.4239 93.7127 111.189 93.6674 115.656 92.8866C119.962 92.1313 123.089 89.7618 120.271 87.8347Z" fill="white"/>
</mask>
<g mask="url(#mask2_1_198)">
<path d="M109.704 78.4835C108.042 84.4203 105.809 88.1242 100.984 91.7135C97.919 93.9925 100.649 96.9218 88.8281 99.6457" stroke="#E74238" stroke-width="0.75" stroke-linejoin="bevel"/>
<path d="M102.917 99.8291C103.56 99.5847 104.07 98.778 104.474 98.2404C105.319 97.0953 105.919 95.7816 106.687 94.584C107.379 93.494 108.348 92.8731 108.614 91.48C108.837 90.3154 108.635 89.1019 108.281 87.9739C107.927 86.846 107.425 85.7743 107.023 84.6744C106.349 82.8129 105.963 80.8489 105.877 78.8575C105.789 76.8154 106.055 74.9042 105.207 72.9758C104.464 71.2809 103.812 69.6091 102.817 68.0375" stroke="#36393F" stroke-width="0.75" stroke-linejoin="bevel"/>
<path d="M109.222 88.5374C109.595 88.4714 109.744 88.293 110.144 88.2282C110.327 88.205 110.509 88.1715 110.689 88.1281" stroke="#E74238" stroke-width="0.75" stroke-linejoin="bevel"/>
<path d="M109.444 85.7645C109.745 84.4924 109.945 83.0039 109.004 81.9994C108.644 81.6132 108.231 81.2149 108.156 80.6783C108.092 80.2176 108.072 79.3341 108.308 78.9407C109.407 77.1161 111.141 75.7915 112.615 74.2968" stroke="#37509D" stroke-width="0.75" stroke-miterlimit="10"/>
<path d="M57.7475 94.1258C57.7475 94.1258 65.2757 104.293 75.4242 97.9972C81.5213 94.2089 88.4833 99.4636 91.9637 95.8268C95.4442 92.19 98.8347 93.8973 104.139 92.1876C110.367 90.1822 114.672 81.5094 114.672 81.5094" stroke="#36393F" stroke-width="0.75" stroke-linejoin="bevel"/>
<path d="M94.593 105.412C98.9315 102.291 107.945 95.1902 105.715 87.1601C103.308 78.4836 100.439 80.1114 101.808 70.6296" stroke="#37509D" stroke-width="0.75" stroke-miterlimit="10"/>
<path d="M112.198 83.4866C111.979 83.8612 111.811 84.2675 111.701 84.6928C111.564 85.3038 111.398 85.8904 111.398 85.8904" stroke="#E74238" stroke-width="0.75" stroke-linejoin="bevel"/>
<path d="M114.012 72.3734C112.069 72.828 111.129 73.5515 110.577 75.5666C110.391 76.2363 110.49 76.9671 109.848 77.1211C109.405 77.2285 108.881 77.4877 108.446 77.6221C107.83 77.8115 107.253 78.0327 106.853 78.4837C106.357 79.0506 106.392 79.7838 105.997 80.2299C105.235 81.1073 104.959 81.5033 104.791 82.6606C104.513 84.5865 105.347 88.893 104.143 92.1925C102.802 95.866 96.5316 99.5138 90.092 100.102" stroke="#36393F" stroke-width="0.75" stroke-linejoin="bevel"/>
<path d="M119.649 88.9052C119.649 88.9052 125.788 88.8283 129.542 89.2718C133.295 89.7154 139.983 90.3448 141.454 90.4671" stroke="#E74238" stroke-width="0.75" stroke-linejoin="bevel"/>
<path d="M80.7036 118.727C80.7036 118.727 80.6114 117.852 80.4649 116.453C80.3184 115.053 79.736 111.808 79.736 111.808C79.736 111.808 85.1561 110.22 87.2378 107.443C89.3194 104.667 82.6826 101.871 84.9313 100.249C89.5073 96.9561 90.5314 96.1606 91.5958 94.8285C92.7132 93.4305 92.2716 92.7388 93.6163 92.0325C95.7567 90.9107 97.7102 92.1657 99.8956 91.3567C102.202 90.5012 101.723 89.1497 103.823 88.9028C105.924 88.656 107.584 87.1016 110.175 85.7341C112.767 84.3666 116.434 82.2524 116.434 82.2524" stroke="#E74238" stroke-width="0.75" stroke-linejoin="bevel"/>
<path d="M127.332 92.9563C127.332 92.9563 123.364 93.6895 122.088 94.1049C120.813 94.5205 118.881 96.5491 117.971 98.3088C117.061 100.069 115.954 101.674 115.163 102.24C114.372 102.806 109.858 105.521 109.051 105.97C108.244 106.418 107.366 106.703 106.567 106.617C105.768 106.529 103.794 107.908 103.794 107.908" stroke="#E74238" stroke-width="0.75" stroke-linejoin="bevel"/>
<path d="M71.3128 140.105C73.2653 137.869 76.748 135.156 80.6458 132.336C84.5438 129.518 91.4643 124.256 96.1303 120.647C100.796 117.036 104.531 114.534 105.629 111.625C106.727 108.717 108.06 105.201 109.64 102.3C111.22 99.3989 112.062 99.9146 112.971 96.4012C113.88 92.8879 114.171 91.6132 116.982 88.8625C119.792 86.1116 119.952 85.3246 124.083 82.4173C128.214 79.5102 130.865 78.1402 132.639 76.5113" stroke="#E74238" stroke-width="0.75" stroke-linejoin="bevel"/>
<path d="M28.4382 25.0559C28.5386 27.17 28.7957 28.469 29.5211 30.1689C30.2464 31.8687 31.2751 32.9869 32.7651 33.879C34.2551 34.7711 39.1736 35.9833 39.1736 35.9833C39.1736 35.9833 39.6949 36.2205 40.3903 37.6441C41.0857 39.0678 42.9274 43.5454 43.5201 44.892C44.1129 46.2388 47.2473 50.8911 47.8182 51.9885C48.2138 52.732 48.6445 53.4539 49.1087 54.1515C49.1087 54.1515 52.8082 55.2513 55.945 56.7703C59.0818 58.2894 66.738 62.3477 67.8382 62.9869C68.9384 63.626 69.7687 65.1792 70.5103 66.4502C71.2518 67.7211 71.1065 69.6043 73.6067 70.8495C76.1068 72.0948 77.6983 73.6199 79.3958 73.9315C82.5868 74.5156 89.2063 71.3408 94.6242 71.2809C100.953 71.2113 102.466 77.1968 110.803 74.6403C112.613 74.0855 113.552 74.7894 114.608 75.9039C115.665 77.0185 120.744 81.9701 122.64 84.4045C124.535 86.8387 125.943 88.6816 125.573 93.2679C125.203 97.8543 123.837 98.7256 125.037 102.067C126.238 105.408 127.671 110.376 130.048 113.342C131.858 115.594 133.988 117.535 136.362 119.093" stroke="#36393F" stroke-width="0.75" stroke-linejoin="bevel"/>
<path d="M117.718 101.834C118.756 100.312 119.887 99.1019 120.224 98.1475C120.56 97.1931 122.818 89.064 123.914 84.9494C125.009 80.8348 126.533 76.6175 126.81 75.6154" stroke="#E74238" stroke-width="0.75" stroke-linejoin="bevel"/>
<path d="M116.459 91.7086C116.459 91.7086 123.734 77.4865 124.981 74.8089" stroke="#E74238" stroke-width="0.75" stroke-linejoin="bevel"/>
<path d="M116.75 82.2719C113.958 83.1188 109.67 84.1906 108.394 85.7095C107.117 87.2285 106.331 88.3186 104.341 88.6131C100.546 89.1716 99.5439 92.6458 95.0094 93.632C93.1861 94.0304 88.5006 95.5579 86.946 96.6334C85.8839 97.3666 79.2194 102.125 78.0823 103.156" stroke="#37509D" stroke-width="0.75" stroke-miterlimit="10"/>
<path d="M114.57 99.9231C113.302 99.4344 113.609 98.266 114.271 97.0562C114.932 95.8464 115.743 94.8761 114.6 94.138C113.457 93.3999 113.542 92.9159 114.716 91.056C116.974 87.4901 119.871 81.2405 119.871 81.2405" stroke="#36393F" stroke-width="0.75" stroke-linejoin="bevel"/>
<path d="M67.0193 102.436C67.3654 101.816 72.8212 101.36 74.415 100.265C74.4208 100.265 74.415 100.254 74.4254 100.249C76.2636 99.3365 76.334 99.3684 77.4711 98.9321C79.969 97.9716 80.9642 98.1402 82.5694 97.7539C88.6989 96.2777 88.7738 97.2798 91.7953 96.3083C93.7223 95.6863 95.6275 95.0521 98.304 93.1005C99.7387 92.0482 101.074 90.7615 104.024 89.9708C106.351 89.3451 111.804 89.6201 112.53 89.2693C113.257 88.9186 113.258 87.0574 115.867 86.5552C124.724 84.8444 121.957 79.812 123.619 79.5199" stroke="#36393F" stroke-width="0.75" stroke-linejoin="bevel"/>
<path d="M78.9104 101.133C78.9104 101.133 82.4082 98.822 84.0238 98.2978C85.6394 97.7736 88.6875 97.5804 89.8764 97.2175C91.6328 96.681 92.8656 94.6744 94.9437 95.1192C96.5109 95.4541 95.8893 97.3617 96.4809 97.9141C97.0726 98.4664 97.4278 98.7341 98.1751 98.7988C98.9223 98.8636 100.141 97.6196 101.015 97.2431C102.445 96.6321 103.149 97.011 104.345 96.3266C105.541 95.6423 106.716 96.2301 107.542 94.3995C108.367 92.5688 107.239 89.4037 110.39 85.3001C111.145 84.3224 114.128 80.8494 114.626 79.7325C115.734 77.2481 117.727 74.3811 117.874 73.4537" stroke="#E74238" stroke-width="0.75" stroke-linejoin="bevel"/>
<path d="M107.814 40.8373C107.814 40.8373 95.7048 39.2914 92.734 51.3395C90.9489 58.5862 82.5211 60.0894 82.4865 65.2709C82.4519 70.4522 78.9114 71.7868 76.2994 76.9744C73.2329 83.0577 75.9765 92.4148 75.9765 92.4148" stroke="#36393F" stroke-width="0.75" stroke-linejoin="bevel"/>
<path d="M133.188 86.0297C132.387 84.3677 132.184 81.8185 131.835 79.5528C131.487 77.2872 129.357 69.5016 128.663 66.9462C127.969 64.3909 120.5 68.8454 119.451 65.0961C118.799 62.7742 120.151 59.5163 122.268 56.1678C124.26 53.0187 127.039 50.4425 127.42 45.3552C127.676 41.9335 123.792 36.0163 123.665 34.0243C123.538 32.0324 123.434 31.0426 124.788 29.8132C125.573 29.0919 126.441 28.4788 127.371 27.9887L128.804 28.6279L141.64 58.1183" stroke="#36393F" stroke-width="0.75" stroke-linejoin="bevel"/>
<path d="M91.3547 105.714C91.3547 105.714 94.1779 101.881 94.9205 100.051C95.6632 98.2221 96.2156 94.6744 96.7657 93.3302C97.3158 91.9859 98.2649 90.8312 98.2073 89.3085C98.1495 87.7858 95.9411 86.6358 95.4395 85.8867C94.9378 85.1377 95.1166 84.3261 95.4303 83.511C96.0381 81.9334 99.1414 83.0051 99.6095 82.0092C100.078 81.0132 99.4366 78.662 100.293 77.3398C101.15 76.0175 100.966 74.193 102.962 73.4292C104.958 72.6655 109.808 70.7102 111.08 70.313C112.352 69.9158 115.101 71.3456 116.337 71.4923C117.573 71.6389 120.65 71.7892 121.628 71.7159C122.606 71.6426 124.871 70.6161 124.871 70.6161" stroke="#E74238" stroke-width="0.75" stroke-linejoin="bevel"/>
<path d="M130.351 52.9612C130.351 52.9612 127.503 53.9682 121.506 64.072C120.165 66.3316 120.087 69.7594 119.437 71.7489C118.787 73.7383 117.118 78.3882 116.554 79.2242C115.99 80.06 115.072 80.9998 115.008 81.2735C114.943 81.5472 116.391 83.0162 117.208 84.3689C118.024 85.7218 118.383 86.7581 118.508 87.4375C118.632 88.1169 119.708 88.86 119.708 88.86C119.708 88.86 122.095 89.08 122.991 89.0201C123.887 88.9602 129.237 88.8245 130.295 88.7378C131.352 88.651 133.512 87.0379 133.512 87.0379" stroke="#E74238" stroke-width="0.75" stroke-linejoin="bevel"/>
<path d="M174.627 67.715C173.147 66.2962 172.097 65.5703 170.45 64.9117C168.803 64.253 167.33 64.2321 165.683 64.7222C164.036 65.2123 159.748 68.0364 159.748 68.0364C159.748 68.0364 159.221 68.2589 157.779 67.7737C156.336 67.2885 152.051 65.4982 150.73 64.9935C149.409 64.4888 144.091 63.5442 142.955 63.1959C142.179 62.9669 141.393 62.7792 140.599 62.6337C140.599 62.6337 137.254 64.6281 134.017 65.9039C130.78 67.1798 122.664 70.0515 121.46 70.4182C120.256 70.7848 118.631 70.3143 117.26 69.9709C115.889 69.6275 114.733 68.188 112.137 69.1839C109.541 70.1799 107.395 70.2959 105.985 71.3457C103.338 73.323 100.777 80.527 96.9895 84.6293C92.5611 89.4209 87.4985 86.3219 83.3088 94.3763C82.3989 96.1263 81.2653 96.3316 79.7718 96.3316C78.2784 96.3316 71.3856 96.6395 68.4218 96.3389C65.458 96.0383 63.2323 95.7915 60.4322 92.2695C57.6322 88.7476 58.0186 87.1089 54.9395 85.6461C51.8603 84.1833 47.5334 81.7428 43.8685 81.4264C41.0849 81.1906 38.2837 81.4148 35.5652 82.0911" stroke="#36393F" stroke-width="0.75" stroke-linejoin="bevel"/>
</g>
<mask id="mask3_1_198" style="mask-type:luminance" maskUnits="userSpaceOnUse" x="63" y="73" width="30" height="18">
<path d="M65.6978 73.4072L92.9843 80.6173L90.7621 90.0857C81.5074 88.976 71.1411 83.0797 67.5442 80.1676C64.066 77.3544 62.3558 73.7053 65.6978 73.4072Z" fill="white"/>
</mask>
<g mask="url(#mask3_1_198)">
<path d="M69.9612 43.1554C69.4181 44.9323 67.8601 46.8864 66.5973 48.7463C65.3345 50.6063 61.6431 57.7088 60.4322 60.038C59.2213 62.3673 67.4669 64.8113 65.7117 68.2489C64.6218 70.3801 61.4932 71.6707 57.7613 72.4516C54.2521 73.1848 50.5686 72.9245 46.9037 76.2399C44.4358 78.4652 43.2341 85.5579 41.9944 87.0623C40.7547 88.5667 40.1677 89.3438 38.3906 89.1984C37.3541 89.1201 36.3312 88.9034 35.346 88.5532L34.7602 87.028L45.3595 56.5589" stroke="#36393F" stroke-width="0.75" stroke-linejoin="bevel"/>
<path d="M81.5097 90.8263C78.7222 85.3833 77.8285 81.0914 78.8457 74.9397C79.4926 71.0291 75.6074 71.0047 82.1497 60.2213" stroke="#E74238" stroke-width="0.75" stroke-linejoin="bevel"/>
<path d="M72.0671 70.6491C71.7777 71.3066 71.9517 72.2598 72.0302 72.9442C72.1962 74.3861 72.6483 75.7646 72.9055 77.1871C73.1361 78.4813 72.8755 79.6445 73.6136 80.8263C74.2328 81.8161 75.1854 82.5237 76.1875 83.0553C77.1897 83.587 78.2634 83.9658 79.2828 84.4484C81.001 85.2599 82.585 86.3587 83.9742 87.7028C85.3996 89.0813 86.4859 90.6357 88.3726 91.3603C90.0298 92.0019 91.6016 92.6948 93.3579 93.0614" stroke="#36393F" stroke-width="0.75" stroke-linejoin="bevel"/>
<path d="M75.1439 83.3584C74.9236 83.6859 74.942 83.9279 74.6987 84.2676C74.5849 84.4211 74.4789 84.581 74.3816 84.7466" stroke="#E74238" stroke-width="0.75" stroke-linejoin="bevel"/>
<path d="M82.4853 84.4912C81.859 85.6216 81.2732 86.9903 81.9086 88.2356C82.152 88.7122 82.4425 89.2132 82.3699 89.7558C82.31 90.2165 82.0943 91.0719 81.7633 91.3774C80.2237 92.8012 78.2103 93.5576 76.3997 94.5548" stroke="#37509D" stroke-width="0.75" stroke-miterlimit="10"/>
<path d="M74.2271 60.4645C73.2422 65.9221 71.6081 77.6953 78.5448 81.7061C86.035 86.0358 86.9783 82.7375 92.3373 90.4682" stroke="#37509D" stroke-width="0.75" stroke-miterlimit="10"/>
<path d="M76.4101 89.1606C76.3152 88.732 76.1621 88.3205 75.9557 87.9385C75.6432 87.4008 75.3722 86.8643 75.3722 86.8643" stroke="#E74238" stroke-width="0.75" stroke-linejoin="bevel"/>
<path d="M82.5441 98.3797C83.6143 96.6017 83.7931 95.3906 82.8428 93.5478C82.5281 92.9367 81.9687 92.4931 82.3205 91.9016C82.5627 91.4948 82.7599 90.924 82.9778 90.4975C83.288 89.8975 83.5544 89.3061 83.5279 88.6938C83.5013 87.9215 82.9916 87.4241 82.9674 86.818C82.9213 85.6252 82.8521 85.1389 82.1994 84.1943C81.1107 82.6251 77.6475 80.2043 76.2994 76.972C74.8003 73.3693 76.7953 66.0958 80.9573 60.8508" stroke="#36393F" stroke-width="0.75" stroke-linejoin="bevel"/>
<path d="M64.9816 36.8119C64.9816 36.8119 63.5123 36.2216 61.6788 38.2783C59.8451 40.335 58.0472 43.5514 55.9345 46.3499C53.8218 49.1484 52.3756 50.2176 52.8058 52.4662C53.2359 54.7148 53.959 56.3915 53.0019 58.1231C52.0447 59.8547 52.9084 61.1586 52.175 61.8479C51.4415 62.5371 50.0992 62.058 49.5906 63.0174C49.082 63.9767 48.1491 67.3629 47.8861 69.031C47.6232 70.6991 45.9983 71.8124 45.8495 72.8548C45.7008 73.8973 45.5739 76.4134 45.0423 77.1125L43.9213 78.6057" stroke="#E74238" stroke-width="0.75" stroke-linejoin="bevel"/>
<path d="M75.1647 40.643L76.8506 42.0728C77.8886 42.9527 80.4603 44.8052 80.4603 44.8052C80.4603 44.8052 77.681 49.9879 78.0697 53.5135C78.4582 57.0392 85.0085 54.0403 84.4977 56.8742C83.4598 62.6324 83.2672 63.9621 83.4033 65.701C83.5451 67.5267 84.3201 67.6856 83.8392 69.1924C83.0758 71.5888 80.857 72.1656 79.8502 74.375C78.7869 76.7104 80.0312 77.3079 78.7108 79.0542C77.3904 80.8005 77.2531 83.1444 76.334 86.0529C75.4149 88.9614 74.2317 93.2043 74.2317 93.2043" stroke="#E74238" stroke-width="0.75" stroke-linejoin="bevel"/>
<path d="M59.3943 93.8043C59.3943 93.8043 61.71 90.3117 62.335 89.0628C62.9601 87.8138 62.9727 84.9311 62.4411 83.0051C61.9094 81.0792 61.6211 79.1141 61.8034 78.1169C61.9856 77.1198 63.3672 71.8209 63.6358 70.9069C63.9046 69.9928 64.3405 69.1276 64.9609 68.585C65.5814 68.0424 66.0645 65.5898 66.0645 65.5898" stroke="#E74238" stroke-width="0.75" stroke-linejoin="bevel"/>
<path d="M67.5383 18.4886C67.6536 21.5339 66.9974 26.0652 66.1233 30.9754C65.2491 35.8856 63.8653 44.7967 62.9749 50.8446C62.0846 56.8926 61.1171 61.4654 62.2772 64.3409C63.4374 67.2164 64.8455 70.7053 65.6643 73.94C66.483 77.1749 65.542 77.4424 67.2454 80.6076C68.9487 83.7726 69.5921 84.892 69.4365 88.9431C69.2807 92.9941 69.696 93.6712 68.7145 98.8221C67.7332 103.973 66.7749 106.931 66.61 109.41" stroke="#E74238" stroke-width="0.75" stroke-linejoin="bevel"/>
<path d="M60.2637 80.3228C60.5429 82.179 60.5532 83.8801 60.9558 84.8076C61.3582 85.7352 65.1811 93.175 67.1509 96.9059C69.1206 100.637 70.8585 104.76 71.3313 105.676" stroke="#E74238" stroke-width="0.75" stroke-linejoin="bevel"/>
<path d="M67.9097 86.5393C67.9097 86.5393 72.2562 102.046 73.1615 104.87" stroke="#E74238" stroke-width="0.75" stroke-linejoin="bevel"/>
<path d="M73.9988 93.4279C75.4079 90.7394 77.7248 86.7654 77.6141 84.7355C77.5034 82.7057 77.3304 81.3505 78.5448 79.6481C80.8512 76.4085 79.2494 73.2055 81.7946 69.1068C82.8174 67.4582 85.1112 62.8744 85.4929 60.9423C85.7547 59.6274 87.2931 51.2687 87.4084 49.6885" stroke="#37509D" stroke-width="0.75" stroke-miterlimit="10"/>
<path d="M63.7638 79.3158C64.9885 78.7049 65.5502 79.7655 65.8904 81.1184C66.2305 82.4711 66.302 83.7629 67.604 83.428C68.906 83.0932 69.169 83.5013 69.5772 85.6949C70.3591 89.9097 72.481 96.499 72.481 96.499" stroke="#36393F" stroke-width="0.75" stroke-linejoin="bevel"/>
<path d="M95.714 41.9126C95.8847 42.6092 92.3304 47.0208 91.9337 48.9883C91.9337 48.9968 91.9337 48.998 91.9337 49.0067C91.2418 51.0303 91.1726 51.0597 90.6594 52.2207C89.5339 54.7723 88.7185 55.3979 87.8409 56.8753C84.4966 62.5103 83.7701 61.8577 82.2859 64.8064C81.3379 66.6909 80.4141 68.5655 79.8225 71.9517C79.5054 73.7714 79.4189 75.6814 77.862 78.4494C76.6327 80.6356 72.5953 84.5266 72.315 85.3197C72.0348 86.1128 73.2768 87.4277 71.7673 89.7386C66.6423 97.5829 71.9599 99.0702 70.9808 100.521" stroke="#36393F" stroke-width="0.75" stroke-linejoin="bevel"/>
<path d="M88.1719 51.7391C88.1719 51.7391 87.2411 55.9979 86.449 57.5756C85.6567 59.1533 83.6292 61.5778 83.0354 62.7253C82.1521 64.4203 82.6191 66.7581 80.8523 68.0058C79.5215 68.9431 78.6865 67.1284 77.9 67.1808C77.1136 67.2334 76.6846 67.3104 76.1126 67.8249C75.5406 68.3394 75.5094 70.1321 75.1415 71.0536C74.5418 72.5603 73.7877 72.817 73.399 74.1967C73.0104 75.5764 71.7845 76.0407 72.4256 77.9544C73.0669 79.8681 75.9719 81.26 76.4827 86.5235C76.605 87.7846 76.8103 92.4711 77.2023 93.6345C78.0765 96.2215 78.5863 99.7446 79.0948 100.509" stroke="#E74238" stroke-width="0.75" stroke-linejoin="bevel"/>
</g>
<path d="M65.1908 11.1517L64.1473 15.5838L65.3422 15.8998L66.3859 11.4676L65.1908 11.1517Z" fill="#FEDC7A"/>
<path d="M66.3872 11.4663L65.3436 15.8985L66.5385 16.2144L67.5822 11.7823L66.3872 11.4663Z" fill="#F2B00A"/>
<path d="M56.5269 7.96357C56.0319 7.83268 55.5305 8.15183 55.407 8.67638C55.2835 9.20081 55.5846 9.73222 56.0796 9.863L65.0433 12.2331C65.5383 12.364 66.0397 12.0448 66.1632 11.5203C66.2867 10.9957 65.9856 10.4644 65.4906 10.3336L56.5269 7.96357Z" fill="#FEDC7A"/>
<path fill-rule="evenodd" clip-rule="evenodd" d="M76.4459 13.2262L67.4819 10.8568C67.3641 10.8253 67.2417 10.8187 67.1215 10.8376C67.0014 10.8563 66.8859 10.9001 66.7819 10.9663C66.6777 11.0325 66.5869 11.1199 66.5146 11.2233C66.4425 11.3268 66.3902 11.4443 66.361 11.5692C66.3314 11.6939 66.3254 11.8237 66.3434 11.9509C66.3613 12.0781 66.4028 12.2004 66.4653 12.3106C66.5278 12.4208 66.6104 12.5169 66.7079 12.5933C66.8056 12.6697 66.9166 12.7249 67.0344 12.7558L76.0008 15.1277C76.1185 15.159 76.2408 15.1655 76.3608 15.1465C76.4808 15.1276 76.5961 15.0839 76.7001 15.0177C76.8041 14.9515 76.8948 14.8642 76.9669 14.7609C77.0391 14.6575 77.0913 14.5401 77.1206 14.4154C77.1504 14.2902 77.1565 14.1602 77.1387 14.0327C77.1209 13.9051 77.0795 13.7825 77.0167 13.672C76.9541 13.5615 76.8713 13.4652 76.7734 13.3887C76.6754 13.3122 76.5642 13.257 76.4459 13.2262Z" fill="#F2B00A"/>
<path fill-rule="evenodd" clip-rule="evenodd" d="M69.064 14.0267C69.553 11.9493 68.567 9.89989 66.8613 9.44897C65.1557 8.99806 63.3786 10.3167 62.8885 12.3941L69.064 14.0267Z" fill="#FEDC7A"/>
<path fill-rule="evenodd" clip-rule="evenodd" d="M65.9757 13.2104L66.8614 9.44897C68.567 9.89989 69.553 11.9493 69.0641 14.0267L65.9757 13.2104Z" fill="#F2B00A"/>
<path d="M145.833 32.4722L144.79 36.9044L145.985 37.2202L147.028 32.7882L145.833 32.4722Z" fill="#FEDC7A"/>
<path d="M147.028 32.7878L145.985 37.2199L147.18 37.5358L148.223 33.1037L147.028 32.7878Z" fill="#F2B00A"/>
<path d="M137.168 29.2829C136.673 29.152 136.171 29.4711 136.048 29.9957C135.924 30.5202 136.226 31.0515 136.721 31.1824L145.684 33.5524C146.179 33.6833 146.681 33.3641 146.804 32.8396C146.928 32.3151 146.627 31.7838 146.132 31.653L137.168 29.2829Z" fill="#FEDC7A"/>
<path d="M148.124 32.1796C147.629 32.0487 147.127 32.3677 147.004 32.8922C146.88 33.4168 147.182 33.9481 147.677 34.079L156.64 36.4491C157.135 36.5799 157.637 36.2608 157.76 35.7363C157.884 35.2117 157.583 34.6804 157.088 34.5495L148.124 32.1796Z" fill="#F2B00A"/>
<path fill-rule="evenodd" clip-rule="evenodd" d="M149.704 35.3453C150.193 33.2679 149.206 31.2186 147.502 30.7676C145.797 30.3167 144.018 31.6353 143.528 33.7127L149.704 35.3453Z" fill="#FEDC7A"/>
<path fill-rule="evenodd" clip-rule="evenodd" d="M146.617 34.5303L147.501 30.7689C149.206 31.2198 150.193 33.2679 149.704 35.3453L146.617 34.5303Z" fill="#F2B00A"/>
<path fill-rule="evenodd" clip-rule="evenodd" d="M111.904 0.301964L85.3729 112.984C81.4381 111.945 89.2432 58.3979 89.6975 53.533C91.997 28.9283 96.813 14.5156 103.536 3.5746C105.085 1.04864 107.968 -0.739212 111.904 0.301964Z" fill="#36393F"/>
<path fill-rule="evenodd" clip-rule="evenodd" d="M111.904 0.301971L85.3729 112.984C89.309 114.026 106.155 62.8694 107.91 58.3479C116.79 35.4822 118.926 20.3618 117.842 7.3581C117.593 4.35549 115.839 1.34194 111.904 0.301971Z" fill="#606369"/>
<path fill-rule="evenodd" clip-rule="evenodd" d="M69.1621 16.422L64.021 38.2538C63.7695 39.3108 63.1335 40.2194 62.2519 40.7811C61.3703 41.3427 60.3147 41.5119 59.3158 41.2514C58.3182 40.9842 57.461 40.3094 56.9316 39.3745C56.4021 38.4395 56.2435 37.3204 56.4903 36.2619L61.6303 14.4313L69.1621 16.422Z" fill="#E7E7E8"/>
<path opacity="0.79" fill-rule="evenodd" clip-rule="evenodd" d="M59.37 41.2638L59.3158 41.2514C58.3182 40.9842 57.461 40.3094 56.9316 39.3745C56.4021 38.4395 56.2435 37.3204 56.4903 36.2619L61.6303 14.4313L65.4509 15.4407L59.37 41.2638Z" fill="white"/>
<path fill-rule="evenodd" clip-rule="evenodd" d="M149.808 37.7417L144.661 59.5735C144.41 60.6307 143.774 61.5393 142.892 62.1009C142.01 62.6625 140.954 62.8316 139.955 62.5712C138.959 62.3037 138.103 61.6296 137.573 60.6958C137.044 59.7621 136.884 58.6445 137.129 57.5865L142.269 35.7547L149.808 37.7417Z" fill="#E7E7E8"/>
<path opacity="0.79" fill-rule="evenodd" clip-rule="evenodd" d="M140.011 62.5835L139.955 62.5712C138.959 62.3037 138.103 61.6296 137.573 60.6958C137.044 59.7621 136.884 58.6445 137.129 57.5865L142.269 35.7547L146.091 36.7653L140.011 62.5835Z" fill="white"/>
<path d="M112.926 81.5915L112.402 83.8135L113.001 83.9718L113.524 81.7498L112.926 81.5915Z" fill="#FEDC7A"/>
<path d="M113.524 81.7511L113.001 83.9732L113.599 84.1315L114.123 81.9095L113.524 81.7511Z" fill="#F2B00A"/>
<path fill-rule="evenodd" clip-rule="evenodd" d="M113.074 81.1805L108.576 79.9927C108.517 79.9768 108.456 79.9734 108.395 79.9828C108.335 79.9922 108.277 80.0141 108.225 80.0472C108.173 80.0804 108.127 80.1241 108.091 80.1761C108.055 80.228 108.029 80.2869 108.014 80.3496C107.999 80.4121 107.996 80.4772 108.005 80.5411C108.014 80.605 108.035 80.6665 108.066 80.7218C108.098 80.7771 108.139 80.8253 108.188 80.8636C108.237 80.9018 108.293 80.9294 108.352 80.9447L112.85 82.1325C112.909 82.1482 112.97 82.1514 113.03 82.142C113.09 82.1325 113.148 82.1106 113.2 82.0775C113.252 82.0443 113.298 82.0006 113.334 81.9489C113.37 81.897 113.396 81.8381 113.41 81.7756C113.425 81.7131 113.428 81.6481 113.42 81.5843C113.411 81.5204 113.39 81.4591 113.359 81.4038C113.328 81.3485 113.286 81.3003 113.237 81.2619C113.188 81.2236 113.133 81.1959 113.074 81.1805Z" fill="#FEDC7A"/>
<path d="M113.512 81.8023L113.512 81.8035C113.45 82.0661 113.601 82.332 113.849 82.3976L118.343 83.586C118.591 83.6515 118.842 83.4917 118.904 83.2292L118.904 83.228C118.966 82.9654 118.815 82.6994 118.567 82.6339L114.073 81.4455C113.825 81.3799 113.574 81.5397 113.512 81.8023Z" fill="#F2B00A"/>
<path fill-rule="evenodd" clip-rule="evenodd" d="M114.864 83.032C115.109 81.9907 114.615 80.963 113.76 80.7369C112.904 80.5109 112.014 81.172 111.768 82.2145L114.864 83.032Z" fill="#FEDC7A"/>
<path fill-rule="evenodd" clip-rule="evenodd" d="M113.318 82.6226L113.761 80.7369C114.616 80.963 115.11 81.9907 114.866 83.032L113.318 82.6226Z" fill="#F2B00A"/>
<path fill-rule="evenodd" clip-rule="evenodd" d="M114.914 84.2332L112.338 95.1766C112.212 95.7067 111.893 96.1622 111.451 96.444C111.008 96.7256 110.479 96.8103 109.978 96.6798C109.478 96.5456 109.049 96.2072 108.783 95.7385C108.518 95.2698 108.438 94.7089 108.562 94.1783L111.138 83.2349L114.914 84.2332Z" fill="#E7E7E8"/>
<path opacity="0.79" fill-rule="evenodd" clip-rule="evenodd" d="M110.006 96.692L109.978 96.6859C109.478 96.5517 109.049 96.2133 108.783 95.7446C108.518 95.2759 108.438 94.715 108.562 94.1844L111.138 83.241L113.054 83.7383L110.006 96.692Z" fill="white"/>
<path d="M74.3134 71.5374L73.7851 73.758L74.3834 73.9179L74.9117 71.6972L74.3134 71.5374Z" fill="#FEDC7A"/>
<path d="M73.7162 71.3779L73.1879 73.5985L73.7861 73.7583L74.3145 71.5376L73.7162 71.3779Z" fill="#F2B00A"/>
<path d="M74.4022 71.616C74.432 71.4902 74.5079 71.3822 74.6129 71.3158C74.7179 71.2492 74.8435 71.2297 74.9622 71.2615L79.4531 72.4612C79.5716 72.4929 79.6735 72.5732 79.7362 72.6846C79.799 72.7958 79.8174 72.929 79.7876 73.0547C79.7576 73.1804 79.6818 73.2884 79.5768 73.3548C79.4718 73.4214 79.3461 73.4409 79.2274 73.4092L74.7377 72.2098C74.6789 72.1942 74.6235 72.1665 74.5748 72.1282C74.526 72.0899 74.4848 72.0418 74.4537 71.9866C74.4225 71.9315 74.4019 71.8703 74.3931 71.8067C74.3842 71.7431 74.3873 71.6782 74.4022 71.616Z" fill="#FEDC7A"/>
<path d="M68.9126 70.1509C68.9425 70.0252 69.0183 69.9172 69.1234 69.8508C69.2284 69.7843 69.354 69.7647 69.4726 69.7964L73.9635 70.9962C74.0821 71.0278 74.184 71.1082 74.2467 71.2195C74.3095 71.3308 74.3279 71.4639 74.298 71.5897C74.2681 71.7153 74.1923 71.8233 74.0873 71.8899C73.9822 71.9563 73.8566 71.9758 73.7379 71.9442L69.2482 70.7447C69.1893 70.7292 69.134 70.7014 69.0852 70.6631C69.0365 70.6248 68.9953 70.5767 68.9641 70.5216C68.9329 70.4664 68.9124 70.4053 68.9035 70.3416C68.8946 70.278 68.8977 70.2133 68.9126 70.1509Z" fill="#F2B00A"/>
<path fill-rule="evenodd" clip-rule="evenodd" d="M72.5584 71.9921C72.8063 70.9508 73.6989 70.2921 74.5535 70.5255C75.408 70.759 75.8993 71.7831 75.6525 72.823L72.5584 71.9921Z" fill="#FEDC7A"/>
<path fill-rule="evenodd" clip-rule="evenodd" d="M74.1049 72.405L74.5535 70.5206C73.6989 70.2921 72.8063 70.9508 72.5584 71.9871L74.1049 72.405Z" fill="#F2B00A"/>
<path fill-rule="evenodd" clip-rule="evenodd" d="M71.9806 73.0259L69.3788 83.9631C69.254 84.4935 69.3322 85.0545 69.5964 85.5239C69.8608 85.9934 70.2896 86.3328 70.7892 86.4683C71.2899 86.6001 71.8194 86.5167 72.2621 86.2363C72.7048 85.9557 73.0248 85.501 73.1522 84.9713L75.7539 74.034L71.9806 73.0259Z" fill="#E7E7E8"/>
<path opacity="0.79" fill-rule="evenodd" clip-rule="evenodd" d="M70.7628 86.4599L70.7892 86.4684C71.2899 86.6003 71.8194 86.5168 72.2621 86.2364C72.7049 85.9558 73.0248 85.5011 73.1522 84.9714L75.7539 74.0341L73.8395 73.5233L70.7628 86.4599Z" fill="white"/>
<path opacity="0.79" fill-rule="evenodd" clip-rule="evenodd" d="M108.466 14.9029C109.767 15.249 110.973 15.9137 111.987 16.8436C113.001 17.7733 113.795 18.9423 114.305 20.2564C114.815 21.5706 115.027 22.9932 114.924 24.41C114.821 25.8268 114.405 27.1982 113.711 28.4138C113.606 26.4818 112.92 24.6361 111.755 23.1461C110.59 21.656 109.005 20.5996 107.234 20.131C105.462 19.6624 103.595 19.8062 101.905 20.5413C100.216 21.2764 98.7927 22.5645 97.8428 24.2174C97.7685 22.7981 98.0096 21.3802 98.5469 20.0778C99.0841 18.7753 99.9024 17.6247 100.936 16.7186C101.969 15.8124 103.189 15.176 104.497 14.8607C105.805 14.5454 107.165 14.5598 108.466 14.9029Z" fill="white"/>
<path fill-rule="evenodd" clip-rule="evenodd" d="M107.237 20.1224L108.466 14.903C109.767 15.2491 110.973 15.9138 111.987 16.8436C113.001 17.7735 113.795 18.9424 114.305 20.2566C114.815 21.5707 115.027 22.9934 114.924 24.4101C114.821 25.8269 114.405 27.1982 113.711 28.414C113.607 26.4809 112.923 24.6337 111.758 23.142C110.594 21.6503 109.009 20.5923 107.237 20.1224Z" fill="#E7E7E8"/>
</svg>
