<svg width="209" height="113" viewBox="0 0 209 113" fill="none" xmlns="http://www.w3.org/2000/svg">
<g clip-path="url(#clip0_1_693)">
<mask id="mask0_1_693" style="mask-type:luminance" maskUnits="userSpaceOnUse" x="0" y="0" width="209" height="113">
<path d="M209 0H0V112.245H209V0Z" fill="white"/>
</mask>
<g mask="url(#mask0_1_693)">
<path opacity="0.14" d="M139.584 91.5116C155.059 76.0604 155.059 51.009 139.584 35.5578C124.109 20.1066 99.0192 20.1066 83.5442 35.5578C68.0692 51.009 68.0692 76.0604 83.5442 91.5116C99.0192 106.962 124.109 106.962 139.584 91.5116Z" fill="url(#paint0_radial_1_693)"/>
<path d="M49.6667 110.749L74.3919 45.4256L68.9595 37.1052L49.2658 110.587L49.6667 110.749Z" fill="#474B4F"/>
<path d="M67.8197 37.5099C67.8197 37.5099 67.9053 37.339 67.8828 37.357C67.7396 37.6009 67.6333 37.8646 67.5674 38.1396C67.4368 38.6208 67.3422 39.1156 67.2161 39.6058L66.7972 41.2655L66.2701 43.3477C66.0569 44.1724 65.8482 44.9954 65.644 45.8169L64.9278 48.6234L64.1395 51.7222C63.8392 52.8437 63.5539 53.9636 63.2837 55.082L62.3828 58.6531C62.0825 59.9033 61.7657 61.1507 61.4323 62.395C61.108 63.6858 60.7792 64.9766 60.4548 66.263C60.1305 67.5493 59.7837 68.8986 59.4503 70.2164L58.4323 74.2102L57.4188 78.1996L56.4188 82.1484L55.4413 86.0073C55.1215 87.2532 54.8062 88.4945 54.4909 89.7403C54.1756 90.9862 53.8918 92.1105 53.59 93.2979C53.3077 94.4133 53.0254 95.5272 52.7431 96.6397L51.9594 99.725C51.7251 100.656 51.5089 101.583 51.2521 102.513C51.0449 103.329 50.8392 104.143 50.635 104.955C50.4594 105.639 50.2837 106.305 50.1125 107.011C49.9729 107.55 49.8377 108.095 49.6981 108.639C49.599 109.021 49.5044 109.409 49.4053 109.795L49.2431 110.434C49.2295 110.473 49.219 110.514 49.2116 110.555L49.3422 110.609L69.3332 41.2069C68.9428 40.2265 68.5494 39.246 68.153 38.2656C68.099 38.1216 68.0584 37.9687 68.0044 37.8158C67.9503 37.6629 67.9143 37.5054 67.8197 37.5099Z" fill="#282930"/>
<path d="M107.347 96.7792C107.05 96.2664 106.766 95.7852 106.559 95.3894C105.302 93.0281 103.959 90.6715 102.662 88.3957C101.032 85.5307 104.5 84.5997 102.982 81.6223L77.991 36.5609C77.8559 36.2146 77.5406 36.1111 77.1352 36.1111H70.1397C69.9406 36.0825 69.7378 36.1256 69.5676 36.2326L68.0676 37.33L68.2523 37.9102L86.8153 81.195C88.0721 84.2084 91.9955 86.2368 93.2433 89.2501C94.2463 91.6759 95.2523 94.1001 96.2613 96.5228C96.4505 96.995 109.36 100.238 107.347 96.7792Z" fill="#474B4F"/>
<path d="M69.9099 36.6374C69.7478 36.1202 69.6081 36.2416 69.527 36.2552L67.9865 37.2221C67.9234 37.3031 67.8604 37.3885 67.8018 37.474C68.2523 39.3269 77.5766 59.5706 77.5766 59.5706L78.6306 54.241C78.6306 54.241 70.8424 39.6778 69.9099 36.6374Z" fill="#282930"/>
<path d="M72.9055 49.3386L69.3334 41.207L64.937 66.9062L62.6758 63.9872L61.2118 63.2676L60.0091 67.9991L61.8289 67.2659L64.2478 70.9315L63.8469 73.2791L72.9055 49.3386Z" fill="#110E19"/>
<path d="M69.5675 36.2461C69.5675 36.2461 69.9864 35.4231 71.2657 38.5759C71.9819 39.7902 72.7972 41.4723 73.6351 43.1409C74.0585 43.9775 74.4549 44.823 74.8288 45.6146C75.2026 46.4061 75.5675 47.1437 75.8468 47.7869C76.4234 49.0642 76.7882 49.9277 76.7882 49.9277L76.0945 50.2606C76.0945 50.2606 76.2882 50.7103 75.6441 49.442C75.3107 48.8258 74.9504 47.2247 74.554 46.4421C74.1576 45.6596 73.617 44.6431 73.2026 43.8155C72.4053 42.1199 70.6666 39.318 70.1576 38.0182L69.5675 36.2461Z" fill="#606369"/>
<path d="M69.3334 41.207C69.2175 42.2426 69.037 43.2702 68.7929 44.2833C68.3424 46.2083 67.6803 47.4901 66.7749 50.7508C66.3244 52.3789 65.5767 54.8526 65.0406 56.7192C64.5046 58.5857 63.8334 60.713 63.2388 62.7459C62.0361 66.7937 60.919 71.6646 59.6352 75.9913L52.5001 99.7744C50.5271 106.251 49.2073 110.569 49.2073 110.569L52.2028 99.689C54.0046 93.172 56.464 84.4782 58.901 75.7844C60.1352 71.4442 61.3695 67.0996 62.5046 63.0292C63.0902 60.9964 63.6577 59.0309 64.1983 57.1824C64.7388 55.3339 65.2614 53.5844 65.7388 51.9382C66.7163 48.7 67.6983 45.021 68.3559 43.1544C69.0001 40.249 69.3334 41.207 69.3334 41.207Z" fill="#606369"/>
<path d="M177.067 53.1165C176.892 52.896 176.554 53.0535 176.554 53.0535L176.221 53.6607L173.54 57.7624L172.703 58.3696L208.617 120.166H208.653L209 119.991L207.847 117.558C206.823 115.39 205.797 113.224 204.77 111.059C203.299 107.947 201.824 104.832 200.347 101.712L195.144 90.7298C193.342 86.9248 191.54 83.1199 189.739 79.3148L184.707 68.6781L180.63 60.0337C180.022 58.7519 179.491 57.4252 178.883 56.1433C178.381 55.076 177.773 54.0619 177.067 53.1165Z" fill="#474B4F"/>
<path d="M208.653 120.162L208.856 120.063L175.716 55.5319L171.455 59.7191L208.496 120.189L208.653 120.162Z" fill="#282930"/>
<path d="M176.874 53.1121C176.874 53.1121 176.202 53.0807 176.554 53.0537L141.829 78.8068L135.824 83.3448L130.991 86.9969C130.694 87.2173 130.221 87.5231 129.676 87.8739C127 89.5965 122.248 91.4135 123.545 94.5348C124.761 97.4627 125.009 100.435 127.856 100.301C131.252 100.139 136.261 94.5034 138.284 92.6548C145.707 85.9399 147.54 84.4378 152.36 79.6119C158.009 73.9629 160.919 71.3184 166.009 66.6678C170.374 62.6695 173.761 59.3997 178.126 55.4239C178.495 55.0731 177.166 53.346 176.874 53.1121Z" fill="#474B4F"/>
<path d="M176.613 52.8693C175.689 52.7434 169.176 52.8693 168.712 53.1526C168.073 53.6159 167.471 54.1271 166.91 54.6818L164.414 56.8631C162.027 58.941 159.643 61.0219 157.261 63.1057C154.297 65.7023 151.338 68.3019 148.383 70.9045C145.293 73.6241 142.212 76.3541 139.14 79.0946C136.383 81.5503 133.638 84.021 130.905 86.5067C128.932 88.3057 126.96 90.1047 125.05 91.9892C124.523 92.5064 123.991 93.0236 123.496 93.5768C123.333 93.7522 122.955 94.067 122.928 94.3369C122.739 95.9966 124.73 99.2123 128.689 96.941C130.423 95.938 131.991 94.5483 133.536 93.2485C136.126 91.0761 138.649 88.8139 141.158 86.5381C144.236 83.7556 147.287 80.9401 150.311 78.0916C153.461 75.1383 156.599 72.1699 159.725 69.1864C162.545 66.4879 165.357 63.7894 168.162 61.0908C170.23 59.1029 172.239 57.0431 174.356 55.118C176.473 53.1931 176.608 52.8693 177.059 53.1031C177.171 53.1661 176.887 52.9052 176.613 52.8693Z" fill="#282930"/>
<path d="M123.901 96.2484C123.901 96.2484 124.086 99.3023 129.55 96.4013C135.014 93.5004 138.703 88.8993 142.437 85.4227C146.171 81.9461 147.297 71.8625 147.297 71.8625L123.189 92.9157L123.901 96.2484Z" fill="#110E19"/>
<path d="M172.198 60.929L176.45 56.9576L185.225 82.1981L172.198 60.929Z" fill="#110E19"/>
<path d="M107.54 96.1448C107.531 97.015 107.255 97.8613 106.748 98.5692C106.241 99.2771 105.529 99.8124 104.707 100.103C101.076 101.56 97.0494 100.755 94.716 95.3263C92.0133 88.9622 92.7206 91.2784 92.7206 91.2784L107.54 96.1448Z" fill="#231F20"/>
<path d="M72.8424 60.7175C72.8436 70.8152 76.8619 80.499 84.0135 87.6387C91.1651 94.7785 100.864 98.7896 110.978 98.7896C132.041 98.7896 148.167 81.1321 148.167 60.1103C148.167 39.0886 132.041 22.6454 110.978 22.6454C100.864 22.6454 91.1651 26.6565 84.0135 33.7963C76.8619 40.936 72.8436 50.6197 72.8424 60.7175Z" fill="url(#paint1_radial_1_693)"/>
<path d="M84.874 59.8811C84.874 43.105 98.1668 29.4548 114.505 29.4548C130.842 29.4548 144.144 43.105 144.144 59.8811C144.144 76.657 130.851 90.3073 114.509 90.3073C97.0587 90.3073 84.874 77.8085 84.874 59.8811ZM96.4596 59.8811C96.4596 65.1478 98.1082 69.8477 101.099 73.113C104.252 76.5807 108.906 78.4111 114.505 78.4111C124.455 78.4111 132.55 70.0996 132.55 59.8811C132.55 49.6625 124.442 41.351 114.505 41.351C104.568 41.351 96.4596 49.6625 96.4596 59.8811Z" fill="#110E19"/>
<path d="M84.0314 59.8808C84.0314 42.6282 97.7025 28.5912 114.504 28.5912C131.306 28.5912 144.977 42.6282 144.977 59.8808C144.977 77.1335 131.311 91.1705 114.504 91.1705C96.5629 91.1705 84.0314 78.3029 84.0314 59.8808ZM85.716 59.8808C85.716 77.2865 97.5539 89.4433 114.504 89.4433C130.383 89.4433 143.297 76.18 143.297 59.8808C143.297 43.5816 130.383 30.3182 114.504 30.3182C98.6259 30.3182 85.716 43.5816 85.716 59.8808ZM100.486 73.7064C97.3331 70.2792 95.6214 65.3678 95.6214 59.8808C95.6214 49.19 104.09 40.4872 114.504 40.4872C124.919 40.4872 133.392 49.19 133.392 59.8808C133.392 70.5715 124.919 79.2743 114.504 79.2743C108.666 79.2743 103.82 77.3584 100.486 73.7064ZM97.2971 59.8808C97.2971 64.9271 98.8647 69.4202 101.707 72.5235C104.716 75.8112 109.139 77.5473 114.5 77.5473C123.986 77.5473 131.707 69.6226 131.707 59.8808C131.707 50.1391 123.986 42.2143 114.5 42.2143C105.013 42.2143 97.2971 50.1391 97.2971 59.8808Z" fill="#606369"/>
<path d="M88.2882 60.9513C88.2882 46.1858 99.9999 34.1818 114.36 34.1818C128.721 34.1818 140.441 46.1948 140.441 60.9604C140.441 75.726 128.73 87.739 114.36 87.739C99.0044 87.73 88.2882 76.7199 88.2882 60.9513ZM98.4864 60.9513C98.4864 65.5884 99.9324 69.7262 102.567 72.6001C105.36 75.6495 109.441 77.2596 114.369 77.2596C123.126 77.2596 130.252 69.9421 130.252 60.9513C130.252 51.9607 123.126 44.6432 114.369 44.6432C105.613 44.6432 98.4774 51.9607 98.4774 60.9513H98.4864Z" fill="#1B1D23"/>
<path d="M95.9999 60.9829C95.9999 66.4744 97.7162 71.3768 100.838 74.7814C104.144 78.3795 108.977 80.3045 114.802 80.3045C125.162 80.3045 133.622 71.6377 133.622 60.9649C133.622 50.2922 125.18 41.6253 114.802 41.6253C104.423 41.6253 95.9999 50.3281 95.9999 60.9829Z" fill="#231F20"/>
<path d="M92.8829 59.953C92.8829 47.5126 102.739 37.393 114.856 37.393C126.973 37.393 136.829 47.5126 136.829 59.953C136.829 72.3932 126.973 82.5173 114.865 82.5173C101.919 82.5173 92.8829 73.2388 92.8829 59.953Z" fill="#E74139"/>
<path d="M81.9008 79.2294L54.7026 49.6533L53.1531 50.2065L52.7657 50.6247L46.9594 50.175C46.6576 50.3279 46.3468 50.4719 46.036 50.6247C49.6126 54.7895 80.4638 90.7027 84.8151 95.5421C87.5178 98.5419 91.6575 100.831 93.5449 99.4594C94.0952 99.0356 94.5332 98.4835 94.8206 97.8516C95.108 97.2197 95.236 96.5271 95.1935 95.8344C95.171 93.3383 83.4593 80.997 81.9008 79.2294Z" fill="#282930"/>
<path d="M54.3108 49.4015L47.1577 50.0717C46.2027 50.1841 46.0405 49.9188 45.2297 50.9442L0 120.62C0.148649 120.692 0.292793 120.778 0.45045 120.855L54.6036 49.4735L54.3108 49.4015Z" fill="#282930"/>
<path d="M54.9774 49.5905C54.9008 49.5636 54.6846 49.5186 54.608 49.4916L0.450439 120.855L0.707196 120.999L57.5089 52.514L54.9774 49.5905Z" fill="#474B4F"/>
<path d="M93.9278 92.4613C91.6755 89.4659 56.9188 51.7177 55.0134 49.6533L55.7341 54.7626C55.7341 54.7626 83.7431 85.9983 86.7476 89.1781C92.9143 95.7085 95.198 98.1732 93.5494 99.446C93.5494 99.446 97.4593 97.1478 93.9278 92.4613Z" fill="#474B4F"/>
<path d="M55.6578 54.7358L54.892 60.911L52.6758 58.3294L55.6578 54.7358Z" fill="#110E19"/>
<path d="M124.698 97.4266C124.964 97.5238 125.237 97.6034 125.513 97.665C126.074 97.694 126.633 97.594 127.149 97.3726C128.069 96.9645 128.939 96.4529 129.743 95.848C131.545 94.3638 132.667 93.6306 134.049 92.3443C135.234 91.2424 136.64 89.9021 138 88.6383C139.36 87.3745 140.761 85.8724 142.243 84.4871C145.207 81.7121 147.689 79.2429 150.856 76.2834L160.135 67.5716L168.275 60.0202C170.667 57.8209 172.725 56.0669 174.049 54.6996C174.95 53.755 176.698 52.2528 177.27 53.3953C175.712 53.845 174.207 55.3382 173.045 56.4716C172.094 57.3711 169.329 59.9707 168.162 61.1041C165.829 63.3529 163.806 65.2824 160.86 68.0843C157.914 70.8863 155.748 73.1262 152.585 76.09C149.423 79.054 147.576 80.835 144.603 83.601C143.103 84.9728 140.446 87.9591 139.067 89.214C136.671 91.3368 134.563 93.3473 132.063 95.3307C130.611 96.4632 129.018 97.4035 127.324 98.1282C126.845 98.3028 126.327 98.3386 125.829 98.2317C125.591 98.1942 125.365 98.102 125.168 97.9622C124.972 97.8225 124.811 97.6391 124.698 97.4266Z" fill="#606369"/>
<path d="M176.45 56.9577C176.45 56.9577 176.59 56.8587 176.937 57.2545C177.209 57.5754 177.448 57.9236 177.649 58.2934L178.234 59.4448C179.135 61.1719 180.378 63.6411 181.887 66.6049C183.396 69.5689 185.167 73.0185 187.054 76.7245L192.96 88.3328C196.951 96.2576 200.969 104.165 203.914 110.132L208.869 120.063L203.685 110.272C200.554 104.425 196.478 96.5409 192.36 88.6836L186.351 77.1248C184.446 73.4323 183.122 70.284 181.595 67.3336C180.068 64.3832 177.302 59.2064 176.104 57.286L176.45 56.9577Z" fill="#606369"/>
<path d="M55.6577 54.7358C55.6577 54.7358 55.8153 54.2861 56.8829 55.4735C57.9505 56.6607 60.3153 59.1795 62.1441 61.2303C63.973 63.2812 66.1171 65.665 68.3874 68.2466L75.5135 76.3107C77.9414 79.0543 80.3783 81.7932 82.6891 84.3299C83.8468 85.5982 84.9729 86.8035 86.072 87.928C87.1711 89.0524 88.1936 90.1408 89.1306 91.1527C90.0675 92.1647 90.8918 93.1182 91.6035 93.9862C92.2317 94.7268 92.7996 95.5164 93.3017 96.3474C93.6382 96.876 93.8847 97.4565 94.0314 98.0655C94.0692 98.226 94.0844 98.3911 94.0765 98.5557C94.0711 98.3939 94.0438 98.2335 93.9954 98.0789C93.8074 97.4922 93.526 96.9394 93.1621 96.4419C92.608 95.6563 92.0063 94.9052 91.3603 94.193C90.6215 93.3655 89.7342 92.4705 88.7792 91.4945C87.8243 90.5186 86.7612 89.4706 85.6261 88.3462C84.4909 87.2219 83.3378 86.0435 82.1531 84.7976C79.7837 82.3015 78.045 80.1606 75.563 77.4621C73.0811 74.7636 70.6081 72.0155 68.3288 69.4564C66.0495 66.8973 63.7793 64.2662 61.9685 62.1973C60.1577 60.1284 57.5 57.277 56.4415 56.0717C56.3243 55.9367 55.7072 55.1721 55.6216 55.0461L55.6577 54.7358Z" fill="#606369"/>
<path d="M54.8243 49.4735C54.887 49.4984 54.9437 49.536 54.991 49.584C55.0384 49.6321 55.0751 49.6894 55.0991 49.7524C54.7522 50.31 54.2748 50.1572 53.545 51.142C52.0585 53.0895 48.5901 58.0594 46.0405 61.4055C40.9144 68.062 36.8423 73.7829 28.6847 84.3432C21.8333 93.2124 14.1712 103.17 9.03602 109.822L0.450439 120.855L8.78828 109.61L27.2162 84.9144L37.0676 71.732L41.6441 65.6962L45.7612 60.2991C48.3288 56.9755 50.4685 54.2049 51.9639 52.262C52.7252 51.2995 53.7297 49.9052 54.1802 49.4195C54.395 49.3672 54.6212 49.3861 54.8243 49.4735Z" fill="#606369"/>
<path d="M97.1533 76.8457C99.7006 79.2289 102.724 81.0476 106.024 82.1826C109.325 83.3177 112.828 83.7435 116.305 83.4323C119.782 83.1211 123.154 82.0797 126.199 80.3764C129.245 78.6732 131.895 76.3466 133.978 73.549L97.1533 76.8457Z" fill="#1B1D23"/>
<path d="M131.288 43.6267C128.741 41.2438 125.717 39.4255 122.417 38.2907C119.116 37.156 115.612 36.7305 112.136 37.0423C108.659 37.354 105.287 38.3958 102.242 40.0993C99.1962 41.803 96.5457 44.13 94.4639 46.9279L131.288 43.6267Z" fill="#1B1D23"/>
<path opacity="0.71" d="M106.131 81.249C106.131 82.7467 104.563 83.9475 102.626 83.9475C100.689 83.9475 99.1216 82.7377 99.1216 81.249C99.1216 79.7603 100.689 78.5504 102.626 78.5504C104.563 78.5504 106.131 79.7513 106.131 81.249Z" fill="#FF99B1"/>
<path opacity="0.71" d="M134.811 77.5473C134.811 78.5998 133.712 79.4542 132.347 79.4542C130.982 79.4542 129.883 78.5998 129.883 77.5473C129.883 76.4949 130.987 75.6403 132.347 75.6403C133.708 75.6403 134.811 76.4949 134.811 77.5473Z" fill="#FF99B1"/>
<path d="M152.459 73.2659C152.459 73.2659 145.189 67.4775 146.811 62.0219C148.045 57.8707 153.964 58.6307 154.23 62.5211C154.23 62.5211 157.068 59.4178 159.689 61.0909C164.473 64.1493 160.243 71.4579 152.459 73.2659Z" fill="#E93B1B"/>
<path d="M142.212 77.3224C142.212 77.3224 138.086 77.9611 136.775 75.7708C135.775 74.1022 137.829 72.3796 139.198 73.4725C139.198 73.4725 139.032 71.5925 140.379 71.2237C142.847 70.6121 143.978 74.2101 142.212 77.3224Z" fill="#E93B1B"/>
<path d="M171.924 24.431C168.703 16.3353 158.279 20.563 158.279 20.563C158.279 20.563 154.054 10.1422 145.996 13.4928C136.275 17.5137 149.455 41.4139 149.455 41.4139C149.455 41.4139 175.806 34.1818 171.924 24.431Z" fill="#E74139"/>
<path d="M116.085 1.06593C110.919 -2.54114 106.306 4.15126 106.306 4.15126C106.306 4.15126 99.635 -0.449762 96.099 4.75844C91.8422 11.0551 109.297 20.2122 109.297 20.2122C109.297 20.2122 122.311 5.3971 116.085 1.06593Z" fill="#E74139"/>
<path d="M77.5992 15.6652C66.9461 15.2155 66.4911 28.933 66.4911 28.933C66.4911 28.933 52.7569 28.4383 52.4686 39.0841C52.1217 51.9068 85.3515 49.1272 85.3515 49.1272C85.3515 49.1272 90.4326 16.1914 77.5992 15.6652Z" fill="#E74139"/>
<path opacity="0.92" d="M124.68 53.0715C119.797 48.2591 116.234 54.4747 115.068 56.9843C113.473 54.7356 108.86 49.235 104.915 54.839C100.054 61.7428 116.261 70.2342 116.261 70.2342C116.261 70.2342 130.689 58.9768 124.68 53.0715Z" fill="#FF99B1"/>
<path d="M118.68 62.728C118.694 63.4119 118.503 64.0843 118.134 64.6603C117.764 65.2363 117.232 65.6899 116.604 65.9639C115.977 66.2379 115.282 66.3199 114.607 66.1996C113.933 66.0791 113.31 65.7618 112.816 65.2877C112.322 64.8136 111.98 64.2039 111.833 63.5358C111.687 62.8677 111.742 62.1711 111.991 61.5341C112.241 60.8972 112.674 60.3485 113.236 59.9574C113.798 59.5663 114.464 59.3503 115.149 59.3368C115.604 59.3279 116.056 59.4085 116.48 59.5742C116.903 59.7397 117.29 59.987 117.618 60.3019C117.946 60.6168 118.209 60.9933 118.391 61.4095C118.573 61.8258 118.672 62.2738 118.68 62.728Z" fill="white"/>
<path opacity="0.79" d="M120.072 68.6737C120.079 69.0163 119.984 69.3532 119.8 69.6419C119.615 69.9306 119.348 70.158 119.034 70.2955C118.72 70.433 118.371 70.4743 118.034 70.414C117.696 70.3538 117.383 70.195 117.136 69.9575C116.889 69.7199 116.718 69.4145 116.644 69.0798C116.571 68.7451 116.598 68.3962 116.724 68.0771C116.849 67.7581 117.066 67.4835 117.348 67.2879C117.63 67.0922 117.963 66.9844 118.306 66.9781C118.766 66.9697 119.209 67.1435 119.54 67.4613C119.871 67.7792 120.063 68.2152 120.072 68.6737Z" fill="white"/>
<path opacity="0.79" d="M123.815 65.6154C123.822 65.9578 123.727 66.2948 123.543 66.5836C123.358 66.8722 123.091 67.0997 122.777 67.2372C122.463 67.3745 122.115 67.4158 121.777 67.3557C121.439 67.2955 121.127 67.1365 120.879 66.8991C120.632 66.6615 120.461 66.3561 120.387 66.0214C120.314 65.6866 120.342 65.3378 120.467 65.0188C120.592 64.6998 120.809 64.4251 121.091 64.2295C121.373 64.0338 121.706 63.9261 122.05 63.9198C122.277 63.915 122.503 63.955 122.715 64.0378C122.927 64.1205 123.121 64.2441 123.285 64.4016C123.449 64.5591 123.58 64.7474 123.671 64.9557C123.762 65.164 123.811 65.3881 123.815 65.6154Z" fill="white"/>
<path d="M122.094 75.888L124.711 75.5461C124.711 75.5461 126.964 75.3258 127.243 77.4351C127.522 79.5446 125.081 79.7694 125.081 79.7694C125.081 79.7694 126.977 79.5175 127.256 80.9298C127.666 83.0032 125.369 83.0077 125.369 83.0077" stroke="white" stroke-width="2" stroke-linecap="round" stroke-linejoin="round"/>
</g>
</g>
<defs>
<radialGradient id="paint0_radial_1_693" cx="0" cy="0" r="1" gradientUnits="userSpaceOnUse" gradientTransform="translate(111.564 63.5365) scale(39.6307 39.5698)">
<stop stop-color="#555761"/>
<stop offset="1" stop-color="#16181E"/>
</radialGradient>
<radialGradient id="paint1_radial_1_693" cx="0" cy="0" r="1" gradientUnits="userSpaceOnUse" gradientTransform="translate(116.527 35.2297) scale(59.464 59.3726)">
<stop stop-color="#555761"/>
<stop offset="1" stop-color="#16181E"/>
</radialGradient>
<clipPath id="clip0_1_693">
<rect width="209" height="113" fill="white"/>
</clipPath>
</defs>
</svg>
