<svg width="209" height="113" viewBox="0 0 209 113" fill="none" xmlns="http://www.w3.org/2000/svg">
<g clip-path="url(#clip0_1_742)">
<mask id="mask0_1_742" style="mask-type:luminance" maskUnits="userSpaceOnUse" x="0" y="0" width="209" height="113">
<path d="M209 0H0V113H209V0Z" fill="white"/>
</mask>
<g mask="url(#mask0_1_742)">
<path d="M49.6666 102.723L74.3919 37.2082L68.9594 28.861L49.2657 102.56L49.6666 102.723Z" fill="#474B4F"/>
<path d="M67.8198 29.312C67.8198 29.312 67.9054 29.1406 67.8829 29.1586C67.7381 29.4013 67.6303 29.6643 67.563 29.9388C67.4324 30.4258 67.3378 30.9219 67.2117 31.4134L66.7928 33.0774L66.2657 35.1653C66.0525 35.9921 65.8438 36.8174 65.6396 37.6411L64.9234 40.455L64.1396 43.5711C63.8393 44.6954 63.554 45.8184 63.2838 46.9397L62.3829 50.5203C62.0675 51.7694 61.7522 53.0231 61.4324 54.2722C61.1126 55.5214 60.7793 56.8562 60.4549 58.1504C60.1306 59.4447 59.7838 60.793 59.4504 62.1144L58.4369 66.1187L57.4234 70.1187L56.4234 74.0781L55.4459 77.9473C55.1261 79.1964 54.8108 80.4411 54.4955 81.6902C54.1802 82.9393 53.8964 84.0667 53.5946 85.2573C53.3108 86.3756 53.027 87.512 52.7477 88.6078L51.9639 91.7013C51.7297 92.6348 51.5135 93.5638 51.2567 94.4928C51.0495 95.3105 50.8438 96.1267 50.6396 96.9414C50.4639 97.6314 50.2883 98.3168 50.1171 99.0068C49.9774 99.5479 49.8423 100.094 49.7027 100.635C49.6036 101.023 49.509 101.41 49.4099 101.794L49.2477 102.438C49.2341 102.478 49.2235 102.519 49.2162 102.56L49.3468 102.614L69.3333 32.9963C68.9429 32.0132 68.5495 31.0301 68.1531 30.047C68.0991 29.8982 68.0585 29.7449 68.0045 29.5961C67.9504 29.4472 67.9144 29.285 67.8198 29.312Z" fill="#282930"/>
<path d="M107.347 88.716C107.05 88.202 106.766 87.7149 106.559 87.3226C105.302 84.9551 103.959 82.5921 102.662 80.3057C101.032 77.4377 104.5 76.5042 102.982 73.5189L77.991 28.3379C77.9241 28.174 77.8016 28.039 77.645 27.9565C77.4885 27.874 77.308 27.8494 77.1351 27.887H70.1396C69.9401 27.8619 69.7381 27.9065 69.5676 28.0132L68.0676 29.1136L68.2523 29.6953L86.8153 73.0905C88.0721 76.1164 91.9955 78.1457 93.2432 81.1716C94.2462 83.6007 95.2522 86.0313 96.2613 88.4635C96.4504 88.928 109.36 92.1839 107.347 88.716Z" fill="#474B4F"/>
<path d="M69.9099 28.4101C69.7478 27.896 69.6081 28.0132 69.527 28.0313L67.9865 28.9963L67.8018 29.2533C68.2523 31.1113 77.5766 51.4086 77.5766 51.4086L78.6306 46.0649C78.6306 46.0649 70.8424 31.463 69.9099 28.4101Z" fill="#282930"/>
<path d="M72.9054 41.1495L69.3334 32.9963L64.937 58.7637L62.6757 55.8371L61.2117 55.1156L60.009 59.8595L61.8288 59.12L64.2478 62.7952L63.8469 65.1537L72.9054 41.1495Z" fill="#110E19"/>
<path d="M69.5676 28.0222C69.5676 28.0222 69.9865 27.197 71.2658 30.3582C71.982 31.5757 72.7973 33.2578 73.6351 34.9354C74.0586 35.7741 74.4549 36.6219 74.8288 37.4156C75.2027 38.2093 75.5676 38.9443 75.8468 39.5936C76.4234 40.8744 76.7883 41.7402 76.7883 41.7402L76.0946 42.0739C76.0946 42.0739 76.2883 42.5249 75.6441 41.2532C75.3108 40.6354 74.9504 39.03 74.554 38.2453C74.1577 37.4607 73.6171 36.4415 73.2027 35.6073C72.4054 33.9117 70.6667 31.0978 70.1577 29.799L69.5676 28.0222Z" fill="#606369"/>
<path d="M69.3333 32.9963C69.2176 34.0332 69.0371 35.0619 68.7928 36.0762C68.3423 38.0109 67.6802 39.2961 66.7748 42.5655C66.3243 44.198 65.5766 46.6781 65.0405 48.5451C64.5045 50.4121 63.8333 52.5541 63.2387 54.5924C62.036 58.651 60.9189 63.5349 59.6351 67.873L52.5 91.7149C50.527 98.2086 49.2072 102.537 49.2072 102.537L52.2027 91.6292C54.0045 85.0949 56.464 76.378 58.9009 67.6611C60.1351 63.3093 61.3694 58.9531 62.5045 54.872C63.0901 52.8337 63.6577 50.863 64.1982 49.0097C64.7387 47.1562 65.2838 45.3659 65.7658 43.7425C66.7433 40.4911 67.7252 36.8068 68.3829 34.9354C69 32.0177 69.3333 32.9963 69.3333 32.9963Z" fill="#606369"/>
<path d="M177.068 44.9375C176.892 44.7166 176.554 44.8743 176.554 44.8743L176.221 45.4831L173.54 49.6049L172.703 50.2137L208.617 112.179H208.653L209 112.003C208.617 111.192 208.23 110.375 207.847 109.559C206.823 107.389 205.797 105.218 204.77 103.047C203.299 99.9207 201.824 96.7971 200.347 93.6766L195.144 82.6643C193.342 78.8492 191.54 75.0341 189.739 71.219L184.703 60.5585L180.631 51.8596C180.022 50.5699 179.491 49.2441 178.883 47.9544C178.38 46.8904 177.772 45.8797 177.068 44.9375Z" fill="#474B4F"/>
<path d="M208.653 112.161L208.856 112.057L175.716 47.3501L171.455 51.5485L208.495 112.184L208.653 112.161Z" fill="#282930"/>
<path d="M176.874 44.933C176.874 44.933 176.203 44.8969 176.554 44.8743L141.829 70.6959L135.824 75.2461C134.212 76.4486 132.601 77.6677 130.991 78.9033C130.694 79.1287 130.221 79.4354 129.676 79.8052C127 81.5323 122.248 83.3542 123.545 86.4838C124.761 89.4195 125.009 92.4003 127.856 92.2651C131.252 92.0982 136.261 86.4523 138.284 84.5988C145.707 77.8661 147.541 76.3554 152.36 71.5211C158.009 65.8572 160.919 63.2056 166.009 58.5428C170.374 54.5338 173.761 51.2554 178.126 47.2689C178.495 46.8991 177.167 45.163 176.874 44.933Z" fill="#474B4F"/>
<path d="M176.613 44.6894C175.689 44.5632 169.176 44.6894 168.712 44.9735C168.073 45.4381 167.471 45.9506 166.91 46.5068L164.414 48.7029C162.027 50.7893 159.643 52.8773 157.261 54.9667C154.297 57.5672 151.338 60.1737 148.383 62.7862C145.293 65.516 142.212 68.2533 139.14 70.9981C136.383 73.4603 133.638 75.9375 130.905 78.4298C128.932 80.2336 126.959 82.0374 125.05 83.9224C124.523 84.4409 123.991 84.9641 123.495 85.5188C123.333 85.6947 122.955 86.0103 122.928 86.2809C122.739 87.9449 124.73 91.1693 128.689 88.8919C130.423 87.8863 131.991 86.4883 133.536 85.1896C136.126 83.0115 138.649 80.7432 141.158 78.4614C144.236 75.6715 147.287 72.8485 150.311 69.9924C153.461 67.0312 156.599 64.0534 159.725 61.0591C162.545 58.3534 165.357 55.6476 168.162 52.9419C170.23 50.9487 172.239 48.8833 174.356 46.9533C176.473 45.0232 176.608 44.6984 177.059 44.933C177.171 44.9871 176.887 44.7256 176.613 44.6894Z" fill="#282930"/>
<path d="M123.901 88.1839C123.901 88.1839 124.086 91.2413 129.55 88.3372C135.014 85.4331 138.703 80.8153 142.437 77.3249C146.171 73.8345 147.297 63.7333 147.297 63.7333L123.189 84.8423L123.901 88.1839Z" fill="#110E19"/>
<path d="M172.198 52.7705L176.45 48.7886L185.225 74.0961L172.198 52.7705Z" fill="#110E19"/>
<path d="M107.541 88.0802C107.531 88.9526 107.255 89.8011 106.748 90.5109C106.241 91.2207 105.529 91.7575 104.707 92.0485C101.077 93.5097 97.0496 92.7025 94.7162 87.255C92.0135 80.8785 92.7207 83.1964 92.7207 83.1964L107.541 88.0802Z" fill="#231F20"/>
<path d="M72.8423 52.5766C72.8435 62.7012 76.8619 72.4107 84.0135 79.5694C91.1651 86.7282 100.864 90.7499 110.977 90.7499C132.041 90.7499 148.167 73.0454 148.167 51.9678C148.167 30.8903 132.041 14.4035 110.977 14.4035C100.864 14.4035 91.1651 18.4251 84.0135 25.5838C76.8619 32.7426 72.8435 42.452 72.8423 52.5766Z" fill="url(#paint0_radial_1_742)"/>
<path d="M84.8739 51.7199C84.8739 34.8993 98.1667 21.2129 114.505 21.2129C130.842 21.2129 144.144 34.8993 144.144 51.7199C144.144 68.5404 130.851 82.2268 114.509 82.2268C97.0586 82.2268 84.8739 69.6813 84.8739 51.7199ZM96.4595 51.7199C96.4595 57.0005 98.1081 61.7129 101.099 64.9869C104.252 68.4592 108.905 70.2991 114.505 70.2991C124.455 70.2991 132.55 61.961 132.55 51.7199C132.55 41.4787 124.441 33.1406 114.505 33.1406C104.568 33.1406 96.4595 41.4877 96.4595 51.7199Z" fill="#110E19"/>
<path d="M84.0316 51.7199C84.0316 34.4213 97.7027 20.347 114.505 20.347C131.306 20.347 144.978 34.4213 144.978 51.7199C144.978 69.0184 131.311 83.0926 114.505 83.0926C96.5631 83.0926 84.0316 70.1909 84.0316 51.7199ZM85.7162 51.7199C85.7162 69.1717 97.5541 81.361 114.505 81.361C130.383 81.361 143.297 68.0624 143.297 51.7199C143.297 35.3772 130.383 22.0967 114.505 22.0967C98.6261 22.0967 85.7162 35.3727 85.7162 51.7199ZM100.487 65.5821C97.3334 62.1459 95.6216 57.2215 95.6216 51.7199C95.6216 40.9962 104.09 32.2747 114.505 32.2747C124.919 32.2747 133.392 40.9962 133.392 51.7199C133.392 62.4435 124.919 71.1604 114.505 71.1604C108.667 71.1604 103.82 69.2304 100.487 65.5821ZM97.2973 51.7199C97.2973 56.7795 98.8649 61.2845 101.707 64.3961C104.716 67.6881 109.14 69.4333 114.5 69.4333C123.987 69.4333 131.707 61.4875 131.707 51.7199C131.707 41.9522 123.987 34.0064 114.5 34.0064C105.014 34.0064 97.2973 41.9387 97.2973 51.7199Z" fill="#606369"/>
<path d="M88.2883 52.7931C88.2883 37.9883 100 25.9433 114.369 25.9433C128.739 25.9433 140.45 37.9883 140.45 52.7931C140.45 67.5979 128.739 79.6429 114.369 79.6429C99.0045 79.6429 88.2883 68.6035 88.2883 52.7931ZM98.4865 52.7931C98.4865 57.4425 99.9324 61.5867 102.568 64.4683C105.36 67.5258 109.441 69.1447 114.369 69.1447C123.126 69.1447 130.252 61.8076 130.252 52.7931C130.252 43.7785 123.126 36.4415 114.369 36.4415C105.613 36.4415 98.4775 43.774 98.4775 52.7931H98.4865Z" fill="#1B1D23"/>
<path d="M96 52.8247C96 58.3308 97.7162 63.2462 100.838 66.6599C104.144 70.2676 108.977 72.1976 114.802 72.1976C125.162 72.1976 133.622 63.5077 133.622 52.8066C133.622 42.1055 125.18 33.4157 114.802 33.4157C104.423 33.4157 96 42.1416 96 52.8247Z" fill="#231F20"/>
<path d="M92.8829 51.7919C92.8829 39.3186 102.739 29.1721 114.856 29.1721C126.973 29.1721 136.829 39.3186 136.829 51.7919C136.829 64.2654 126.973 74.4073 114.865 74.4073C101.919 74.4073 92.8829 65.1131 92.8829 51.7919Z" fill="#E74139"/>
<path d="M103.09 60.3331L114.351 67.0341C114.499 67.1228 114.668 67.1696 114.84 67.1696C115.012 67.1696 115.181 67.1228 115.329 67.0341L126.59 60.3331C126.73 60.2471 126.845 60.1261 126.924 59.9823C127.003 59.8384 127.043 59.6764 127.041 59.5123V46.0604C127.043 45.8962 127.003 45.7342 126.924 45.5903C126.845 45.4465 126.73 45.3256 126.59 45.2396L115.329 38.534C115.18 38.4476 115.012 38.4021 114.84 38.4021C114.668 38.4021 114.5 38.4476 114.351 38.534L103.09 45.2396C102.951 45.3262 102.836 45.4473 102.758 45.591C102.679 45.7347 102.638 45.8964 102.64 46.0604V59.5259C102.64 59.6876 102.682 59.8464 102.761 59.9876C102.84 60.1287 102.953 60.2476 103.09 60.3331Z" fill="#110E19"/>
<path d="M81.9009 71.1198L54.7027 41.4877L53.1531 42.0199L52.7657 42.4392L46.9594 41.9882C46.6576 42.1416 46.3468 42.2858 46.036 42.4392C49.6126 46.6106 80.4639 82.6191 84.8153 87.4759C87.518 90.4838 91.6576 92.7792 93.545 91.4037C94.0954 90.9786 94.5334 90.4251 94.8207 89.7916C95.1081 89.158 95.2362 88.4635 95.1937 87.7691C95.1711 85.2618 83.4594 72.8921 81.9009 71.1198Z" fill="#282930"/>
<path d="M54.3108 41.2127L47.1577 41.8845C46.2027 41.9972 46.0405 41.7312 45.2297 42.7594L0 112.621C0.148649 112.694 0.292793 112.775 0.45045 112.856L54.6036 41.3028L54.3108 41.2127Z" fill="#282930"/>
<path d="M54.9775 41.402C54.9009 41.3749 54.6847 41.3299 54.6081 41.3028L0.450439 112.856L0.707196 113L57.4955 44.3332L54.9775 41.402Z" fill="#474B4F"/>
<path d="M93.9279 84.3869C91.6757 81.3835 56.9189 43.535 55.0135 41.4651L55.7342 46.5879C55.7342 46.5879 83.7432 77.9067 86.7477 81.0949C92.9144 87.6382 95.1982 90.114 93.5495 91.3902C93.5495 91.3902 97.4594 89.0993 93.9279 84.3869Z" fill="#474B4F"/>
<path d="M55.6576 46.5609L54.8919 52.748L52.6757 50.164L55.6576 46.5609Z" fill="#110E19"/>
<path d="M124.698 89.3654C124.964 89.4629 125.237 89.5426 125.514 89.6044C126.074 89.6335 126.633 89.5332 127.149 89.3113C128.069 88.902 128.939 88.3892 129.743 87.7826C131.545 86.2944 132.667 85.5549 134.05 84.2697C135.234 83.1648 136.64 81.8209 138 80.5538C139.36 79.2866 140.761 77.7759 142.243 76.387C145.207 73.6046 147.689 71.1334 150.856 68.1661L160.135 59.4312L168.275 51.8596C170.667 49.6545 172.725 47.8957 174.05 46.5249C174.95 45.5778 176.698 44.0716 177.27 45.2171C175.712 45.668 174.207 47.1652 173.045 48.3016C172.095 49.2035 169.329 51.8101 168.162 52.9464C165.829 55.2011 163.806 57.1358 160.86 59.9452C157.914 62.7547 155.748 65.0004 152.586 67.9722C149.423 70.944 147.577 72.7252 144.604 75.5031C143.104 76.856 140.446 79.8729 139.068 81.131C136.671 83.255 134.563 85.2753 132.063 87.264C130.61 88.3979 129.017 89.3405 127.324 90.0689C126.845 90.2424 126.327 90.2769 125.829 90.1681C125.591 90.132 125.365 90.0406 125.168 89.9012C124.972 89.7619 124.811 89.5784 124.698 89.3654Z" fill="#606369"/>
<path d="M176.45 48.7886C176.45 48.7886 176.59 48.6849 176.937 49.0862C177.209 49.4081 177.448 49.7572 177.649 50.128L178.234 51.2824L181.887 58.4571C183.401 61.4289 185.167 64.8922 187.054 68.6035C188.941 72.3148 190.95 76.2697 192.959 80.2471C196.95 88.1929 200.968 96.1162 203.914 102.1L208.869 112.057L203.685 102.245C200.554 96.3823 196.478 88.4726 192.36 80.5989L186.351 68.9958C184.446 65.2935 183.122 62.1369 181.595 59.1741C180.068 56.2113 177.302 51.0299 176.104 49.1043L176.45 48.7886Z" fill="#606369"/>
<path d="M55.6577 46.5609C55.6577 46.5609 55.8153 46.11 56.8829 47.3005C57.9504 48.491 60.3153 51.0164 62.1441 53.0682C63.973 55.1201 66.1171 57.5191 68.3874 60.1075L75.5135 68.1931C77.9414 70.944 80.3784 73.6858 82.6892 76.2291C83.8453 77.5008 84.973 78.7034 86.0721 79.8367C87.1622 80.9732 88.1937 82.0555 89.1306 83.0701C90.0676 84.0848 90.8919 85.0407 91.6036 85.9111C92.2306 86.653 92.7984 87.4431 93.3018 88.2741C93.6377 88.806 93.8842 89.3895 94.0315 90.0013C94.0693 90.1622 94.0845 90.3276 94.0766 90.4928C94.0709 90.3291 94.0436 90.1668 93.9955 90.0103C93.8023 89.4279 93.518 88.88 93.1531 88.3869C92.5991 87.5992 91.9974 86.8461 91.3513 86.132C90.6126 85.3023 89.7252 84.4049 88.7703 83.4263C87.8153 82.4478 86.7523 81.3971 85.6171 80.2922C84.482 79.1874 83.3288 77.9788 82.1441 76.7343C79.7748 74.2315 78.036 72.0804 75.554 69.3792C73.0721 66.678 70.5991 63.9182 68.3198 61.3522C66.0405 58.7862 63.7703 56.1482 61.9595 54.0738C60.1486 51.9994 57.491 49.1539 56.4324 47.9364C56.3153 47.8011 55.6982 47.0344 55.6126 46.9082L55.6577 46.5609Z" fill="#606369"/>
<path d="M54.8243 41.2757C54.887 41.302 54.9437 41.3406 54.9909 41.3895C55.0382 41.4383 55.075 41.4963 55.0991 41.5598C54.7522 42.1191 54.2748 41.9657 53.545 42.9533C52.0585 44.906 48.5901 49.8889 46.0405 53.2396C40.9144 59.9136 36.8423 65.6543 28.6847 76.2382C21.8333 85.1309 14.1712 95.1151 9.03602 101.784L0.450439 112.856L8.78828 101.581L27.2162 76.8199L37.054 63.5844L41.6306 57.5417L45.7477 52.1302L51.9504 44.0716C52.7117 43.1067 53.7162 41.7042 54.1667 41.2217C54.3857 41.165 54.6174 41.1841 54.8243 41.2757Z" fill="#606369"/>
<path d="M173.14 30.5566C173.923 26.3943 168.563 25.4293 168.563 25.4293C168.563 25.4293 169.545 20.0629 165.378 19.3324C160.356 18.4575 159.522 31.6794 159.522 31.6794C159.522 31.6794 172.189 35.5667 173.14 30.5566Z" fill="#F92A08"/>
<path d="M162.441 6.08788C161.045 2.09243 155.914 3.94135 155.914 3.94135C155.914 3.94135 154.086 -1.19953 150.113 0.261566C145.329 2.01578 151.23 13.8759 151.23 13.8759C151.23 13.8759 164.126 10.9041 162.441 6.08788Z" fill="#F92A08"/>
<path d="M182.883 12.6718C184.013 9.71806 180.207 8.29755 180.207 8.29755C180.207 8.29755 181.64 4.487 178.676 3.39569C175.108 2.08793 172.752 11.6842 172.752 11.6842C172.752 11.6842 181.531 16.2343 182.883 12.6718Z" fill="#F92A08"/>
<path d="M116.667 49.5192C116.667 50.6473 116.332 51.7501 115.706 52.6878C115.079 53.6256 114.189 54.3561 113.148 54.787C112.106 55.218 110.961 55.3297 109.856 55.1083C108.751 54.8869 107.736 54.3423 106.941 53.5433C106.145 52.7443 105.604 51.727 105.387 50.6201C105.169 49.5132 105.284 48.3665 105.718 47.3254C106.152 46.2841 106.884 45.3951 107.823 44.771C108.762 44.1468 109.864 43.8156 110.991 43.8192C112.498 43.8227 113.943 44.4249 115.007 45.4937C116.071 46.5624 116.668 48.0101 116.667 49.5192Z" fill="white"/>
<path d="M123.473 46.119C123.473 46.7915 123.274 47.4489 122.901 48.008C122.527 48.5672 121.997 49.003 121.376 49.2603C120.756 49.5177 120.073 49.5851 119.414 49.4538C118.755 49.3227 118.15 48.9988 117.675 48.5233C117.2 48.0478 116.876 47.4419 116.745 46.7824C116.614 46.1227 116.682 45.4391 116.939 44.8178C117.196 44.1965 117.631 43.6655 118.19 43.2919C118.748 42.9183 119.405 42.7188 120.077 42.7188C120.977 42.7188 121.841 43.077 122.478 43.7147C123.115 44.3524 123.473 45.2172 123.473 46.119Z" fill="white"/>
<path opacity="0.2" d="M122.604 17.497C115.117 12.8341 100.563 14.5297 94.6756 21.2038C94.5976 21.2838 94.5497 21.3884 94.5401 21.4998C94.5305 21.6112 94.5599 21.7224 94.6232 21.8146C94.6865 21.9067 94.7798 21.974 94.8871 22.0048C94.9945 22.0358 95.1092 22.0284 95.2117 21.984C111.977 15.7834 113.459 20.9603 122.095 20.1802C123.423 20.0448 123.617 18.1283 122.604 17.497Z" fill="white"/>
<path d="M144.595 16.9829C144.802 21.1452 129.459 25.303 110.32 26.277C91.1802 27.2511 75.5 24.6626 75.2883 20.5049C75.0766 16.347 90.4279 12.1758 109.568 11.2152C128.707 10.2546 144.392 12.8251 144.595 16.9829Z" stroke="#23AEFC" stroke-width="4.83" stroke-miterlimit="10"/>
<path opacity="0.2" d="M118.635 24.5319C109.036 25.7946 83.455 27.6029 76.2928 20.7168C73.3514 17.8803 74.991 32.8519 119.086 26.8182C120.59 26.6063 120.113 24.3515 118.635 24.5319Z" fill="white"/>
<path opacity="0.2" d="M130.586 10.9311C124.883 11.2559 118.248 9.60983 112.86 11.7428C112.523 11.8736 112.752 12.329 113.054 12.302C118.36 11.851 123.5 13.0867 128.82 12.8793C134.383 12.6628 138.473 12.9288 143.414 15.7202C145.541 16.9243 145.185 10.0969 130.586 10.9311Z" fill="white"/>
</g>
</g>
<defs>
<radialGradient id="paint0_radial_1_742" cx="0" cy="0" r="1" gradientUnits="userSpaceOnUse" gradientTransform="translate(116.527 27.0031) scale(59.464 59.5304)">
<stop stop-color="#555761"/>
<stop offset="1" stop-color="#16181E"/>
</radialGradient>
<clipPath id="clip0_1_742">
<rect width="209" height="113" fill="white"/>
</clipPath>
</defs>
</svg>
