<svg width="209" height="113" viewBox="0 0 209 113" fill="none" xmlns="http://www.w3.org/2000/svg">
<g clip-path="url(#clip0_1_786)">
<mask id="mask0_1_786" style="mask-type:luminance" maskUnits="userSpaceOnUse" x="0" y="0" width="209" height="113">
<path d="M209 0H0V112.354H209V0Z" fill="white"/>
</mask>
<g mask="url(#mask0_1_786)">
<path d="M49.6668 107.676L74.3934 41.8565L68.936 33.477L49.2439 107.516L49.6668 107.676Z" fill="#474B4F"/>
<path d="M67.8172 33.9023C67.8172 33.9023 67.9036 33.7331 67.8854 33.7514C67.7382 33.9937 67.6293 34.2576 67.5625 34.5335C67.4306 35.0229 67.3351 35.5215 67.2123 36.011C67.0895 36.5004 66.9349 37.127 66.7939 37.685L66.2618 39.7936C66.0526 40.6215 65.848 41.4494 65.6388 42.2818C65.3993 43.2241 65.1613 44.1663 64.9248 45.1086C64.661 46.1514 64.4018 47.1943 64.138 48.2372L63.283 51.6219L62.3734 55.2216C62.0703 56.4749 61.7534 57.7312 61.423 58.9905C61.0955 60.285 60.7726 61.5841 60.4452 62.883C60.1177 64.182 59.7766 65.5405 59.4401 66.867C59.1036 68.1935 58.767 69.5473 58.4259 70.8875L57.4163 74.908C57.0798 76.2345 56.7463 77.5594 56.4158 78.8829L55.438 82.789C55.1348 84.0392 54.8195 85.291 54.4921 86.5443L53.5825 90.1302C53.296 91.2509 53.014 92.376 52.7321 93.4967C52.4728 94.5349 52.2091 95.5686 51.9498 96.607C51.7133 97.5218 51.495 98.4777 51.2449 99.4108C51.0357 100.23 50.8311 101.049 50.6219 101.871L50.1034 103.943C49.967 104.488 49.826 105.032 49.6896 105.582C49.5895 105.97 49.494 106.359 49.3939 106.747C49.3439 106.962 49.2894 107.178 49.2348 107.392C49.2205 107.432 49.2098 107.473 49.2029 107.516L49.3303 107.566L69.3407 37.6484L68.1583 34.6845C68.1037 34.5382 68.0628 34.3872 68.0128 34.2271C67.9627 34.067 67.9127 33.8978 67.8172 33.9023Z" fill="#282930"/>
<path d="M107.329 93.6019C107.029 93.0896 106.747 92.6002 106.537 92.2022C105.282 89.8283 103.941 87.4545 102.644 85.1583C101.012 82.2721 104.464 81.3345 102.963 78.3385L77.9907 32.9327C77.8588 32.585 77.5359 32.4753 77.1357 32.4753H70.1411C69.9416 32.446 69.7382 32.4899 69.5681 32.5988L68.0673 33.7056L68.2538 34.2912L86.818 77.8857C88.0732 80.9228 91.9934 82.9628 93.2441 86.0045C94.2507 88.4439 95.2573 90.8834 96.2639 93.3228C96.4503 93.8215 109.362 97.0872 107.329 93.6019Z" fill="#474B4F"/>
<path d="M69.9137 33.0241C69.7455 32.5027 69.6045 32.6216 69.5272 32.6399L67.9855 33.6096C67.9218 33.6965 67.8581 33.7788 67.799 33.8657C68.2538 35.7319 77.5768 56.1227 77.5768 56.1227L78.6274 50.7712C78.6274 50.7712 70.8461 36.0841 69.9137 33.0241Z" fill="#282930"/>
<path d="M72.9062 45.8175L69.3362 37.6301L64.9339 63.5142L62.6736 60.5732L61.2092 59.8505L60.0086 64.6166L61.8277 63.8756L64.2472 67.5668L63.847 69.9315L72.9062 45.8175Z" fill="#110E19"/>
<path d="M69.5818 32.6308C69.5818 32.6308 70.0002 31.7983 71.2827 34.9772C71.9921 36.1984 72.8107 37.8908 73.6521 39.5512C74.0705 40.3928 74.4662 41.2481 74.8436 42.044C75.2211 42.8399 75.5804 43.5809 75.8578 44.2304C76.4399 45.5202 76.8037 46.3893 76.8037 46.3893L76.1079 46.7232C76.1079 46.7232 76.2989 47.1532 75.6531 45.8999C75.3211 45.2779 74.9573 43.6632 74.5617 42.8764C74.166 42.0897 73.6112 41.1063 73.22 40.251C72.4242 38.545 70.6869 35.7365 70.173 34.4147L69.5818 32.6308Z" fill="#606369"/>
<path d="M69.3362 37.6255C69.2165 38.663 69.0358 39.6924 68.795 40.7084C68.3402 42.6523 67.6808 43.9422 66.7757 47.2263C66.321 48.8684 65.5751 51.3429 65.043 53.2366C64.5109 55.1302 63.8333 57.2617 63.2239 59.3108C62.0233 63.3953 60.9045 68.294 59.622 72.653C57.0252 81.3436 54.4329 90.0753 52.4865 96.607C50.54 103.139 49.212 107.488 49.212 107.488C49.212 107.488 50.4081 103.102 52.2045 96.5109L58.908 72.429L62.5463 59.5806L64.2381 53.6802C64.7838 51.8049 65.3023 50.021 65.7798 48.3973C66.7576 45.1314 67.7399 41.4265 68.3948 39.5466C68.9996 36.6604 69.3362 37.6255 69.3362 37.6255Z" fill="#606369"/>
<path d="M177.07 49.6231C176.892 49.3989 176.551 49.559 176.551 49.559L176.219 50.1719L173.541 54.2886L172.704 54.8968L208.632 117.149H208.668L209.014 116.975C208.632 116.155 208.247 115.336 207.858 114.519C206.837 112.338 205.812 110.157 204.784 107.973C203.311 104.835 201.836 101.697 200.359 98.56L195.147 87.5047L189.74 76.0058L184.705 65.2981C183.341 62.3951 181.977 59.4983 180.612 56.6075C180.003 55.3131 179.471 53.9775 178.866 52.6831C178.37 51.6052 177.769 50.5802 177.07 49.6231Z" fill="#474B4F"/>
<path d="M208.654 117.158L208.854 117.057L175.719 52.0564L171.453 56.2599L208.495 117.185L208.654 117.158Z" fill="#282930"/>
<path d="M176.874 49.6185C176.874 49.6185 176.206 49.5865 176.551 49.559L141.829 75.5026L135.825 80.0766C134.212 81.2964 132.601 82.516 130.991 83.7358C130.695 83.9599 130.223 84.2663 129.672 84.6232C126.998 86.3567 122.246 88.1862 123.546 91.3286C124.761 94.2788 125.006 97.2748 127.858 97.1375C131.25 96.9729 136.262 91.2966 138.286 89.4533C145.708 82.6883 147.541 81.1744 152.361 76.3123C158.005 70.6222 160.939 67.9556 166.005 63.2764C170.371 59.2467 173.759 55.958 178.125 51.9237C178.493 51.5945 177.17 49.8563 176.874 49.6185Z" fill="#474B4F"/>
<path d="M176.61 49.399C175.701 49.2709 169.175 49.399 168.711 49.6825C168.079 50.1522 167.481 50.6674 166.924 51.2239L164.422 53.4195C162.039 55.5114 159.655 57.6077 157.268 59.7087C154.309 62.3189 151.35 64.9367 148.391 67.5622C145.302 70.3066 142.221 73.051 139.15 75.7954C136.394 78.2715 133.649 80.7612 130.914 83.2647C128.94 85.0943 126.966 86.8965 125.052 88.7809C124.524 89.3023 123.992 89.8238 123.492 90.3818C123.333 90.5602 122.955 90.8758 122.928 91.1502C122.741 92.8197 124.747 96.058 128.685 93.7711C130.423 92.7648 131.992 91.3606 133.533 90.0525C136.126 87.8661 138.65 85.5883 141.16 83.2967C144.234 80.4882 147.284 77.6509 150.31 74.7845C153.46 71.8114 156.6 68.8215 159.729 65.8149C162.542 63.1072 165.353 60.3933 168.161 57.6733C170.23 55.6699 172.254 53.5979 174.359 51.6585C176.465 49.7191 176.633 49.4035 177.088 49.6276C177.174 49.6734 176.911 49.399 176.61 49.399Z" fill="#282930"/>
<path d="M123.901 93.0713C123.901 93.0713 124.083 96.1449 129.549 93.2222C135.016 90.2994 138.709 85.666 142.438 82.1623C146.167 78.6587 147.304 68.5091 147.304 68.5091L123.201 89.7095L123.901 93.0713Z" fill="#110E19"/>
<path d="M172.194 57.4904L176.451 53.4927L185.224 78.9148L172.194 57.4904Z" fill="#110E19"/>
<path d="M107.538 92.9661C107.53 93.8418 107.254 94.6938 106.748 95.4065C106.242 96.1193 105.53 96.6582 104.709 96.95C101.071 98.4182 97.0325 97.6087 94.704 92.1382C91.9753 85.7346 92.7075 88.0765 92.7075 88.0765L107.538 92.9661Z" fill="#231F20"/>
<path d="M72.8426 57.2982C72.8426 67.4684 76.859 77.2223 84.0084 84.4145C91.1579 91.6068 100.855 95.6486 110.967 95.651C132.028 95.651 148.155 77.8628 148.155 56.6807C148.155 35.4987 132.037 18.9454 110.967 18.9454C100.855 18.9478 91.1579 22.9896 84.0084 30.182C76.859 37.3742 72.8426 47.128 72.8426 57.2982Z" fill="url(#paint0_radial_1_786)"/>
<path d="M84.8716 56.4384C84.8716 39.5374 98.1649 25.7927 114.505 25.7927C130.846 25.7927 144.139 39.5421 144.139 56.4384C144.139 73.3345 130.846 87.0839 114.505 87.0839C97.0598 87.0839 84.8716 74.4826 84.8716 56.4384ZM96.4595 56.4384C96.4595 61.7441 98.1058 66.5011 101.098 69.7668C104.282 73.2568 108.907 75.1001 114.505 75.1001C124.456 75.1001 132.551 66.7298 132.551 56.4384C132.551 46.1468 124.456 37.7719 114.505 37.7719C104.555 37.7719 96.4595 46.1468 96.4595 56.4384Z" fill="#110E19"/>
<path d="M84.0348 56.4384C84.0348 39.0572 97.701 24.9191 114.505 24.9191C131.309 24.9191 144.976 39.0572 144.976 56.4384C144.976 73.8194 131.305 87.953 114.505 87.953C96.5641 87.953 84.0348 75.0132 84.0348 56.4384ZM85.7129 56.4384C85.7129 73.9704 97.5373 86.2149 114.505 86.2149C130.382 86.2149 143.298 72.8589 143.298 56.4384C143.298 40.0177 130.382 26.6571 114.505 26.6571C98.6288 26.6571 85.7129 40.0177 85.7129 56.4384ZM100.507 70.3614C97.369 66.9127 95.6408 61.9636 95.6408 56.4384C95.6408 45.6666 104.113 36.9029 114.528 36.9029C124.943 36.9029 133.415 45.6666 133.415 56.4384C133.415 67.21 124.943 75.9692 114.528 75.9692C108.693 75.9692 103.822 74.0298 100.507 70.3614ZM97.3235 56.4384C97.3235 61.52 98.888 66.0437 101.73 69.1722C104.741 72.4793 109.166 74.2311 114.528 74.2311C124.015 74.2311 131.732 66.2494 131.732 56.4384C131.732 46.6272 124.001 38.641 114.528 38.641C105.055 38.641 97.3235 46.6225 97.3235 56.4384Z" fill="#606369"/>
<path d="M88.2779 57.1748C88.2779 42.3001 99.9795 30.1883 114.36 30.1883C128.74 30.1883 140.441 42.291 140.441 57.1748C140.441 72.0584 128.74 84.1611 114.36 84.1611C99.0017 84.1611 88.2779 73.0647 88.2779 57.1748ZM98.4741 57.1748C98.4741 61.8448 99.9249 66.0117 102.567 68.9069C105.36 71.9761 109.439 73.5999 114.392 73.5999C123.151 73.5999 130.273 66.2312 130.273 57.1748C130.273 48.1183 123.119 40.7542 114.36 40.7542C105.601 40.7542 98.4741 48.1228 98.4741 57.1748Z" fill="#1B1D23"/>
<path d="M96.0001 57.5452C96.0001 63.0797 97.7192 68.015 100.834 71.4455C104.145 75.1047 108.98 77.0074 114.819 77.0074C125.193 77.0074 133.633 68.2803 133.633 57.5452C133.633 46.8101 125.193 38.0829 114.819 38.0829C104.445 38.0829 96.0001 46.8146 96.0001 57.5452Z" fill="#231F20"/>
<path d="M92.8803 56.5115C92.8803 43.9788 102.74 33.7834 114.855 33.7834C126.971 33.7834 136.826 43.9788 136.826 56.5115C136.826 69.0442 126.971 79.2396 114.855 79.2396C101.917 79.2396 92.8803 69.8904 92.8803 56.5115Z" fill="#E74139"/>
<path d="M103.09 64.0951L114.369 70.828C114.516 70.9158 114.684 70.9621 114.855 70.9621C115.027 70.9621 115.195 70.9158 115.342 70.828L126.616 64.0951C126.756 64.008 126.872 63.886 126.951 63.7411C127.031 63.5961 127.072 63.4329 127.071 63.2673V49.7558C127.073 49.5899 127.032 49.4264 126.952 49.2812C126.873 49.1361 126.757 49.0143 126.616 48.9278L115.342 42.1949C115.195 42.1072 115.027 42.0609 114.855 42.0609C114.684 42.0609 114.516 42.1072 114.369 42.1949L103.09 48.9416C102.949 49.028 102.834 49.1498 102.754 49.295C102.674 49.4401 102.633 49.6037 102.635 49.7694V63.281C102.637 63.4443 102.679 63.6047 102.758 63.747C102.838 63.8894 102.952 64.0092 103.09 64.0951Z" fill="#110E19"/>
<path opacity="0.79" d="M106.687 48.7723C106.67 47.6771 106.236 46.6303 105.474 45.8468C104.713 45.0633 103.683 44.6028 102.594 44.5597C101.528 44.5597 100.506 44.9857 99.7517 45.744C98.9977 46.5023 98.5742 47.5307 98.5742 48.6031V48.9416C98.5742 50.0139 98.9977 51.0424 99.7517 51.8006C100.506 52.559 101.528 52.9849 102.594 52.9849C103.683 52.9441 104.714 52.4849 105.475 51.7019C106.237 50.919 106.671 49.872 106.687 48.7769V48.7723Z" fill="white"/>
<path opacity="0.79" d="M107.538 41.2253C107.539 40.8631 107.447 40.5069 107.27 40.1916C107.095 39.8423 106.827 39.5486 106.497 39.3434C106.166 39.1383 105.785 39.0297 105.396 39.0297C104.84 39.0309 104.308 39.2535 103.915 39.6487C103.522 40.0438 103.301 40.5795 103.299 41.1384V41.3122C103.299 41.8714 103.52 42.4077 103.913 42.8032C104.307 43.1987 104.84 43.4207 105.396 43.4207C105.965 43.402 106.505 43.1635 106.904 42.7545C107.303 42.3457 107.53 41.7981 107.538 41.2253Z" fill="white"/>
<path d="M81.9018 75.9281L54.7013 46.1331L53.1596 46.6911L52.7548 47.1119L46.9472 46.6546C46.6425 46.8101 46.3333 46.9565 46.0377 47.1119C49.6123 51.3017 80.4647 87.4773 84.817 92.3532C87.5138 95.3765 91.6387 97.6818 93.5443 96.3005C94.095 95.8722 94.533 95.3148 94.82 94.6768C95.107 94.039 95.2342 93.3401 95.1906 92.6413C95.1724 90.1348 83.4572 77.7073 81.9018 75.9281Z" fill="#282930"/>
<path d="M54.3102 45.8816L47.1564 46.5585C46.2014 46.6683 46.0422 46.403 45.2282 47.4322L0 117.619C0.145531 117.693 0.291061 117.775 0.454783 117.858L54.6194 45.973L54.3102 45.8816Z" fill="#282930"/>
<path d="M54.9741 46.0737C54.9014 46.0416 54.6831 46.0005 54.6103 45.973L0.454773 117.858L0.713999 118L57.4936 49.0193L54.9741 46.0737Z" fill="#474B4F"/>
<path d="M93.9308 89.2566C91.6797 86.2378 56.9206 48.2143 55.0151 46.1331L55.7382 51.2835C55.7382 51.2835 83.7392 82.7432 86.7498 85.9496C92.9167 92.5224 95.1951 95.0243 93.5488 96.2914C93.5488 96.2914 97.46 93.9906 93.9308 89.2566Z" fill="#474B4F"/>
<path d="M55.6563 51.256L54.8923 57.4721L52.673 54.874L55.6563 51.256Z" fill="#110E19"/>
<path d="M124.701 94.2559C124.967 94.3556 125.239 94.4366 125.516 94.4983C126.075 94.5271 126.634 94.4253 127.148 94.201C128.069 93.7905 128.941 93.2748 129.745 92.6642C131.541 91.1731 132.665 90.4321 134.052 89.1377C135.234 88.0262 136.64 86.6769 137.999 85.4053C139.359 84.1338 140.76 82.6152 142.242 81.2201C145.208 78.4254 147.7 75.9417 150.856 72.9595C154.012 69.9772 157.173 66.9813 160.138 64.182L168.27 56.5755C170.662 54.3617 172.722 52.5916 174.045 51.2194C174.955 50.268 176.692 48.754 177.265 49.9021C175.705 50.3595 174.2 51.8643 173.04 53.0032C172.09 53.918 169.325 56.5298 168.156 57.6687C165.827 59.9557 163.804 61.8767 160.857 64.7035C157.91 67.5302 155.745 69.7806 152.58 72.7674C149.414 75.7542 147.577 77.5426 144.598 80.3327C143.097 81.705 140.442 84.7192 139.064 85.9862C136.667 88.1223 134.57 90.1486 132.06 92.1428C130.613 93.2812 129.026 94.2281 127.339 94.9604C126.862 95.1369 126.345 95.1734 125.848 95.0656C125.606 95.0323 125.376 94.9414 125.177 94.8005C124.977 94.6597 124.815 94.473 124.701 94.2559Z" fill="#606369"/>
<path d="M176.456 53.5155C176.456 53.5155 176.592 53.4149 176.938 53.8174C177.211 54.139 177.451 54.4886 177.652 54.8603C177.82 55.1988 178.02 55.5876 178.238 56.0221L181.877 63.2307L187.043 73.4261L192.955 85.1217C196.944 93.0987 200.964 101.062 203.911 107.077C206.858 113.092 208.85 117.08 208.85 117.08L203.665 107.219C200.536 101.313 196.453 93.3869 192.341 85.4739L186.347 73.8286C184.442 70.1099 183.114 66.9402 181.59 63.9625C180.067 60.9848 177.297 55.7797 176.096 53.8448L176.456 53.5155Z" fill="#606369"/>
<path d="M55.6563 51.256C55.6563 51.256 55.8155 50.7986 56.8797 51.997C57.9439 53.1953 60.3133 55.7293 62.1461 57.7922C63.9788 59.8551 66.1163 62.2656 68.3857 64.8636L75.4939 72.987C77.9225 75.7313 80.3601 78.5077 82.6704 81.06C83.8316 82.3407 84.9595 83.5514 86.054 84.6918C87.1455 85.8353 88.1733 86.9238 89.1101 87.9439C90.047 88.9639 90.8747 89.9244 91.5887 90.7934C92.2145 91.5409 92.7816 92.3362 93.285 93.1719C93.6209 93.7055 93.8668 94.2912 94.0127 94.9055C94.0508 95.0672 94.0662 95.2334 94.0582 95.3995C94.0524 95.2349 94.0249 95.0718 93.9763 94.9146C93.7887 94.3243 93.5076 93.7684 93.1441 93.268C92.584 92.4826 91.9765 91.7326 91.3249 91.0222C90.5836 90.1851 89.7014 89.2886 88.7418 88.2778C87.7822 87.2669 86.7271 86.2378 85.6038 85.1263C84.4805 84.0148 83.3299 82.8073 82.1292 81.554C79.7598 79.0383 78.0362 76.8794 75.5394 74.1625C73.0427 71.4455 70.5959 68.6737 68.3038 66.1031C66.0117 63.5325 63.756 60.8705 61.9369 58.7848C60.1177 56.699 57.4709 53.8265 56.4113 52.6145C56.293 52.4772 55.6791 51.6997 55.5927 51.5808L55.6563 51.256Z" fill="#606369"/>
<path d="M54.8241 45.9456C54.9499 46 55.0495 46.1018 55.1015 46.2292C54.7513 46.7918 54.2738 46.6408 53.5416 47.6288C52.059 49.5911 48.589 54.5995 46.0422 57.966C40.9304 64.6714 36.8374 70.4393 28.6831 81.0555C21.8296 89.9885 14.171 100.019 9.03653 106.72L0.454773 117.858L8.7773 106.519L27.2006 81.6455C30.5568 77.1264 33.9086 72.6028 37.0557 68.3809L41.6308 62.3022L45.7239 56.8683C48.2934 53.5201 50.4309 50.7254 51.9271 48.7723C52.6866 47.8027 53.6917 46.3938 54.1419 45.9091C54.3668 45.843 54.6074 45.8559 54.8241 45.9456Z" fill="#606369"/>
<path d="M129.859 17.1204L124.97 18.2365C123.605 13.0861 120.595 4.51451 115.469 1.62377C107.975 -2.57057 88.4325 1.88905 83.4709 8.94212C80.0782 13.7539 81.0651 22.8012 82.0338 28.0522L77.1403 29.1682C76.5146 29.3132 75.9717 29.7019 75.6306 30.2489C75.2896 30.796 75.1783 31.4569 75.3212 32.0864L75.7759 34.1355C75.9211 34.7642 76.3078 35.3094 76.8515 35.6523C77.3951 35.9952 78.0516 36.1076 78.6775 35.9652L131.396 23.9265C132.021 23.7804 132.563 23.3915 132.904 22.8448C133.245 22.298 133.357 21.6377 133.215 21.0083L132.76 18.9591C132.617 18.3288 132.231 17.7814 131.687 17.4366C131.143 17.0919 130.486 16.9783 129.859 17.1204Z" fill="#231F20"/>
<path d="M95.8455 74.1945C98.2499 76.7863 101.172 78.8377 104.42 80.2144C107.668 81.591 111.168 82.2619 114.692 82.1828C118.215 82.1039 121.682 81.2767 124.866 79.7558C128.05 78.2349 130.878 76.0545 133.165 73.3575L95.8455 74.1945Z" fill="#1B1D23"/>
<path d="M125.156 78.6998C125.156 78.6998 113.987 76.2757 104.345 78.6998" stroke="white" stroke-width="2" stroke-linecap="round" stroke-linejoin="round"/>
<path d="M102.74 77.6203C102.74 77.6203 104.636 78.1601 103.618 80.2047" stroke="white" stroke-width="2" stroke-linecap="round" stroke-linejoin="round"/>
<path d="M126.884 77.6203C126.884 77.6203 124.988 78.1601 126.007 80.2047" stroke="white" stroke-width="2" stroke-linecap="round" stroke-linejoin="round"/>
</g>
</g>
<defs>
<radialGradient id="paint0_radial_1_786" cx="0" cy="0" r="1" gradientUnits="userSpaceOnUse" gradientTransform="translate(116.524 31.6062) scale(59.4629 59.8048)">
<stop stop-color="#555761"/>
<stop offset="1" stop-color="#16181E"/>
</radialGradient>
<clipPath id="clip0_1_786">
<rect width="209" height="113" fill="white"/>
</clipPath>
</defs>
</svg>
