<svg width="209" height="113" viewBox="0 0 209 113" fill="none" xmlns="http://www.w3.org/2000/svg">
<mask id="mask0_1_828" style="mask-type:luminance" maskUnits="userSpaceOnUse" x="0" y="0" width="209" height="113">
<path d="M209 0H0V112.418H209V0Z" fill="white"/>
</mask>
<g mask="url(#mask0_1_828)">
<path d="M159.331 94.7871L134.608 29.6852L140.039 21.396L159.732 94.6419L159.331 94.7871Z" fill="#474B4F"/>
<path d="M141.179 21.7999C141.179 21.7999 141.096 21.6319 141.115 21.6455C141.259 21.889 141.368 22.1518 141.438 22.4259C141.566 22.9068 141.662 23.4013 141.785 23.8868C141.908 24.3723 142.068 24.9893 142.204 25.5384C142.382 26.2325 142.56 26.9267 142.733 27.6163L143.363 30.0799L144.088 32.8611C144.352 33.8955 144.612 34.9255 144.876 35.9553C145.159 37.0714 145.443 38.1876 145.729 39.3037L146.641 42.8653C146.96 44.1084 147.275 45.3515 147.594 46.5947C147.913 47.8379 148.246 49.1627 148.574 50.4466C148.903 51.7306 149.24 53.0736 149.578 54.3893L150.59 58.3683L151.602 62.3427L152.601 66.2763C152.929 67.5588 153.256 68.8413 153.581 70.1238L154.529 73.8442L155.441 77.3875L156.289 80.7223L157.069 83.7939C157.306 84.7194 157.542 85.6449 157.776 86.5705C157.986 87.3811 158.192 88.1933 158.396 89.0069L158.92 91.0531L159.331 92.6773C159.431 93.0584 159.527 93.4441 159.627 93.8298C159.677 94.043 159.732 94.2562 159.787 94.4695C159.801 94.5078 159.812 94.5473 159.819 94.5875L159.691 94.6419L139.665 25.4839C140.057 24.5084 140.449 23.5284 140.846 22.553C140.9 22.4078 140.937 22.2535 140.992 22.0993C141.046 21.945 141.087 21.7953 141.179 21.7999Z" fill="#282930"/>
<path d="M101.655 80.863C101.951 80.3502 102.234 79.8693 102.444 79.4792C103.697 77.1245 105.038 74.7788 106.338 72.5058C107.965 69.6519 104.514 68.7264 106.018 65.7591L131.01 20.8425C131.075 20.6781 131.196 20.542 131.352 20.4588C131.509 20.3756 131.69 20.3508 131.863 20.3888H138.858C139.058 20.3602 139.261 20.4036 139.432 20.5113L140.928 21.6092L140.745 22.1854L122.201 65.3463C120.942 68.3498 117.021 70.3688 115.772 73.3768L112.758 80.6361C112.548 81.0762 99.6393 84.3065 101.655 80.863Z" fill="#474B4F"/>
<path d="M139.072 20.9287C139.236 20.4115 139.377 20.534 139.459 20.5476L141.014 21.5186C141.078 21.6002 141.137 21.6864 141.197 21.7726C140.741 23.6192 131.421 43.7908 131.421 43.7908L130.367 38.4825C130.367 38.4825 138.16 23.9594 139.072 20.9287Z" fill="#282930"/>
<path d="M136.094 33.587L139.665 25.4839L144.065 51.0955L146.326 48.1872L147.79 47.4658L148.989 52.1843L147.17 51.4493L144.749 55.1016L145.155 57.4427L136.094 33.587Z" fill="#110E19"/>
<path d="M139.432 20.5385C139.432 20.5385 139.013 19.7037 137.731 22.8797C137.02 24.091 136.199 25.7652 135.36 27.4167C134.941 28.2469 134.544 29.0908 134.17 29.8802C133.796 30.6697 133.431 31.4047 133.153 32.0444C132.574 33.3193 132.209 34.1768 132.209 34.1768L132.903 34.5126C132.903 34.5126 132.711 34.939 133.359 33.6959C133.691 33.0789 134.056 31.4864 134.448 30.706C134.84 29.9256 135.388 28.9275 135.784 28.0836C136.578 26.3959 138.315 23.6192 138.83 22.3125L139.432 20.5385Z" fill="#606369"/>
<path d="M139.665 25.4839C139.781 26.515 139.963 27.5377 140.207 28.5464C140.663 30.4655 141.315 31.7223 142.223 34.9935C142.679 36.6177 143.422 39.0768 143.955 40.9416C144.489 42.8063 145.164 44.9251 145.779 46.9486C146.983 50.9911 148.1 55.8367 149.381 60.1468C151.976 68.7672 154.57 77.3875 156.513 83.8483L159.81 94.6011C159.81 94.6011 158.61 90.2636 156.818 83.7576C155.026 77.2514 152.55 68.5993 150.116 59.9381C148.88 55.6098 147.649 51.2815 146.495 47.2344C145.907 45.2109 145.342 43.2509 144.804 41.3952L143.262 36.1686C142.264 32.9292 141.274 29.2678 140.622 27.4167C139.984 24.5311 139.665 25.4839 139.665 25.4839Z" fill="#606369"/>
<path d="M31.9181 37.3527C32.096 37.1305 32.4334 37.2893 32.4334 37.2893L32.7663 37.8926L35.4474 41.976L36.2818 42.5794L0.383018 104.17H0.34654L0 103.993L1.15361 101.565L4.22687 95.0911C5.70423 91.9878 7.1831 88.8829 8.6635 85.7766L13.8616 74.8286C15.6581 71.0479 17.4577 67.2563 19.2603 63.4544L24.276 52.8604L28.3798 44.24C28.9862 42.9606 29.5197 41.6448 30.1262 40.3608C30.6212 39.3012 31.2215 38.2934 31.9181 37.3527Z" fill="#474B4F"/>
<path d="M0.346563 104.165L0.145935 104.065L33.2861 39.7574L37.5494 43.9269L0.506154 104.192L0.346563 104.165Z" fill="#282930"/>
<path d="M32.1279 37.3437C32.1279 37.3437 32.7936 37.3119 32.4471 37.2893L67.1695 62.9552L73.1746 67.4922L78.008 71.1219C78.3043 71.3443 78.7785 71.6483 79.3257 71.9976C82.0023 73.7125 86.7535 75.5273 85.454 78.6353C84.2366 81.5526 83.9903 84.5334 81.1405 84.3792C77.748 84.2204 72.7369 78.6035 70.7169 76.7796C63.2937 70.0875 61.4607 68.5903 56.6365 63.781C50.9915 58.146 48.0642 55.51 42.9892 50.8823C38.6255 46.8941 35.2376 43.623 30.874 39.6485C30.5046 39.2991 31.8315 37.5796 32.1279 37.3437Z" fill="#474B4F"/>
<path d="M32.3741 37.1078C33.2861 36.9807 39.8111 37.1078 40.2761 37.3891C40.9089 37.8509 41.5049 38.3606 42.059 38.9135L44.5623 41.0822L51.7165 47.307C54.6803 49.8931 57.6396 52.4837 60.5943 55.079C63.6828 57.8012 66.7636 60.5234 69.8369 63.2456C72.5971 65.6956 75.342 68.1592 78.0718 70.6364C80.0461 72.4512 82.0205 74.2297 83.9356 76.0809C84.4645 76.5981 84.9935 77.1153 85.4905 77.6644C85.6546 77.8458 86.0285 78.1543 86.0604 78.422C86.2428 80.078 84.2365 83.2857 80.2969 81.0172C78.5597 80.0236 76.9957 78.6352 75.4499 77.3422C72.86 75.1735 70.3385 72.9231 67.8261 70.6546C64.7528 67.8779 61.7039 65.0711 58.6792 62.2339C55.5239 59.2939 52.3838 56.3358 49.2588 53.3595C46.4409 50.6826 43.6291 47.9982 40.8233 45.3061C38.7578 43.328 36.7606 41.2819 34.654 39.3627C32.5474 37.4435 32.3741 37.1305 31.9181 37.3527C31.827 37.3981 32.1142 37.1441 32.3741 37.1078Z" fill="#282930"/>
<path d="M85.0983 80.3367C85.0983 80.3367 84.9159 83.3765 79.4488 80.4863C73.9817 77.5963 70.2974 73.0093 66.5721 69.543C62.8468 66.0767 61.7114 56.0318 61.7114 56.0318L85.8187 77.011L85.0983 80.3367Z" fill="#110E19"/>
<path d="M36.8016 45.1383L32.5474 41.182L23.779 66.3309L36.8016 45.1383Z" fill="#110E19"/>
<path d="M101.459 80.2323C101.467 81.0992 101.743 81.9426 102.25 82.6478C102.756 83.3532 103.469 83.8863 104.29 84.175C107.938 85.6268 111.969 84.8237 114.281 79.4111C116.989 73.0592 116.278 75.3912 116.278 75.3912L101.459 80.2323Z" fill="#231F20"/>
<path d="M136.154 44.9433C136.154 55.004 132.138 64.653 124.99 71.7684C117.841 78.8837 108.145 82.8828 98.0343 82.8864C76.9729 82.8864 60.8497 65.2919 60.8497 44.3217C60.8497 23.3515 76.9592 7 98.0343 7C108.145 7.00361 117.841 11.0028 124.99 18.1182C132.138 25.2335 136.154 34.8824 136.154 44.9433Z" fill="url(#paint0_radial_1_828)"/>
<path d="M94.4914 74.4112C78.1538 74.4112 64.8531 60.8001 64.8531 44.0902C64.8531 27.3803 78.1447 13.7693 94.4914 13.7693C110.838 13.7693 124.13 27.3803 124.13 44.0902C124.125 61.9435 111.941 74.4112 94.4914 74.4112ZM94.4914 25.6291C84.542 25.6291 76.4485 33.9092 76.4485 44.0902C76.4485 54.2714 84.542 62.556 94.4914 62.556C100.091 62.556 104.728 60.7412 107.902 57.2794C110.893 54.0264 112.539 49.3441 112.539 44.0902C112.539 33.9092 104.445 25.6291 94.4914 25.6291Z" fill="#110E19"/>
<path d="M94.4914 75.2733C77.6888 75.2733 64.0233 61.2856 64.0233 44.0948C64.0233 26.904 77.6888 12.8981 94.4914 12.8981C111.294 12.8981 124.964 26.8858 124.964 44.0812C124.964 62.4517 112.434 75.2733 94.4914 75.2733ZM94.4914 14.6313C78.619 14.6313 65.7012 27.8477 65.7012 44.0948C65.7012 60.3419 78.619 73.5537 94.4914 73.5537C111.444 73.5537 123.286 61.4399 123.286 44.0948C123.286 27.8704 110.368 14.6313 94.4914 14.6313ZM94.4914 63.418C84.0815 63.418 75.605 54.7477 75.605 44.0948C75.605 33.4418 84.0815 24.767 94.4914 24.767C104.901 24.767 113.378 33.4373 113.378 44.0948C113.378 49.5393 111.654 54.4574 108.513 57.8692C105.179 61.4988 100.314 63.418 94.4914 63.418ZM94.4914 26.4866C85.0072 26.4866 77.2875 34.3856 77.2875 44.0948C77.2875 53.804 85.0072 61.6985 94.4914 61.6985C99.8536 61.6985 104.281 59.9653 107.291 56.7078C110.131 53.6135 111.7 49.14 111.7 44.1129C111.714 34.3856 103.962 26.5093 94.4914 26.5093V26.4866Z" fill="#606369"/>
<path d="M94.6419 71.5166C80.2605 71.5166 68.5602 59.5434 68.5602 44.8298C68.5602 30.1161 80.2513 18.1429 94.6419 18.1429C109.032 18.1429 120.719 30.1388 120.719 44.8298C120.719 60.537 109.994 71.5166 94.6419 71.5166ZM94.6419 28.5781C85.8826 28.5781 78.7557 35.8692 78.7557 44.8298C78.7557 53.7904 85.8826 61.0814 94.6419 61.0814C99.5664 61.0814 103.647 59.4754 106.442 56.4356C109.073 53.5727 110.523 49.453 110.523 44.8298C110.523 35.8692 103.397 28.5781 94.6419 28.5781Z" fill="#1B1D23"/>
<path d="M94.1813 25.9376C83.8079 25.9376 75.3633 34.5579 75.3633 45.1927C75.3633 55.8276 83.8079 64.4434 94.1813 64.4434C100.022 64.4434 104.856 62.5424 108.161 58.9399C111.28 55.5508 112.999 50.6644 112.999 45.1927C112.999 34.5716 104.559 25.9376 94.1813 25.9376Z" fill="#231F20"/>
<path d="M94.1449 66.6484C82.0297 66.6484 72.1715 56.5625 72.1715 44.1673C72.1715 31.7723 82.0297 21.6818 94.1449 21.6818C106.26 21.6818 116.118 31.7677 116.118 44.1673C116.118 57.4019 107.081 66.6484 94.1449 66.6484Z" fill="white"/>
<path d="M105.909 51.6671L94.6327 58.3275C94.485 58.4145 94.3165 58.4604 94.1448 58.4604C93.9732 58.4604 93.8047 58.4145 93.657 58.3275L82.3807 51.6671C82.2406 51.5814 82.1251 51.4613 82.0452 51.3182C81.9654 51.1752 81.9239 51.0141 81.9248 50.8504V37.4798C81.9239 37.3162 81.9654 37.1551 82.0452 37.012C82.1251 36.869 82.2406 36.7489 82.3807 36.6631L93.657 30.0028C93.8047 29.9157 93.9732 29.8698 94.1448 29.8698C94.3165 29.8698 94.485 29.9157 94.6327 30.0028L105.909 36.6631C106.049 36.7489 106.165 36.869 106.244 37.012C106.324 37.1551 106.366 37.3162 106.365 37.4798V50.8504C106.366 51.0141 106.324 51.1752 106.244 51.3182C106.165 51.4613 106.049 51.5814 105.909 51.6671Z" fill="#E74139"/>
<path opacity="0.79" d="M76.2205 46.386C76.2352 45.2999 76.6697 44.2612 77.4339 43.4856C78.1981 42.7099 79.2333 42.2571 80.3243 42.221C80.8532 42.2198 81.3771 42.3225 81.8661 42.523C82.3551 42.7236 82.7995 43.0181 83.1739 43.3898C83.5484 43.7616 83.8454 44.2031 84.0481 44.6892C84.2508 45.1753 84.3551 45.6964 84.3551 46.2227V46.5493C84.3557 47.076 84.2518 47.5976 84.0494 48.0842C83.847 48.5708 83.55 49.0129 83.1756 49.385C82.8011 49.7573 82.3564 50.0523 81.8672 50.2531C81.3779 50.454 80.8536 50.5568 80.3243 50.5556C79.2333 50.5195 78.1981 50.0666 77.4339 49.291C76.6697 48.5154 76.2352 47.4766 76.2205 46.3905V46.386Z" fill="white"/>
<path opacity="0.79" d="M75.3633 42.8426C75.3629 42.4843 75.4572 42.1322 75.6369 41.8218C75.8095 41.4753 76.076 41.1838 76.4064 40.9802C76.7367 40.7765 77.1177 40.6689 77.5064 40.6694C78.0626 40.6694 78.5961 40.8893 78.9895 41.2806C79.3829 41.672 79.6038 42.2029 79.6038 42.7564V42.9287C79.6038 43.4823 79.3829 44.0131 78.9895 44.4046C78.5961 44.7959 78.0626 45.0158 77.5064 45.0158C77.1179 45.0158 76.7371 44.9078 76.4068 44.7043C76.0766 44.5007 75.8099 44.2095 75.6369 43.8634C75.4578 43.5526 75.3635 43.2008 75.3633 42.8426Z" fill="white"/>
<path d="M127.098 63.3772L154.297 33.8865L155.843 34.44L156.226 34.8529L162.035 34.3991C162.336 34.5489 162.646 34.694 162.947 34.8302C159.372 38.977 128.521 74.7561 124.189 79.588C121.49 82.578 117.349 84.8646 115.462 83.4944C114.908 83.0709 114.468 82.5182 114.18 81.8851C113.892 81.2521 113.765 80.5582 113.811 79.8647C113.829 77.4329 125.539 65.1375 127.098 63.3772Z" fill="#282930"/>
<path d="M154.689 33.6506L161.843 34.3175C162.796 34.431 162.956 34.1632 163.772 35.1841L209 104.601C208.85 104.673 208.708 104.755 208.544 104.832L154.397 33.7413L154.689 33.6506Z" fill="#282930"/>
<path d="M154.023 33.8411C154.096 33.8094 154.315 33.764 154.393 33.7413L208.562 104.855L208.302 105L151.506 36.7538L154.023 33.8411Z" fill="#474B4F"/>
<path d="M115.069 76.5619C117.317 73.5765 152.081 35.9599 153.987 33.9136L153.262 39.0043C153.262 39.0043 125.256 70.1328 122.256 73.3043C116.086 79.8103 113.806 82.283 115.457 83.5353C115.452 83.5216 111.54 81.2486 115.069 76.5619Z" fill="#474B4F"/>
<path d="M153.344 38.9634L154.105 45.1156L156.326 42.5476L153.344 38.9634Z" fill="#110E19"/>
<path d="M84.3004 81.5072C84.0342 81.606 83.7615 81.6863 83.4842 81.7476C82.9244 81.7769 82.3655 81.6759 81.8518 81.4527C80.9302 81.046 80.0582 80.5361 79.2527 79.9328C77.4608 78.4583 76.3345 77.7233 74.9483 76.4439C73.7628 75.3459 72.3584 74.012 70.9996 72.7507C69.6408 71.4894 68.241 69.9922 66.7591 68.6129C63.7907 65.8454 61.3102 63.3863 58.1457 60.4463L48.8621 51.7579C45.8846 49.0038 43.1077 46.4314 40.723 44.2309C38.3382 42.0304 36.2727 40.2883 34.9504 38.9316C34.0384 37.988 32.3057 36.4908 31.7266 37.6296C33.2906 38.0832 34.7953 39.5669 35.9535 40.6965C36.9019 41.604 39.6697 44.181 40.837 45.3107C43.1716 47.5793 45.1915 49.4757 48.1325 52.2705C51.0736 55.0653 53.2486 57.2931 56.4085 60.2466C59.5684 63.2002 61.4242 64.9742 64.3926 67.7327C65.8927 69.0938 68.551 72.0747 69.9281 73.3224C72.3219 75.4366 74.424 77.442 76.9318 79.4202C78.3865 80.5463 79.9802 81.4826 81.674 82.2059C82.1509 82.3812 82.6681 82.4173 83.165 82.3102C83.404 82.2735 83.631 82.1818 83.8281 82.0424C84.0252 81.9029 84.1869 81.7197 84.3004 81.5072Z" fill="#606369"/>
<path d="M32.5474 41.182C32.5474 41.182 32.4106 41.0777 32.0641 41.4769C31.7914 41.7961 31.553 42.1429 31.3528 42.5113C31.1841 42.8426 30.988 43.2282 30.7646 43.6593C29.8845 45.3788 28.6215 47.8379 27.1168 50.7915L21.946 60.8772C20.0583 64.5705 18.0475 68.5086 16.0184 72.4468C12.0286 80.3412 8.00692 88.222 5.07501 94.1701C2.1431 100.118 0.145935 104.065 0.145935 104.065L5.33035 94.3107C8.45833 88.467 12.5439 80.6225 16.6522 72.7961L22.6482 61.2765C24.5542 57.5971 25.8811 54.471 27.404 51.5174C28.927 48.5638 31.6947 43.4188 32.8985 41.5042L32.5474 41.182Z" fill="#606369"/>
<path d="M153.344 38.9634C153.344 38.9634 153.184 38.5098 152.117 39.6984C151.05 40.8872 148.684 43.3915 146.855 45.4378C145.027 47.484 142.884 49.8569 140.613 52.4293L133.486 60.4644C131.056 63.1867 128.621 65.9089 126.309 68.4541C125.151 69.7215 124.025 70.9193 122.93 72.0475C121.836 73.1772 120.806 74.2524 119.871 75.2597C118.936 76.2669 118.106 77.2197 117.395 78.0818C116.768 78.8218 116.199 79.609 115.694 80.4365C115.36 80.9648 115.115 81.5441 114.969 82.1514C114.932 82.3106 114.915 82.4737 114.919 82.6369C114.919 82.7503 114.919 82.8048 114.919 82.8048V82.6369C114.925 82.4752 114.952 82.315 115.001 82.1606C115.187 81.5753 115.469 81.0249 115.835 80.5317C116.398 79.7548 117.007 79.0124 117.659 78.3086C118.403 77.4829 119.287 76.5936 120.24 75.6136C121.193 74.6336 122.26 73.5946 123.382 72.4966C124.504 71.3987 125.662 70.1963 126.856 68.9577C129.223 66.4715 130.96 64.3345 133.445 61.6486C135.93 58.9626 138.388 56.2041 140.681 53.6725C142.975 51.1409 145.241 48.4957 147.065 46.4132C148.889 44.3307 151.529 41.5086 152.587 40.3109C152.706 40.1748 153.321 39.4035 153.408 39.29L153.344 38.9634Z" fill="#606369"/>
<path d="M154.174 33.714C154.111 33.7397 154.055 33.7779 154.007 33.8264C153.96 33.8747 153.924 33.9323 153.9 33.9953C154.247 34.5489 154.725 34.3991 155.455 35.3564C156.941 37.2983 160.411 42.2527 162.956 45.583C168.085 52.2161 172.157 57.9191 180.315 68.4269C187.154 77.2651 194.824 87.1876 199.963 93.8344L208.562 104.85L200.222 93.6573C195.207 86.9471 188.495 78.0001 181.797 69.0485L171.943 55.9138L167.383 49.8977L163.28 44.5259L157.046 36.4908C156.285 35.5334 155.282 34.1405 154.835 33.6596C154.614 33.6051 154.382 33.6242 154.174 33.714Z" fill="#606369"/>
<path d="M76.1476 61.3582C78.473 63.9474 81.3216 66.0188 84.5071 67.437C87.6925 68.8553 91.143 69.5885 94.6327 69.5885C98.1225 69.5885 101.573 68.8553 104.758 67.437C107.944 66.0188 110.792 63.9474 113.118 61.3582H76.1476Z" fill="#1B1D23"/>
<path d="M119.068 44.0948C119.068 43.75 119.091 43.4052 119.091 43.0513C119.091 36.4873 116.471 30.1922 111.806 25.5507C107.141 20.9093 100.815 18.3018 94.2178 18.3018C87.621 18.3018 81.2944 20.9093 76.6297 25.5507C71.9651 30.1922 69.3445 36.4873 69.3445 43.0513C69.3464 44.1667 69.4225 45.2807 69.5725 46.386L119.068 44.0948Z" fill="#1B1D23"/>
<path d="M103.506 67.0204H84.8111C84.6488 66.9939 84.5013 66.9111 84.3949 66.7864C84.2885 66.6617 84.23 66.5035 84.23 66.3399C84.23 66.1763 84.2885 66.018 84.3949 65.8934C84.5013 65.7688 84.6488 65.6858 84.8111 65.6593H103.506C103.668 65.6858 103.816 65.7688 103.922 65.8934C104.029 66.018 104.087 66.1763 104.087 66.3399C104.087 66.5035 104.029 66.6617 103.922 66.7864C103.816 66.9111 103.668 66.9939 103.506 67.0204Z" fill="white"/>
</g>
<defs>
<radialGradient id="paint0_radial_1_828" cx="0" cy="0" r="1" gradientUnits="userSpaceOnUse" gradientTransform="translate(92.476 19.5267) rotate(180) scale(59.4635 59.1675)">
<stop stop-color="#555761"/>
<stop offset="1" stop-color="#16181E"/>
</radialGradient>
</defs>
</svg>
