<svg width="209" height="113" viewBox="0 0 209 113" fill="none" xmlns="http://www.w3.org/2000/svg">
<g clip-path="url(#clip0_1_868)">
<mask id="mask0_1_868" style="mask-type:luminance" maskUnits="userSpaceOnUse" x="0" y="0" width="209" height="113">
<path d="M209 0H0V113H209V0Z" fill="white"/>
</mask>
<g mask="url(#mask0_1_868)">
<mask id="mask1_1_868" style="mask-type:luminance" maskUnits="userSpaceOnUse" x="35" y="-13" width="159" height="127">
<path d="M194 -13H35V113.419H194V-13Z" fill="white"/>
</mask>
<g mask="url(#mask1_1_868)">
<path d="M128.172 17.764C127.823 18.2088 127.47 18.6497 127.121 19.0906C127.152 16.7902 125.478 14.7045 123.76 12.8603C122.042 11.0162 120.147 9.13757 119.612 6.87165C118.734 7.71823 118.093 8.77482 117.751 9.93881C117.196 8.02185 115.459 6.46523 113.959 4.89716C112.459 3.32905 111.075 1.44656 111.444 -0.512611C109.543 1.52325 107.105 3.14893 104.934 4.98158C102.763 6.81418 100.809 8.96121 100.235 11.5376C98.551 10.2159 97.3369 8.39734 96.7694 6.34643C94.7131 9.38257 93.2241 12.7588 92.3731 16.3148C90.9281 15.6838 89.5986 14.821 88.4381 13.7614C88.6086 15.8317 87.3835 17.8101 87.5463 19.8958C87.6782 21.5406 88.6706 23.0742 89.8182 24.443C90.8859 25.8221 92.2601 26.9397 93.8345 27.7095C95.2572 28.2763 96.7547 28.6378 98.2813 28.783C104.615 29.6542 111.009 30.0119 117.402 29.8527C119.643 29.799 123.008 30.0789 124.802 28.7792C125.966 27.9242 126.451 26.2526 127.129 25.1177C127.841 24.0411 128.323 22.8314 128.543 21.5636C128.643 20.8982 128.654 20.2229 128.578 19.5546C128.563 19.2632 128.044 17.9251 128.172 17.764Z" fill="#FF8206"/>
<path d="M154.127 51.534L157.019 46.8795L156.794 46.5574L157.841 45.5605C157.992 45.3343 158.811 46.5612 159.004 46.8488L159.81 48.0297L162.055 51.3193C163.034 52.7531 164.014 54.1896 164.994 55.6287L168.456 60.701L172.259 66.2756L176.233 72.1149L180.194 77.9234L183.974 83.4636L187.394 88.4745C188.355 89.8804 189.316 91.2861 190.275 92.6922L192.446 95.8704L193.725 97.749C193.818 97.8796 193.907 98.0133 194 98.1324L193.682 98.4312L153.437 52.1052L154.127 51.534Z" fill="#F92A08"/>
<path d="M193.675 98.4428L153.108 52.0517L156.81 48.8004L193.88 98.2589L193.675 98.4428Z" fill="#E74139"/>
<path d="M153.437 53.2133L162.722 63.0398L156.81 48.785L153.437 53.2133Z" fill="#FF541B"/>
<path d="M125.749 79.1657C125.981 78.9433 126.198 78.7363 126.358 78.5676C127.37 77.4865 128.439 76.4359 129.459 75.4199C130.75 74.1509 132.088 72.8396 133.297 71.4824L156.558 45.2042L157.155 45.1351L157.648 45.3268C157.914 45.4405 158.142 45.6282 158.303 45.8674L158.83 46.6342L158.586 46.7301L139.272 74.0627C138.237 75.5196 137.209 76.9778 136.189 78.4372L133.7 81.9799C133.556 82.1831 133.355 82.5282 133.126 82.9269C132.021 84.8439 130.168 88.0376 127.428 88.0376C126.326 88.0376 125.248 87.52 124.214 86.504C123.818 86.1513 123.501 85.7216 123.28 85.2421C123.06 84.7625 122.942 84.2433 122.935 83.7167C123.004 81.7959 124.648 80.2124 125.749 79.1657Z" fill="#F92A08"/>
<path d="M125.919 75.002C126 74.055 130.723 71.3098 130.723 71.3098L131.944 69.9296L135.1 66.3639L139.426 61.4833L144.16 56.1387L148.537 51.1966L151.801 47.5161C152.309 46.9409 152.743 46.2623 153.39 45.8252C153.765 45.6218 154.184 45.5113 154.611 45.5032L156.194 45.277C156.459 45.1929 156.737 45.1527 157.016 45.1581L157.151 45.2463C156.689 45.9211 131.863 82.3748 129.862 84.0809C127.862 85.7871 125.376 85.7257 122.968 83.6975C121.252 82.2636 125.842 75.949 125.919 75.002Z" fill="#E74139"/>
<path d="M124.338 83.5479C124.338 83.5479 124.679 86.6726 128.121 85.2386C131.564 83.8048 139.589 68.5071 141.884 64.4967C144.179 60.4863 147.048 53.1825 144.16 56.1424C139.86 60.5515 127.609 77.6128 126.358 78.5675C125.105 79.5221 124.338 83.5479 124.338 83.5479Z" fill="#FF541B"/>
<path d="M157.632 45.3076C157.551 45.2482 157.459 45.2062 157.36 45.1844C157.262 45.1626 157.161 45.1615 157.062 45.1811C156.95 45.221 156.851 45.2868 156.771 45.3728C156.689 45.4456 156.608 45.5301 156.515 45.6259C156.316 45.8414 156.128 46.0666 155.953 46.3007C155.178 47.3512 154.139 48.881 152.902 50.7213L143.849 64.2323C140.562 69.1513 137.259 74.0474 134.708 77.6896C133.444 79.5146 132.382 81.0175 131.587 82.0527C131.199 82.5665 130.881 82.9652 130.653 83.226C130.539 83.3597 130.419 83.4877 130.292 83.6093C130.428 83.4883 130.558 83.3604 130.68 83.226C130.916 82.973 131.246 82.5818 131.654 82.0758C132.467 81.0636 133.591 79.5913 134.91 77.8046C137.542 74.2275 140.935 69.3699 144.318 64.5198L149.281 57.3848C150.056 56.2346 150.831 55.1572 151.56 54.099L153.55 51.1123C154.751 49.2452 155.693 47.6617 156.391 46.5729C156.557 46.3007 156.709 46.0591 156.84 45.8521C156.932 45.6826 157.041 45.5232 157.167 45.3767C157.268 45.3128 157.388 45.282 157.508 45.2885C157.549 45.2915 157.591 45.2979 157.632 45.3076Z" fill="#FF541B"/>
<path d="M156.996 49.0305C157.043 49.2504 157.123 49.4622 157.232 49.6592C157.543 50.1867 157.892 50.6916 158.275 51.1699L162.152 56.43L167.719 63.8182L174.124 72.253L186.142 88.0645L191.624 95.2458L186.286 87.9609L174.488 72.0076C172.336 69.1091 170.189 66.2068 168.176 63.4885L162.649 56.0736L158.69 50.8631C158.337 50.3606 157.949 49.884 157.527 49.4369C157.37 49.2777 157.191 49.1409 156.996 49.0305Z" fill="#FF541B"/>
<path d="M65.7238 35.3085L65.9331 35.159C66.9565 34.4689 67.5342 34.6874 69.4222 34.7373C70.9381 34.7794 71.7483 34.5954 72.4384 35.5501C72.5335 35.6993 72.619 35.8542 72.6942 36.0139L74.1171 38.5905L76.4432 42.8462C77.4202 44.6149 78.3945 46.3825 79.3662 48.1487L82.5259 53.8766L85.5731 59.4091L88.1706 64.1211C88.7676 65.21 89.3672 66.2988 89.9694 67.3877L90.6284 68.5839L94.2727 73.9285L97.25 78.2916C97.4284 78.5561 97.7346 78.9395 98.0875 79.3804C99.8088 81.5466 102.41 84.8171 101.689 87.5391C101.379 88.7162 100.507 89.6057 99.0915 90.1846C98.5769 90.4036 98.0235 90.5196 97.4633 90.5259C94.5596 90.5259 93.0631 87.3053 92.0707 85.1774C91.904 84.8208 91.7489 84.4873 91.6131 84.2304C90.7874 82.6508 90.0043 81.0252 89.2483 79.4533C88.2985 77.4787 87.3099 75.4391 86.2476 73.499L65.4485 35.6229L65.7238 35.3085Z" fill="#FF541B"/>
<path d="M35.1396 99.03L66.7396 37.9655L70.3721 43.6744L35.3451 99.1177L35.1396 99.03Z" fill="#FF541B"/>
<path d="M67.2202 37.9655L70.7171 43.498L57.5592 63.9562L67.2202 37.9655Z" fill="#FF541B"/>
<path d="M35 98.9526L36.6437 95.5216C38.0627 92.5669 39.4842 89.6121 40.9083 86.6573L46.7235 74.5036C48.8481 70.0714 50.9712 65.6394 53.0931 61.2072C55.0573 57.1176 57.0216 53.0191 58.9859 48.9116C60.4514 45.8598 61.9142 42.8066 63.3745 39.7522C64.1769 38.0767 65.2624 35.044 66.3597 34.8638C67.2707 34.5571 68.0965 36.8038 68.4492 37.4057L70.5001 40.9139L73.6015 46.2355C73.6248 46.2777 77.9514 53.2862 77.9475 53.336V58.3586L67.4568 39.2652C67.4304 39.2145 67.3903 39.172 67.3411 39.1423C67.2919 39.1127 67.2353 39.097 67.1777 39.097C67.12 39.097 67.0634 39.1127 67.0141 39.1423C66.9649 39.172 66.9249 39.2145 66.8985 39.2652L35.283 99.0906L35 98.9526Z" fill="#F92A08"/>
<path d="M78.2266 53.1865L72.4811 43.9082L70.3682 40.4998C69.7014 39.4147 69.1082 38.3758 68.6004 37.4901C68.2071 36.7644 67.7762 36.0593 67.3094 35.3776C67.1806 35.1837 67.0131 35.018 66.817 34.8906C66.7452 34.8508 66.6623 34.8347 66.5806 34.8446C66.6618 34.8378 66.7433 34.8567 66.8131 34.8983C67.0052 35.0273 67.1666 35.1961 67.2861 35.3929C67.7306 36.0871 68.1382 36.8038 68.5073 37.54C68.988 38.4409 69.5463 39.4953 70.186 40.6071L72.198 44.0577L77.6798 53.4933L78.2266 53.1865Z" fill="#FF541B"/>
<path d="M108.171 25.3172C103.678 25.3162 99.235 26.2622 95.1399 28.0921C91.0448 29.922 87.3909 32.5939 84.4217 35.9296C79.4827 41.4583 77.9512 47.7729 77.9512 55.7131C77.9512 62.0085 80.2774 67.8631 83.2121 72.6172C88.787 81.6195 96.7345 87.9954 108.171 87.9954C116.576 87.9954 124.636 84.6936 130.579 78.8164C136.522 72.9391 139.86 64.9679 139.86 56.6562C139.86 48.3446 136.522 40.3734 130.579 34.4962C124.636 28.6189 116.576 25.3172 108.171 25.3172Z" fill="url(#paint0_radial_1_868)"/>
<path d="M93.6138 48.2137C93.0956 48.2217 92.5832 48.3231 92.1018 48.5128C89.9075 49.3792 89.0469 51.879 88.7251 53.2937C88.0622 56.2306 88.4653 59.8499 89.8338 63.2238C91.7025 67.8246 95.9864 72.7015 100.239 72.6172C100.756 72.6087 101.267 72.5074 101.747 72.318C105.927 70.6617 106.299 63.2353 104.015 57.6031C102.147 52.9871 97.8627 48.1294 93.6138 48.2137Z" fill="#110E19"/>
<path d="M102.6 84.3838C93.827 84.5602 85.046 77.5516 80.7504 66.9467C78.339 61.0041 77.6993 54.7048 78.9399 49.2145C80.3123 43.1567 83.9449 38.5559 88.9073 36.5891C90.5771 35.9282 92.3543 35.5722 94.1526 35.5386C102.926 35.3622 111.707 42.3708 116.002 52.9757C121.313 66.0841 117.732 79.4303 107.861 83.3333C106.187 83.996 104.404 84.3519 102.6 84.3838ZM92.1327 45.6834C91.5032 45.6922 90.8805 45.8143 90.2951 46.0438C87.6317 47.0981 86.585 50.1385 86.1935 51.8522C85.3871 55.4178 85.8794 59.8193 87.5388 63.9179C89.8145 69.527 95.0172 75.4199 100.181 75.3278C100.809 75.3194 101.431 75.1972 102.015 74.9675C107.093 72.9546 107.543 63.9294 104.771 57.0895C102.519 51.488 97.3161 45.5836 92.1522 45.6872L92.1327 45.6834Z" fill="#E93B1B"/>
<path d="M102.274 85.2656C93.3578 85.2656 84.4411 78.0845 80.1107 67.3992C77.6527 61.3261 77.0092 54.8888 78.2692 49.2643C79.692 42.9842 83.4758 38.2071 88.6513 36.1558C90.3987 35.4639 92.2589 35.0924 94.141 35.0593H94.4782C103.395 35.0593 112.312 42.2404 116.642 52.9258C119.262 59.4014 119.848 66.1646 118.286 71.9769C116.708 77.8622 113.091 82.1907 108.101 84.1691C106.354 84.8611 104.494 85.2326 102.612 85.2656H102.274ZM94.4782 36.4166H94.168C92.4524 36.4461 90.7565 36.7839 89.1631 37.4134C84.414 39.2959 80.9326 43.7204 79.6105 49.5557C78.401 54.9234 79.033 61.0577 81.39 66.8892C85.5111 77.0647 93.9044 83.9007 102.274 83.9007H102.585C104.301 83.8703 105.997 83.5313 107.59 82.9C112.164 81.0903 115.491 77.0838 116.956 71.6242C118.445 66.0956 117.878 59.6315 115.363 53.4281C111.242 43.2526 102.844 36.4166 94.4782 36.4166ZM100.065 76.2097C95.9165 76.2097 90.0702 72.1418 86.9222 64.3703C85.2087 60.1529 84.7085 55.6019 85.5421 51.9059C85.9608 50.0579 87.0928 46.7799 90.0586 45.6105C90.7206 45.351 91.4246 45.212 92.1366 45.2003H92.2839C96.4321 45.2003 102.282 49.2643 105.43 57.0358C106.864 60.5476 107.416 64.3509 107.039 68.12C106.574 72.0421 104.887 74.7682 102.29 75.788C101.629 76.0458 100.926 76.1835 100.216 76.1944L100.065 76.2097ZM92.2839 46.5613H92.1637C91.6192 46.5689 91.0806 46.6741 90.5743 46.8719C88.2016 47.8112 87.244 50.6138 86.8835 52.2012C86.1081 55.6518 86.5888 59.8884 88.1977 63.8642C90.3572 69.1897 95.2458 74.8486 100.065 74.8486H100.185C100.731 74.8426 101.271 74.7373 101.778 74.5381C103.884 73.7023 105.268 71.3674 105.674 67.9628C106.012 64.42 105.489 60.8487 104.151 57.5458C101.995 52.2203 97.1028 46.5613 92.2839 46.5613Z" fill="#E74139"/>
<path d="M102.902 82.5971C94.9783 82.7544 87.0463 76.4243 83.1618 66.8432C80.9869 61.4756 80.4054 55.7822 81.5297 50.8209C82.7664 45.3498 86.05 41.1899 90.5316 39.4147C92.0416 38.8194 93.6478 38.4985 95.2729 38.4677C103.197 38.3067 111.133 44.6405 115.013 54.2217C119.813 66.061 116.564 78.1114 107.648 81.6501C106.137 82.2463 104.529 82.5671 102.902 82.5971ZM93.4625 47.631C92.8954 47.6403 92.3345 47.7507 91.807 47.957C89.3996 48.9116 88.4497 51.6567 88.1008 53.2056C87.3719 56.43 87.814 60.4021 89.3143 64.1096C91.369 69.1743 96.0677 74.5074 100.735 74.4153C101.304 74.4065 101.866 74.2961 102.395 74.0895C106.981 72.2722 107.388 64.1211 104.883 57.9407C102.844 52.8721 98.1302 47.539 93.4625 47.631Z" fill="#E74139"/>
<path d="M101.902 77.4826C95.7693 77.6053 89.6283 72.7054 86.6199 65.2904C84.9374 61.1306 84.4876 56.7292 85.356 52.8875C86.3175 48.67 88.8452 45.4341 92.3343 44.0692C93.503 43.6064 94.747 43.3582 96.0057 43.3369C102.139 43.2104 108.28 48.1141 111.284 55.5291C114.999 64.6961 112.494 74.0205 105.581 76.7618C104.409 77.2192 103.162 77.4634 101.902 77.4826Z" fill="white"/>
<path d="M117.231 84.3837C117.347 83.9274 118.456 80.6839 118.456 80.6839C118.902 78.5943 120.263 75.3776 120.763 73.3379C121.391 70.7806 122.039 68.1314 122.554 65.5089L132.137 16.1614C132.246 15.9736 132.347 15.778 132.44 15.5901L133.273 15.0879L134.162 15.2681L139.5 17.4267L129.165 64.1593C128.867 66.7358 128.57 69.3148 128.273 71.8963C128.032 73.9974 127.79 76.0971 127.547 78.1956C127.501 78.579 127.47 79.181 127.431 79.8634C127.214 83.9581 126.846 90.8056 122.434 90.8056C121.937 90.8056 120.681 91.5722 120.135 91.3846C116.146 89.9852 116.437 87.4931 117.231 84.3837Z" fill="#E74139"/>
<path opacity="0.1" d="M132.432 22.6562C132.432 22.6562 124.027 65.3287 122.325 72.2261C120.623 79.1234 114.068 93.2595 122.434 91.3118C125.752 90.545 126.978 89.5941 128.548 80.1932C129.272 75.8338 135.736 36.1021 135.736 36.1021L132.432 22.6562Z" fill="white"/>
<path d="M135.03 40.4882L129.599 73.7635L131.727 27.8244L132.312 23.2697L135.03 40.4882Z" fill="#FF541B"/>
<path d="M92.5825 83.2336C92.5825 83.2336 94.8388 85.0662 97.1378 85.7295C98.6931 86.158 100.215 86.6962 101.693 87.3398C101.693 87.3398 101.755 88.651 100.274 89.5405C98.7931 90.43 96.3585 89.3642 95.8661 88.9003C94.1797 87.3091 92.5825 83.2336 92.5825 83.2336Z" fill="#E74139"/>
<path d="M133.568 14.8848C133.825 14.8848 134.076 14.8848 134.343 14.927C134.689 14.9831 135.037 15.0203 135.386 15.0382L139.756 15.9737C139.938 16.0122 140.103 16.1075 140.227 16.2455C140.349 16.3834 140.425 16.557 140.442 16.7404L148.238 113.391C148.063 113.391 147.893 113.391 147.719 113.411L131.944 25.827L133.219 14.9883C133.331 14.9423 133.472 14.9193 133.568 14.8848Z" fill="#E74139"/>
<path d="M132.544 15.3717L132.68 15.2222C132.888 15.1112 133.102 15.0163 133.324 14.9385L147.893 113.407H147.707L131.61 23.2698L132.181 16.0848C132.317 15.8552 132.439 15.617 132.544 15.3717Z" fill="#E74139"/>
<path d="M105.647 64.3664L101.833 70.6656C101.736 70.8254 101.584 70.9449 101.405 71.002C101.226 71.0592 101.032 71.05 100.86 70.9762L94.048 68.0547C93.9467 68.0114 93.8559 67.9474 93.7818 67.8667C93.7076 67.7861 93.6516 67.6907 93.6176 67.5869L90.4386 57.7527C90.4049 57.6488 90.3941 57.5389 90.4068 57.4304C90.4195 57.322 90.4554 57.2175 90.5123 57.1239L94.3155 50.8247C94.4118 50.6659 94.5631 50.547 94.7412 50.4898C94.9194 50.4328 95.1125 50.4413 95.2847 50.5141L102.1 53.4356C102.201 53.4788 102.292 53.5429 102.366 53.6235C102.441 53.7042 102.496 53.7996 102.53 53.9033L105.729 63.7376C105.761 63.842 105.771 63.9523 105.757 64.0607C105.743 64.1692 105.705 64.2733 105.647 64.3664Z" fill="#FF0000"/>
<path opacity="0.82" d="M105.298 58.2243C102.585 58.9529 99.1382 53.3207 102.883 51.6414C103.393 51.4044 103.964 51.3328 104.518 51.4367C105.07 51.5407 105.576 51.815 105.962 52.2203C107.125 53.3092 107.644 55.2876 106.896 56.7368C106.45 57.6033 105.892 58.0633 105.298 58.2243Z" fill="url(#paint1_radial_1_868)"/>
<path d="M100.263 57.3848C99.0995 57.6991 97.5991 55.2683 99.2196 54.5399C99.4393 54.4399 99.6851 54.4102 99.9229 54.4549C100.16 54.4995 100.378 54.6164 100.545 54.7891C100.806 55.0359 100.984 55.3549 101.057 55.7042C101.129 56.0534 101.093 56.4161 100.953 56.7444C100.889 56.8931 100.795 57.0268 100.676 57.1371C100.557 57.2475 100.416 57.3318 100.263 57.3848Z" fill="#FF8206"/>
<path d="M67.2202 39.108L66.8325 39.1578L66.7977 39.2038C66.096 40.1776 65.4486 41.1822 64.8243 42.202L64.363 42.9688L63.9288 43.7662L63.072 45.3382L59.6411 51.6222C58.5207 53.727 57.3886 55.8395 56.2954 57.9444C55.2021 60.0493 54.101 62.1618 53.0155 64.305C50.8484 68.5569 48.6541 72.7935 46.5258 77.0607L43.308 83.4635L40.1484 89.8855L43.6375 83.6322L47.0763 77.3521C49.3791 73.1731 51.6199 68.9595 53.8839 64.7575C55.016 62.6615 56.139 60.558 57.253 58.4467C58.3733 56.338 59.4588 54.2293 60.5521 52.0975L63.7738 45.7063L64.5763 44.1267L64.9639 43.3598L65.3943 42.5739C65.9641 41.5272 66.5069 40.4651 66.9992 39.3686L66.9449 39.4185L67.2202 39.108Z" fill="#E74139"/>
<path d="M146.974 107.196C146.974 107.196 146.199 101.418 145.036 92.7528L142.969 77.9579C142.194 72.552 141.357 66.7817 140.527 61.0116C140.108 58.1284 139.69 55.2606 139.275 52.4043C138.86 49.548 138.425 46.7759 138.019 44.073C137.612 41.37 137.208 38.7629 136.832 36.2861C136.456 33.8094 136.057 31.4745 135.72 29.3159C135.033 24.9988 134.425 21.4063 133.995 18.8912C133.565 16.3761 133.308 14.9423 133.308 14.9423C133.308 14.9423 133.487 16.3876 133.797 18.9181C134.107 21.4485 134.573 25.0525 135.165 29.3964C135.46 31.5627 135.782 33.909 136.119 36.3897C136.456 38.8703 136.851 41.4851 137.239 44.188C137.627 46.891 138.035 49.686 138.449 52.5231L139.744 61.1266C140.616 66.8776 141.492 72.6516 142.31 78.0538C143.129 83.4558 143.942 88.4938 144.636 92.8113C146.04 101.441 146.974 107.196 146.974 107.196Z" fill="#FF541B"/>
<path d="M131.944 25.1408C131.629 25.9992 131.381 26.8796 131.199 27.7747C130.854 29.4693 130.354 31.8963 129.761 34.8063C129.168 37.7163 128.459 41.1093 127.71 44.7478C127.322 46.5652 126.934 48.4438 126.547 50.3532C126.16 52.2625 125.772 54.1872 125.385 56.1501C124.609 60.0301 123.811 63.914 123.015 67.5372C122.221 71.1603 121.243 74.4768 120.488 77.3483C119.732 80.22 119.123 82.6278 118.766 84.3301C118.58 85.1774 118.452 85.8445 118.378 86.3046C118.305 86.7646 118.274 87.0101 118.274 87.0101C118.274 87.0101 118.332 86.7685 118.437 86.3161C118.542 85.8637 118.724 85.2081 118.968 84.3761C119.453 82.7121 120.154 80.3389 121.031 77.498C121.449 76.0716 121.903 74.5266 122.38 72.8972C122.857 71.2676 123.353 69.527 123.744 67.7021C124.547 64.0674 125.346 60.1874 126.144 56.3074C126.532 54.3673 126.939 52.4274 127.331 50.5142C127.721 48.6011 128.074 46.7186 128.431 44.8974C129.137 41.2512 129.796 37.8466 130.37 34.9289C130.649 33.472 130.905 32.1339 131.145 30.9493C131.385 29.7646 131.583 28.7294 131.715 27.8821C131.86 26.9751 131.936 26.0589 131.944 25.1408Z" fill="#FF541B"/>
<path d="M111.467 50.9628L81.3049 60.1644C81.3049 60.1644 81.3436 43.268 92.5825 41.2397C103.821 39.2115 111.467 50.9628 111.467 50.9628Z" fill="#E74139"/>
<path d="M85.9453 69.9947L116.107 60.793C116.107 60.793 116.065 77.6896 104.829 79.7177C93.5943 81.7459 85.9453 69.9947 85.9453 69.9947Z" fill="#E74139"/>
<path d="M95.6334 74.9329C98.4131 70.4279 106.686 68.7179 110.637 70.8266C112.087 71.5935 112.687 74.4076 110.186 75.6191C107.687 76.8306 106.547 75.2051 104.012 75.922C101.476 76.639 101.371 78.6058 98.6031 78.8819C95.835 79.1579 94.7767 76.3323 95.6334 74.9329Z" fill="white" stroke="#412F40" stroke-linecap="round" stroke-linejoin="round"/>
<path d="M95.8661 77.7049C95.8661 77.7049 96.7462 76.3017 99.2467 75.0748" stroke="#412F40" stroke-linecap="round" stroke-linejoin="round"/>
<path d="M97.0098 74.975L98.324 77.0147" stroke="#412F40" stroke-linecap="round" stroke-linejoin="round"/>
<path d="M111.761 73.2269C111.761 73.2269 110.265 72.4946 107.497 72.7553" stroke="#412F40" stroke-linecap="round" stroke-linejoin="round"/>
<path d="M109.327 71.5014L109.299 73.9169" stroke="#412F40" stroke-linecap="round" stroke-linejoin="round"/>
</g>
</g>
</g>
<defs>
<radialGradient id="paint0_radial_1_868" cx="0" cy="0" r="1" gradientUnits="userSpaceOnUse" gradientTransform="translate(108.908 56.6562) rotate(180) scale(31.3247 30.9787)">
<stop stop-color="#FF541B"/>
<stop offset="1" stop-color="#F03C14"/>
</radialGradient>
<radialGradient id="paint1_radial_1_868" cx="0" cy="0" r="1" gradientUnits="userSpaceOnUse" gradientTransform="translate(104.24 54.8389) rotate(180) scale(3.25653 3.22056)">
<stop stop-color="#FF541B"/>
<stop offset="1" stop-color="#F03C14"/>
</radialGradient>
<clipPath id="clip0_1_868">
<rect width="209" height="113" fill="white"/>
</clipPath>
</defs>
</svg>
